<svg width="768" height="421" viewBox="0 0 768 421" fill="none" xmlns="http://www.w3.org/2000/svg">
<path d="M767.293 349.926C767.293 156.667 596.037 0 384.781 0C173.525 0 2.2677 156.667 2.2677 349.926H767.293Z" fill="#C7E1E9"/>
<path d="M655.495 166.725C655.495 166.897 655.43 167.063 655.313 167.19C655.197 167.317 655.037 167.395 654.865 167.41L620.77 170.286L617.644 174.44C616.909 175.416 615.957 176.208 614.864 176.754C613.77 177.299 612.565 177.583 611.343 177.583H547.278C543.527 177.583 541.791 172.927 544.623 170.474L505.993 167.229C505.844 167.216 505.706 167.148 505.605 167.038C505.504 166.928 505.448 166.784 505.448 166.635C505.448 166.556 505.463 166.479 505.493 166.407C505.523 166.334 505.567 166.269 505.623 166.214C505.678 166.158 505.744 166.115 505.816 166.085C505.889 166.055 505.966 166.04 506.044 166.04H612.504C615.179 166.044 617.795 165.254 620.021 163.769L626.159 159.675C626.645 159.351 627.216 159.178 627.8 159.178H629.139L623.973 166.044H654.817C654.997 166.046 655.168 166.119 655.295 166.246C655.422 166.373 655.494 166.545 655.495 166.725Z" fill="white"/>
<path d="M505.453 166.638C505.453 166.788 505.509 166.932 505.61 167.042C505.711 167.152 505.849 167.22 505.998 167.233L544.623 170.477L547.214 168.259L505.453 166.638Z" fill="#D8E9F1"/>
<path d="M655.495 166.725C655.495 166.897 655.43 167.063 655.314 167.189C655.197 167.316 655.038 167.395 654.867 167.41L589.757 172.897L586.146 169.734L655.495 166.725Z" fill="#D8E9F1"/>
<path d="M531.21 171.426C531.21 174.081 529.419 175.413 526.561 175.413C525.322 175.413 524.313 175.144 523.563 174.665C523.853 174.818 524.177 174.899 524.506 174.9C525.938 174.9 527.101 173.343 527.101 171.424C527.101 169.505 525.938 167.948 524.506 167.948C524.177 167.95 523.854 168.03 523.563 168.183V168.173C524.31 167.698 525.308 167.435 526.561 167.435C529.52 167.433 531.21 168.902 531.21 171.426Z" fill="white"/>
<path d="M524.504 174.9C525.938 174.9 527.101 173.344 527.101 171.424C527.101 169.504 525.938 167.948 524.504 167.948C523.07 167.948 521.908 169.504 521.908 171.424C521.908 173.344 523.07 174.9 524.504 174.9Z" fill="#98C8DB"/>
<path d="M593.826 171.426C593.826 174.081 592.033 175.413 589.175 175.413C587.936 175.413 586.927 175.144 586.178 174.665C586.468 174.818 586.791 174.899 587.118 174.9C588.554 174.9 589.717 173.343 589.717 171.424C589.717 169.505 588.554 167.948 587.118 167.948C586.791 167.95 586.468 168.031 586.178 168.183V168.173C586.924 167.698 587.924 167.435 589.175 167.435C592.136 167.433 593.826 168.902 593.826 171.426Z" fill="white"/>
<path d="M587.12 174.9C588.554 174.9 589.717 173.344 589.717 171.424C589.717 169.504 588.554 167.948 587.12 167.948C585.686 167.948 584.524 169.504 584.524 171.424C584.524 173.344 585.686 174.9 587.12 174.9Z" fill="#98C8DB"/>
<path d="M553.952 170.189H544.926L547.226 168.259H552.92C553.151 168.26 553.376 168.331 553.565 168.464C553.753 168.597 553.896 168.785 553.973 169.003L554.249 169.776C554.266 169.823 554.271 169.874 554.264 169.923C554.257 169.973 554.238 170.02 554.208 170.06C554.179 170.101 554.141 170.133 554.096 170.156C554.051 170.178 554.002 170.189 553.952 170.189Z" fill="#98C8DB"/>
<path d="M562.065 168.259H561.872C561.579 168.259 561.341 168.497 561.341 168.79V169.658C561.341 169.951 561.579 170.189 561.872 170.189H562.065C562.358 170.189 562.596 169.951 562.596 169.658V168.79C562.596 168.497 562.358 168.259 562.065 168.259Z" fill="#98C8DB"/>
<path d="M565.57 168.259H565.377C565.083 168.259 564.846 168.497 564.846 168.79V169.658C564.846 169.951 565.083 170.189 565.377 170.189H565.57C565.863 170.189 566.101 169.951 566.101 169.658V168.79C566.101 168.497 565.863 168.259 565.57 168.259Z" fill="#98C8DB"/>
<path d="M569.072 168.259H568.88C568.586 168.259 568.349 168.497 568.349 168.79V169.658C568.349 169.951 568.586 170.189 568.88 170.189H569.072C569.366 170.189 569.603 169.951 569.603 169.658V168.79C569.603 168.497 569.366 168.259 569.072 168.259Z" fill="#98C8DB"/>
<path d="M572.577 168.259H572.384C572.091 168.259 571.853 168.497 571.853 168.79V169.658C571.853 169.951 572.091 170.189 572.384 170.189H572.577C572.87 170.189 573.108 169.951 573.108 169.658V168.79C573.108 168.497 572.87 168.259 572.577 168.259Z" fill="#98C8DB"/>
<path d="M576.081 168.259H575.888C575.595 168.259 575.357 168.497 575.357 168.79V169.658C575.357 169.951 575.595 170.189 575.888 170.189H576.081C576.374 170.189 576.612 169.951 576.612 169.658V168.79C576.612 168.497 576.374 168.259 576.081 168.259Z" fill="#98C8DB"/>
<path d="M579.585 168.259H579.393C579.099 168.259 578.862 168.497 578.862 168.79V169.658C578.862 169.951 579.099 170.189 579.393 170.189H579.585C579.879 170.189 580.116 169.951 580.116 169.658V168.79C580.116 168.497 579.879 168.259 579.585 168.259Z" fill="#98C8DB"/>
<path d="M583.042 265.663L568.086 282.335C566.751 283.823 564.891 284.736 562.897 284.882L234.589 308.993C238.546 299.845 240.847 290.067 241.383 280.114H559.871C562.081 280.113 564.221 279.33 565.909 277.903L580.396 265.657L583.042 265.663Z" fill="white"/>
<path d="M564.75 284.648L234.589 308.992C236.995 303.446 238.789 297.654 239.941 291.719L564.75 284.648Z" fill="#E2EFF4"/>
<path d="M284.477 344.37C298.666 344.37 310.169 332.868 310.169 318.678C310.169 304.489 298.666 292.986 284.477 292.986C270.288 292.986 258.785 304.489 258.785 318.678C258.785 332.868 270.288 344.37 284.477 344.37Z" fill="white"/>
<path d="M284.523 338.579C295.489 338.579 304.378 329.69 304.378 318.724C304.378 307.759 295.489 298.87 284.523 298.87C273.558 298.87 264.668 307.759 264.668 318.724C264.668 329.69 273.558 338.579 284.523 338.579Z" fill="#98C8DB"/>
<path d="M284.523 321.862C286.256 321.862 287.661 320.457 287.661 318.724C287.661 316.991 286.256 315.586 284.523 315.586C282.79 315.586 281.385 316.991 281.385 318.724C281.385 320.457 282.79 321.862 284.523 321.862Z" stroke="white" stroke-miterlimit="10"/>
<path d="M98.1098 308.967L5.88184 302.192C6.48714 298.062 7.17151 293.955 7.93492 289.871C8.54023 286.602 9.19746 283.349 9.9066 280.114H91.3222C91.8597 290.057 94.1579 299.827 98.1098 308.967Z" fill="white"/>
<path d="M98.1098 308.967L5.88184 302.192C6.48714 298.062 7.17151 293.955 7.93492 289.871L92.7664 291.712C93.9165 297.64 95.7081 303.426 98.1098 308.967Z" fill="#E2EFF4"/>
<path d="M48.5771 344.37C62.7663 344.37 74.269 332.868 74.269 318.678C74.269 304.489 62.7663 292.986 48.5771 292.986C34.3878 292.986 22.8851 304.489 22.8851 318.678C22.8851 332.868 34.3878 344.37 48.5771 344.37Z" fill="white"/>
<path d="M48.5312 338.579C59.4967 338.579 68.386 329.69 68.386 318.724C68.386 307.759 59.4967 298.87 48.5312 298.87C37.5657 298.87 28.6764 307.759 28.6764 318.724C28.6764 329.69 37.5657 338.579 48.5312 338.579Z" fill="#98C8DB"/>
<path d="M48.5311 321.862C50.2642 321.862 51.6691 320.457 51.6691 318.724C51.6691 316.991 50.2642 315.586 48.5311 315.586C46.798 315.586 45.3931 316.991 45.3931 318.724C45.3931 320.457 46.798 321.862 48.5311 321.862Z" stroke="white" stroke-miterlimit="10"/>
<path d="M174.481 195.79H158.23L164.802 99.4544C164.851 99.0784 165.035 98.7331 165.32 98.483C165.605 98.2328 165.972 98.0949 166.351 98.0949C166.73 98.0949 167.097 98.2328 167.382 98.483C167.667 98.7331 167.851 99.0784 167.901 99.4544L174.481 195.79Z" fill="white"/>
<path d="M314.829 214.539L314.801 216.863L228.548 230.222C226.885 227.608 225.071 225.094 223.115 222.691L314.829 214.539Z" fill="white"/>
<path d="M109.658 222.606C107.714 224.995 105.909 227.493 104.25 230.088L18.8977 216.868L18.8694 214.544L109.658 222.606Z" fill="white"/>
<path d="M166.355 195.043V98.0934C166.735 98.0921 167.103 98.2297 167.388 98.4804C167.674 98.7311 167.858 99.0775 167.906 99.4544L174.481 195.79L166.355 195.043Z" fill="#E2EFF4"/>
<path d="M166.355 355.554C207.866 355.554 241.518 319.622 241.518 275.298C241.518 230.974 207.866 195.042 166.355 195.042C124.844 195.042 91.1929 230.974 91.1929 275.298C91.1929 319.622 124.844 355.554 166.355 355.554Z" fill="#E2EFF4"/>
<path d="M234.46 241.305C230.853 278.693 182.862 312.491 166.354 312.491C148.809 312.491 101.791 278.7 98.2443 241.321C110.223 213.981 136.219 195.043 166.354 195.043C196.488 195.043 222.477 213.981 234.46 241.305Z" fill="white"/>
<path d="M133.665 240.461L133.656 253.852L119.014 258.583L128.984 243.026C129.487 242.241 130.18 241.595 130.998 241.148C131.816 240.701 132.733 240.466 133.665 240.466V240.461Z" fill="#FF9900"/>
<path d="M166.506 240.461H135.736V253.848H166.506V240.461Z" fill="#FF9900"/>
<path d="M199.343 240.461H168.784V253.848H199.343V240.461Z" fill="#FF9900"/>
<path d="M201.559 240.461V253.843L216.272 258.597L206.391 243.04C205.889 242.249 205.195 241.599 204.375 241.148C203.554 240.697 202.633 240.461 201.697 240.461H201.559Z" fill="#FF9900"/>
<path d="M385.509 0V349.91H384.045V0H385.509Z" fill="white"/>
<path d="M724.162 188.351H45.4038C45.6817 187.861 45.9631 187.374 46.2427 186.886H723.323C723.603 187.374 723.884 187.861 724.162 188.351Z" fill="white"/>
<path d="M98.6284 117.709V349.921H97.1647V119.228C97.6496 118.722 98.1399 118.215 98.6284 117.709Z" fill="white"/>
<path d="M194.258 46.4281V349.926H192.792V47.2051C193.281 46.9432 193.768 46.6865 194.258 46.4281Z" fill="white"/>
<path d="M194.258 200.781V299.854C193.768 300.162 193.281 300.461 192.792 300.756V200.197C193.283 200.385 193.771 200.581 194.258 200.781Z" fill="#D8E9F1"/>
<path d="M289.884 10.8548V349.926H288.42V11.2C288.907 11.0831 289.403 10.9734 289.884 10.8548Z" fill="white"/>
<path d="M672.396 119.228V349.873H670.932V117.709C671.421 118.215 671.911 118.722 672.396 119.228Z" fill="white"/>
<path d="M576.768 47.2051V349.873H575.304V46.4281C575.793 46.6865 576.279 46.9432 576.768 47.2051Z" fill="white"/>
<path d="M481.142 11.2V349.873H479.676V10.8548C480.167 10.9734 480.653 11.0831 481.142 11.2Z" fill="white"/>
<path d="M576.768 166.042H575.304V177.796H576.768V166.042Z" fill="#D8E9F1"/>
<path d="M767.293 349.926H2.2677V377.652H767.293V349.926Z" fill="white"/>
<path d="M1.43042 378.175H763.109" stroke="#D8E9F1" stroke-miterlimit="10" stroke-linecap="round"/>
<path d="M763.633 378.175C763.633 378.316 763.577 378.451 763.477 378.551C763.378 378.65 763.242 378.706 763.102 378.706H1.43935C1.31629 378.685 1.20477 378.621 1.12441 378.525C1.04405 378.429 1 378.308 1 378.183C1 378.058 1.04405 377.938 1.12441 377.842C1.20477 377.746 1.31629 377.682 1.43935 377.66H763.118C763.253 377.664 763.382 377.72 763.477 377.816C763.573 377.911 763.629 378.04 763.633 378.175Z" fill="#D8E9F1"/>
<path d="M385.708 349.926L323.905 377.652L321.576 378.698H319.022L321.351 377.652L383.151 349.926H385.708Z" fill="#D8E9F1"/>
<path d="M98.7186 349.926L37.1914 377.652L34.8711 378.698H32.3259L34.6463 377.652L96.1734 349.926H98.7186Z" fill="#D8E9F1"/>
<path d="M194.492 349.926L132.671 377.652L130.34 378.698H127.782L130.113 377.652L191.931 349.926H194.492Z" fill="#D8E9F1"/>
<path d="M290.088 349.926L227.83 377.652L225.481 378.698H222.909L225.256 377.652L287.516 349.926H290.088Z" fill="#D8E9F1"/>
<path d="M675.472 349.926L613.497 377.652L611.159 378.698H608.596L610.934 377.652L672.907 349.926H675.472Z" fill="#D8E9F1"/>
<path d="M766.921 349.926L704.086 377.652L701.716 378.698H699.127L701.498 377.652L764.33 349.926H766.921Z" fill="#D8E9F1"/>
<path d="M576.782 349.926L514.788 377.652L512.45 378.698H509.887L512.227 377.652L574.216 349.926H576.782Z" fill="#D8E9F1"/>
<path d="M608.598 378.698H611.159L577.959 393.551C577.893 393.581 577.82 393.597 577.747 393.597C577.631 393.59 577.52 393.545 577.431 393.47C577.343 393.394 577.282 393.291 577.257 393.177C577.233 393.064 577.247 392.945 577.296 392.84C577.346 392.734 577.429 392.648 577.533 392.595L608.598 378.698Z" fill="#D8E9F1"/>
<path d="M481.287 349.926L419.324 377.652L416.986 378.698H414.423L416.76 377.652L478.722 349.926H481.287Z" fill="#D8E9F1"/>
<path d="M737.61 214.539L648.083 311.068H631.348C628.796 311.067 626.269 311.57 623.912 312.546C621.554 313.523 619.411 314.954 617.607 316.759C615.802 318.563 614.371 320.705 613.394 323.063C612.417 325.421 611.915 327.948 611.915 330.499C611.915 335.864 614.09 340.942 617.605 344.45C620.258 347.107 623.625 348.937 627.297 349.717C627.679 349.799 628.067 349.869 628.458 349.926H628.499H592.662C592.485 349.926 592.308 349.926 592.143 349.926C587.17 349.798 582.436 347.762 578.922 344.241C575.405 340.722 573.23 335.655 573.23 330.289C573.23 325.135 575.278 320.193 578.922 316.549C582.566 312.905 587.508 310.858 592.662 310.857H609.402L723.721 187.58C728.754 196.354 733.383 205.34 737.61 214.539Z" fill="#98C8DB"/>
<path d="M672.637 349.926L672.438 350.142H631.348C630.381 350.143 629.415 350.071 628.458 349.926C628.067 349.869 627.679 349.799 627.297 349.717C623.625 348.937 620.258 347.107 617.605 344.45C614.09 340.933 611.915 335.864 611.915 330.499C611.915 327.948 612.417 325.421 613.394 323.063C614.371 320.705 615.802 318.563 617.607 316.759C619.411 314.954 621.554 313.523 623.912 312.546C626.269 311.57 628.796 311.067 631.348 311.068H648.085L737.789 214.362C744.628 229.247 750.34 244.625 754.877 260.365L672.637 349.926Z" fill="white"/>
<path d="M736.127 211.364L645.985 308.556H630.485C624.72 308.556 619.192 310.846 615.116 314.922C611.04 318.998 608.75 324.526 608.75 330.291C608.75 339.14 614.039 346.928 621.626 350.319" stroke="white" stroke-miterlimit="10" stroke-linecap="round"/>
<path d="M716.065 247.33C716.065 247.33 702.107 276.806 714.022 315.482H723.144C723.144 315.482 730.224 272.87 716.065 247.33Z" fill="#A74602"/>
<path d="M718.192 284.335C718.696 295.114 719.227 306.314 719.661 315.043C719.666 315.154 719.627 315.262 719.553 315.345C719.478 315.427 719.374 315.476 719.263 315.482H719.242C719.135 315.482 719.032 315.441 718.954 315.367C718.877 315.293 718.831 315.192 718.826 315.085C718.144 301.376 717.224 281.576 716.548 266.884L711.934 260.1C712.022 259.728 712.111 259.364 712.199 259.006L716.475 265.289C716.095 257.022 715.803 250.599 715.695 248.178C715.928 247.618 716.065 247.33 716.065 247.33C716.224 247.617 716.378 247.905 716.534 248.197C716.711 252.247 717.383 266.937 718.126 282.848L723.859 273.468C723.917 273.912 723.972 274.356 724.026 274.802L718.222 284.301C718.214 284.314 718.204 284.325 718.192 284.335Z" fill="#FFC200"/>
<path d="M708.461 315.482C708.461 315.482 700.601 305.123 704.305 283.399C704.305 283.399 717.061 296.609 715.157 315.482H708.461Z" stroke="#FFC200" stroke-miterlimit="10" stroke-linecap="round"/>
<path d="M734.293 270.468C734.293 270.468 737.001 295.314 726.454 315.482H718.781C718.781 315.482 719.3 289.248 734.293 270.468Z" fill="#F5BBBB"/>
<path d="M726.939 315.482C726.939 315.482 735.054 307.163 735.886 299.94C735.886 299.94 723.142 305.724 723.142 315.482H726.939Z" fill="#A74602"/>
<path d="M725.091 350.046H710.05L707.781 315.064H727.362L725.091 350.046Z" fill="white"/>
<path d="M727.868 273.243C728.634 273.243 729.255 272.622 729.255 271.855C729.255 271.089 728.634 270.468 727.868 270.468C727.101 270.468 726.48 271.089 726.48 271.855C726.48 272.622 727.101 273.243 727.868 273.243Z" stroke="#FFC200" stroke-miterlimit="10" stroke-linecap="round"/>
<path d="M701.925 312.802C702.691 312.802 703.312 312.181 703.312 311.415C703.312 310.648 702.691 310.027 701.925 310.027C701.158 310.027 700.537 310.648 700.537 311.415C700.537 312.181 701.158 312.802 701.925 312.802Z" stroke="#FFC200" stroke-miterlimit="10" stroke-linecap="round"/>
<path d="M435.832 420H623.138" stroke="#D8E9F1" stroke-miterlimit="10" stroke-linecap="round"/>
<path d="M603.977 412.018H564.996L544.545 328.181H588.49C590.77 328.181 592.985 328.947 594.778 330.355C596.571 331.764 597.84 333.734 598.38 335.949L613.865 399.425C614.231 400.923 614.252 402.485 613.926 403.992C613.6 405.499 612.936 406.913 611.983 408.126C611.031 409.339 609.815 410.32 608.428 410.994C607.041 411.668 605.519 412.018 603.977 412.018Z" fill="#FF9900"/>
<path d="M545.239 328.181H589.186C591.466 328.181 593.68 328.947 595.473 330.356C597.266 331.764 598.534 333.734 599.074 335.949L614.561 399.425" stroke="white" stroke-miterlimit="10" stroke-linecap="round"/>
<path d="M554.46 328.275C556.768 328.274 559.009 329.049 560.824 330.474C562.64 331.899 563.924 333.893 564.471 336.135L579.915 399.929C580.285 401.446 580.305 403.026 579.975 404.551C579.644 406.077 578.971 407.507 578.007 408.734C577.043 409.962 575.813 410.954 574.409 411.636C573.005 412.318 571.465 412.673 569.904 412.673" stroke="white" stroke-miterlimit="10" stroke-linecap="round"/>
<path d="M571.414 336.135L586.858 399.929" stroke="white" stroke-miterlimit="10" stroke-linecap="round"/>
<path d="M576.853 336.135L592.297 399.929" stroke="white" stroke-miterlimit="10" stroke-linecap="round"/>
<path d="M582.292 336.135L597.736 399.929" stroke="white" stroke-miterlimit="10" stroke-linecap="round"/>
<path d="M587.731 336.135L603.175 399.929" stroke="white" stroke-miterlimit="10" stroke-linecap="round"/>
<path d="M593.17 336.135L608.614 399.929" stroke="white" stroke-miterlimit="10" stroke-linecap="round"/>
<path d="M570.191 418.828C571.483 418.828 572.531 417.781 572.531 416.488C572.531 415.196 571.483 414.149 570.191 414.149C568.899 414.149 567.851 415.196 567.851 416.488C567.851 417.781 568.899 418.828 570.191 418.828Z" stroke="#122C3B" stroke-linecap="round" stroke-linejoin="round"/>
<path d="M600.92 418.828C602.213 418.828 603.26 417.781 603.26 416.488C603.26 415.196 602.213 414.149 600.92 414.149C599.628 414.149 598.581 415.196 598.581 416.488C598.581 417.781 599.628 418.828 600.92 418.828Z" stroke="#122C3B" stroke-linecap="round" stroke-linejoin="round"/>
<path d="M564.743 411.503L540.067 309.875C539.898 309.18 539.888 308.455 540.04 307.756C540.192 307.057 540.5 306.401 540.942 305.839C541.384 305.276 541.948 304.821 542.592 304.509C543.235 304.196 543.941 304.034 544.657 304.034H552.14C553.436 304.034 554.694 304.471 555.711 305.274C556.728 306.077 557.445 307.199 557.747 308.459L562.145 326.961" stroke="#122C3B" stroke-linecap="round" stroke-linejoin="round"/>
<path d="M539.71 419.312H508.064L516.28 408.184C516.28 408.184 524.455 412.825 542.051 412.179H542.108L542.867 415.297C542.983 415.775 542.989 416.273 542.884 416.754C542.779 417.234 542.567 417.685 542.263 418.071C541.959 418.457 541.571 418.77 541.129 418.985C540.687 419.2 540.201 419.311 539.71 419.312Z" fill="#122C3B"/>
<path d="M465.402 408.198C465.988 408.515 474.507 413.012 493.436 412.189V416.648C493.436 417.968 492.319 419.037 490.94 419.037H458.323L465.402 408.198Z" fill="#122C3B"/>
<path d="M541.556 412.232H541.501C524.719 412.848 516.922 408.42 516.922 408.42L492.905 321.65V412.186C474.779 413.009 466.416 408.512 465.857 408.195V270.648H507.062L540.627 408.423L541.556 412.232Z" fill="white" stroke="#122C3B" stroke-linejoin="round"/>
<path d="M492.906 321.654V293.455L498.087 291.924" stroke="#122C3B" stroke-linecap="round" stroke-linejoin="round"/>
<path d="M553.131 310.206L544.35 310.45C543.969 310.461 543.593 310.355 543.273 310.147C542.953 309.938 542.704 309.637 542.559 309.284L541.957 307.818L537.322 307.756C536.776 307.748 536.243 307.593 535.778 307.307C535.314 307.02 534.935 306.614 534.683 306.13L521.232 278.195L520.975 277.664C520.172 275.259 523.453 272.064 527.866 270.585C532.278 269.105 536.517 269.848 537.326 272.255L546.299 297.754L548.46 297.802C549.377 297.813 550.269 298.102 551.018 298.631C551.767 299.16 552.337 299.904 552.653 300.765L555.057 307.34C555.17 307.657 555.208 307.995 555.167 308.329C555.126 308.662 555.007 308.982 554.819 309.261C554.632 309.54 554.381 309.77 554.088 309.935C553.795 310.099 553.467 310.192 553.131 310.206Z" fill="white"/>
<path d="M544.039 297.747L548.469 297.795" stroke="#122C3B" stroke-miterlimit="10" stroke-linecap="round"/>
<path d="M550.519 309.823C550.856 309.812 551.186 309.72 551.482 309.556C551.777 309.392 552.029 309.16 552.218 308.88C552.407 308.6 552.526 308.279 552.567 307.944C552.608 307.608 552.569 307.268 552.453 306.951L551.124 303.316" stroke="#122C3B" stroke-miterlimit="10" stroke-linecap="round"/>
<path d="M547.618 309.878C547.955 309.866 548.285 309.775 548.581 309.611C548.876 309.447 549.128 309.215 549.317 308.935C549.506 308.655 549.625 308.334 549.666 307.999C549.707 307.663 549.668 307.323 549.552 307.006L548.223 303.37" stroke="#122C3B" stroke-miterlimit="10" stroke-linecap="round"/>
<path d="M544.825 309.969C545.162 309.957 545.493 309.866 545.788 309.702C546.084 309.538 546.336 309.306 546.525 309.026C546.714 308.746 546.834 308.425 546.874 308.089C546.915 307.754 546.876 307.413 546.759 307.096L545.43 303.461" stroke="#122C3B" stroke-miterlimit="10" stroke-linecap="round"/>
<path d="M542.188 307.498V306.613C542.188 305.108 540.736 303.887 539.232 303.887L538.432 301.763" stroke="#122C3B" stroke-miterlimit="10" stroke-linecap="round"/>
<path d="M455.781 303L431.35 299.299C430.744 299.207 430.178 299.624 430.087 300.23L428.834 308.496C428.742 309.102 429.159 309.668 429.765 309.759L454.196 313.461C454.802 313.553 455.367 313.136 455.459 312.53L456.711 304.264C456.803 303.658 456.386 303.092 455.781 303Z" fill="#122C3B"/>
<path d="M431.783 298.204L432.546 298.319L430.981 308.762L430.218 308.646C430.032 308.614 429.854 308.545 429.694 308.444C429.535 308.342 429.397 308.21 429.288 308.055C429.18 307.9 429.103 307.726 429.062 307.541C429.021 307.356 429.017 307.165 429.05 306.979L430.178 299.448C430.227 299.071 430.423 298.728 430.724 298.495C431.024 298.262 431.405 298.157 431.783 298.204Z" fill="#FF9900"/>
<path d="M456.772 303.439L455.645 310.97C455.621 311.158 455.561 311.339 455.468 311.504C455.375 311.669 455.25 311.813 455.101 311.929C454.951 312.046 454.781 312.131 454.598 312.181C454.416 312.232 454.225 312.245 454.038 312.222L453.379 312.123L454.944 301.68L455.602 301.779C455.977 301.845 456.31 302.057 456.529 302.368C456.749 302.679 456.836 303.064 456.772 303.439Z" fill="#FF9900"/>
<path d="M462.402 274.084L450.544 311.314C450.103 312.694 448.668 313.615 447.092 313.517L438.597 313.018C438.322 313.006 438.054 312.927 437.816 312.789C437.577 312.651 437.376 312.458 437.229 312.225L434.535 308.108C434.183 307.535 434.004 306.872 434.019 306.199C434.034 305.526 434.242 304.872 434.618 304.314L438.944 297.903L445.438 270.606C446.769 268.783 450.639 267.857 454.744 268.551C459.517 269.358 462.871 271.632 462.402 274.084Z" fill="white"/>
<path d="M437.581 312.362L437.958 306.675" stroke="#122C3B" stroke-miterlimit="10" stroke-linecap="round"/>
<path d="M440.834 312.841L441.211 306.939" stroke="#122C3B" stroke-miterlimit="10" stroke-linecap="round"/>
<path d="M444.208 313.115L444.585 307.215" stroke="#122C3B" stroke-miterlimit="10" stroke-linecap="round"/>
<path d="M447.176 313.192L447.553 307.289" stroke="#122C3B" stroke-miterlimit="10" stroke-linecap="round"/>
<path d="M479.692 217.141V207.443L490.469 206.865L495.584 217.141H479.692Z" fill="white"/>
<path d="M477.883 204.601L476.873 204.05C476.795 204.008 476.727 203.951 476.672 203.883C476.616 203.815 476.575 203.736 476.55 203.651C476.525 203.567 476.517 203.478 476.526 203.391C476.535 203.303 476.562 203.218 476.604 203.141L479.347 198.125C479.524 197.798 479.777 197.519 480.085 197.313C480.394 197.106 480.748 196.978 481.117 196.939C482.197 196.819 482.728 197.36 482.728 197.36L485.361 199.458C485.787 199.796 486.091 200.263 486.228 200.789C486.365 201.315 486.327 201.872 486.121 202.374L485.133 204.787C484.924 205.273 484.543 205.666 484.064 205.89C483.584 206.114 483.038 206.153 482.531 206.001L477.883 204.601Z" fill="white"/>
<path d="M482.354 200.275L480.731 199.599" stroke="#122C3B" stroke-miterlimit="10" stroke-linecap="round"/>
<path d="M481.215 202.13C481.408 201.683 481.344 201.226 481.072 201.109C480.8 200.991 480.423 201.258 480.231 201.705C480.038 202.152 480.102 202.61 480.374 202.727C480.646 202.844 481.022 202.577 481.215 202.13Z" fill="#122C3B"/>
<path d="M490.767 208.38C490.402 208.614 489.985 208.755 489.553 208.791C489.121 208.826 488.687 208.754 488.289 208.581L486.908 207.987" stroke="#122C3B" stroke-miterlimit="10" stroke-linecap="round"/>
<path d="M488.501 208.164L487.122 207.569L488.345 203.868C488.409 203.672 488.515 203.492 488.655 203.341C488.795 203.19 488.966 203.072 489.157 202.994C489.348 202.916 489.554 202.881 489.759 202.891C489.965 202.9 490.166 202.955 490.349 203.05L490.643 203.201C490.962 203.339 491.25 203.538 491.492 203.787C491.734 204.036 491.924 204.331 492.052 204.653C492.18 204.976 492.243 205.321 492.238 205.668C492.233 206.015 492.159 206.358 492.022 206.677L491.977 206.783C491.697 207.425 491.175 207.931 490.524 208.189C489.872 208.448 489.145 208.439 488.501 208.164Z" fill="white"/>
<path d="M488.76 205.364C488.94 204.96 489.271 204.643 489.683 204.483C490.095 204.322 490.554 204.33 490.96 204.505" stroke="#122C3B" stroke-miterlimit="10" stroke-linecap="round"/>
<path d="M490.349 203.05C490.166 202.955 489.965 202.9 489.759 202.891C489.554 202.881 489.348 202.916 489.157 202.994C488.966 203.072 488.795 203.19 488.655 203.341C488.515 203.492 488.409 203.672 488.345 203.868L486.722 208.803C485.965 209.767 484.393 210.066 483.112 210.013L479.337 209.916C478.927 209.905 478.527 209.794 478.17 209.592C477.813 209.391 477.512 209.105 477.291 208.76C477.07 208.415 476.937 208.021 476.904 207.613C476.871 207.205 476.938 206.795 477.099 206.419L477.885 204.596L482.526 205.996C483.033 206.148 483.579 206.108 484.059 205.884C484.539 205.66 484.919 205.267 485.128 204.78L486.115 202.369C486.322 201.866 486.36 201.31 486.223 200.784C486.086 200.258 485.782 199.79 485.356 199.452L482.722 197.355C482.321 197.064 481.837 196.91 481.341 196.916C480.846 196.923 480.365 197.089 479.972 197.39C478.614 194.58 481.469 193.789 482.627 194.367C483.468 194.789 490.653 199.082 491.085 200.341C491.342 201.082 491.186 202.192 490.882 203.323L490.349 203.05Z" fill="#122C3B"/>
<path d="M462.632 273.956C462.961 271.553 459.434 269.344 454.74 268.551C450.634 267.857 446.554 268.783 445.222 270.604L454 229.965C454.815 226.327 456.844 223.074 459.754 220.743C462.663 218.412 466.281 217.141 470.009 217.141H505.862C508.713 217.141 511.499 217.988 513.867 219.575C516.235 221.162 518.077 223.417 519.161 226.054L537.253 272.017C536.257 269.795 532.154 269.142 527.883 270.578C523.497 272.052 520.232 275.213 520.981 277.615L506.197 245.286L505.713 256.39L509.62 277.594C509.62 277.594 510.087 288.213 495.51 288.648C480.039 289.109 472.057 278.052 472.057 278.052L465.154 287.078V261.519L462.632 273.956Z" fill="#FF9900"/>
<path d="M480.091 212.307H493.218C493.532 212.308 493.839 212.396 494.106 212.561C494.372 212.727 494.587 212.964 494.726 213.245L496.643 217.139H476.36L478.63 213.155C478.777 212.897 478.99 212.683 479.246 212.534C479.503 212.385 479.794 212.307 480.091 212.307Z" fill="#FF9900"/>
<path d="M520.616 277.838C519.823 275.294 523.051 271.944 527.696 270.383C532.223 268.863 536.568 269.553 537.625 271.909L535.08 265.611C533.995 263.194 529.77 262.248 525.117 263.813C520.338 265.417 516.798 268.856 517.605 271.468L520.616 277.838Z" stroke="white" stroke-linejoin="round"/>
<path d="M460.953 220.176C460.953 220.176 469.303 221.277 470.915 231.93H507" stroke="white" stroke-linecap="round" stroke-linejoin="round"/>
<path d="M463.05 273.284L470.94 231.921" stroke="white" stroke-linecap="round" stroke-linejoin="round"/>
<path d="M506.202 246.456L507.809 229.758" stroke="white" stroke-linecap="round" stroke-linejoin="round"/>
<path d="M463.992 269.16L462.834 274.086C463.305 271.636 459.517 269.356 454.74 268.549C450.123 267.769 445.593 269.04 444.847 271.326L446.034 266.047C446.535 263.588 451.257 262.252 456.054 263.063C460.85 263.873 464.492 266.703 463.992 269.16Z" stroke="white" stroke-linejoin="round"/>
<path d="M496.413 216.909H476.36" stroke="white" stroke-miterlimit="10" stroke-linecap="round"/>
<path d="M270.337 321.275H219.879C222.567 321.275 225.19 320.449 227.392 318.908C229.595 317.368 231.271 315.187 232.192 312.662L243.654 280.785L255.615 311.935C256.537 314.459 258.213 316.639 260.415 318.18C262.617 319.72 265.239 320.547 267.927 320.547H269.852L270.337 321.275Z" fill="#122C3B" stroke="#122C3B" stroke-linecap="round" stroke-linejoin="round"/>
<path d="M402.542 320.538H267.929C265.241 320.539 262.618 319.712 260.415 318.172C258.213 316.631 256.537 314.451 255.615 311.926L244.026 280.206H358.008C359.275 280.206 360.511 280.596 361.549 281.322C362.587 282.048 363.377 283.076 363.811 284.266L373.917 311.926C374.574 313.728 375.619 315.364 376.978 316.717C378.699 317.648 380.625 318.134 382.581 318.133H400.103C400.744 318.133 401.359 318.385 401.815 318.835C402.27 319.286 402.53 319.898 402.537 320.538H402.542Z" fill="#FF9900"/>
<path d="M243.345 280.176L231.424 312.804C230.596 315.072 229.091 317.03 227.112 318.413C225.134 319.797 222.778 320.539 220.364 320.538H204.125C204.133 319.898 204.392 319.286 204.848 318.836C205.304 318.386 205.918 318.133 206.559 318.133H217.959C220.373 318.134 222.729 317.392 224.707 316.008C226.686 314.625 228.191 312.666 229.019 310.399L238.93 283.261C239.26 282.356 239.861 281.575 240.65 281.023C241.439 280.471 242.378 280.176 243.341 280.176H243.345Z" fill="#FF9900"/>
<path d="M402.177 321.275H265.838" stroke="#122C3B" stroke-miterlimit="10" stroke-linecap="round"/>
<path d="M327.615 321.275C324.927 321.275 322.305 320.449 320.102 318.909C317.9 317.369 316.224 315.189 315.302 312.664L303.712 280.942" stroke="#122C3B" stroke-miterlimit="10" stroke-linecap="round"/>
<path d="M357.459 321.275C354.771 321.275 352.148 320.449 349.946 318.909C347.743 317.369 346.067 315.189 345.144 312.664L333.557 280.942" stroke="#122C3B" stroke-miterlimit="10" stroke-linecap="round"/>
<path d="M297.773 321.275C295.085 321.275 292.462 320.449 290.259 318.909C288.057 317.369 286.38 315.189 285.458 312.664L273.87 280.942" stroke="#A74602" stroke-miterlimit="10" stroke-linecap="round"/>
<path d="M217.191 355.625C217.191 337.301 228.929 322.446 243.41 322.446C257.891 322.446 269.631 337.301 269.631 355.625" stroke="#122C3B" stroke-miterlimit="10"/>
<path d="M345.077 355.625C345.077 337.301 356.817 322.446 371.298 322.446C385.779 322.446 397.519 337.301 397.519 355.625" stroke="#122C3B" stroke-miterlimit="10"/>
<path d="M299.985 295.468L291.728 297.367L290.613 292.169L292.243 290.501C292.876 289.854 293.29 289.024 293.426 288.129C293.563 287.234 293.415 286.319 293.005 285.512L290.309 280.225L294.836 280.199L299.985 295.468Z" fill="white"/>
<path d="M286.925 270.394C288.251 270.394 289.546 270.797 290.638 271.549C291.731 272.301 292.569 273.367 293.042 274.606L294.905 280.199L290.316 280.225L293.012 285.512C293.422 286.319 293.57 287.234 293.433 288.129C293.297 289.024 292.883 289.854 292.251 290.501L290.621 292.169L291.736 297.367L266.9 302.831L257.191 280.275H256.964L256.653 277.933C256.53 277.001 256.606 276.053 256.875 275.152C257.145 274.25 257.602 273.416 258.216 272.704C258.831 271.992 259.589 271.418 260.441 271.019C261.293 270.621 262.22 270.407 263.16 270.392L286.925 270.394Z" fill="#FF9900"/>
<path d="M292.243 290.501C292.876 289.854 293.29 289.025 293.426 288.13C293.563 287.235 293.415 286.32 293.004 285.514L288.711 277.089" stroke="white" stroke-miterlimit="10" stroke-linecap="round"/>
<path d="M332.245 346.036H314.958L313.396 341.291L299.121 297.905C298.615 296.353 300.222 294.76 301.852 294.76L308.727 294.533C310.672 294.533 312.567 295.145 314.146 296.282C315.724 297.42 316.904 299.024 317.519 300.87L330.696 341.291L332.245 346.036Z" fill="#122C3B"/>
<path d="M310.265 306.255L297.521 341.299L295.794 346.045H278.467L280.095 341.299L287.564 319.558H278.125C272.198 319.558 262.727 315.236 266.916 302.611L301.981 294.576C303.383 294.577 304.765 294.913 306.01 295.557C307.255 296.201 308.328 297.133 309.139 298.277C309.95 299.42 310.475 300.741 310.671 302.129C310.867 303.517 310.727 304.932 310.265 306.255Z" fill="#122C3B"/>
<path d="M289.086 313.726L286.295 321.926" stroke="white" stroke-miterlimit="10" stroke-linecap="round"/>
<path d="M295.932 347.078L310.516 305.753C310.979 304.429 311.119 303.014 310.923 301.626C310.727 300.237 310.202 298.916 309.39 297.772C308.579 296.628 307.506 295.696 306.26 295.052C305.015 294.408 303.633 294.072 302.231 294.071" stroke="white" stroke-miterlimit="10" stroke-linecap="round"/>
<path d="M297.52 341.291L295.792 346.036H278.465L280.093 341.291H297.52Z" fill="#122C3B"/>
<path d="M332.245 346.036H314.957L313.396 341.291H330.696L332.245 346.036Z" fill="#122C3B"/>
<path d="M303.109 356.105H288.242C287.934 356.105 287.637 355.997 287.401 355.8L285.047 353.832C284.983 353.778 284.907 353.742 284.825 353.725C284.743 353.709 284.658 353.714 284.578 353.739C284.499 353.764 284.427 353.809 284.369 353.87C284.311 353.93 284.27 354.004 284.249 354.085L283.867 355.636C283.832 355.771 283.753 355.89 283.642 355.975C283.531 356.06 283.395 356.106 283.256 356.105H277.258C277.167 356.106 277.076 356.087 276.994 356.049C276.911 356.011 276.837 355.956 276.778 355.886C276.719 355.817 276.677 355.735 276.653 355.647C276.629 355.559 276.626 355.467 276.642 355.377L278.47 346.032H295.868L303.109 356.105Z" fill="#FF9900"/>
<path d="M339.942 356.105H325.075C324.768 356.105 324.47 355.997 324.235 355.8L321.881 353.832C321.816 353.778 321.74 353.742 321.658 353.725C321.576 353.709 321.491 353.714 321.411 353.739C321.331 353.764 321.259 353.809 321.201 353.87C321.144 353.93 321.102 354.004 321.081 354.085L320.7 355.636C320.665 355.771 320.586 355.89 320.475 355.975C320.365 356.06 320.229 356.106 320.089 356.105H313.64C313.549 356.106 313.458 356.087 313.375 356.05C313.292 356.012 313.218 355.956 313.159 355.887C313.1 355.817 313.057 355.736 313.034 355.647C313.01 355.559 313.006 355.467 313.022 355.377L314.85 346.032H332.249L339.942 356.105Z" fill="#FF9900"/>
<path d="M281.932 269.871C279.868 270.933 277.348 270.512 275.219 268.986L275.18 269.008C270.155 271.611 264.488 270.424 262.52 266.631C260.552 262.838 263.031 257.65 268.052 255.043C269.5 254.28 271.08 253.8 272.707 253.627C272.594 253.273 272.559 252.899 272.604 252.529C272.65 252.16 272.774 251.806 272.97 251.489C273.166 251.173 273.427 250.903 273.737 250.697C274.047 250.492 274.398 250.356 274.765 250.299C275.133 250.242 275.508 250.265 275.866 250.367C276.223 250.469 276.555 250.647 276.837 250.889C277.119 251.131 277.346 251.431 277.501 251.769C277.656 252.107 277.736 252.475 277.736 252.847C277.736 253.254 277.639 253.655 277.452 254.017C279.93 254.408 282.42 256.275 283.895 259.132C286.082 263.378 285.205 268.181 281.932 269.871Z" fill="#122C3B"/>
<path d="M268.598 270.395L272.033 262.765H278.387V275.415L268.598 270.395Z" fill="white"/>
<path d="M278.387 262.765V267.633C277.269 267.78 276.134 267.526 275.187 266.914C274.239 266.302 273.54 265.373 273.215 264.293L272.755 262.765H278.387Z" fill="#122C3B"/>
<path d="M280.936 258.512V262.466C280.936 262.868 280.857 263.267 280.703 263.638C280.549 264.01 280.324 264.347 280.039 264.632C279.755 264.916 279.417 265.142 279.046 265.295C278.674 265.449 278.276 265.528 277.874 265.528H276.373C275.567 265.528 274.78 265.285 274.115 264.831C273.449 264.377 272.936 263.733 272.642 262.983H271.226C270.699 262.967 270.199 262.747 269.832 262.369C269.465 261.991 269.259 261.484 269.259 260.957C269.259 260.43 269.465 259.924 269.832 259.546C270.199 259.167 270.699 258.947 271.226 258.932H271.415C271.75 258.931 272.079 259.02 272.369 259.188V259.179L277.601 255.156C278.489 255.163 279.338 255.52 279.963 256.15C280.588 256.78 280.939 257.632 280.939 258.519L280.936 258.512Z" fill="white"/>
<path d="M272.113 261.259C272.113 260.977 272.001 260.707 271.802 260.508C271.602 260.309 271.332 260.197 271.051 260.197" stroke="#122C3B" stroke-miterlimit="10" stroke-linecap="round"/>
<path d="M281.031 258.532C281.031 258.532 279.868 258.084 278.937 258.946C278.297 259.541 278.125 261.165 278.613 261.847" stroke="#122C3B" stroke-miterlimit="10" stroke-linecap="round"/>
<path d="M276.281 260.886C276.482 260.886 276.645 260.663 276.645 260.388C276.645 260.114 276.482 259.891 276.281 259.891C276.079 259.891 275.916 260.114 275.916 260.388C275.916 260.663 276.079 260.886 276.281 260.886Z" fill="#122C3B"/>
<path d="M279.679 260.886C279.88 260.886 280.044 260.663 280.044 260.388C280.044 260.114 279.88 259.891 279.679 259.891C279.478 259.891 279.314 260.114 279.314 260.388C279.314 260.663 279.478 260.886 279.679 260.886Z" fill="#122C3B"/>
<path d="M278.704 263.484C278.704 263.484 277.543 263.79 277.18 262.859" stroke="#122C3B" stroke-miterlimit="10" stroke-linecap="round"/>
<path d="M274.599 258.905C274.599 258.905 275.628 258.109 276.928 258.36" stroke="#122C3B" stroke-miterlimit="10" stroke-linecap="round"/>
<path d="M309.353 295.137C309.353 295.428 309.237 295.707 309.031 295.913C308.824 296.119 308.545 296.234 308.254 296.234H294.845L272.806 302.843C271.762 303.172 270.663 303.291 269.572 303.195C268.481 303.098 267.42 302.786 266.45 302.279C265.48 301.771 264.62 301.077 263.918 300.235C263.217 299.394 262.689 298.423 262.364 297.377L257.033 280.277L271.07 280.199L274.226 289.56L295.98 289.296C298.325 289.296 300.636 290.073 302.73 291.126L308.748 294.156C308.929 294.248 309.082 294.388 309.188 294.561C309.295 294.734 309.351 294.934 309.351 295.137H309.353Z" fill="white"/>
<path d="M272.412 289.799L278.629 289.88" stroke="#122C3B" stroke-miterlimit="10" stroke-linecap="round"/>
<path d="M293.102 294.468C293.102 295.044 293.331 295.596 293.738 296.003C294.145 296.411 294.698 296.639 295.274 296.639" stroke="#122C3B" stroke-miterlimit="10" stroke-linecap="round"/>
<path d="M301.948 293.146L306.438 294.985C306.682 295.085 306.891 295.255 307.038 295.474C307.185 295.693 307.264 295.951 307.265 296.215" stroke="#122C3B" stroke-miterlimit="10" stroke-linecap="round"/>
<path d="M298.762 293.546L302.273 294.985C302.517 295.085 302.726 295.255 302.873 295.474C303.02 295.693 303.098 295.951 303.098 296.215" stroke="#122C3B" stroke-miterlimit="10" stroke-linecap="round"/>
<path d="M342.656 149.644H228.143C227.38 149.644 226.634 149.414 226.003 148.985C225.372 148.557 224.884 147.948 224.603 147.238L200.419 86.1501C200.191 85.5729 200.107 84.9485 200.175 84.3315C200.243 83.7145 200.462 83.1236 200.811 82.6103C201.16 82.0969 201.629 81.6768 202.178 81.3865C202.727 81.0962 203.338 80.9446 203.959 80.9448H318.472C319.235 80.945 319.98 81.1744 320.611 81.6033C321.242 82.0322 321.73 82.6407 322.011 83.3501L346.19 144.438C346.418 145.015 346.502 145.639 346.434 146.256C346.366 146.872 346.148 147.463 345.8 147.976C345.451 148.489 344.983 148.909 344.435 149.2C343.887 149.491 343.276 149.643 342.656 149.644Z" fill="white"/>
<path d="M253.837 148.991L227.099 81.4386" stroke="#D8E9F1" stroke-miterlimit="10" stroke-linecap="round"/>
<path d="M201.706 77.389H321.399C322.04 77.389 322.666 77.5815 323.196 77.9415C323.727 78.3016 324.136 78.8127 324.373 79.4085L350.765 146.088" stroke="#122C3B" stroke-miterlimit="10" stroke-linecap="round"/>
<path d="M263.452 77.3891V19.0106" stroke="#122C3B" stroke-miterlimit="10" stroke-linecap="round"/>
<path d="M207.695 103.729H329.67" stroke="#D8E9F1" stroke-miterlimit="10" stroke-linecap="round"/>
<path d="M216.69 126.599H338.873" stroke="#D8E9F1" stroke-miterlimit="10" stroke-linecap="round"/>
<path d="M223.562 93.058H212.369" stroke="#FF9900" stroke-miterlimit="10" stroke-linecap="round"/>
<path d="M284.651 89.4368H238.798" stroke="#FF9900" stroke-miterlimit="10" stroke-linecap="round"/>
<path d="M292.967 110.768H247.114" stroke="#FF9900" stroke-miterlimit="10" stroke-linecap="round"/>
<path d="M294.851 116.207H248.998" stroke="#FF9900" stroke-miterlimit="10" stroke-linecap="round"/>
<path d="M311.374 133.376H255.063" stroke="#FF9900" stroke-miterlimit="10" stroke-linecap="round"/>
<path d="M302.381 138.815H256.946" stroke="#FF9900" stroke-miterlimit="10" stroke-linecap="round"/>
<path d="M301.923 94.8739H240.89" stroke="#FF9900" stroke-miterlimit="10" stroke-linecap="round"/>
<path d="M217.725 97.4438L211.355 92.9164L216.129 88.3908" stroke="#FF9900" stroke-linecap="round" stroke-linejoin="round"/>
<path d="M231.922 115.435H220.727" stroke="#FF9900" stroke-miterlimit="10" stroke-linecap="round"/>
<path d="M226.083 119.821L219.713 115.293L224.488 110.768" stroke="#FF9900" stroke-linecap="round" stroke-linejoin="round"/>
<path d="M240.323 138.044H229.129" stroke="#FF9900" stroke-miterlimit="10" stroke-linecap="round"/>
<path d="M234.486 142.429L228.115 137.904L232.89 133.376" stroke="#FF9900" stroke-linecap="round" stroke-linejoin="round"/>
<path d="M310.073 89.4368H316.107" stroke="#FF9900" stroke-miterlimit="10" stroke-linecap="round"/>
<path d="M312.164 94.8739H318.199" stroke="#FF9900" stroke-miterlimit="10" stroke-linecap="round"/>
<path d="M316.944 110.768H322.978" stroke="#FF9900" stroke-miterlimit="10" stroke-linecap="round"/>
<path d="M319.034 116.207H325.07" stroke="#FF9900" stroke-miterlimit="10" stroke-linecap="round"/>
<path d="M324.652 133.376H330.686" stroke="#FF9900" stroke-miterlimit="10" stroke-linecap="round"/>
<path d="M326.744 138.815H332.778" stroke="#FF9900" stroke-miterlimit="10" stroke-linecap="round"/>
<path d="M424.977 149.852H539.49C540.253 149.852 540.999 149.623 541.63 149.194C542.261 148.765 542.749 148.157 543.03 147.447L567.211 86.3589C567.439 85.7817 567.523 85.1573 567.454 84.5403C567.386 83.9233 567.168 83.3324 566.819 82.8191C566.47 82.3058 566 81.8856 565.452 81.5953C564.903 81.305 564.291 81.1534 563.671 81.1536H449.158C448.395 81.1533 447.649 81.3826 447.018 81.8115C446.387 82.2404 445.899 82.8493 445.618 83.5589L421.438 144.647C421.209 145.224 421.126 145.849 421.194 146.466C421.262 147.083 421.48 147.674 421.829 148.187C422.178 148.7 422.648 149.12 423.197 149.411C423.745 149.701 424.357 149.853 424.977 149.852Z" fill="white"/>
<path d="M513.797 149.199L540.535 81.6474" stroke="#D8E9F1" stroke-miterlimit="10" stroke-linecap="round"/>
<path d="M565.925 77.5979H446.232C445.591 77.5979 444.966 77.7905 444.436 78.1506C443.906 78.5107 443.496 79.0217 443.26 79.6174L416.868 146.297" stroke="#122C3B" stroke-miterlimit="10" stroke-linecap="round"/>
<path d="M504.179 77.5979V17.5468" stroke="#122C3B" stroke-miterlimit="10" stroke-linecap="round"/>
<path d="M559.936 103.938H437.963" stroke="#D8E9F1" stroke-miterlimit="10" stroke-linecap="round"/>
<path d="M550.943 126.808H428.76" stroke="#D8E9F1" stroke-miterlimit="10" stroke-linecap="round"/>
<path d="M544.069 93.2668H555.264" stroke="#FF9900" stroke-miterlimit="10" stroke-linecap="round"/>
<path d="M522.308 89.6456H528.834" stroke="#FF9900" stroke-miterlimit="10" stroke-linecap="round"/>
<path d="M443.289 110.977H501.89" stroke="#FF9900" stroke-miterlimit="10" stroke-linecap="round"/>
<path d="M441.406 116.415H467.722" stroke="#FF9900" stroke-miterlimit="10" stroke-linecap="round"/>
<path d="M433.666 133.585H489.977" stroke="#FF9900" stroke-miterlimit="10" stroke-linecap="round"/>
<path d="M432.202 139.024H477.637" stroke="#FF9900" stroke-miterlimit="10" stroke-linecap="round"/>
<path d="M449.223 95.0828H501.89" stroke="#FF9900" stroke-miterlimit="10" stroke-linecap="round"/>
<path d="M549.906 97.6527L556.276 93.1253L551.502 88.5996" stroke="#FF9900" stroke-linecap="round" stroke-linejoin="round"/>
<path d="M535.711 115.644H546.904" stroke="#FF9900" stroke-miterlimit="10" stroke-linecap="round"/>
<path d="M541.549 120.03L547.919 115.504L543.145 110.977" stroke="#FF9900" stroke-linecap="round" stroke-linejoin="round"/>
<path d="M527.308 138.253H538.503" stroke="#FF9900" stroke-miterlimit="10" stroke-linecap="round"/>
<path d="M533.145 142.638L539.517 138.113L534.741 133.585" stroke="#FF9900" stroke-linecap="round" stroke-linejoin="round"/>
<path d="M511.446 89.6456H451.524" stroke="#FF9900" stroke-miterlimit="10" stroke-linecap="round"/>
<path d="M526.533 95.0828H520.708" stroke="#FF9900" stroke-miterlimit="10" stroke-linecap="round"/>
<path d="M520.517 110.977H514.483" stroke="#FF9900" stroke-miterlimit="10" stroke-linecap="round"/>
<path d="M518.425 116.415H512.391" stroke="#FF9900" stroke-miterlimit="10" stroke-linecap="round"/>
<path d="M512.568 133.585H506.535" stroke="#FF9900" stroke-miterlimit="10" stroke-linecap="round"/>
<path d="M510.476 139.024H504.443" stroke="#FF9900" stroke-miterlimit="10" stroke-linecap="round"/>
</svg>
