<svg width="636" height="420" viewBox="0 0 636 420" fill="none" xmlns="http://www.w3.org/2000/svg">
<path d="M766.293 349.926C766.293 156.667 595.037 0 383.781 0C172.525 0 1.2677 156.667 1.2677 349.926H766.293Z" fill="#C7E1E9"/>
<path d="M654.495 166.725C654.495 166.897 654.43 167.063 654.313 167.19C654.197 167.317 654.037 167.395 653.865 167.41L619.77 170.286L616.644 174.44C615.909 175.416 614.957 176.208 613.864 176.754C612.77 177.299 611.565 177.583 610.343 177.583H546.278C542.527 177.583 540.791 172.927 543.623 170.474L504.993 167.229C504.844 167.216 504.706 167.148 504.605 167.038C504.504 166.928 504.448 166.784 504.448 166.635C504.448 166.556 504.463 166.479 504.493 166.407C504.523 166.334 504.567 166.269 504.623 166.214C504.678 166.158 504.744 166.115 504.816 166.085C504.889 166.055 504.966 166.04 505.044 166.04H611.504C614.179 166.044 616.795 165.254 619.021 163.769L625.159 159.675C625.645 159.351 626.216 159.178 626.8 159.178H628.139L622.973 166.044H653.817C653.997 166.046 654.168 166.119 654.295 166.246C654.422 166.373 654.494 166.545 654.495 166.725Z" fill="white"/>
<path d="M504.453 166.638C504.453 166.788 504.509 166.932 504.61 167.042C504.711 167.152 504.849 167.22 504.998 167.233L543.623 170.477L546.214 168.259L504.453 166.638Z" fill="#D8E9F1"/>
<path d="M654.495 166.725C654.495 166.897 654.43 167.063 654.314 167.189C654.197 167.316 654.038 167.395 653.867 167.41L588.757 172.897L585.146 169.734L654.495 166.725Z" fill="#D8E9F1"/>
<path d="M530.21 171.426C530.21 174.081 528.419 175.413 525.561 175.413C524.322 175.413 523.313 175.144 522.563 174.665C522.853 174.818 523.177 174.899 523.506 174.9C524.938 174.9 526.101 173.343 526.101 171.424C526.101 169.505 524.938 167.948 523.506 167.948C523.177 167.95 522.854 168.03 522.563 168.183V168.173C523.31 167.698 524.308 167.435 525.561 167.435C528.52 167.433 530.21 168.902 530.21 171.426Z" fill="white"/>
<path d="M523.504 174.9C524.938 174.9 526.101 173.344 526.101 171.424C526.101 169.504 524.938 167.948 523.504 167.948C522.07 167.948 520.908 169.504 520.908 171.424C520.908 173.344 522.07 174.9 523.504 174.9Z" fill="#98C8DB"/>
<path d="M592.826 171.426C592.826 174.081 591.033 175.413 588.175 175.413C586.936 175.413 585.927 175.144 585.178 174.665C585.468 174.818 585.791 174.899 586.118 174.9C587.554 174.9 588.717 173.343 588.717 171.424C588.717 169.505 587.554 167.948 586.118 167.948C585.791 167.95 585.468 168.031 585.178 168.183V168.173C585.924 167.698 586.924 167.435 588.175 167.435C591.136 167.433 592.826 168.902 592.826 171.426Z" fill="white"/>
<path d="M586.12 174.9C587.554 174.9 588.717 173.344 588.717 171.424C588.717 169.504 587.554 167.948 586.12 167.948C584.686 167.948 583.524 169.504 583.524 171.424C583.524 173.344 584.686 174.9 586.12 174.9Z" fill="#98C8DB"/>
<path d="M552.952 170.189H543.926L546.226 168.259H551.92C552.151 168.26 552.376 168.331 552.565 168.464C552.753 168.597 552.896 168.785 552.973 169.003L553.249 169.776C553.266 169.823 553.271 169.874 553.264 169.923C553.257 169.973 553.238 170.02 553.208 170.06C553.179 170.101 553.141 170.133 553.096 170.156C553.051 170.178 553.002 170.189 552.952 170.189Z" fill="#98C8DB"/>
<path d="M561.065 168.259H560.872C560.579 168.259 560.341 168.497 560.341 168.79V169.658C560.341 169.951 560.579 170.189 560.872 170.189H561.065C561.358 170.189 561.596 169.951 561.596 169.658V168.79C561.596 168.497 561.358 168.259 561.065 168.259Z" fill="#98C8DB"/>
<path d="M564.57 168.259H564.377C564.083 168.259 563.846 168.497 563.846 168.79V169.658C563.846 169.951 564.083 170.189 564.377 170.189H564.57C564.863 170.189 565.101 169.951 565.101 169.658V168.79C565.101 168.497 564.863 168.259 564.57 168.259Z" fill="#98C8DB"/>
<path d="M568.072 168.259H567.88C567.586 168.259 567.349 168.497 567.349 168.79V169.658C567.349 169.951 567.586 170.189 567.88 170.189H568.072C568.366 170.189 568.603 169.951 568.603 169.658V168.79C568.603 168.497 568.366 168.259 568.072 168.259Z" fill="#98C8DB"/>
<path d="M571.577 168.259H571.384C571.091 168.259 570.853 168.497 570.853 168.79V169.658C570.853 169.951 571.091 170.189 571.384 170.189H571.577C571.87 170.189 572.108 169.951 572.108 169.658V168.79C572.108 168.497 571.87 168.259 571.577 168.259Z" fill="#98C8DB"/>
<path d="M575.081 168.259H574.888C574.595 168.259 574.357 168.497 574.357 168.79V169.658C574.357 169.951 574.595 170.189 574.888 170.189H575.081C575.374 170.189 575.612 169.951 575.612 169.658V168.79C575.612 168.497 575.374 168.259 575.081 168.259Z" fill="#98C8DB"/>
<path d="M578.585 168.259H578.393C578.099 168.259 577.862 168.497 577.862 168.79V169.658C577.862 169.951 578.099 170.189 578.393 170.189H578.585C578.879 170.189 579.116 169.951 579.116 169.658V168.79C579.116 168.497 578.879 168.259 578.585 168.259Z" fill="#98C8DB"/>
<path d="M582.042 265.663L567.086 282.335C565.751 283.823 563.891 284.736 561.897 284.882L233.589 308.993C237.546 299.845 239.847 290.067 240.383 280.114H558.871C561.081 280.113 563.221 279.33 564.909 277.903L579.396 265.657L582.042 265.663Z" fill="white"/>
<path d="M563.75 284.648L233.589 308.992C235.995 303.446 237.789 297.654 238.941 291.719L563.75 284.648Z" fill="#E2EFF4"/>
<path d="M283.477 344.37C297.666 344.37 309.169 332.868 309.169 318.678C309.169 304.489 297.666 292.986 283.477 292.986C269.288 292.986 257.785 304.489 257.785 318.678C257.785 332.868 269.288 344.37 283.477 344.37Z" fill="white"/>
<path d="M283.523 338.579C294.489 338.579 303.378 329.69 303.378 318.724C303.378 307.759 294.489 298.87 283.523 298.87C272.558 298.87 263.668 307.759 263.668 318.724C263.668 329.69 272.558 338.579 283.523 338.579Z" fill="#98C8DB"/>
<path d="M283.523 321.862C285.256 321.862 286.661 320.457 286.661 318.724C286.661 316.991 285.256 315.586 283.523 315.586C281.79 315.586 280.385 316.991 280.385 318.724C280.385 320.457 281.79 321.862 283.523 321.862Z" stroke="white" stroke-miterlimit="10"/>
<path d="M97.1098 308.967L4.88184 302.192C5.48714 298.062 6.17151 293.955 6.93492 289.871C7.54023 286.602 8.19746 283.349 8.9066 280.114H90.3222C90.8597 290.057 93.1579 299.827 97.1098 308.967Z" fill="white"/>
<path d="M97.1098 308.967L4.88184 302.192C5.48714 298.062 6.17151 293.955 6.93492 289.871L91.7664 291.712C92.9165 297.64 94.7081 303.426 97.1098 308.967Z" fill="#E2EFF4"/>
<path d="M47.5771 344.37C61.7663 344.37 73.269 332.868 73.269 318.678C73.269 304.489 61.7663 292.986 47.5771 292.986C33.3878 292.986 21.8851 304.489 21.8851 318.678C21.8851 332.868 33.3878 344.37 47.5771 344.37Z" fill="white"/>
<path d="M47.5312 338.579C58.4967 338.579 67.386 329.69 67.386 318.724C67.386 307.759 58.4967 298.87 47.5312 298.87C36.5657 298.87 27.6764 307.759 27.6764 318.724C27.6764 329.69 36.5657 338.579 47.5312 338.579Z" fill="#98C8DB"/>
<path d="M47.5311 321.862C49.2642 321.862 50.6691 320.457 50.6691 318.724C50.6691 316.991 49.2642 315.586 47.5311 315.586C45.798 315.586 44.3931 316.991 44.3931 318.724C44.3931 320.457 45.798 321.862 47.5311 321.862Z" stroke="white" stroke-miterlimit="10"/>
<path d="M173.481 195.79H157.23L163.802 99.4544C163.851 99.0784 164.035 98.7331 164.32 98.483C164.605 98.2328 164.972 98.0949 165.351 98.0949C165.73 98.0949 166.097 98.2328 166.382 98.483C166.667 98.7331 166.851 99.0784 166.901 99.4544L173.481 195.79Z" fill="white"/>
<path d="M313.829 214.539L313.801 216.863L227.548 230.222C225.885 227.608 224.071 225.094 222.115 222.691L313.829 214.539Z" fill="white"/>
<path d="M108.658 222.606C106.714 224.995 104.909 227.493 103.25 230.088L17.8977 216.868L17.8694 214.544L108.658 222.606Z" fill="white"/>
<path d="M165.355 195.043V98.0934C165.735 98.0921 166.103 98.2297 166.388 98.4804C166.674 98.7311 166.858 99.0775 166.906 99.4544L173.481 195.79L165.355 195.043Z" fill="#E2EFF4"/>
<path d="M165.355 355.554C206.866 355.554 240.518 319.622 240.518 275.298C240.518 230.974 206.866 195.042 165.355 195.042C123.844 195.042 90.1929 230.974 90.1929 275.298C90.1929 319.622 123.844 355.554 165.355 355.554Z" fill="#E2EFF4"/>
<path d="M233.46 241.305C229.853 278.693 181.862 312.491 165.354 312.491C147.809 312.491 100.791 278.7 97.2443 241.321C109.223 213.981 135.219 195.043 165.354 195.043C195.488 195.043 221.477 213.981 233.46 241.305Z" fill="white"/>
<path d="M132.665 240.461L132.656 253.852L118.014 258.583L127.984 243.026C128.487 242.241 129.18 241.595 129.998 241.148C130.816 240.701 131.733 240.466 132.665 240.466V240.461Z" fill="#FF9900"/>
<path d="M165.506 240.461H134.736V253.848H165.506V240.461Z" fill="#FF9900"/>
<path d="M198.343 240.461H167.784V253.848H198.343V240.461Z" fill="#FF9900"/>
<path d="M200.559 240.461V253.843L215.272 258.597L205.391 243.04C204.889 242.249 204.195 241.599 203.375 241.148C202.554 240.697 201.633 240.461 200.697 240.461H200.559Z" fill="#FF9900"/>
<path d="M384.509 0V349.91H383.045V0H384.509Z" fill="white"/>
<path d="M723.162 188.351H44.4038C44.6817 187.861 44.9631 187.374 45.2427 186.886H722.323C722.603 187.374 722.884 187.861 723.162 188.351Z" fill="white"/>
<path d="M97.6284 117.709V349.921H96.1647V119.228C96.6496 118.722 97.1399 118.215 97.6284 117.709Z" fill="white"/>
<path d="M193.258 46.4281V349.926H191.792V47.2051C192.281 46.9432 192.768 46.6865 193.258 46.4281Z" fill="white"/>
<path d="M193.258 200.781V299.854C192.768 300.162 192.281 300.461 191.792 300.756V200.197C192.283 200.385 192.771 200.581 193.258 200.781Z" fill="#D8E9F1"/>
<path d="M288.884 10.8548V349.926H287.42V11.2C287.907 11.0831 288.403 10.9734 288.884 10.8548Z" fill="white"/>
<path d="M575.768 47.2051V349.873H574.304V46.4281C574.793 46.6865 575.279 46.9432 575.768 47.2051Z" fill="white"/>
<path d="M480.142 11.2V349.873H478.676V10.8548C479.167 10.9734 479.653 11.0831 480.142 11.2Z" fill="white"/>
<path d="M575.768 166.042H574.304V177.796H575.768V166.042Z" fill="#D8E9F1"/>
<path d="M766.293 349.926H1.2677V377.652H766.293V349.926Z" fill="white"/>
<path d="M0.43042 378.175H762.109" stroke="#D8E9F1" stroke-miterlimit="10" stroke-linecap="round"/>
<path d="M762.633 378.175C762.633 378.316 762.577 378.451 762.477 378.551C762.378 378.65 762.242 378.706 762.102 378.706H0.43935C0.31629 378.685 0.204772 378.621 0.124413 378.525C0.044054 378.429 0 378.308 0 378.183C0 378.058 0.044054 377.938 0.124413 377.842C0.204772 377.746 0.31629 377.682 0.43935 377.66H762.118C762.253 377.664 762.382 377.72 762.477 377.816C762.573 377.911 762.629 378.04 762.633 378.175Z" fill="#D8E9F1"/>
<path d="M384.708 349.926L322.905 377.652L320.576 378.698H318.022L320.351 377.652L382.151 349.926H384.708Z" fill="#D8E9F1"/>
<path d="M97.7186 349.926L36.1914 377.652L33.8711 378.698H31.3259L33.6463 377.652L95.1734 349.926H97.7186Z" fill="#D8E9F1"/>
<path d="M193.492 349.926L131.671 377.652L129.34 378.698H126.782L129.113 377.652L190.931 349.926H193.492Z" fill="#D8E9F1"/>
<path d="M289.088 349.926L226.83 377.652L224.481 378.698H221.909L224.256 377.652L286.516 349.926H289.088Z" fill="#D8E9F1"/>
<path d="M674.472 349.926L612.497 377.652L610.159 378.698H607.596L609.934 377.652L671.907 349.926H674.472Z" fill="#D8E9F1"/>
<path d="M575.782 349.926L513.788 377.652L511.45 378.698H508.887L511.227 377.652L573.216 349.926H575.782Z" fill="#D8E9F1"/>
<path d="M607.598 378.698H610.159L576.959 393.551C576.893 393.581 576.82 393.597 576.747 393.597C576.631 393.59 576.52 393.545 576.431 393.47C576.343 393.394 576.282 393.291 576.257 393.177C576.233 393.064 576.247 392.945 576.296 392.84C576.346 392.734 576.429 392.648 576.533 392.595L607.598 378.698Z" fill="#D8E9F1"/>
<path d="M480.287 349.926L418.324 377.652L415.986 378.698H413.423L415.76 377.652L477.722 349.926H480.287Z" fill="#D8E9F1"/>
<path d="M736.61 214.539L647.083 311.068H630.348C627.796 311.067 625.269 311.57 622.912 312.546C620.554 313.523 618.411 314.954 616.607 316.759C614.802 318.563 613.371 320.705 612.394 323.063C611.417 325.421 610.915 327.948 610.915 330.499C610.915 335.864 613.09 340.942 616.605 344.45C619.258 347.107 622.625 348.937 626.297 349.717C626.679 349.799 627.067 349.869 627.458 349.926H627.499H591.662C591.485 349.926 591.308 349.926 591.143 349.926C586.17 349.798 581.436 347.762 577.922 344.241C574.405 340.722 572.23 335.655 572.23 330.289C572.23 325.135 574.278 320.193 577.922 316.549C581.566 312.905 586.508 310.858 591.662 310.857H608.402L722.721 187.58C727.754 196.354 732.383 205.34 736.61 214.539Z" fill="#98C8DB"/>
<path d="M671.637 349.926L671.438 350.142H630.348C629.381 350.143 628.415 350.071 627.458 349.926C627.067 349.869 626.679 349.799 626.297 349.717C622.625 348.937 619.258 347.107 616.605 344.45C613.09 340.933 610.915 335.864 610.915 330.499C610.915 327.948 611.417 325.421 612.394 323.063C613.371 320.705 614.802 318.563 616.607 316.759C618.411 314.954 620.554 313.523 622.912 312.546C625.269 311.57 627.796 311.067 630.348 311.068H647.085L736.789 214.362C743.628 229.247 749.34 244.625 753.877 260.365L671.637 349.926Z" fill="white"/>
<path d="M735.127 211.364L644.985 308.556H629.485C623.72 308.556 618.192 310.846 614.116 314.922C610.04 318.998 607.75 324.526 607.75 330.291C607.75 339.14 613.039 346.928 620.626 350.319" stroke="white" stroke-miterlimit="10" stroke-linecap="round"/>
<path d="M434.832 420H622.138" stroke="#D8E9F1" stroke-miterlimit="10" stroke-linecap="round"/>
<path d="M602.977 412.018H563.996L543.545 328.181H587.49C589.77 328.181 591.985 328.947 593.778 330.355C595.571 331.764 596.84 333.734 597.38 335.949L612.865 399.425C613.231 400.923 613.252 402.485 612.926 403.992C612.6 405.499 611.936 406.913 610.983 408.126C610.031 409.339 608.815 410.32 607.428 410.994C606.041 411.668 604.519 412.018 602.977 412.018Z" fill="#FF9900"/>
<path d="M544.239 328.181H588.186C590.466 328.181 592.68 328.947 594.473 330.356C596.266 331.764 597.534 333.734 598.074 335.949L613.561 399.425" stroke="white" stroke-miterlimit="10" stroke-linecap="round"/>
<path d="M553.46 328.275C555.768 328.274 558.009 329.049 559.824 330.474C561.64 331.899 562.924 333.893 563.471 336.135L578.915 399.929C579.285 401.446 579.305 403.026 578.975 404.551C578.644 406.077 577.971 407.507 577.007 408.734C576.043 409.962 574.813 410.954 573.409 411.636C572.005 412.318 570.465 412.673 568.904 412.673" stroke="white" stroke-miterlimit="10" stroke-linecap="round"/>
<path d="M570.414 336.135L585.858 399.929" stroke="white" stroke-miterlimit="10" stroke-linecap="round"/>
<path d="M575.853 336.135L591.297 399.929" stroke="white" stroke-miterlimit="10" stroke-linecap="round"/>
<path d="M581.292 336.135L596.736 399.929" stroke="white" stroke-miterlimit="10" stroke-linecap="round"/>
<path d="M586.731 336.135L602.175 399.929" stroke="white" stroke-miterlimit="10" stroke-linecap="round"/>
<path d="M592.17 336.135L607.614 399.929" stroke="white" stroke-miterlimit="10" stroke-linecap="round"/>
<path d="M569.191 418.828C570.483 418.828 571.531 417.781 571.531 416.488C571.531 415.196 570.483 414.149 569.191 414.149C567.899 414.149 566.851 415.196 566.851 416.488C566.851 417.781 567.899 418.828 569.191 418.828Z" stroke="#122C3B" stroke-linecap="round" stroke-linejoin="round"/>
<path d="M599.92 418.828C601.213 418.828 602.26 417.781 602.26 416.488C602.26 415.196 601.213 414.149 599.92 414.149C598.628 414.149 597.581 415.196 597.581 416.488C597.581 417.781 598.628 418.828 599.92 418.828Z" stroke="#122C3B" stroke-linecap="round" stroke-linejoin="round"/>
<path d="M563.743 411.503L539.067 309.875C538.898 309.18 538.888 308.455 539.04 307.756C539.192 307.057 539.5 306.401 539.942 305.839C540.384 305.276 540.948 304.821 541.592 304.509C542.235 304.196 542.941 304.034 543.657 304.034H551.14C552.436 304.034 553.694 304.471 554.711 305.274C555.728 306.077 556.445 307.199 556.747 308.459L561.145 326.961" stroke="#122C3B" stroke-linecap="round" stroke-linejoin="round"/>
<path d="M538.71 419.312H507.064L515.28 408.184C515.28 408.184 523.455 412.825 541.051 412.179H541.108L541.867 415.297C541.983 415.775 541.989 416.273 541.884 416.754C541.779 417.234 541.567 417.685 541.263 418.071C540.959 418.457 540.571 418.77 540.129 418.985C539.687 419.2 539.201 419.311 538.71 419.312Z" fill="#122C3B"/>
<path d="M464.402 408.198C464.988 408.515 473.507 413.012 492.436 412.189V416.648C492.436 417.968 491.319 419.037 489.94 419.037H457.323L464.402 408.198Z" fill="#122C3B"/>
<path d="M540.556 412.232H540.501C523.719 412.848 515.922 408.42 515.922 408.42L491.905 321.65V412.186C473.779 413.009 465.416 408.512 464.857 408.195V270.648H506.062L539.627 408.423L540.556 412.232Z" fill="white" stroke="#122C3B" stroke-linejoin="round"/>
<path d="M491.906 321.654V293.455L497.087 291.924" stroke="#122C3B" stroke-linecap="round" stroke-linejoin="round"/>
<path d="M552.131 310.206L543.35 310.45C542.969 310.461 542.593 310.355 542.273 310.147C541.953 309.938 541.704 309.637 541.559 309.284L540.957 307.818L536.322 307.756C535.776 307.748 535.243 307.593 534.778 307.307C534.314 307.02 533.935 306.614 533.683 306.13L520.232 278.195L519.975 277.664C519.172 275.259 522.453 272.064 526.866 270.585C531.278 269.105 535.517 269.848 536.326 272.255L545.299 297.754L547.46 297.802C548.377 297.813 549.269 298.102 550.018 298.631C550.767 299.16 551.337 299.904 551.653 300.765L554.057 307.34C554.17 307.657 554.208 307.995 554.167 308.329C554.126 308.662 554.007 308.982 553.819 309.261C553.632 309.54 553.381 309.77 553.088 309.935C552.795 310.099 552.467 310.192 552.131 310.206Z" fill="white"/>
<path d="M543.039 297.747L547.469 297.795" stroke="#122C3B" stroke-miterlimit="10" stroke-linecap="round"/>
<path d="M549.519 309.823C549.856 309.812 550.186 309.72 550.482 309.556C550.777 309.392 551.029 309.16 551.218 308.88C551.407 308.6 551.526 308.279 551.567 307.944C551.608 307.608 551.569 307.268 551.453 306.951L550.124 303.316" stroke="#122C3B" stroke-miterlimit="10" stroke-linecap="round"/>
<path d="M546.618 309.878C546.955 309.866 547.285 309.775 547.581 309.611C547.876 309.447 548.128 309.215 548.317 308.935C548.506 308.655 548.625 308.334 548.666 307.999C548.707 307.663 548.668 307.323 548.552 307.006L547.223 303.37" stroke="#122C3B" stroke-miterlimit="10" stroke-linecap="round"/>
<path d="M543.825 309.969C544.162 309.957 544.493 309.866 544.788 309.702C545.084 309.538 545.336 309.306 545.525 309.026C545.714 308.746 545.834 308.425 545.874 308.089C545.915 307.754 545.876 307.413 545.759 307.096L544.43 303.461" stroke="#122C3B" stroke-miterlimit="10" stroke-linecap="round"/>
<path d="M541.188 307.498V306.613C541.188 305.108 539.736 303.887 538.232 303.887L537.432 301.763" stroke="#122C3B" stroke-miterlimit="10" stroke-linecap="round"/>
<path d="M454.781 303L430.35 299.299C429.744 299.207 429.178 299.624 429.087 300.23L427.834 308.496C427.742 309.102 428.159 309.668 428.765 309.759L453.196 313.461C453.802 313.553 454.367 313.136 454.459 312.53L455.711 304.264C455.803 303.658 455.386 303.092 454.781 303Z" fill="#122C3B"/>
<path d="M430.783 298.204L431.546 298.319L429.981 308.762L429.218 308.646C429.032 308.614 428.854 308.545 428.694 308.444C428.535 308.342 428.397 308.21 428.288 308.055C428.18 307.9 428.103 307.726 428.062 307.541C428.021 307.356 428.017 307.165 428.05 306.979L429.178 299.448C429.227 299.071 429.423 298.728 429.724 298.495C430.024 298.262 430.405 298.157 430.783 298.204Z" fill="#FF9900"/>
<path d="M455.772 303.439L454.645 310.97C454.621 311.158 454.561 311.339 454.468 311.504C454.375 311.669 454.25 311.813 454.101 311.929C453.951 312.046 453.781 312.131 453.598 312.181C453.416 312.232 453.225 312.245 453.038 312.222L452.379 312.123L453.944 301.68L454.602 301.779C454.977 301.845 455.31 302.057 455.529 302.368C455.749 302.679 455.836 303.064 455.772 303.439Z" fill="#FF9900"/>
<path d="M461.402 274.084L449.544 311.314C449.103 312.694 447.668 313.615 446.092 313.517L437.597 313.018C437.322 313.006 437.054 312.927 436.816 312.789C436.577 312.651 436.376 312.458 436.229 312.225L433.535 308.108C433.183 307.535 433.004 306.872 433.019 306.199C433.034 305.526 433.242 304.872 433.618 304.314L437.944 297.903L444.438 270.606C445.769 268.783 449.639 267.857 453.744 268.551C458.517 269.358 461.871 271.632 461.402 274.084Z" fill="white"/>
<path d="M436.581 312.362L436.958 306.675" stroke="#122C3B" stroke-miterlimit="10" stroke-linecap="round"/>
<path d="M439.834 312.841L440.211 306.939" stroke="#122C3B" stroke-miterlimit="10" stroke-linecap="round"/>
<path d="M443.208 313.115L443.585 307.215" stroke="#122C3B" stroke-miterlimit="10" stroke-linecap="round"/>
<path d="M446.176 313.192L446.553 307.289" stroke="#122C3B" stroke-miterlimit="10" stroke-linecap="round"/>
<path d="M478.692 217.141V207.443L489.469 206.865L494.584 217.141H478.692Z" fill="white"/>
<path d="M476.883 204.601L475.873 204.05C475.795 204.008 475.727 203.951 475.672 203.883C475.616 203.815 475.575 203.736 475.55 203.651C475.525 203.567 475.517 203.478 475.526 203.391C475.535 203.303 475.562 203.218 475.604 203.141L478.347 198.125C478.524 197.798 478.777 197.519 479.085 197.313C479.394 197.106 479.748 196.978 480.117 196.939C481.197 196.819 481.728 197.36 481.728 197.36L484.361 199.458C484.787 199.796 485.091 200.263 485.228 200.789C485.365 201.315 485.327 201.872 485.121 202.374L484.133 204.787C483.924 205.273 483.543 205.666 483.064 205.89C482.584 206.114 482.038 206.153 481.531 206.001L476.883 204.601Z" fill="white"/>
<path d="M481.354 200.275L479.731 199.599" stroke="#122C3B" stroke-miterlimit="10" stroke-linecap="round"/>
<path d="M480.215 202.13C480.408 201.683 480.344 201.226 480.072 201.109C479.8 200.991 479.423 201.258 479.231 201.705C479.038 202.152 479.102 202.61 479.374 202.727C479.646 202.844 480.022 202.577 480.215 202.13Z" fill="#122C3B"/>
<path d="M489.767 208.38C489.402 208.614 488.985 208.755 488.553 208.791C488.121 208.826 487.687 208.754 487.289 208.581L485.908 207.987" stroke="#122C3B" stroke-miterlimit="10" stroke-linecap="round"/>
<path d="M487.501 208.164L486.122 207.569L487.345 203.868C487.409 203.672 487.515 203.492 487.655 203.341C487.795 203.19 487.966 203.072 488.157 202.994C488.348 202.916 488.554 202.881 488.759 202.891C488.965 202.9 489.166 202.955 489.349 203.05L489.643 203.201C489.962 203.339 490.25 203.538 490.492 203.787C490.734 204.036 490.924 204.331 491.052 204.653C491.18 204.976 491.243 205.321 491.238 205.668C491.233 206.015 491.159 206.358 491.022 206.677L490.977 206.783C490.697 207.425 490.175 207.931 489.524 208.189C488.872 208.448 488.145 208.439 487.501 208.164Z" fill="white"/>
<path d="M487.76 205.364C487.94 204.96 488.271 204.643 488.683 204.483C489.095 204.322 489.554 204.33 489.96 204.505" stroke="#122C3B" stroke-miterlimit="10" stroke-linecap="round"/>
<path d="M489.349 203.05C489.166 202.955 488.965 202.9 488.759 202.891C488.554 202.881 488.348 202.916 488.157 202.994C487.966 203.072 487.795 203.19 487.655 203.341C487.515 203.492 487.409 203.672 487.345 203.868L485.722 208.803C484.965 209.767 483.393 210.066 482.112 210.013L478.337 209.916C477.927 209.905 477.527 209.794 477.17 209.592C476.813 209.391 476.512 209.105 476.291 208.76C476.07 208.415 475.937 208.021 475.904 207.613C475.871 207.205 475.938 206.795 476.099 206.419L476.885 204.596L481.526 205.996C482.033 206.148 482.579 206.108 483.059 205.884C483.539 205.66 483.919 205.267 484.128 204.78L485.115 202.369C485.322 201.866 485.36 201.31 485.223 200.784C485.086 200.258 484.782 199.79 484.356 199.452L481.722 197.355C481.321 197.064 480.837 196.91 480.341 196.916C479.846 196.923 479.365 197.089 478.972 197.39C477.614 194.58 480.469 193.789 481.627 194.367C482.468 194.789 489.653 199.082 490.085 200.341C490.342 201.082 490.186 202.192 489.882 203.323L489.349 203.05Z" fill="#122C3B"/>
<path d="M461.632 273.956C461.961 271.553 458.434 269.344 453.74 268.551C449.634 267.857 445.554 268.783 444.222 270.604L453 229.965C453.815 226.327 455.844 223.074 458.754 220.743C461.663 218.412 465.281 217.141 469.009 217.141H504.862C507.713 217.141 510.499 217.988 512.867 219.575C515.235 221.162 517.077 223.417 518.161 226.054L536.253 272.017C535.257 269.795 531.154 269.142 526.883 270.578C522.497 272.052 519.232 275.213 519.981 277.615L505.197 245.286L504.713 256.39L508.62 277.594C508.62 277.594 509.087 288.213 494.51 288.648C479.039 289.109 471.057 278.052 471.057 278.052L464.154 287.078V261.519L461.632 273.956Z" fill="#FF9900"/>
<path d="M479.091 212.307H492.218C492.532 212.308 492.839 212.396 493.106 212.561C493.372 212.727 493.587 212.964 493.726 213.245L495.643 217.139H475.36L477.63 213.155C477.777 212.897 477.99 212.683 478.246 212.534C478.503 212.385 478.794 212.307 479.091 212.307Z" fill="#FF9900"/>
<path d="M519.616 277.838C518.823 275.294 522.051 271.944 526.696 270.383C531.223 268.863 535.568 269.553 536.625 271.909L534.08 265.611C532.995 263.194 528.77 262.248 524.117 263.813C519.338 265.417 515.798 268.856 516.605 271.468L519.616 277.838Z" stroke="white" stroke-linejoin="round"/>
<path d="M459.953 220.176C459.953 220.176 468.303 221.277 469.915 231.93H506" stroke="white" stroke-linecap="round" stroke-linejoin="round"/>
<path d="M462.05 273.284L469.94 231.921" stroke="white" stroke-linecap="round" stroke-linejoin="round"/>
<path d="M505.202 246.456L506.809 229.758" stroke="white" stroke-linecap="round" stroke-linejoin="round"/>
<path d="M462.992 269.16L461.834 274.086C462.305 271.636 458.517 269.356 453.74 268.549C449.123 267.769 444.593 269.04 443.847 271.326L445.034 266.047C445.535 263.588 450.257 262.252 455.054 263.063C459.85 263.873 463.492 266.703 462.992 269.16Z" stroke="white" stroke-linejoin="round"/>
<path d="M495.413 216.909H475.36" stroke="white" stroke-miterlimit="10" stroke-linecap="round"/>
<path d="M269.337 321.275H218.879C221.567 321.275 224.19 320.449 226.392 318.908C228.595 317.368 230.271 315.187 231.192 312.662L242.654 280.785L254.615 311.935C255.537 314.459 257.213 316.639 259.415 318.18C261.617 319.72 264.239 320.547 266.927 320.547H268.852L269.337 321.275Z" fill="#122C3B" stroke="#122C3B" stroke-linecap="round" stroke-linejoin="round"/>
<path d="M401.542 320.538H266.929C264.241 320.539 261.618 319.712 259.415 318.172C257.213 316.631 255.537 314.451 254.615 311.926L243.026 280.206H357.008C358.275 280.206 359.511 280.596 360.549 281.322C361.587 282.048 362.377 283.076 362.811 284.266L372.917 311.926C373.574 313.728 374.619 315.364 375.978 316.717C377.699 317.648 379.625 318.134 381.581 318.133H399.103C399.744 318.133 400.359 318.385 400.815 318.835C401.27 319.286 401.53 319.898 401.537 320.538H401.542Z" fill="#FF9900"/>
<path d="M242.345 280.176L230.424 312.804C229.596 315.072 228.091 317.03 226.112 318.413C224.134 319.797 221.778 320.539 219.364 320.538H203.125C203.133 319.898 203.392 319.286 203.848 318.836C204.304 318.386 204.918 318.133 205.559 318.133H216.959C219.373 318.134 221.729 317.392 223.707 316.008C225.686 314.625 227.191 312.666 228.019 310.399L237.93 283.261C238.26 282.356 238.861 281.575 239.65 281.023C240.439 280.471 241.378 280.176 242.341 280.176H242.345Z" fill="#FF9900"/>
<path d="M401.177 321.275H264.838" stroke="#122C3B" stroke-miterlimit="10" stroke-linecap="round"/>
<path d="M326.615 321.275C323.927 321.275 321.305 320.449 319.102 318.909C316.9 317.369 315.224 315.189 314.302 312.664L302.712 280.942" stroke="#122C3B" stroke-miterlimit="10" stroke-linecap="round"/>
<path d="M356.459 321.275C353.771 321.275 351.148 320.449 348.946 318.909C346.743 317.369 345.067 315.189 344.144 312.664L332.557 280.942" stroke="#122C3B" stroke-miterlimit="10" stroke-linecap="round"/>
<path d="M296.773 321.275C294.085 321.275 291.462 320.449 289.259 318.909C287.057 317.369 285.38 315.189 284.458 312.664L272.87 280.942" stroke="#A74602" stroke-miterlimit="10" stroke-linecap="round"/>
<path d="M216.191 355.625C216.191 337.301 227.929 322.446 242.41 322.446C256.891 322.446 268.631 337.301 268.631 355.625" stroke="#122C3B" stroke-miterlimit="10"/>
<path d="M344.077 355.625C344.077 337.301 355.817 322.446 370.298 322.446C384.779 322.446 396.519 337.301 396.519 355.625" stroke="#122C3B" stroke-miterlimit="10"/>
<path d="M298.985 295.468L290.728 297.367L289.613 292.169L291.243 290.501C291.876 289.854 292.29 289.024 292.426 288.129C292.563 287.234 292.415 286.319 292.005 285.512L289.309 280.225L293.836 280.199L298.985 295.468Z" fill="white"/>
<path d="M285.925 270.394C287.251 270.394 288.546 270.797 289.638 271.549C290.731 272.301 291.569 273.367 292.042 274.606L293.905 280.199L289.316 280.225L292.012 285.512C292.422 286.319 292.57 287.234 292.433 288.129C292.297 289.024 291.883 289.854 291.251 290.501L289.621 292.169L290.736 297.367L265.9 302.831L256.191 280.275H255.964L255.653 277.933C255.53 277.001 255.606 276.053 255.875 275.152C256.145 274.25 256.602 273.416 257.216 272.704C257.831 271.992 258.589 271.418 259.441 271.019C260.293 270.621 261.22 270.407 262.16 270.392L285.925 270.394Z" fill="#FF9900"/>
<path d="M291.243 290.501C291.876 289.854 292.29 289.025 292.426 288.13C292.563 287.235 292.415 286.32 292.004 285.514L287.711 277.089" stroke="white" stroke-miterlimit="10" stroke-linecap="round"/>
<path d="M331.245 346.036H313.958L312.396 341.291L298.121 297.905C297.615 296.353 299.222 294.76 300.852 294.76L307.727 294.533C309.672 294.533 311.567 295.145 313.146 296.282C314.724 297.42 315.904 299.024 316.519 300.87L329.696 341.291L331.245 346.036Z" fill="#122C3B"/>
<path d="M309.265 306.255L296.521 341.299L294.794 346.045H277.467L279.095 341.299L286.564 319.558H277.125C271.198 319.558 261.727 315.236 265.916 302.611L300.981 294.576C302.383 294.577 303.765 294.913 305.01 295.557C306.255 296.201 307.328 297.133 308.139 298.277C308.95 299.42 309.475 300.741 309.671 302.129C309.867 303.517 309.727 304.932 309.265 306.255Z" fill="#122C3B"/>
<path d="M288.086 313.726L285.295 321.926" stroke="white" stroke-miterlimit="10" stroke-linecap="round"/>
<path d="M294.932 347.078L309.516 305.753C309.979 304.429 310.119 303.014 309.923 301.626C309.727 300.237 309.202 298.916 308.39 297.772C307.579 296.628 306.506 295.696 305.26 295.052C304.015 294.408 302.633 294.072 301.231 294.071" stroke="white" stroke-miterlimit="10" stroke-linecap="round"/>
<path d="M296.52 341.291L294.792 346.036H277.465L279.093 341.291H296.52Z" fill="#122C3B"/>
<path d="M331.245 346.036H313.957L312.396 341.291H329.696L331.245 346.036Z" fill="#122C3B"/>
<path d="M302.109 356.105H287.242C286.934 356.105 286.637 355.997 286.401 355.8L284.047 353.832C283.983 353.778 283.907 353.742 283.825 353.725C283.743 353.709 283.658 353.714 283.578 353.739C283.499 353.764 283.427 353.809 283.369 353.87C283.311 353.93 283.27 354.004 283.249 354.085L282.867 355.636C282.832 355.771 282.753 355.89 282.642 355.975C282.531 356.06 282.395 356.106 282.256 356.105H276.258C276.167 356.106 276.076 356.087 275.994 356.049C275.911 356.011 275.837 355.956 275.778 355.886C275.719 355.817 275.677 355.735 275.653 355.647C275.629 355.559 275.626 355.467 275.642 355.377L277.47 346.032H294.868L302.109 356.105Z" fill="#FF9900"/>
<path d="M338.942 356.105H324.075C323.768 356.105 323.47 355.997 323.235 355.8L320.881 353.832C320.816 353.778 320.74 353.742 320.658 353.725C320.576 353.709 320.491 353.714 320.411 353.739C320.331 353.764 320.259 353.809 320.201 353.87C320.144 353.93 320.102 354.004 320.081 354.085L319.7 355.636C319.665 355.771 319.586 355.89 319.475 355.975C319.365 356.06 319.229 356.106 319.089 356.105H312.64C312.549 356.106 312.458 356.087 312.375 356.05C312.292 356.012 312.218 355.956 312.159 355.887C312.1 355.817 312.057 355.736 312.034 355.647C312.01 355.559 312.006 355.467 312.022 355.377L313.85 346.032H331.249L338.942 356.105Z" fill="#FF9900"/>
<path d="M280.932 269.871C278.868 270.933 276.348 270.512 274.219 268.986L274.18 269.008C269.155 271.611 263.488 270.424 261.52 266.631C259.552 262.838 262.031 257.65 267.052 255.043C268.5 254.28 270.08 253.8 271.707 253.627C271.594 253.273 271.559 252.899 271.604 252.529C271.65 252.16 271.774 251.806 271.97 251.489C272.166 251.173 272.427 250.903 272.737 250.697C273.047 250.492 273.398 250.356 273.765 250.299C274.133 250.242 274.508 250.265 274.866 250.367C275.223 250.469 275.555 250.647 275.837 250.889C276.119 251.131 276.346 251.431 276.501 251.769C276.656 252.107 276.736 252.475 276.736 252.847C276.736 253.254 276.639 253.655 276.452 254.017C278.93 254.408 281.42 256.275 282.895 259.132C285.082 263.378 284.205 268.181 280.932 269.871Z" fill="#122C3B"/>
<path d="M267.598 270.395L271.033 262.765H277.387V275.415L267.598 270.395Z" fill="white"/>
<path d="M277.387 262.765V267.633C276.269 267.78 275.134 267.526 274.187 266.914C273.239 266.302 272.54 265.373 272.215 264.293L271.755 262.765H277.387Z" fill="#122C3B"/>
<path d="M279.936 258.512V262.466C279.936 262.868 279.857 263.267 279.703 263.638C279.549 264.01 279.324 264.347 279.039 264.632C278.755 264.916 278.417 265.142 278.046 265.295C277.674 265.449 277.276 265.528 276.874 265.528H275.373C274.567 265.528 273.78 265.285 273.115 264.831C272.449 264.377 271.936 263.733 271.642 262.983H270.226C269.699 262.967 269.199 262.747 268.832 262.369C268.465 261.991 268.259 261.484 268.259 260.957C268.259 260.43 268.465 259.924 268.832 259.546C269.199 259.167 269.699 258.947 270.226 258.932H270.415C270.75 258.931 271.079 259.02 271.369 259.188V259.179L276.601 255.156C277.489 255.163 278.338 255.52 278.963 256.15C279.588 256.78 279.939 257.632 279.939 258.519L279.936 258.512Z" fill="white"/>
<path d="M271.113 261.259C271.113 260.977 271.001 260.707 270.802 260.508C270.602 260.309 270.332 260.197 270.051 260.197" stroke="#122C3B" stroke-miterlimit="10" stroke-linecap="round"/>
<path d="M280.031 258.532C280.031 258.532 278.868 258.084 277.937 258.946C277.297 259.541 277.125 261.165 277.613 261.847" stroke="#122C3B" stroke-miterlimit="10" stroke-linecap="round"/>
<path d="M275.281 260.886C275.482 260.886 275.645 260.663 275.645 260.388C275.645 260.114 275.482 259.891 275.281 259.891C275.079 259.891 274.916 260.114 274.916 260.388C274.916 260.663 275.079 260.886 275.281 260.886Z" fill="#122C3B"/>
<path d="M278.679 260.886C278.88 260.886 279.044 260.663 279.044 260.388C279.044 260.114 278.88 259.891 278.679 259.891C278.478 259.891 278.314 260.114 278.314 260.388C278.314 260.663 278.478 260.886 278.679 260.886Z" fill="#122C3B"/>
<path d="M277.704 263.484C277.704 263.484 276.543 263.79 276.18 262.859" stroke="#122C3B" stroke-miterlimit="10" stroke-linecap="round"/>
<path d="M273.599 258.905C273.599 258.905 274.628 258.109 275.928 258.36" stroke="#122C3B" stroke-miterlimit="10" stroke-linecap="round"/>
<path d="M308.353 295.137C308.353 295.428 308.237 295.707 308.031 295.913C307.824 296.119 307.545 296.234 307.254 296.234H293.845L271.806 302.843C270.762 303.172 269.663 303.291 268.572 303.195C267.481 303.098 266.42 302.786 265.45 302.279C264.48 301.771 263.62 301.077 262.918 300.235C262.217 299.394 261.689 298.423 261.364 297.377L256.033 280.277L270.07 280.199L273.226 289.56L294.98 289.296C297.325 289.296 299.636 290.073 301.73 291.126L307.748 294.156C307.929 294.248 308.082 294.388 308.188 294.561C308.295 294.734 308.351 294.934 308.351 295.137H308.353Z" fill="white"/>
<path d="M271.412 289.799L277.629 289.88" stroke="#122C3B" stroke-miterlimit="10" stroke-linecap="round"/>
<path d="M292.102 294.468C292.102 295.044 292.331 295.596 292.738 296.003C293.145 296.411 293.698 296.639 294.274 296.639" stroke="#122C3B" stroke-miterlimit="10" stroke-linecap="round"/>
<path d="M300.948 293.146L305.438 294.985C305.682 295.085 305.891 295.255 306.038 295.474C306.185 295.693 306.264 295.951 306.265 296.215" stroke="#122C3B" stroke-miterlimit="10" stroke-linecap="round"/>
<path d="M297.762 293.546L301.273 294.985C301.517 295.085 301.726 295.255 301.873 295.474C302.02 295.693 302.098 295.951 302.098 296.215" stroke="#122C3B" stroke-miterlimit="10" stroke-linecap="round"/>
<path d="M341.656 149.644H227.143C226.38 149.644 225.634 149.414 225.003 148.985C224.372 148.557 223.884 147.948 223.603 147.238L199.419 86.1501C199.191 85.5729 199.107 84.9485 199.175 84.3315C199.243 83.7145 199.462 83.1236 199.811 82.6103C200.16 82.0969 200.629 81.6768 201.178 81.3865C201.727 81.0962 202.338 80.9446 202.959 80.9448H317.472C318.235 80.945 318.98 81.1744 319.611 81.6033C320.242 82.0322 320.73 82.6407 321.011 83.3501L345.19 144.438C345.418 145.015 345.502 145.639 345.434 146.256C345.366 146.872 345.148 147.463 344.8 147.976C344.451 148.489 343.983 148.909 343.435 149.2C342.887 149.491 342.276 149.643 341.656 149.644Z" fill="white"/>
<path d="M252.837 148.991L226.099 81.4386" stroke="#D8E9F1" stroke-miterlimit="10" stroke-linecap="round"/>
<path d="M200.706 77.389H320.399C321.04 77.389 321.666 77.5815 322.196 77.9415C322.727 78.3016 323.136 78.8127 323.373 79.4085L349.765 146.088" stroke="#122C3B" stroke-miterlimit="10" stroke-linecap="round"/>
<path d="M262.452 77.3891V19.0106" stroke="#122C3B" stroke-miterlimit="10" stroke-linecap="round"/>
<path d="M206.695 103.729H328.67" stroke="#D8E9F1" stroke-miterlimit="10" stroke-linecap="round"/>
<path d="M215.69 126.599H337.873" stroke="#D8E9F1" stroke-miterlimit="10" stroke-linecap="round"/>
<path d="M222.562 93.058H211.369" stroke="#FF9900" stroke-miterlimit="10" stroke-linecap="round"/>
<path d="M283.651 89.4368H237.798" stroke="#FF9900" stroke-miterlimit="10" stroke-linecap="round"/>
<path d="M291.967 110.768H246.114" stroke="#FF9900" stroke-miterlimit="10" stroke-linecap="round"/>
<path d="M293.851 116.207H247.998" stroke="#FF9900" stroke-miterlimit="10" stroke-linecap="round"/>
<path d="M310.374 133.376H254.063" stroke="#FF9900" stroke-miterlimit="10" stroke-linecap="round"/>
<path d="M301.381 138.815H255.946" stroke="#FF9900" stroke-miterlimit="10" stroke-linecap="round"/>
<path d="M300.923 94.8739H239.89" stroke="#FF9900" stroke-miterlimit="10" stroke-linecap="round"/>
<path d="M216.725 97.4438L210.355 92.9164L215.129 88.3908" stroke="#FF9900" stroke-linecap="round" stroke-linejoin="round"/>
<path d="M230.922 115.435H219.727" stroke="#FF9900" stroke-miterlimit="10" stroke-linecap="round"/>
<path d="M225.083 119.821L218.713 115.293L223.488 110.768" stroke="#FF9900" stroke-linecap="round" stroke-linejoin="round"/>
<path d="M239.323 138.044H228.129" stroke="#FF9900" stroke-miterlimit="10" stroke-linecap="round"/>
<path d="M233.486 142.429L227.115 137.904L231.89 133.376" stroke="#FF9900" stroke-linecap="round" stroke-linejoin="round"/>
<path d="M309.073 89.4368H315.107" stroke="#FF9900" stroke-miterlimit="10" stroke-linecap="round"/>
<path d="M311.164 94.8739H317.199" stroke="#FF9900" stroke-miterlimit="10" stroke-linecap="round"/>
<path d="M315.944 110.768H321.978" stroke="#FF9900" stroke-miterlimit="10" stroke-linecap="round"/>
<path d="M318.034 116.207H324.07" stroke="#FF9900" stroke-miterlimit="10" stroke-linecap="round"/>
<path d="M323.652 133.376H329.686" stroke="#FF9900" stroke-miterlimit="10" stroke-linecap="round"/>
<path d="M325.744 138.815H331.778" stroke="#FF9900" stroke-miterlimit="10" stroke-linecap="round"/>
<path d="M423.977 149.852H538.49C539.253 149.852 539.999 149.623 540.63 149.194C541.261 148.765 541.749 148.157 542.03 147.447L566.211 86.3589C566.439 85.7817 566.523 85.1573 566.454 84.5403C566.386 83.9233 566.168 83.3324 565.819 82.8191C565.47 82.3058 565 81.8856 564.452 81.5953C563.903 81.305 563.291 81.1534 562.671 81.1536H448.158C447.395 81.1533 446.649 81.3826 446.018 81.8115C445.387 82.2404 444.899 82.8493 444.618 83.5589L420.438 144.647C420.209 145.224 420.126 145.849 420.194 146.466C420.262 147.083 420.48 147.674 420.829 148.187C421.178 148.7 421.648 149.12 422.197 149.411C422.745 149.701 423.357 149.853 423.977 149.852Z" fill="white"/>
<path d="M512.797 149.199L539.535 81.6474" stroke="#D8E9F1" stroke-miterlimit="10" stroke-linecap="round"/>
<path d="M564.925 77.5979H445.232C444.591 77.5979 443.966 77.7905 443.436 78.1506C442.906 78.5107 442.496 79.0217 442.26 79.6174L415.868 146.297" stroke="#122C3B" stroke-miterlimit="10" stroke-linecap="round"/>
<path d="M503.179 77.5979V17.5468" stroke="#122C3B" stroke-miterlimit="10" stroke-linecap="round"/>
<path d="M558.936 103.938H436.963" stroke="#D8E9F1" stroke-miterlimit="10" stroke-linecap="round"/>
<path d="M549.943 126.808H427.76" stroke="#D8E9F1" stroke-miterlimit="10" stroke-linecap="round"/>
<path d="M543.069 93.2668H554.264" stroke="#FF9900" stroke-miterlimit="10" stroke-linecap="round"/>
<path d="M521.308 89.6456H527.834" stroke="#FF9900" stroke-miterlimit="10" stroke-linecap="round"/>
<path d="M442.289 110.977H500.89" stroke="#FF9900" stroke-miterlimit="10" stroke-linecap="round"/>
<path d="M440.406 116.415H466.722" stroke="#FF9900" stroke-miterlimit="10" stroke-linecap="round"/>
<path d="M432.666 133.585H488.977" stroke="#FF9900" stroke-miterlimit="10" stroke-linecap="round"/>
<path d="M431.202 139.024H476.637" stroke="#FF9900" stroke-miterlimit="10" stroke-linecap="round"/>
<path d="M448.223 95.0828H500.89" stroke="#FF9900" stroke-miterlimit="10" stroke-linecap="round"/>
<path d="M548.906 97.6527L555.276 93.1253L550.502 88.5996" stroke="#FF9900" stroke-linecap="round" stroke-linejoin="round"/>
<path d="M534.711 115.644H545.904" stroke="#FF9900" stroke-miterlimit="10" stroke-linecap="round"/>
<path d="M540.549 120.03L546.919 115.504L542.145 110.977" stroke="#FF9900" stroke-linecap="round" stroke-linejoin="round"/>
<path d="M526.308 138.253H537.503" stroke="#FF9900" stroke-miterlimit="10" stroke-linecap="round"/>
<path d="M532.145 142.638L538.517 138.113L533.741 133.585" stroke="#FF9900" stroke-linecap="round" stroke-linejoin="round"/>
<path d="M510.446 89.6456H450.524" stroke="#FF9900" stroke-miterlimit="10" stroke-linecap="round"/>
<path d="M525.533 95.0828H519.708" stroke="#FF9900" stroke-miterlimit="10" stroke-linecap="round"/>
<path d="M519.517 110.977H513.483" stroke="#FF9900" stroke-miterlimit="10" stroke-linecap="round"/>
<path d="M517.425 116.415H511.391" stroke="#FF9900" stroke-miterlimit="10" stroke-linecap="round"/>
<path d="M511.568 133.585H505.535" stroke="#FF9900" stroke-miterlimit="10" stroke-linecap="round"/>
<path d="M509.476 139.024H503.443" stroke="#FF9900" stroke-miterlimit="10" stroke-linecap="round"/>
</svg>
