<svg width="365" height="46" viewBox="0 0 365 46" fill="none" xmlns="http://www.w3.org/2000/svg">
<path d="M1 8.1084C5.34874 3.76115 11.246 1.31909 17.395 1.31909C23.544 1.31909 29.4413 3.76115 33.79 8.1084C38.137 12.455 44.0326 14.897 50.18 14.897C56.3274 14.897 62.223 12.455 66.57 8.1084C70.9187 3.76115 76.816 1.31909 82.965 1.31909C89.114 1.31909 95.0112 3.76115 99.36 8.1084L99.52 8.26855C103.867 12.6152 109.763 15.0569 115.91 15.0569C122.057 15.0569 127.953 12.6152 132.3 8.26855L132.78 7.78833C137.127 3.44169 143.023 1 149.17 1C155.317 1 161.213 3.44169 165.56 7.78833L166.03 8.26855C170.379 12.6158 176.276 15.0579 182.425 15.0579C188.574 15.0579 194.471 12.6158 198.82 8.26855L199.14 7.94849C203.487 3.60184 209.383 1.15991 215.53 1.15991C221.677 1.15991 227.573 3.60184 231.92 7.94849L232.24 8.26855C236.587 12.6152 242.483 15.0569 248.63 15.0569C254.777 15.0569 260.673 12.6152 265.02 8.26855L265.18 8.1084C269.529 3.76115 275.426 1.31909 281.575 1.31909C287.724 1.31909 293.621 3.76115 297.97 8.1084" stroke="#EBEEF4" stroke-miterlimit="10" stroke-linecap="round"/>
<path d="M298.131 8.26855C302.478 12.6152 308.374 15.0569 314.521 15.0569C320.668 15.0569 326.564 12.6152 330.911 8.26855L331.071 8.1084C335.42 3.76115 341.317 1.31909 347.466 1.31909C353.615 1.31909 359.512 3.76115 363.861 8.1084" stroke="#EBEEF4" stroke-miterlimit="10" stroke-linecap="round"/>
<path d="M99.3301 38.0383L99.4901 38.1985C103.837 42.5451 109.733 44.9871 115.88 44.9871C122.027 44.9871 127.923 42.5451 132.27 38.1985L132.75 37.7185C137.097 33.3719 142.993 30.9299 149.14 30.9299C155.287 30.9299 161.183 33.3719 165.53 37.7185L166 38.1985C170.349 42.5457 176.246 44.9878 182.395 44.9878C188.544 44.9878 194.441 42.5457 198.79 38.1985L199.11 37.8784C203.457 33.5318 209.353 31.0898 215.5 31.0898C221.647 31.0898 227.543 33.5318 231.89 37.8784L232.21 38.1985C236.557 42.5451 242.453 44.9871 248.6 44.9871C254.747 44.9871 260.643 42.5451 264.99 38.1985L265.15 38.0383C269.499 33.6911 275.396 31.249 281.545 31.249C287.694 31.249 293.591 33.6911 297.94 38.0383" stroke="#EBEEF4" stroke-miterlimit="10" stroke-linecap="round"/>
</svg>
