<svg width="288" height="233" viewBox="0 0 288 233" fill="none" xmlns="http://www.w3.org/2000/svg">
<path d="M235.309 157.796C234.018 160.184 232.106 162.179 229.774 163.569C227.442 164.959 224.777 165.692 222.062 165.691H129.814V153.905H146.438L169.57 101.287C170.783 98.5273 172.772 96.1797 175.296 94.5304C177.82 92.8811 180.768 92.0013 183.783 91.9983H242.535C253.995 91.9983 261.512 103.982 256.531 114.294L235.309 157.796Z" fill="#122C3B"/>
<path d="M215.014 165.692L240.202 231.871" stroke="#122C3B" stroke-linecap="round" stroke-linejoin="round"/>
<path d="M159.021 165.692L133.833 231.871" stroke="#122C3B" stroke-linecap="round" stroke-linejoin="round"/>
<path d="M149.113 77.9934V66.7229C149.113 62.3241 149.98 57.9683 151.663 53.9043C153.346 49.8403 155.814 46.1477 158.924 43.0372C162.035 39.9268 165.727 37.4595 169.791 35.7761C173.855 34.0927 178.211 33.2263 182.61 33.2263H234.888C243.413 33.2251 251.732 35.8477 258.714 40.738C265.697 45.6283 271.006 52.5492 273.919 60.5609L286.235 94.4142C290.309 105.618 287.024 117.15 279.521 124.678C272.389 131.835 261.765 134.246 252.134 131.188L236.067 123.87L230.431 132.144L149.113 77.9934Z" fill="#FF9900"/>
<path d="M185.954 94.3284H126.389L114.853 57.9752C114.678 57.4245 114.636 56.8402 114.729 56.27C114.822 55.6998 115.049 55.1596 115.39 54.6933C115.732 54.2271 116.178 53.848 116.694 53.5868C117.209 53.3255 117.779 53.1896 118.357 53.1899H168.475C169.758 53.1896 171.009 53.5981 172.045 54.3562C173.082 55.1144 173.85 56.1828 174.238 57.4066L185.954 94.3284Z" fill="#122C3B"/>
<path d="M105.238 54.8897C105.238 52.1548 106.324 49.532 108.258 47.5981C110.192 45.6643 112.815 44.5779 115.55 44.5779" stroke="white" stroke-miterlimit="10" stroke-linecap="round"/>
<path d="M98.2318 54.8896C98.2348 50.298 100.061 45.8955 103.309 42.65C106.557 39.4045 110.961 37.5818 115.553 37.5825" stroke="white" stroke-miterlimit="10" stroke-linecap="round"/>
<path d="M91.5848 54.8898C91.5848 48.5331 94.11 42.4368 98.6049 37.9419C103.1 33.4471 109.196 30.9219 115.553 30.9219" stroke="white" stroke-miterlimit="10" stroke-linecap="round"/>
<path d="M278.48 126.102L278.863 126.423L278.48 126.102C274.412 130.958 267.808 132.459 261.464 132.446C255.133 132.432 249.194 130.907 246.62 129.862C239.326 126.89 230.891 121.354 223.732 116.222C220.283 113.749 217.139 111.375 214.569 109.436L214.291 109.226C211.706 107.275 209.704 105.768 208.623 105.109C207.89 104.543 206.998 104.222 206.072 104.189C205.136 104.155 204.213 104.419 203.436 104.942L203.419 104.953L203.403 104.966L193.165 113.15C191.902 114.038 190.677 114.476 189.509 114.47C188.345 114.463 187.178 114.013 186.025 113.014L186.025 113.014L186.021 113.01L172.785 101.823L172.527 101.604L172.228 101.763L169.424 103.251L169.424 103.251L169.418 103.255C168.1 103.979 166.549 104.155 165.102 103.744C164.731 103.62 164.403 103.394 164.156 103.091C163.906 102.786 163.749 102.416 163.702 102.025C163.654 101.634 163.72 101.237 163.89 100.881C164.06 100.526 164.328 100.226 164.662 100.017L164.664 100.016L186.235 86.4298L186.235 86.4299L186.242 86.425C191.758 82.8139 198.207 80.8897 204.8 80.8882C204.8 80.8882 204.8 80.8882 204.8 80.8882H206.193C209.932 80.8883 213.661 81.2495 217.33 81.9667L261.605 92.4991L261.622 92.5032L261.64 92.506C268.567 93.6458 276.323 97.8935 280.559 103.933C282.67 106.943 283.898 110.384 283.737 114.104C283.575 117.824 282.022 121.875 278.48 126.102Z" fill="white" stroke="#122C3B"/>
<path d="M172.635 102.252L183.204 95.8303" stroke="#122C3B" stroke-linecap="round" stroke-linejoin="round"/>
<path d="M177.97 106.295L188.019 100.273" stroke="#122C3B" stroke-linecap="round" stroke-linejoin="round"/>
<path d="M183.109 110.785L193.161 104.76" stroke="#122C3B" stroke-linecap="round" stroke-linejoin="round"/>
<path d="M230.429 132.15L225.147 138.156C217.957 146.336 208.144 151.76 197.392 153.495C186.64 155.231 175.619 153.171 166.22 147.668L116.132 118.349C115.218 117.815 114.147 117.618 113.103 117.791C112.058 117.965 111.108 118.498 110.416 119.299L57.3552 180.769L40.4355 167.355C38.8496 166.089 37.6766 164.38 37.066 162.444L35.1514 156.363C34.1405 153.155 32.2007 150.319 29.5775 148.214L24.5107 144.165L89.3691 73.7799C94.9922 67.6212 102.634 63.679 110.912 62.6668C119.19 61.6547 127.557 63.6393 134.498 68.2617L230.429 132.15Z" fill="white" stroke="#122C3B" stroke-linejoin="round"/>
<path d="M179.096 154.039L134.699 153.939C134.055 153.937 133.417 154.062 132.822 154.307C132.227 154.552 131.686 154.912 131.23 155.367C130.774 155.822 130.412 156.362 130.165 156.956C129.918 157.551 129.791 158.189 129.791 158.833V219.967H108.279C106.249 219.967 104.265 219.362 102.579 218.231L97.2841 214.681C94.4892 212.805 91.1996 211.803 87.8335 211.802H81.3483C81.4124 211.102 81.4486 210.408 81.4486 209.681V138.362C81.4486 120.484 100.854 109.353 116.286 118.38L179.096 154.039Z" fill="white" stroke="#122C3B" stroke-linejoin="round"/>
<path d="M129.802 219.967V223.713C129.802 225.957 128.91 228.109 127.323 229.695C125.737 231.282 123.585 232.173 121.341 232.174H67.5527L73.5976 226.918C78.0317 223.065 80.8097 217.651 81.3538 211.802H87.8391C91.2051 211.802 94.4948 212.805 97.2897 214.68L102.585 218.231C104.27 219.362 106.254 219.967 108.284 219.967H129.802Z" fill="#122C3B"/>
<path d="M129.802 219.967V223.713C129.802 225.957 128.91 228.109 127.323 229.695C125.737 231.282 123.585 232.173 121.341 232.174H67.5527L73.5976 226.918C78.0317 223.065 80.8097 217.651 81.3538 211.802H87.8391C91.2051 211.802 94.4948 212.805 97.2897 214.68L102.585 218.231C104.27 219.362 106.254 219.967 108.284 219.967H129.802Z" stroke="#59221D" stroke-linecap="round" stroke-linejoin="round"/>
<path d="M129.803 219.968V221.991C129.803 221.991 126.848 228.593 123.197 228.593H71.672L73.595 226.921C78.029 223.068 80.807 217.654 81.3511 211.805H87.8364C91.2024 211.806 94.4921 212.808 97.287 214.684L102.582 218.234C104.268 219.366 106.252 219.97 108.282 219.971L129.803 219.968Z" stroke="#122C3B" stroke-linecap="round" stroke-linejoin="round"/>
<path d="M129.802 221.991V223.713C129.802 225.957 128.91 228.109 127.323 229.695C125.737 231.282 123.585 232.174 121.341 232.174H67.5527L71.6747 228.593H123.2C126.848 228.593 129.802 221.991 129.802 221.991Z" fill="white" stroke="#122C3B" stroke-linejoin="round"/>
<path d="M57.2466 180.794L54.9083 183.72C53.5058 185.472 51.4655 186.596 49.2354 186.844C47.0052 187.093 44.7675 186.446 43.0135 185.047L1 151.461L9.00416 151.127C14.8736 150.885 20.4239 148.39 24.4997 144.159L29.5664 148.209C32.1896 150.314 34.1294 153.15 35.1403 156.358L37.0577 162.439C37.6663 164.374 38.8386 166.084 40.4244 167.35L57.2466 180.794Z" fill="#122C3B"/>
<path d="M57.2466 180.794L54.9083 183.72C53.5058 185.472 51.4655 186.596 49.2354 186.844C47.0052 187.093 44.7675 186.446 43.0135 185.047L1 151.461L9.00416 151.127C14.8736 150.885 20.4239 148.39 24.4997 144.159L29.5664 148.209C32.1896 150.314 34.1294 153.15 35.1403 156.358L37.0577 162.439C37.6663 164.374 38.8386 166.084 40.4244 167.35L57.2466 180.794Z" stroke="#59221D" stroke-linecap="round" stroke-linejoin="round"/>
<path d="M57.2466 180.794L55.9841 182.374C55.9841 182.374 49.5545 185.685 46.7035 183.405L6.45691 151.235L9.00417 151.127C14.8736 150.885 20.4239 148.39 24.4997 144.159L29.5664 148.209C32.1896 150.314 34.1294 153.15 35.1404 156.358L37.0578 162.439C37.6663 164.374 38.8386 166.084 40.4244 167.35L57.2466 180.794Z" stroke="#122C3B" stroke-linecap="round" stroke-linejoin="round"/>
<path d="M55.9841 182.374L54.9083 183.72C53.5058 185.472 51.4655 186.595 49.2353 186.844C47.0052 187.093 44.7675 186.446 43.0135 185.047L1 151.461L6.4569 151.235L46.7035 183.405C49.5545 185.685 55.9841 182.374 55.9841 182.374Z" fill="white" stroke="#122C3B" stroke-linejoin="round"/>
<path d="M202.228 46.334L224.688 33.2325L217.035 18.4253L202.228 23.06V46.334Z" fill="white"/>
<path d="M202.228 23.2021V46.334L224.688 33.2324" stroke="#122C3B" stroke-linecap="round" stroke-linejoin="round"/>
<path d="M202.228 33.4247L212.854 26.8559C214.132 26.0652 215.187 24.9613 215.918 23.6488C216.65 22.3363 217.034 20.8587 217.035 19.3561V18.4253L202.228 23.06V33.4247Z" fill="#122C3B"/>
<path d="M220.963 14.768V14.7684V15.6714C220.963 16.5207 220.626 17.3352 220.025 17.936C219.425 18.5368 218.611 18.8746 217.762 18.8753H215.217H214.912L214.773 19.1467L214.268 20.1276L214.268 20.1287C213.666 21.3056 212.769 22.3057 211.664 23.0306C210.559 23.7553 209.285 24.1801 207.966 24.2634C207.966 24.2634 207.965 24.2634 207.965 24.2635L203.063 24.542L203.06 24.5421C202.642 24.568 202.224 24.5079 201.83 24.3657C201.436 24.2235 201.075 24.0021 200.77 23.7151C200.465 23.4282 200.222 23.0819 200.055 22.6974C199.889 22.3129 199.804 21.8984 199.804 21.4796V21.4794V10.5127C199.804 9.02954 200.393 7.6071 201.442 6.55834C202.491 5.50958 203.913 4.92041 205.396 4.92041H207.255H207.255C208.519 4.92034 209.745 5.34851 210.734 6.13506C211.723 6.92159 212.417 8.02006 212.701 9.25131L212.701 9.25153L213.462 12.5374L213.727 13.6806L214.368 12.6978C214.595 12.3499 214.905 12.0639 215.27 11.8656C215.635 11.6674 216.043 11.563 216.458 11.5617L217.751 11.5617L217.752 11.5617C218.173 11.5608 218.591 11.643 218.981 11.8038C219.37 11.9645 219.725 12.2006 220.023 12.4984C220.321 12.7963 220.558 13.1501 220.719 13.5395C220.88 13.929 220.963 14.3465 220.963 14.768Z" fill="white" stroke="#122C3B"/>
<path d="M200 10.7583H202.843L202.172 17.3996H204.195" stroke="#122C3B" stroke-linecap="round" stroke-linejoin="round"/>
<path d="M206.581 10.7527L210.572 11.0704" stroke="#122C3B" stroke-linecap="round" stroke-linejoin="round"/>
<path d="M217.913 13.5117C217.301 13.5117 216.715 13.7546 216.283 14.1868C215.851 14.619 215.608 15.2053 215.608 15.8165" stroke="#122C3B" stroke-linecap="round" stroke-linejoin="round"/>
<path d="M207.977 15.2205C208.335 15.2205 208.626 14.7039 208.626 14.0667C208.626 13.4294 208.335 12.9128 207.977 12.9128C207.618 12.9128 207.328 13.4294 207.328 14.0667C207.328 14.7039 207.618 15.2205 207.977 15.2205Z" fill="#122C3B"/>
<path d="M200.649 15.2202C201.008 15.2202 201.299 14.7036 201.299 14.0664C201.299 13.4292 201.008 12.9126 200.649 12.9126C200.291 12.9126 200 13.4292 200 14.0664C200 14.7036 200.291 15.2202 200.649 15.2202Z" fill="#122C3B"/>
<path d="M202.866 20.3565H204.393C205.082 20.3569 205.747 20.1051 206.263 19.6487" stroke="#122C3B" stroke-linecap="round" stroke-linejoin="round"/>
<path d="M219.861 8.04091C219.863 9.18983 219.46 10.3028 218.724 11.1846C218.41 11.0993 218.087 11.0562 217.762 11.0564H216.466C215.968 11.0577 215.478 11.183 215.04 11.4209C214.602 11.6588 214.23 12.0019 213.958 12.4192L213.197 9.13341C212.997 8.26356 212.607 7.44881 212.054 6.74775C211.525 7.39211 210.824 7.8749 210.034 8.14123C209.528 8.31564 208.997 8.40421 208.462 8.40322C207.462 8.41 206.486 8.09863 205.675 7.51416C205.197 7.17763 204.797 6.74349 204.499 6.24047C204.202 5.73744 204.014 5.177 203.95 4.59622C202.815 4.87376 201.783 5.4719 200.978 6.31933C200.173 7.16676 199.629 8.22775 199.41 9.37587C198.757 9.07097 198.179 8.62638 197.717 8.07353C197.255 7.52068 196.92 6.87308 196.736 6.17651C196.552 5.47994 196.523 4.75138 196.651 4.0424C196.78 3.33342 197.062 2.66131 197.479 2.07357C197.896 1.48584 198.437 0.99684 199.063 0.641154C199.69 0.285468 200.387 0.0717774 201.105 0.0151922C201.823 -0.041393 202.545 0.0605228 203.22 0.313706C203.895 0.566889 204.505 0.96517 205.009 1.48039C205.449 1.00835 205.983 0.633027 206.576 0.37826C207.169 0.123492 207.808 -0.00514506 208.454 0.000512286C210.719 0.000512286 212.595 1.5445 212.927 3.55947C213.56 3.27303 214.247 3.12571 214.942 3.12748C216.245 3.12748 217.496 3.64496 218.418 4.56625C219.34 5.48753 219.859 6.73727 219.861 8.04091Z" fill="#122C3B"/>
</svg>
