<svg width="289" height="367" viewBox="0 0 289 367" fill="none" xmlns="http://www.w3.org/2000/svg">
<path d="M66.2416 366.671C66.2413 363.72 66.8224 360.797 67.9518 358.07C69.0811 355.343 70.7366 352.866 72.8236 350.779C74.9106 348.692 77.3883 347.036 80.1152 345.907C82.842 344.778 85.7647 344.196 88.7161 344.197H88.9744C81.612 334.129 77.1954 321.4 77.1364 307.56C76.9941 274.558 101.384 247.895 131.785 247.825C158.878 247.763 181.398 269.054 185.861 297.068C192.731 291.454 201.159 288.587 210.268 288.587C233.382 288.587 252.118 309.435 252.118 335.696C252.118 346.624 248.437 358.442 242.979 366.47L66.2416 366.671Z" fill="#FF9900"/>
<path d="M19.0496 105.969C23.3599 105.968 27.5979 104.861 31.3578 102.753C35.1177 100.646 38.2738 97.6083 40.5239 93.9319L53.6161 72.5713H18.1829L8.86609 87.7732C3.98773 95.7418 9.71526 105.969 19.0496 105.969Z" fill="#FF9900"/>
<path d="M113.975 38.2849V69.0805H54.0078V38.2849C54.0083 33.0266 52.0805 27.9507 48.5896 24.0185C45.0986 20.0863 40.2868 17.5708 35.0656 16.9484C35.9087 16.8472 36.7573 16.7967 37.6065 16.7974H92.4918C98.1899 16.7985 103.654 19.0629 107.683 23.0925C111.712 27.122 113.975 32.5868 113.975 38.2849Z" stroke="#122C3B" stroke-linejoin="round"/>
<path d="M54.0078 38.3221V69.5182H16.1102V38.3221C16.1102 28.5807 22.4265 20.332 31.1393 17.5568C33.6886 16.7449 36.4273 16.7449 38.9766 17.5568C47.6894 20.332 54.0078 28.5807 54.0078 38.3221Z" stroke="#122C3B" stroke-linejoin="round"/>
<path d="M16.1102 38.3221C16.1102 28.5807 22.4265 20.332 31.1393 17.5568C33.6886 16.7449 36.4273 16.7449 38.9766 17.5568C47.6894 20.332 54.0078 28.5807 54.0078 38.3221V65.1411L16.1102 38.3221Z" fill="#122C3B"/>
<path d="M54.0078 69.0807V365.577" stroke="#122C3B" stroke-miterlimit="10"/>
<path d="M17.036 105.227C21.6469 105.229 26.181 104.047 30.2046 101.795C34.2281 99.5429 37.6064 96.296 40.0162 92.3649L54.0231 69.5183H16.1102L6.14344 85.7773C0.92367 94.2887 7.05171 105.227 17.036 105.227Z" stroke="#122C3B" stroke-linejoin="round"/>
<path d="M78.6819 0.0220947H65.6117V5.87H78.6819V0.0220947Z" fill="#FF9900"/>
<path d="M65.6117 52.0883V0" stroke="#122C3B" stroke-miterlimit="10"/>
<path d="M66.1917 52.3071V17.5239H74.517L66.1917 52.3071Z" fill="#FF9900"/>
<path d="M1 366.111V236.849C1.01344 229.917 3.74187 223.267 8.60047 218.323C13.4591 213.379 20.0611 210.535 26.9914 210.401C33.9217 210.267 40.6288 212.854 45.6749 217.606C50.7209 222.359 53.7043 228.899 53.9856 235.825C54.0009 236.164 54.0075 236.505 54.0075 236.849V366.111" stroke="#122C3B" stroke-miterlimit="10" stroke-linecap="round"/>
<path d="M53.9637 366.111V236.849C53.9637 236.505 53.9637 236.164 53.9856 235.824C54.2669 228.898 57.2504 222.358 62.2964 217.606C67.3424 212.854 74.0494 210.267 80.9798 210.401C87.9101 210.535 94.5122 213.379 99.3708 218.323C104.229 223.266 106.958 229.917 106.971 236.849V366.111" stroke="#122C3B" stroke-miterlimit="10" stroke-linecap="round"/>
<path d="M106.971 366.111V236.849C106.985 229.917 109.713 223.266 114.572 218.323C119.43 213.379 126.032 210.535 132.963 210.401C139.893 210.267 146.6 212.854 151.646 217.606C156.692 222.358 159.676 228.898 159.957 235.824C159.972 236.164 159.979 236.505 159.979 236.849V366.111" stroke="#122C3B" stroke-miterlimit="10" stroke-linecap="round"/>
<path d="M159.935 366.111V236.849C159.935 236.505 159.935 236.164 159.957 235.824C160.238 228.898 163.222 222.358 168.268 217.606C173.314 212.854 180.021 210.267 186.951 210.401C193.881 210.535 200.483 213.379 205.342 218.323C210.201 223.266 212.929 229.917 212.943 236.849V366.111" stroke="#122C3B" stroke-miterlimit="10" stroke-linecap="round"/>
<path d="M1 335.554C1.00436 328.658 3.69626 322.035 8.50418 317.092C13.3121 312.148 19.8574 309.274 26.7505 309.078C33.6437 308.882 40.3418 311.38 45.4228 316.042C50.5038 320.705 53.5676 327.164 53.9637 334.048" stroke="#122C3B" stroke-miterlimit="10" stroke-linecap="round"/>
<path d="M54.0076 334.048C54.4037 327.164 57.4675 320.705 62.5485 316.042C67.6295 311.38 74.3276 308.882 81.2207 309.078C88.1138 309.274 94.6592 312.148 99.4671 317.092C104.275 322.035 106.967 328.658 106.971 335.554" stroke="#122C3B" stroke-miterlimit="10" stroke-linecap="round"/>
<path d="M106.971 335.554C106.976 328.658 109.668 322.035 114.475 317.092C119.283 312.148 125.829 309.274 132.722 309.078C139.615 308.882 146.313 311.38 151.394 316.042C156.475 320.705 159.539 327.164 159.935 334.048" stroke="#122C3B" stroke-miterlimit="10" stroke-linecap="round"/>
<path d="M159.979 334.048C160.375 327.164 163.439 320.705 168.52 316.042C173.601 311.38 180.299 308.882 187.192 309.078C194.085 309.274 200.63 312.148 205.438 317.092C210.246 322.035 212.938 328.658 212.943 335.554" stroke="#122C3B" stroke-miterlimit="10" stroke-linecap="round"/>
<path d="M212.899 366.111V236.849C212.899 236.505 212.899 236.164 212.921 235.824C213.202 228.898 216.185 222.358 221.231 217.606C226.277 212.854 232.985 210.267 239.915 210.401C246.845 210.535 253.447 213.379 258.306 218.323C263.164 223.266 265.893 229.917 265.906 236.849V366.111" stroke="#122C3B" stroke-miterlimit="10" stroke-linecap="round"/>
<path d="M212.943 334.048C213.339 327.164 216.402 320.705 221.483 316.042C226.564 311.38 233.263 308.882 240.156 309.078C247.049 309.274 253.594 312.148 258.402 317.092C263.21 322.035 265.902 328.658 265.906 335.554" stroke="#122C3B" stroke-miterlimit="10" stroke-linecap="round"/>
<path d="M1 260.79H265.906" stroke="#122C3B" stroke-miterlimit="10" stroke-linecap="round"/>
<path d="M1 366L288 366" stroke="#122C3B" stroke-miterlimit="10" stroke-linecap="round"/>
<path d="M159.926 365.577C154.798 365.577 150.64 361.767 150.64 357.065C150.64 352.364 154.798 348.552 159.926 348.552C160.889 348.55 161.847 348.686 162.771 348.957C162.794 346.213 163.5 343.518 164.826 341.116C166.152 338.714 168.056 336.681 170.365 335.2C172.675 333.719 175.318 332.838 178.054 332.636C180.79 332.433 183.534 332.917 186.036 334.042C186.338 332.881 186.871 331.793 187.603 330.843C188.335 329.893 189.251 329.1 190.296 328.513C191.341 327.925 192.494 327.554 193.686 327.422C194.878 327.29 196.085 327.4 197.233 327.745C198.382 328.09 199.449 328.663 200.371 329.43C201.293 330.197 202.051 331.142 202.599 332.208C203.147 333.275 203.475 334.441 203.562 335.637C203.65 336.833 203.495 338.035 203.107 339.169C203.514 339.117 203.923 339.092 204.333 339.093C206.892 339.093 209.348 340.105 211.164 341.91C212.979 343.714 214.008 346.163 214.024 348.723C215.218 348.11 216.535 347.775 217.876 347.742C219.218 347.709 220.549 347.98 221.772 348.533C222.994 349.086 224.076 349.908 224.937 350.938C225.797 351.967 226.415 353.178 226.743 354.479C227.07 355.78 227.1 357.139 226.83 358.453C226.56 359.768 225.997 361.004 225.182 362.071C224.368 363.137 223.323 364.006 222.127 364.613C220.93 365.22 219.611 365.548 218.27 365.575H159.926V365.577Z" fill="#7EBAD2"/>
<path d="M176.509 340.784C177.597 340.784 178.479 339.903 178.479 338.815C178.479 337.727 177.597 336.845 176.509 336.845C175.421 336.845 174.539 337.727 174.539 338.815C174.539 339.903 175.421 340.784 176.509 340.784Z" fill="white"/>
<path d="M182.598 330.238C184.109 330.238 185.334 329.013 185.334 327.502C185.334 325.991 184.109 324.766 182.598 324.766C181.087 324.766 179.862 325.991 179.862 327.502C179.862 329.013 181.087 330.238 182.598 330.238Z" fill="#7EBAD2"/>
<path d="M146.633 354.249C148.446 354.249 149.916 352.779 149.916 350.966C149.916 349.153 148.446 347.683 146.633 347.683C144.82 347.683 143.35 349.153 143.35 350.966C143.35 352.779 144.82 354.249 146.633 354.249Z" fill="#7EBAD2"/>
<path d="M160.596 357.207C161.685 357.207 162.568 356.325 162.568 355.236C162.568 354.146 161.685 353.264 160.596 353.264C159.507 353.264 158.624 354.146 158.624 355.236C158.624 356.325 159.507 357.207 160.596 357.207Z" fill="white"/>
<path d="M181.204 347.683C182.715 347.683 183.939 346.458 183.939 344.947C183.939 343.436 182.715 342.211 181.204 342.211C179.693 342.211 178.468 343.436 178.468 344.947C178.468 346.458 179.693 347.683 181.204 347.683Z" fill="white"/>
<path d="M204.987 349.773C206.498 349.773 207.723 348.548 207.723 347.037C207.723 345.526 206.498 344.302 204.987 344.302C203.476 344.302 202.251 345.526 202.251 347.037C202.251 348.548 203.476 349.773 204.987 349.773Z" fill="white"/>
<path d="M195.193 359.694C196.282 359.694 197.165 358.811 197.165 357.722C197.165 356.633 196.282 355.75 195.193 355.75C194.104 355.75 193.221 356.633 193.221 357.722C193.221 358.811 194.104 359.694 195.193 359.694Z" fill="white"/>
<path d="M234.857 365.358C237.651 365.358 239.917 363.092 239.917 360.298C239.917 357.503 237.651 355.238 234.857 355.238C232.062 355.238 229.797 357.503 229.797 360.298C229.797 363.092 232.062 365.358 234.857 365.358Z" fill="#7EBAD2"/>
</svg>
