<svg width="126" height="346" viewBox="0 0 126 346" fill="none" xmlns="http://www.w3.org/2000/svg">
<path d="M104.913 318.644C104.913 318.644 84.9389 338.803 62.1835 338.288L1.09985 152.205L59.8448 149.893L104.913 318.644Z" fill="#0F2531"/>
<path d="M94.8872 250.898L27.3861 317.452C25.3082 314.91 10.2307 295.745 10.3778 270.483L56.2754 223.006L31.8272 197.168C14.8207 179.013 6.92043 169.779 1.09985 152.205L64.0163 134.498L101.798 200.736C106.337 208.689 108.121 217.92 106.871 226.991C105.621 236.063 101.408 244.468 94.8872 250.898Z" fill="#122C3B"/>
<path d="M42.9099 142.455C42.6018 144.757 38.5336 171.95 17.6653 181.431C15.6889 179.052 13.9069 176.764 12.2823 174.485C33.7791 163.034 41.604 141.133 41.604 141.133C42.0277 141.588 42.463 142.029 42.9099 142.455Z" fill="white"/>
<path d="M55.5156 223.006L63.0675 215.627" stroke="white" stroke-linecap="round" stroke-linejoin="round"/>
<path d="M125.38 344.548V345H64.9142L61.8175 335.647C89.2679 335.806 104.356 318.343 104.356 318.343L120.725 333.823C123.637 336.64 125.312 340.498 125.38 344.548Z" fill="white" stroke="#122C3B" stroke-linecap="round" stroke-linejoin="round"/>
<path d="M63.8254 341.712H125.009" stroke="#122C3B" stroke-linecap="round" stroke-linejoin="round"/>
<path d="M112.258 341.289C112.244 339.244 112.698 337.222 113.583 335.379C114.469 333.535 115.763 331.917 117.368 330.649" stroke="#122C3B" stroke-linecap="round" stroke-linejoin="round"/>
<path d="M100.807 327.202L107.614 320.725C107.913 320.44 108.312 320.283 108.725 320.288C109.139 320.293 109.534 320.459 109.826 320.751C110.11 321.035 110.275 321.416 110.289 321.817C110.302 322.218 110.163 322.609 109.9 322.912" stroke="#122C3B" stroke-linecap="round" stroke-linejoin="round"/>
<path d="M103.652 329.667L110.456 323.19C110.756 322.905 111.155 322.748 111.568 322.753C111.982 322.758 112.377 322.924 112.669 323.216C112.955 323.499 113.121 323.88 113.135 324.282C113.148 324.683 113.008 325.075 112.743 325.376" stroke="#122C3B" stroke-linecap="round" stroke-linejoin="round"/>
<path d="M4.49063 344.977L1.08402 345L1 279.491L10.383 270.913C9.96108 298.362 27.2722 317.382 27.2722 317.382L9.09629 343.024C8.49465 343.636 7.77822 344.124 6.98794 344.459C6.19765 344.794 5.34904 344.97 4.49063 344.977Z" fill="white" stroke="#122C3B" stroke-linecap="round" stroke-linejoin="round"/>
<path d="M4.64282 329C6.62556 329.502 8.46771 330.449 10.0291 331.77C11.5904 333.091 12.8298 334.751 13.6529 336.624" stroke="#122C3B" stroke-linecap="round" stroke-linejoin="round"/>
<path d="M4.56409 276.235V344.977" stroke="#122C3B" stroke-linecap="round" stroke-linejoin="round"/>
<path d="M17.9733 317.052L24.1125 324.17C24.3842 324.482 24.5222 324.889 24.4966 325.302C24.4711 325.715 24.284 326.101 23.9759 326.378C23.6784 326.647 23.2897 326.793 22.8884 326.787C22.4871 326.781 22.1031 326.623 21.814 326.344" stroke="#122C3B" stroke-linecap="round" stroke-linejoin="round"/>
<path d="M15.3719 319.771L21.5111 326.889C21.7829 327.201 21.9208 327.608 21.8953 328.021C21.8697 328.434 21.6827 328.82 21.3746 329.096C21.077 329.366 20.6884 329.512 20.2871 329.506C19.8858 329.5 19.5018 329.341 19.2126 329.063" stroke="#122C3B" stroke-linecap="round" stroke-linejoin="round"/>
<path d="M97.9734 93.3465L92.7621 106.988C87.598 120.212 75.232 128.916 61.0368 128.916L75.808 155.174C75.808 155.174 53.7161 154.169 41.604 141.128C41.604 141.128 31.1007 170.519 1.01404 179.008L1.09981 152.198V74.2602C1.09981 51.9635 19.1812 33.8926 41.478 33.9031H41.5672C48.6442 33.903 55.4533 36.6094 60.5993 41.4676C65.7453 46.3259 68.8385 52.9682 69.2452 60.0335L69.9664 72.5587L70.2238 77.0629C70.2238 77.0629 70.7594 94.7924 97.9734 93.3465Z" fill="#FF9900"/>
<path d="M27.2408 36.4797L33.3502 29.2115C33.6374 28.8695 34.0013 28.6002 34.4123 28.4256C34.8233 28.251 35.2697 28.176 35.7152 28.2066L52.1564 29.3322C52.6331 29.3652 53.0938 29.5179 53.4959 29.7761C53.898 30.0344 54.2284 30.3899 54.4566 30.8097L59.7083 40.4902C59.7083 40.4902 52.426 33.9344 40.3157 34.1725C32.5012 34.3248 27.2408 36.4797 27.2408 36.4797Z" fill="#FF9900"/>
<path d="M59.9042 40.3013C59.9042 40.3013 52.1826 33.9345 39.6557 34.1743C31.5664 34.3266 26.1239 36.4816 26.1239 36.4816" stroke="white" stroke-linecap="round" stroke-linejoin="round"/>
<path d="M97.5323 93.7926C66.8977 94.0919 70.0207 75.5361 70.0207 75.5361L54.1887 91.769" stroke="white" stroke-linecap="round" stroke-linejoin="round"/>
<path d="M24.2019 85.5669C24.2019 85.5669 33.1717 129.135 62.6124 129.444" stroke="white" stroke-linecap="round" stroke-linejoin="round"/>
<path d="M43.0373 15.1634L53.5369 26.028L52.6816 28.9027C52.5232 28.868 52.3623 28.8448 52.2002 28.8334L52.1993 28.8334L36.2953 27.7432L43.0373 15.1634Z" fill="white" stroke="#122C3B"/>
<path d="M54.0994 25.8908L53.0176 29.5267C52.7451 29.4185 52.4575 29.353 52.165 29.3324L48.9458 29.1154C47.8062 28.0003 47.2267 26.479 47.2512 24.739L47.281 22.4755L47.7659 19.342L54.0994 25.8908Z" fill="#122C3B"/>
<path d="M48.937 13.257C48.937 13.257 55.5435 14.3774 59.5068 11.1564C64.067 7.4592 62.6298 1.43556 58.6438 1.03294C54.2236 0.586547 53.4762 4.81763 53.8053 5.25001C53.8053 5.25001 52.4468 6.07977 49.014 5.42507C46.4057 4.92966 44.3348 4.422 41.7072 6.57517C38.9641 8.82288 39.4648 14.899 43.8901 16.5043C46.5842 17.4916 48.937 13.257 48.937 13.257Z" fill="#122C3B"/>
<path d="M59.7846 11.5568C60.075 12.0244 60.3145 12.6456 60.5051 13.3703C60.7547 14.3194 60.9066 15.391 60.997 16.4067C61.0871 17.4203 61.1149 18.3658 61.12 19.0587C61.1226 19.4048 61.1195 19.6869 61.1158 19.8819C61.1158 19.8831 61.1157 19.8843 61.1157 19.8855C59.2709 20.8474 58.2983 22.5476 57.7872 23.9829C57.5174 24.7406 57.3701 25.4404 57.29 25.9507C57.2663 26.1016 57.2484 26.2365 57.235 26.352C55.9643 26.4235 54.69 26.4093 53.4209 26.3095L53.4205 26.3094C52.1426 26.21 50.9506 25.6278 50.0865 24.6812C49.2224 23.7345 48.7511 22.4945 48.7683 21.2129L48.7858 19.9457L48.7928 19.4388H48.2858H47.927V19.4386L47.9155 19.4389C47.5351 19.4476 47.1568 19.3802 46.8028 19.2406C46.4488 19.101 46.1263 18.8921 45.8542 18.6261C45.582 18.3601 45.3658 18.0425 45.2182 17.6917C45.0706 17.341 44.9945 16.9643 44.9945 16.5838C44.9945 16.2033 45.0706 15.8266 45.2182 15.4759C45.3658 15.1252 45.582 14.8075 45.8542 14.5415C46.1263 14.2756 46.4488 14.0667 46.8028 13.9271L46.6194 13.4619L46.8028 13.9271C47.1549 13.7883 47.531 13.7208 47.9093 13.7286L49.1788 13.7906C53.1025 14.2022 55.8437 13.5734 57.6208 12.8191C58.5088 12.4422 59.1512 12.036 59.5768 11.7183C59.653 11.6614 59.7222 11.6073 59.7846 11.5568Z" fill="white" stroke="#122C3B"/>
<path d="M55.4998 14.5193C55.4998 14.5193 57.3186 13.3341 59.0201 13.4882" stroke="#122C3B" stroke-linecap="round" stroke-linejoin="round"/>
<path d="M57.5269 17.2397C57.8576 17.2397 58.1256 16.8095 58.1256 16.2787C58.1256 15.7479 57.8576 15.3176 57.5269 15.3176C57.1963 15.3176 56.9282 15.7479 56.9282 16.2787C56.9282 16.8095 57.1963 17.2397 57.5269 17.2397Z" fill="#122C3B"/>
<path d="M56.389 21.7368C56.389 21.7368 56.424 22.8834 58.3479 22.9745" stroke="#122C3B" stroke-linecap="round" stroke-linejoin="round"/>
<path d="M46.8433 16.4625C46.843 16.2675 46.8813 16.0744 46.9558 15.8941C47.0303 15.7139 47.1396 15.5502 47.2775 15.4123C47.4154 15.2744 47.5791 15.1651 47.7594 15.0906C47.9396 15.016 48.1327 14.9778 48.3277 14.978" stroke="#122C3B" stroke-linecap="round" stroke-linejoin="round"/>
<path d="M71.0858 76.3198L94.6673 39.0333L94.6682 39.0319C95.5565 37.6163 96.7896 36.4495 98.2519 35.6405C99.7142 34.8316 101.358 34.407 103.029 34.4066C103.029 34.4066 103.029 34.4066 103.029 34.4066H105.266L105.152 34.6176L105.152 34.6179C104.921 35.045 104.806 35.5246 104.816 36.0098C104.826 36.495 104.963 36.9692 105.211 37.3859L105.641 37.1297L105.211 37.3859C105.46 37.8027 105.813 38.1478 106.235 38.3874C106.657 38.6271 107.134 38.7531 107.619 38.7532H109.821H109.821V38.2532C110.24 38.2535 110.651 38.1396 111.01 37.9237C111.369 37.7078 111.663 37.398 111.859 37.0278L117.096 27.0781L117.311 27.7431M71.0858 76.3198L117.311 27.7431M71.0858 76.3198C71.0865 76.3284 71.0873 76.3373 71.0881 76.3467C71.0992 76.4685 71.119 76.6505 71.1537 76.8837C71.2233 77.3503 71.3525 78.0207 71.5909 78.8232C72.0676 80.4286 72.9788 82.5564 74.7159 84.6408C78.1436 88.7538 84.874 92.7977 98.1463 92.1634L118.671 37.7424L118.672 37.7404C119.328 36.0218 119.377 34.1303 118.811 32.38L118.811 32.3798L117.311 27.7431M71.0858 76.3198L117.311 27.7431" fill="white" stroke="#122C3B"/>
<path d="M117.249 26.7819L111.867 37.0191C111.672 37.3897 111.379 37.6997 111.019 37.9157C110.66 38.1317 110.249 38.2454 109.83 38.2445H107.554C107.16 38.2439 106.773 38.1423 106.429 37.9492C106.085 37.7562 105.797 37.4782 105.591 37.1418C105.386 36.8055 105.27 36.422 105.255 36.0281C105.24 35.6342 105.327 35.2431 105.506 34.8922L109.707 26.7994C109.951 26.3257 110.321 25.9282 110.776 25.6504C111.231 25.3725 111.753 25.225 112.286 25.2239H116.312C116.495 25.2245 116.674 25.2722 116.833 25.3624C116.992 25.4527 117.125 25.5824 117.219 25.739C117.314 25.8956 117.366 26.0739 117.371 26.2566C117.376 26.4393 117.334 26.6202 117.249 26.7819Z" fill="#122C3B"/>
<path d="M105.312 74.7749C105.312 74.7749 107.773 93.3307 97.1524 93.4147C69.3747 93.609 70.2255 77.2431 70.2255 77.2431C70.2255 69.7788 76.8303 66.1394 76.8303 66.1394C76.8303 66.1394 77.2242 73.1223 87.948 76.2191C98.6719 79.3158 105.312 74.7749 105.312 74.7749Z" fill="#FF9900"/>
<path d="M1 1L1.00002 345" stroke="#122C3B" stroke-miterlimit="10" stroke-linecap="round"/>
</svg>
