<svg width="287" height="344" viewBox="0 0 287 344" fill="none" xmlns="http://www.w3.org/2000/svg">
<path d="M143.5 343.974C222.753 343.974 287 340.168 287 335.473C287 330.778 222.753 326.972 143.5 326.972C64.2472 326.972 0 330.778 0 335.473C0 340.168 64.2472 343.974 143.5 343.974Z" fill="#CEE4ED"/>
<path d="M204.494 336.861H175.966C175.375 336.857 174.805 336.642 174.359 336.255L169.838 332.404C169.715 332.298 169.566 332.225 169.407 332.193C169.248 332.16 169.083 332.17 168.928 332.219C168.773 332.269 168.634 332.358 168.524 332.477C168.413 332.596 168.335 332.742 168.297 332.9L167.565 335.945C167.502 336.208 167.352 336.441 167.14 336.609C166.927 336.776 166.665 336.867 166.395 336.867H154.895C154.717 336.867 154.542 336.828 154.382 336.752C154.221 336.677 154.079 336.567 153.966 336.43C153.853 336.294 153.772 336.134 153.728 335.962C153.683 335.79 153.678 335.611 153.711 335.436L157.218 317.084H186.259L204.494 336.861Z" fill="#122C3B"/>
<path d="M41.3239 318.471L23.9676 295.484C23.7188 295.154 23.5959 294.746 23.621 294.334L24.0086 288.041C24.0185 287.888 23.9887 287.735 23.9223 287.597C23.8559 287.458 23.7551 287.34 23.6295 287.252C23.5039 287.164 23.3578 287.11 23.2052 287.094C23.0526 287.079 22.8987 287.104 22.7583 287.165L19.9879 288.372C19.6894 288.502 19.3557 288.528 19.0408 288.445C18.7259 288.362 18.4481 288.175 18.2523 287.915L11.5768 279.073C11.4506 278.906 11.3618 278.714 11.3166 278.511C11.2715 278.307 11.2709 278.095 11.3151 277.891C11.3592 277.687 11.447 277.495 11.5724 277.328C11.6978 277.161 11.8578 277.023 12.0415 276.924L28.8099 267.842L46.9184 291.936L41.3239 318.471Z" fill="#122C3B"/>
<path d="M231.075 81.2623L228.528 106.937C227.902 112.65 225.111 117.906 220.729 121.624C216.347 125.342 210.706 127.24 204.968 126.926C199.229 126.613 193.829 124.112 189.878 119.939C185.927 115.766 183.725 110.237 183.725 104.49V90.9957C183.725 93.8134 182.606 96.5158 180.613 98.5082C178.621 100.501 175.918 101.62 173.101 101.62H133.764C131.387 101.62 129.108 100.676 127.427 98.9957C125.746 97.3153 124.802 95.0362 124.801 92.6594V76.3764C124.801 76.0935 124.711 75.8179 124.545 75.5891C124.379 75.3603 124.144 75.1899 123.875 75.1025C123.606 75.015 123.316 75.0149 123.047 75.1021C122.778 75.1893 122.544 75.3595 122.377 75.5881L63.068 157.081C64.1823 144.184 43.3291 135.362 41.4574 138.035L103.254 49.6872C106.113 45.6022 109.914 42.2672 114.337 39.9653C118.759 37.6633 123.672 36.4625 128.657 36.4646H136.018C137.52 36.4653 138.989 36.0269 140.245 35.2036C141.501 34.3802 142.488 33.2077 143.087 31.8303L144.114 29.4399H161.008L162.06 31.9176C162.653 33.3077 163.641 34.4929 164.902 35.3256C166.163 36.1583 167.641 36.6018 169.152 36.6007H174.859C183.077 36.6007 190.958 39.8651 196.769 45.6759C202.58 51.4866 205.844 59.3676 205.844 67.5853V77.2853L226.972 76.8257C227.543 76.8134 228.11 76.9225 228.636 77.1457C229.162 77.3689 229.634 77.7012 230.022 78.1205C230.41 78.5399 230.704 79.0368 230.886 79.5784C231.067 80.12 231.132 80.6939 231.075 81.2623Z" fill="#FF9900"/>
<path d="M183.722 91.0009V70.0989" stroke="#122C3B" stroke-linecap="round" stroke-linejoin="round"/>
<path d="M202.434 82.9133L199.274 97.6533" stroke="#122C3B" stroke-linecap="round" stroke-linejoin="round"/>
<path d="M176.51 102.123H131.628V108.627H176.51V102.123Z" fill="white" stroke="#122C3B" stroke-linejoin="round"/>
<path d="M171.976 102.123H136.255V108.627H171.976V102.123Z" stroke="#122C3B" stroke-linejoin="round"/>
<path d="M167.262 102.123H140.881V108.627H167.262V102.123Z" stroke="#122C3B" stroke-linejoin="round"/>
<path d="M162.646 102.123H145.549V108.627H162.646V102.123Z" stroke="#122C3B" stroke-linejoin="round"/>
<path d="M157.303 102.123H150.892V108.627H157.303V102.123Z" stroke="#122C3B" stroke-linejoin="round"/>
<path d="M134.64 108.629H171.992C174.686 108.628 177.28 109.654 179.245 111.497C181.211 113.341 182.4 115.864 182.572 118.553L194.093 298.278C194.205 300.039 193.956 301.804 193.359 303.465C192.763 305.126 191.832 306.647 190.624 307.934C189.417 309.221 187.959 310.247 186.339 310.948C184.72 311.649 182.974 312.011 181.209 312.011H159.94C156.684 312.011 153.548 310.781 151.161 308.567C148.774 306.353 147.311 303.319 147.066 300.072L139.659 201.794C139.659 201.794 121.882 263.691 60.4594 290.629C58.5112 291.482 56.3314 291.651 54.2753 291.107C52.2192 290.562 50.4079 289.338 49.1368 287.633L33.3646 266.492C32.1159 264.82 31.5659 262.728 31.8309 260.658C32.0958 258.588 33.1549 256.702 34.7844 255.398C48.5796 244.358 81.7311 215.54 94.0731 184.368C105.419 155.717 116.69 129.488 122.239 116.735C123.292 114.323 125.027 112.272 127.23 110.832C129.433 109.392 132.008 108.627 134.64 108.629Z" fill="#122C3B" stroke="white" stroke-linejoin="round"/>
<path d="M185.63 312.011H157.847V317.385H185.63V312.011Z" fill="white" stroke="#122C3B" stroke-linejoin="round"/>
<path d="M181.358 312.011V317.385" stroke="#122C3B" stroke-linejoin="round"/>
<path d="M176.623 312.011V317.385" stroke="#122C3B" stroke-linejoin="round"/>
<path d="M171.891 312.011V317.385" stroke="#122C3B" stroke-linejoin="round"/>
<path d="M167.16 312.011V317.385" stroke="#122C3B" stroke-linejoin="round"/>
<path d="M162.427 312.011V317.385" stroke="#122C3B" stroke-linejoin="round"/>
<path d="M50.1366 288.92L32.639 265.742L28.3953 268.946L45.8928 292.124L50.1366 288.92Z" fill="white" stroke="#122C3B" stroke-linejoin="round"/>
<path d="M31.1772 272.636L35.4188 269.431" stroke="#122C3B" stroke-linejoin="round"/>
<path d="M34.2299 276.605L38.4739 273.401" stroke="#122C3B" stroke-linejoin="round"/>
<path d="M37.2825 280.575L41.5266 277.37" stroke="#122C3B" stroke-linejoin="round"/>
<path d="M40.338 284.544L44.5795 281.339" stroke="#122C3B" stroke-linejoin="round"/>
<path d="M43.0852 288.511L47.3267 285.309" stroke="#122C3B" stroke-linejoin="round"/>
<path d="M139.659 201.794C146.145 189.231 157.49 152.754 163.162 152.754" stroke="white" stroke-linecap="round" stroke-linejoin="round"/>
<path d="M176.51 36.6443L126.085 146.479" stroke="#122C3B" stroke-linecap="round" stroke-linejoin="round"/>
<path d="M119.499 161.766H104.066L109.257 149.003H124.167C124.502 149.005 124.832 149.088 125.128 149.247C125.424 149.406 125.676 149.634 125.863 149.913C126.05 150.191 126.166 150.512 126.201 150.845C126.235 151.179 126.187 151.516 126.062 151.827L122.963 159.445C122.681 160.132 122.201 160.72 121.584 161.133C120.967 161.546 120.242 161.767 119.499 161.766Z" fill="white"/>
<path d="M118.387 159.245H104.346L109.537 146.479H126.09L121.848 156.913C121.568 157.602 121.09 158.191 120.473 158.606C119.857 159.022 119.131 159.244 118.387 159.245Z" stroke="#122C3B" stroke-linecap="round" stroke-linejoin="round"/>
<path d="M107.542 151.329H124.092" stroke="#122C3B" stroke-linecap="round" stroke-linejoin="round"/>
<path d="M31.2627 143.853V144.592L31.9487 144.317L31.7627 143.853C31.9487 144.317 31.9488 144.317 31.9489 144.317L31.9493 144.317L31.9505 144.316L31.9552 144.315L31.9728 144.307L32.0403 144.28C32.0992 144.256 32.1855 144.22 32.2956 144.174C32.5158 144.082 32.8318 143.948 33.2165 143.779C33.9855 143.44 35.0316 142.96 36.1378 142.395C37.2427 141.831 38.4157 141.178 39.4353 140.493C40.4436 139.815 41.3476 139.076 41.8699 138.329C41.9031 138.282 41.983 138.21 42.1712 138.152C42.3594 138.094 42.6222 138.06 42.9643 138.064C43.6482 138.074 44.5634 138.237 45.6408 138.556C47.7901 139.192 50.494 140.425 53.1126 142.142C58.3299 145.563 63.0082 150.768 62.5931 156.842C62.5367 156.89 62.4639 156.951 62.3749 157.024C62.1292 157.224 61.7606 157.51 61.276 157.848C60.3066 158.525 58.8749 159.409 57.035 160.228C53.3568 161.865 48.0521 163.243 41.5418 162.2C35.0957 161.167 30.7359 157.178 28.165 152.879C26.8791 150.728 26.0473 148.51 25.6301 146.564C25.2094 144.602 25.2229 142.978 25.5604 141.989C25.9076 140.971 26.4384 140.409 26.9885 140.144C27.5413 139.877 28.1835 139.877 28.8188 140.116C30.105 140.601 31.2627 142.037 31.2627 143.853Z" fill="white" stroke="#122C3B"/>
<path d="M25.8188 147.494C25.8188 147.494 27.0102 153.032 37.5472 149.088" stroke="#122C3B" stroke-linecap="round" stroke-linejoin="round"/>
<path d="M29.1798 154.221C29.1798 154.221 31.5316 159.256 41.2111 155.505" stroke="#122C3B" stroke-linecap="round" stroke-linejoin="round"/>
<path d="M37.3959 160.96C39.0262 161.268 42.5617 161.802 46.4001 160.08" stroke="#122C3B" stroke-linecap="round" stroke-linejoin="round"/>
<path d="M203.864 81.6308L217.318 81.6191C218.366 81.6182 219.215 80.768 219.214 79.7201L219.191 54.117C219.191 53.0691 218.34 52.2204 217.292 52.2213L203.839 52.233C202.791 52.2339 201.942 53.0842 201.943 54.132L201.965 79.7351C201.966 80.783 202.816 81.6317 203.864 81.6308Z" fill="#122C3B"/>
<path d="M200.579 61.1331C200.825 60.8844 201.126 60.702 201.454 60.5985L201.454 61.6214L201.454 61.622C201.455 62.7966 201.916 63.924 202.739 64.7627C203.561 65.6013 204.68 66.0845 205.854 66.1087L205.854 66.1087L215.118 66.2986L215.118 66.2987H215.128H215.21C216.499 66.2987 217.627 65.6049 218.417 64.6526C219.097 63.8336 219.558 62.7879 219.674 61.726L224.622 61.9106L224.622 61.9106C225.312 61.9359 226.117 62.2289 226.769 62.7303C227.413 63.2259 227.862 63.887 227.946 64.6298L228.223 76.8563C225.996 81.5809 222.908 84.3638 219.619 85.8185C216.297 87.2877 212.73 87.4189 209.569 86.7731L204.216 85.6784C202.754 85.2491 201.477 84.3446 200.587 83.1079C199.693 81.8658 199.241 80.3602 199.303 78.8312C199.303 78.8312 199.303 78.8311 199.303 78.8311L199.968 62.543L199.968 62.5424C199.989 62.0129 200.207 61.5103 200.579 61.1331Z" fill="white" stroke="#122C3B"/>
<path d="M200.362 65.7473C200.223 69.1236 204.121 70.4433 207.929 70.8823" stroke="#122C3B" stroke-miterlimit="10" stroke-linecap="round"/>
<path d="M200.213 70.9646C200.075 74.3409 203.972 75.6631 207.78 76.0996" stroke="#122C3B" stroke-miterlimit="10" stroke-linecap="round"/>
<path d="M199.803 76.3767C199.666 79.753 203.561 80.8929 207.372 81.3294" stroke="#122C3B" stroke-miterlimit="10" stroke-linecap="round"/>
<path d="M205.225 56.5813C205.778 56.5813 206.226 56.133 206.226 55.5799C206.226 55.0269 205.778 54.5786 205.225 54.5786C204.672 54.5786 204.224 55.0269 204.224 55.5799C204.224 56.133 204.672 56.5813 205.225 56.5813Z" fill="#98C8DB"/>
<path d="M205.523 56.5813C206.076 56.5813 206.524 56.133 206.524 55.5799C206.524 55.0269 206.076 54.5786 205.523 54.5786C204.97 54.5786 204.522 55.0269 204.522 55.5799C204.522 56.133 204.97 56.5813 205.523 56.5813Z" fill="white"/>
<path d="M129.661 29.4399H172.446C172.446 29.4399 175.887 26.5669 174.171 22.6258C172.456 18.6847 164.207 16.7847 164.112 10.0194C164.017 3.25403 157.693 -2.00933 150.088 0.74816C142.948 3.33363 145.662 11.8089 141.834 14.4355C138.006 17.062 126.555 18.0146 129.661 29.4399Z" fill="#122C3B"/>
<path d="M161 29.4425H144.116L146.751 20.6616H159.17L161 29.4425Z" fill="white"/>
<path d="M161.008 29.4399H159.103C157.298 29.4396 155.517 29.0171 153.904 28.2062C152.292 27.3953 150.891 26.2184 149.814 24.7696L146.758 20.6616H159.177L161.008 29.4399Z" fill="#122C3B"/>
<path d="M162.831 15.3803C162.173 19.8118 160.569 25.9071 156.73 25.9071C152.671 25.9071 148.961 22.8261 147.459 21.3806H143.926C142.959 21.3551 142.041 20.9532 141.366 20.2605C140.691 19.5677 140.314 18.6389 140.314 17.6718C140.314 16.7048 140.691 15.7759 141.366 15.0832C142.041 14.3904 142.959 13.9885 143.926 13.9631H146.75C146.75 13.9631 157.385 13.8681 160.579 7.84473C161.485 8.85791 162.157 10.0586 162.546 11.3611C162.935 12.6636 163.033 14.036 162.831 15.3803Z" fill="white"/>
<path d="M145.531 18.166C145.531 17.8943 145.477 17.6254 145.373 17.3744C145.269 17.1235 145.117 16.8955 144.925 16.7036C144.732 16.5116 144.504 16.3594 144.253 16.2557C144.002 16.152 143.733 16.0988 143.462 16.0991" stroke="#122C3B" stroke-miterlimit="10" stroke-linecap="round"/>
<path d="M162.084 13.0079C162.084 13.0079 159.868 12.2017 158.571 13.8706C157.716 14.9695 157.334 18.6872 157.886 19.4703" stroke="#122C3B" stroke-miterlimit="10" stroke-linecap="round"/>
<path d="M153.829 16.6947C154.196 16.6947 154.494 16.2878 154.494 15.7858C154.494 15.2839 154.196 14.877 153.829 14.877C153.462 14.877 153.164 15.2839 153.164 15.7858C153.164 16.2878 153.462 16.6947 153.829 16.6947Z" fill="#122C3B"/>
<path d="M160.335 16.6947C160.702 16.6947 161 16.2878 161 15.7858C161 15.2839 160.702 14.877 160.335 14.877C159.968 14.877 159.67 15.2839 159.67 15.7858C159.67 16.2878 159.968 16.6947 160.335 16.6947Z" fill="#122C3B"/>
<path d="M157.942 21.632C157.942 21.632 155.814 22.0814 154.861 20.4895" stroke="#122C3B" stroke-miterlimit="10" stroke-linecap="round"/>
</svg>
