<svg width="61" height="40" viewBox="0 0 61 40" fill="none" xmlns="http://www.w3.org/2000/svg">
<path fill-rule="evenodd" clip-rule="evenodd" d="M9.94709 13.4927L4.09875 26.5512H11.1L11.9681 24.4692H13.952L14.8198 26.5512H22.5263V24.9622L23.2131 26.5512H27.1994L27.8862 24.9286V26.5512H43.9134L45.8624 24.5233L47.687 26.5512L55.9191 26.5681L50.0522 20.0584L55.9191 13.4927H47.8147L45.9178 15.4832L44.1504 13.4927H26.7148L25.2175 16.8632L23.6852 13.4927H16.6985V15.0277L15.9214 13.4927H9.94709ZM33.8807 15.347H43.0843L45.8992 18.4151L48.805 15.347H51.6199L47.3428 20.0566L51.6199 24.7119H48.6773L45.8624 21.6082L42.9419 24.7119H33.8807V15.347ZM36.1534 18.9977V17.2872L41.8962 17.2855L44.4021 20.0211L41.7852 22.7718H36.1534V20.9043H41.1746V18.9977H36.1534ZM11.3018 15.347H14.7146L18.5937 24.2021V15.347H22.3322L25.3284 21.6961L28.0899 15.347H31.8098V24.7174H29.5463L29.5278 17.3748L26.2279 24.7174H24.2031L20.8847 17.3748V24.7174H16.2283L15.3457 22.6167H10.5763L9.69535 24.7156H7.20034L11.3018 15.347ZM11.3907 20.6747L12.9619 16.9324L14.5313 20.6747H11.3907Z" fill="#848D9F"/>
</svg>
