<svg width="61" height="41" viewBox="0 0 61 41" fill="none" xmlns="http://www.w3.org/2000/svg">
<path fill-rule="evenodd" clip-rule="evenodd" d="M14.515 14.9019C15.3577 14.9716 16.1978 14.484 16.7241 13.8658C17.2423 13.2302 17.586 12.3769 17.4987 11.5062C16.7514 11.541 15.8296 11.9938 15.3032 12.6294C14.8204 13.1779 14.4086 14.066 14.515 14.9019ZM24.5354 26.1164V12.5423H29.6683C32.3193 12.5423 34.1712 14.3534 34.1712 17.0003C34.1712 19.6472 32.2839 21.4756 29.6001 21.4756H26.66V26.1164H24.5354ZM17.4878 15.0674C16.746 15.025 16.0696 15.2888 15.5214 15.5019C15.1695 15.6391 14.8723 15.7552 14.6459 15.7552C14.3922 15.7552 14.0813 15.6329 13.7322 15.4955C13.2767 15.3155 12.7531 15.1097 12.2049 15.1196C10.9503 15.137 9.78294 15.8423 9.14201 16.9655C7.82741 19.2119 8.80107 22.5379 10.0748 24.3664C10.6966 25.2719 11.4412 26.2645 12.4258 26.2297C12.8567 26.2134 13.1676 26.0824 13.4894 25.9469C13.8604 25.7909 14.2449 25.6289 14.8477 25.6289C15.4286 25.6289 15.7968 25.7867 16.1487 25.9383C16.4841 26.0824 16.8087 26.2207 17.286 26.2123C18.306 26.1949 18.9442 25.3067 19.5688 24.4012C20.2397 23.4293 20.537 22.4808 20.5807 22.3369L20.5861 22.3202C20.5861 22.3192 20.5779 22.3154 20.5616 22.3088C20.3379 22.2068 18.6197 21.4263 18.6033 19.3338C18.5869 17.5774 19.967 16.6875 20.1825 16.5474C20.1961 16.5389 20.2043 16.5331 20.2097 16.5301C19.3315 15.2415 17.9624 15.1022 17.4878 15.0674ZM38.0496 26.2207C39.3833 26.2207 40.6215 25.5504 41.1833 24.4882H41.227V26.1164H43.1934V19.3598C43.1934 17.4007 41.6115 16.1382 39.1814 16.1382C36.9259 16.1382 35.2594 17.4182 35.1967 19.177H37.1114C37.2695 18.3411 38.0496 17.7926 39.1214 17.7926C40.4197 17.7926 41.1479 18.3933 41.1479 19.4991V20.2479L38.4969 20.4046C36.0313 20.5526 34.6976 21.5539 34.6976 23.2953C34.6976 25.0541 36.0749 26.2207 38.0496 26.2207ZM38.6196 24.6101C37.4877 24.6101 36.7677 24.0703 36.7677 23.2431C36.7677 22.3898 37.4632 21.8935 38.786 21.8152L41.1479 21.6672V22.4334C41.1479 23.7046 40.0596 24.6101 38.6196 24.6101ZM49.7119 26.6476C48.8609 29.0245 47.8873 29.8082 45.8172 29.8082C45.659 29.8082 45.1326 29.7908 45.0099 29.756V28.1278C45.1408 28.1451 45.4653 28.1625 45.6317 28.1625C46.5699 28.1625 47.0963 27.7707 47.4209 26.752L47.6145 26.1512L44.0171 16.2689H46.2372L48.7382 24.288H48.7818L51.2828 16.2689H53.4429L49.7119 26.6476ZM26.66 14.3186H29.1065C30.9502 14.3186 32.003 15.2937 32.003 17.009C32.003 18.7243 30.9502 19.7081 29.0983 19.7081H26.66V14.3186Z" fill="#848D9F"/>
</svg>
