<svg width="61" height="40" viewBox="0 0 61 40" fill="none" xmlns="http://www.w3.org/2000/svg">
<path d="M24.1471 38.297L58.6949 28.1958V34.2125C58.6949 36.4685 56.8021 38.297 54.4674 38.297H24.1471Z" fill="#848D9F"/>
<path fill-rule="evenodd" clip-rule="evenodd" d="M52.0919 14.6879C53.9929 14.6879 55.0375 15.5374 55.0375 17.1419C55.1329 18.3689 54.2765 19.4071 53.1365 19.5959L55.703 23.0881H53.7065L51.5219 19.6903H51.331V23.0881H49.7163V14.6879H52.0919ZM51.331 18.5577H51.8055C52.8528 18.5577 53.3274 18.0858 53.3274 17.2363C53.3274 16.4813 52.8528 16.0094 51.8055 16.0094H51.331V18.5577ZM44.1088 23.0881H48.669V21.6724H45.7235V19.4071H48.5763V17.9914H45.7235V16.1037H48.669V14.6879H44.1088V23.0881ZM39.3577 20.351L37.1704 14.6879H35.4603L38.9759 23.2769H39.8323L43.3479 14.6879H41.6378L39.3577 20.351ZM20.0669 18.9353C20.0669 21.2949 21.9679 23.2769 24.3435 23.2769C25.1017 23.2769 25.7672 23.0882 26.4327 22.805V20.9173C25.9581 21.4836 25.2926 21.8611 24.5317 21.8611C23.0125 21.8611 21.777 20.7285 21.777 19.2184V19.0296C21.6816 17.5195 22.9171 16.1981 24.4362 16.1037C25.1972 16.1037 25.9581 16.4813 26.4327 17.0476V15.1599C25.8626 14.7824 25.1017 14.688 24.4362 14.688C21.9679 14.4992 20.0669 16.4813 20.0669 18.9353ZM17.1186 17.897C16.1695 17.5195 15.8859 17.3307 15.8859 16.8588C15.9786 16.2925 16.4559 15.8206 17.0259 15.9149C17.5005 15.9149 17.975 16.1981 18.3541 16.5756L19.2105 15.443C18.5451 14.8767 17.6914 14.4992 16.835 14.4992C15.504 14.4048 14.364 15.443 14.2685 16.7644V16.8588C14.2685 17.9914 14.7431 18.6521 16.265 19.124C16.6441 19.2184 17.0259 19.4072 17.405 19.5959C17.6914 19.7847 17.8796 20.0678 17.8796 20.4454C17.8796 21.1061 17.3096 21.6724 16.7395 21.6724H16.6441C15.8859 21.6724 15.2204 21.2005 14.934 20.5398L13.8894 21.578C14.4594 22.6162 15.5995 23.1825 16.7395 23.1825C18.2614 23.2769 19.4969 22.1443 19.5897 20.6342V20.351C19.4969 19.2184 19.0196 18.6521 17.1186 17.897ZM11.6093 23.0881H13.2239V14.6879H11.6093V23.0881ZM4.10083 14.688H6.47639H6.95094C9.23376 14.7824 11.0393 16.6701 10.9438 18.9353C10.9438 20.1623 10.3738 21.2949 9.42195 22.1443C8.56828 22.805 7.52098 23.1826 6.47639 23.0882H4.10083V14.688ZM6.19273 21.6724C6.95094 21.7668 7.80735 21.4836 8.37737 21.0117C8.9474 20.4454 9.23378 19.6903 9.23378 18.8409C9.23378 18.0858 8.9474 17.3307 8.37737 16.7644C7.80735 16.2925 6.95094 16.0093 6.19273 16.1037H5.71545V21.6724H6.19273Z" fill="#848D9F"/>
<path fill-rule="evenodd" clip-rule="evenodd" d="M31.2791 14.4932C28.9035 14.4932 26.9071 16.3809 26.9071 18.8349C26.9071 21.1945 28.8081 23.1766 31.2791 23.2709C33.7501 23.3653 35.6511 21.3833 35.7466 18.9293C35.6511 16.4753 33.7501 14.4932 31.2791 14.4932Z" fill="#848D9F"/>
</svg>
