<svg width="61" height="41" viewBox="0 0 61 41" fill="none" xmlns="http://www.w3.org/2000/svg">
<path fill-rule="evenodd" clip-rule="evenodd" d="M29.1805 26.892V21.5849H31.9733C33.1188 21.5849 34.0843 21.2088 34.8726 20.4671L35.0635 20.2791C36.5008 18.7434 36.4081 16.351 34.8726 14.9302C34.1062 14.1781 33.0561 13.7706 31.9733 13.7915H27.4868V26.892H29.1805ZM29.1805 19.9761V15.4004H32.017C32.6252 15.4004 33.2034 15.6302 33.6343 16.0481C34.548 16.9256 34.5698 18.3882 33.6861 19.2971C33.2552 19.7463 32.647 19.997 32.017 19.9761H29.1805ZM42.9511 18.6285C42.2283 17.9703 41.241 17.636 39.9891 17.636C38.3827 17.636 37.1745 18.221 36.3754 19.3806L37.8672 20.3104C38.4127 19.5165 39.16 19.1195 40.1064 19.1195C40.7037 19.1195 41.2819 19.3389 41.7347 19.7359C42.1738 20.1119 42.4274 20.6552 42.4274 21.2298V21.6163C41.7756 21.2611 40.9574 21.073 39.9482 21.073C38.77 21.073 37.8263 21.3447 37.1226 21.8984C36.419 22.452 36.0617 23.1833 36.0617 24.1131C36.0399 24.9593 36.4081 25.7636 37.0599 26.307C37.7199 26.892 38.56 27.1845 39.5473 27.1845C40.7146 27.1845 41.6392 26.6727 42.3429 25.6487H42.4165V26.892H44.0339V21.3656C44.0339 20.206 43.6766 19.2866 42.9511 18.6285ZM38.3609 25.2413C38.0145 24.9905 37.8045 24.5831 37.8045 24.1444C37.8045 23.6533 38.0363 23.2459 38.4891 22.9221C38.95 22.5982 39.5282 22.4311 40.21 22.4311C41.1565 22.4206 41.8929 22.6295 42.4165 23.0474C42.4165 23.7578 42.1329 24.3742 41.5765 24.8965C41.0719 25.398 40.3901 25.6801 39.6755 25.6801C39.2036 25.6906 38.74 25.5338 38.3609 25.2413ZM47.6694 30.8304L53.3206 17.9286H51.4823L48.8668 24.3639H48.8368L46.1558 17.9286H44.3175L48.0267 26.3175L45.9267 30.8304H47.6694Z" fill="#848D9F"/>
<path d="M23.341 20.4357C23.341 19.9238 23.2974 19.4119 23.2128 18.9105H16.0807V21.8043H20.1663C19.9999 22.734 19.4517 23.5698 18.6553 24.0921V25.9725H21.0909C22.5201 24.6667 23.341 22.734 23.341 20.4357Z" fill="#848D9F"/>
<path d="M16.0808 27.7903C18.1182 27.7903 19.8419 27.1217 21.091 25.9726L18.6555 24.0921C17.9709 24.5518 17.1009 24.8129 16.0808 24.8129C14.1062 24.8129 12.437 23.4862 11.837 21.7102H9.32507V23.6533C10.6069 26.1918 13.2225 27.7903 16.0808 27.7903Z" fill="#848D9F"/>
<path d="M11.8372 21.7103C11.5236 20.7805 11.5236 19.7671 11.8372 18.8269V16.8942H9.32529C8.24525 19.015 8.24525 21.5222 9.32529 23.6429L11.8372 21.7103Z" fill="#848D9F"/>
<path d="M16.0808 15.7241C17.1636 15.7032 18.2027 16.1106 18.98 16.8524L21.1456 14.7003C19.7683 13.4258 17.9627 12.7258 16.0808 12.7467C13.2225 12.7467 10.6069 14.3556 9.32507 16.8941L11.837 18.8373C12.437 17.0509 14.1062 15.7241 16.0808 15.7241Z" fill="#848D9F"/>
</svg>
