<svg width="61" height="41" viewBox="0 0 61 41" fill="none" xmlns="http://www.w3.org/2000/svg">
<path d="M13.312 11.7603C13.3665 9.66267 15.303 7.85203 17.4603 7.82139C19.6122 7.81498 21.7669 7.82046 23.9215 7.81859C23.9133 14.8369 23.9324 21.856 23.9106 28.874C23.8288 30.9462 21.9141 32.7223 19.7813 32.7589C17.624 32.7666 15.4639 32.76 13.3065 32.7621V24.0012C15.4039 24.4796 17.6021 24.6832 19.7404 24.3659C21.0168 24.1673 22.416 23.5608 22.8496 22.2797C23.166 21.1839 22.9888 20.0305 23.0351 18.9058V16.2938H19.334C19.3177 18.0213 19.3695 19.7519 19.3068 21.4773C19.2086 22.5379 18.1204 23.2117 17.0867 23.1757C15.8021 23.1888 13.2574 22.2767 13.2574 22.2767C13.252 19.04 13.2956 14.9863 13.312 11.7603Z" fill="#848D9F"/>
<path d="M39.2195 20.7949C40.1522 20.8145 41.0932 20.755 42.0232 20.8257C42.9642 20.9955 43.1906 22.3735 42.356 22.8248C41.7832 23.1221 41.1041 22.9355 40.485 22.9879H39.2195V20.7949ZM42.5632 18.3126C42.7705 19.0202 42.0641 19.6556 41.3577 19.5581H39.2195C39.2331 18.8908 39.1894 18.1664 39.2413 17.5342C40.0977 17.5575 40.9622 17.4867 41.8159 17.5713C42.1814 17.6602 42.4869 17.951 42.5632 18.3126ZM47.7125 7.81809C47.7507 9.16956 47.718 10.5925 47.7289 11.9713C47.7262 17.5773 47.7343 23.1832 47.7234 28.7896C47.688 30.8906 45.7597 32.7162 43.5996 32.7581C41.4396 32.7665 39.2767 32.7594 37.1139 32.7615V24.2865C39.4704 24.2748 41.8268 24.3104 44.1806 24.2688C45.2743 24.2025 46.4689 23.5062 46.5207 22.3448C46.6489 21.1785 45.5115 20.3718 44.4315 20.2443C44.0142 20.2339 44.0278 20.1274 44.4315 20.0809C45.4624 19.8656 46.2697 18.835 45.967 17.8029C45.7079 16.7173 44.4669 16.2971 43.4333 16.2992C41.3277 16.2854 39.2222 16.2973 37.1139 16.2933C37.1275 14.7111 37.0866 13.1272 37.1385 11.5461C37.3048 9.48308 39.2795 7.78173 41.4096 7.81864C43.5097 7.81833 45.6124 7.81817 47.7125 7.81809Z" fill="#848D9F"/>
<path d="M25.2987 17.3467C25.105 17.3866 25.2605 16.7057 25.2114 16.4474C25.225 14.8141 25.1841 13.1791 25.2332 11.547C25.3996 9.47523 27.3906 7.76964 29.5289 7.81815H35.8237C35.8182 14.8365 35.8345 21.8555 35.8155 28.8735C35.7336 30.9457 33.819 32.7218 31.6835 32.7584C29.5261 32.7663 27.3687 32.7597 25.2114 32.7616V23.163C26.6842 24.3313 28.6888 24.5131 30.5243 24.5163C31.9071 24.5158 33.2844 24.3096 34.6291 24.0012V22.2427C33.1126 22.9722 31.3316 23.4355 29.6543 23.0164C28.4815 22.7347 27.6306 21.6409 27.6497 20.473C27.516 19.2583 28.2524 17.976 29.4879 17.6149C31.0207 17.151 32.6926 17.5058 34.1299 18.109C34.4381 18.2648 34.7518 18.4581 34.6291 17.9606V16.5784C32.2235 16.0257 29.6652 15.8223 27.2488 16.4236C26.5506 16.6142 25.8687 16.9031 25.2987 17.3467Z" fill="#848D9F"/>
</svg>
