<svg width="61" height="40" viewBox="0 0 61 40" fill="none" xmlns="http://www.w3.org/2000/svg">
<path fill-rule="evenodd" clip-rule="evenodd" d="M30.5908 29.5066C28.1973 31.4468 25.0924 32.6181 21.6998 32.6181C14.1294 32.6181 7.99255 26.7866 7.99255 19.5931C7.99255 12.3996 14.1294 6.56818 21.6998 6.56818C25.0924 6.56818 28.1973 7.73945 30.5908 9.67968C32.9844 7.73948 36.0892 6.5682 39.4821 6.5682C47.0522 6.5682 53.1891 12.3997 53.1891 19.5932C53.1891 26.7866 47.0522 32.6181 39.4821 32.6181C36.0892 32.6181 32.9844 31.4468 30.5908 29.5066Z" fill="#848D9F"/>
<path fill-rule="evenodd" clip-rule="evenodd" d="M30.5907 29.5065C33.5379 27.1175 35.4067 23.5628 35.4067 19.5932C35.4067 15.6235 33.5379 12.0687 30.5907 9.67966C32.9843 7.73945 36.0891 6.56818 39.4817 6.56818C47.0521 6.56818 53.189 12.3997 53.189 19.5932C53.189 26.7866 47.0521 32.6181 39.4817 32.6181C36.0891 32.6181 32.9843 31.4468 30.5907 29.5065Z" fill="#848D9F"/>
<path fill-rule="evenodd" clip-rule="evenodd" d="M30.5906 29.5066C33.5379 27.1176 35.4067 23.5627 35.4067 19.5931C35.4067 15.6235 33.5379 12.0687 30.5906 9.67969C27.6434 12.0687 25.7749 15.6235 25.7749 19.5931C25.7749 23.5627 27.6434 27.1176 30.5906 29.5066Z" fill="white"/>
</svg>
