<svg width="61" height="41" viewBox="0 0 61 41" fill="none" xmlns="http://www.w3.org/2000/svg">
<path d="M33.0996 33.4652C40.3817 33.4997 47.0283 27.5913 47.0283 20.4039C47.0283 12.5446 40.3817 7.11146 33.0996 7.11438H26.8348C19.4654 7.11146 13.3997 12.5461 13.3997 20.4039C13.3997 27.5928 19.4654 33.4997 26.8348 33.4652H33.0996Z" fill="#0079BE"/>
<path d="M26.8645 8.20349C20.1306 8.20568 14.6758 13.6036 14.6731 20.266C14.6758 26.9277 20.1306 32.3255 26.8645 32.3278C33.5984 32.3255 39.0559 26.9277 39.0559 20.266C39.0559 13.6036 33.5984 8.20568 26.8645 8.20349ZM19.1378 20.266C19.1351 18.7256 19.6069 17.2206 20.4933 15.9477C21.377 14.6748 22.6343 13.6933 24.0962 13.1313V27.3999C22.6343 26.8384 21.377 25.8571 20.4933 24.5841C19.6069 23.3113 19.1351 21.8063 19.1378 20.266ZM29.6301 27.4028V13.1306C31.0947 13.6917 32.352 14.6732 33.2357 15.9465C34.1221 17.2198 34.5939 18.7256 34.5939 20.2667C34.5939 21.8077 34.1221 23.3134 33.2357 24.5866C32.3493 25.86 31.0947 26.8415 29.6301 27.4028Z" fill="white"/>
<path d="M33.0996 33.4652C40.3817 33.4997 47.0283 27.5913 47.0283 20.4039C47.0283 12.5446 40.3817 7.11146 33.0996 7.11438H26.8348C19.4654 7.11146 13.3997 12.5461 13.3997 20.4039C13.3997 27.5928 19.4654 33.4997 26.8348 33.4652H33.0996Z" fill="#848D9F"/>
<path d="M26.8645 8.20349C20.1306 8.20568 14.6758 13.6036 14.6731 20.266C14.6758 26.9277 20.1306 32.3255 26.8645 32.3278C33.5984 32.3255 39.0559 26.9277 39.0559 20.266C39.0559 13.6036 33.5984 8.20568 26.8645 8.20349ZM19.1378 20.266C19.1351 18.7256 19.6069 17.2206 20.4933 15.9477C21.377 14.6748 22.6343 13.6933 24.0962 13.1313V27.3999C22.6343 26.8384 21.377 25.8571 20.4933 24.5841C19.6069 23.3113 19.1351 21.8063 19.1378 20.266ZM29.6301 27.4028V13.1306C31.0947 13.6917 32.352 14.6732 33.2357 15.9465C34.1221 17.2198 34.5939 18.7256 34.5939 20.2667C34.5939 21.8077 34.1221 23.3134 33.2357 24.5866C32.3493 25.86 31.0947 26.8415 29.6301 27.4028Z" fill="white"/>
</svg>
