<svg width="61" height="40" viewBox="0 0 61 40" fill="none" xmlns="http://www.w3.org/2000/svg">
<path fill-rule="evenodd" clip-rule="evenodd" d="M32.3411 12.9857L29.1544 13.656V11.1237L32.3411 10.4658V12.9857ZM19.3915 11.9058L16.2938 12.5512L16.2811 22.4942C16.2811 24.3313 17.6903 25.6843 19.5692 25.6843C20.6103 25.6843 21.372 25.4983 21.7909 25.2748V22.7549C21.3847 22.9162 19.3788 23.4872 19.3788 21.6501V17.2434H21.7909V14.5994H19.3788L19.3915 11.9058ZM11.8887 17.0821C11.2158 17.0821 10.8096 17.2683 10.8096 17.7524C10.8096 18.281 11.5088 18.5135 12.3761 18.8019C13.7902 19.2722 15.6514 19.8911 15.6592 22.1839C15.6592 24.4058 13.8438 25.6843 11.2031 25.6843C10.1114 25.6843 8.91798 25.4732 7.7373 24.9768V22.0225C8.80371 22.5935 10.1494 23.0156 11.2031 23.0156C11.9141 23.0156 12.4219 22.8294 12.4219 22.2584C12.4219 21.6729 11.664 21.4052 10.749 21.0822C9.35551 20.5901 7.59766 19.9694 7.59766 17.9013C7.59766 15.7042 9.31155 14.3884 11.8887 14.3884C12.9424 14.3884 13.9834 14.5498 15.0371 14.9594V17.8765C14.0723 17.3676 12.8535 17.0821 11.8887 17.0821ZM48.7179 14.3884C51.7265 14.3884 53.3008 16.8959 53.3008 20.0737C53.3008 20.2446 53.2926 20.5302 53.2852 20.7729C53.28 20.952 53.2754 21.11 53.2754 21.1784H47.0673C47.207 22.6432 48.2987 23.0652 49.5304 23.0652C50.7872 23.0652 51.7775 22.8045 52.6407 22.3825V24.8651C51.7775 25.3367 50.6347 25.6719 49.124 25.6719C46.0263 25.6719 43.8681 23.7852 43.8681 20.0488C43.8681 16.8959 45.6963 14.3884 48.7179 14.3884ZM48.7051 16.9083C47.9052 16.9083 47.0291 17.4917 47.0291 18.8944H50.3047C50.3047 17.4917 49.4794 16.9083 48.7051 16.9083ZM25.7394 15.518L25.5363 14.5994H22.7941V25.4609H25.968V18.0999C26.7169 17.1441 27.9865 17.3179 28.3801 17.4544V14.5994C27.9737 14.4505 26.4884 14.1774 25.7394 15.518ZM29.1541 14.5994H32.3408V25.4609H29.1541V14.5994ZM38.9675 14.3884C37.7236 14.3884 36.9236 14.9594 36.4793 15.3567L36.3143 14.587H33.5212V29.0607L36.6951 28.403L36.7079 24.89C37.165 25.2126 37.8378 25.6719 38.955 25.6719C41.2274 25.6719 43.2967 23.8845 43.2967 19.9495C43.2842 16.3497 41.1893 14.3884 38.9675 14.3884ZM38.2058 22.941C37.4568 22.941 37.0125 22.6804 36.7079 22.3576L36.6951 17.7524C37.0254 17.3924 37.4822 17.1441 38.2058 17.1441C39.3611 17.1441 40.161 18.4102 40.161 20.0364C40.161 21.6997 39.3739 22.941 38.2058 22.941Z" fill="#848D9F"/>
</svg>
