<svg width="61" height="41" viewBox="0 0 61 41" fill="none" xmlns="http://www.w3.org/2000/svg">
<path d="M18.9561 7.99689H28.8429C30.2229 7.99689 31.082 9.09939 30.7602 10.4565L26.1564 29.8251C25.8318 31.1775 24.449 32.281 23.069 32.281H13.1849C11.8076 32.281 10.9458 31.1775 11.2676 29.8251L15.8714 10.4565C16.1932 9.09939 17.576 7.99689 18.9561 7.99689Z" fill="#848D9F"/>
<path d="M28.0191 7.99268H39.3868C40.7668 7.99268 40.145 9.09518 39.8204 10.4523L35.2193 29.821C34.8975 31.1733 34.9984 32.2767 33.6157 32.2767H22.2452C20.8624 32.2767 20.0087 31.1733 20.3333 29.821L24.9344 10.4523C25.2617 9.09518 26.639 7.99268 28.0191 7.99268Z" fill="#848D9F"/>
<path d="M38.9366 7.99268H48.8234C50.2061 7.99268 51.0626 9.09518 50.738 10.4523L46.1369 29.821C45.8123 31.1733 44.4295 32.2767 43.0468 32.2767H33.1654C31.7827 32.2767 30.9263 31.1733 31.2508 29.821L35.8519 10.4523C36.1738 9.09518 37.5538 7.99268 38.9366 7.99268Z" fill="#848D9F"/>
<path d="M21.5384 14.1997C20.5211 14.2099 20.2211 14.1997 20.1257 14.1775C20.0875 14.3492 19.4029 17.451 19.4002 17.4536C19.2529 18.0811 19.1465 18.5284 18.781 18.8173C18.5738 18.9852 18.3311 19.0662 18.0501 19.0662C17.6001 19.0662 17.3383 18.8468 17.2919 18.4307L17.2837 18.2878C17.2837 18.2878 17.4228 17.4472 17.4228 17.4425C17.4228 17.4425 18.1429 14.6159 18.271 14.2422C18.2765 14.221 18.2792 14.2099 18.2819 14.1997C16.8801 14.2118 16.6319 14.1997 16.6155 14.1775C16.6046 14.208 16.5692 14.3832 16.5692 14.3832L15.8355 17.5691L15.7728 17.8393L15.65 18.723C15.65 18.9852 15.7019 19.1992 15.8055 19.3801C16.141 19.9538 17.0983 20.0398 17.6383 20.0398C18.3338 20.0398 18.9883 19.8947 19.4274 19.63C20.1938 19.1862 20.3957 18.4926 20.5729 17.8761L20.6575 17.5599C20.6575 17.5599 21.3994 14.6241 21.5248 14.2422C21.5303 14.221 21.5303 14.2099 21.5384 14.1997ZM24.0613 16.568C23.884 16.568 23.5567 16.6105 23.2622 16.7515C23.1558 16.8051 23.0549 16.867 22.9485 16.9286L23.044 16.5893L22.9921 16.5321C22.3703 16.6556 22.2312 16.6722 21.6557 16.7515L21.6066 16.7829C21.5412 17.3254 21.4812 17.7333 21.233 18.7997C21.1402 19.1927 21.042 19.5895 20.9439 19.9815L20.9712 20.0314C21.5603 20.0009 21.7375 20.0009 22.2503 20.0092L22.2912 19.965C22.3567 19.6384 22.3648 19.5618 22.5094 18.9003C22.5776 18.5866 22.7194 17.8975 22.7876 17.6521C22.9158 17.594 23.0413 17.5368 23.164 17.5368C23.4504 17.5368 23.4149 17.7822 23.404 17.88C23.3903 18.0441 23.2867 18.5803 23.1803 19.0406L23.1067 19.3377C23.0576 19.5571 23.003 19.7704 22.9539 19.9879L22.9758 20.0314C23.5567 20.0009 23.734 20.0009 24.2277 20.0092L24.2877 19.965C24.3777 19.4548 24.4022 19.3183 24.5631 18.5755L24.6422 18.2343C24.7977 17.5663 24.8768 17.2277 24.7568 16.9518C24.634 16.6426 24.3367 16.568 24.0613 16.568ZM26.8814 17.2673C26.5705 17.3254 26.3741 17.3642 26.1805 17.3892C25.9841 17.4196 25.7959 17.4473 25.4986 17.4879L25.4741 17.5089L25.4522 17.5257C25.4222 17.7434 25.4004 17.9317 25.3595 18.153C25.3241 18.3819 25.2695 18.6419 25.1822 19.0155C25.114 19.3015 25.0786 19.4012 25.0404 19.5018C25.0049 19.6024 24.9613 19.7002 24.885 19.9815L24.9041 20.0075L24.9177 20.0313C25.1986 20.0183 25.3813 20.0091 25.5668 20.0075C25.755 20.0009 25.9486 20.0075 26.2486 20.0091L26.2759 19.9881L26.3032 19.965C26.3468 19.7113 26.3523 19.643 26.3796 19.5193C26.4068 19.3866 26.4505 19.2028 26.5623 18.712C26.6141 18.4815 26.6741 18.2517 26.7287 18.0165C26.7859 17.7822 26.8432 17.5514 26.9005 17.3209L26.8923 17.2931L26.8814 17.2673ZM26.8868 16.3244C26.6059 16.1622 26.115 16.2137 25.7822 16.4378C25.4522 16.6574 25.4141 16.9692 25.695 17.1336C25.9704 17.2914 26.4641 17.2444 26.7941 17.0183C27.1214 16.794 27.165 16.485 26.8868 16.3244ZM28.5833 20.0822C29.1506 20.0822 29.7315 19.9289 30.1706 19.474C30.5061 19.1051 30.6616 18.5562 30.7161 18.3302C30.8907 17.581 30.7543 17.2312 30.5825 17.0182C30.3234 16.6935 29.8679 16.5893 29.3933 16.5893C29.1069 16.5893 28.4278 16.6169 27.896 17.0966C27.5169 17.4426 27.3396 17.9121 27.2332 18.3623C27.1268 18.821 27.0041 19.6467 27.7787 19.9539C28.016 20.0545 28.3624 20.0822 28.5833 20.0822ZM28.5396 18.3966C28.6706 17.8292 28.8233 17.3531 29.2188 17.3531C29.527 17.3531 29.5488 17.7074 29.4124 18.2766C29.3879 18.4029 29.276 18.8727 29.1233 19.0728C29.0169 19.2203 28.8887 19.3099 28.7496 19.3099C28.7087 19.3099 28.4633 19.3099 28.4578 18.9511C28.4578 18.774 28.4933 18.5931 28.5396 18.3966ZM32.1344 20.0092L32.178 19.9651C32.2407 19.6384 32.2516 19.5617 32.3907 18.9004C32.4589 18.5867 32.6034 17.8975 32.6716 17.6521C32.7998 17.5938 32.9253 17.5366 33.048 17.5366C33.3344 17.5366 33.2989 17.7821 33.288 17.8798C33.2771 18.0442 33.1735 18.5801 33.0644 19.0404L32.9962 19.3375C32.9444 19.5572 32.8871 19.7702 32.838 19.988L32.8598 20.0314C33.4408 20.001 33.6126 20.001 34.1117 20.0092L34.1717 19.9651C34.259 19.4547 34.2835 19.3182 34.4472 18.5756L34.5235 18.2341C34.6817 17.5662 34.7608 17.2277 34.6435 16.9519C34.5154 16.6427 34.2153 16.5681 33.9453 16.5681C33.7653 16.5681 33.438 16.6104 33.1462 16.7516C33.0425 16.8052 32.9362 16.8669 32.8353 16.9287L32.9253 16.5893L32.8762 16.5319C32.2543 16.6557 32.1125 16.6722 31.537 16.7516L31.4934 16.783C31.4252 17.3255 31.3679 17.7331 31.1197 18.7998C31.027 19.1928 30.9288 19.5895 30.8306 19.9816L30.8552 20.0314C31.447 20.001 31.6216 20.001 32.1344 20.0092ZM36.4136 20.0313C36.4518 19.8561 36.6673 18.8173 36.67 18.8173C36.67 18.8173 36.8555 18.0552 36.8664 18.0276C36.8664 18.0276 36.9264 17.9482 36.9836 17.9168H37.0682C37.8782 17.9168 38.7919 17.9168 39.5092 17.4003C39.9974 17.046 40.3301 16.5228 40.4774 15.887C40.5183 15.7312 40.5456 15.5458 40.5456 15.3604C40.5456 15.1169 40.4965 14.876 40.352 14.6877C39.9865 14.1868 39.2583 14.1776 38.4183 14.1738C38.4155 14.1738 38.0064 14.1776 38.0064 14.1776C36.9291 14.1906 36.4981 14.1868 36.3209 14.1655C36.3072 14.2423 36.28 14.3788 36.28 14.3788C36.28 14.3788 35.8927 16.1279 35.8927 16.1308C35.8927 16.1308 34.9735 19.8497 34.9299 20.0249C35.8681 20.0138 36.2527 20.0138 36.4136 20.0313ZM37.1282 16.9241C37.1282 16.9241 37.5373 15.1785 37.5346 15.1851L37.5482 15.0956L37.5537 15.0274L37.7173 15.0439C37.7173 15.0439 38.5628 15.115 38.5819 15.1169C38.9146 15.2432 39.0537 15.5689 38.9555 15.9941C38.8682 16.3825 38.6119 16.7092 38.2819 16.867C38.0091 17.0006 37.6764 17.0117 37.3327 17.0117H37.1118L37.1282 16.9241ZM39.6756 18.4289C39.5692 18.8809 39.4437 19.7066 40.2156 20.0009C40.4611 20.1034 40.6819 20.1339 40.9056 20.1228C41.1402 20.1103 41.3611 19.9941 41.5629 19.8268C41.5438 19.8956 41.5275 19.9643 41.5084 20.0333L41.5438 20.0774C42.0975 20.0545 42.2693 20.0545 42.8693 20.059L42.9239 20.0184C43.0139 19.513 43.0957 19.0222 43.3221 18.0553C43.4339 17.5921 43.5457 17.1334 43.6603 16.6722L43.6412 16.6214C43.0221 16.7341 42.8557 16.7582 42.2584 16.8411L42.212 16.8772C42.2066 16.9242 42.2011 16.9693 42.1957 17.0144C42.1029 16.8675 41.9693 16.7421 41.7593 16.6639C41.4947 16.5617 40.8729 16.6934 40.3356 17.1715C39.9592 17.5127 39.7792 17.9804 39.6756 18.4289ZM40.9793 18.4565C41.1129 17.8994 41.2656 17.428 41.6611 17.428C41.9093 17.428 42.0402 17.654 42.0157 18.0394C41.9939 18.1356 41.9693 18.2369 41.942 18.3514C41.9038 18.517 41.8602 18.6811 41.8193 18.8455C41.7757 18.9579 41.7266 19.064 41.672 19.1346C41.5711 19.2758 41.3284 19.3635 41.1893 19.3635C41.1511 19.3635 40.9056 19.3635 40.8974 19.0111C40.8974 18.8356 40.9329 18.6549 40.9793 18.4565ZM47.7814 16.6169L47.735 16.5633C47.1213 16.6852 47.0095 16.7045 46.4449 16.7792L46.404 16.8198C46.4013 16.8264 46.4013 16.8365 46.3986 16.8457L46.3958 16.8365C45.9758 17.7857 45.9867 17.581 45.6458 18.3283C45.6431 18.2942 45.6431 18.273 45.6431 18.2368L45.5558 16.6169L45.504 16.5633C44.8603 16.6852 44.844 16.7045 44.2521 16.7792L44.2057 16.8198C44.1976 16.8391 44.1976 16.8604 44.1948 16.8835L44.1975 16.8918C44.2739 17.2636 44.2548 17.1807 44.3285 17.7673C44.3639 18.0552 44.4103 18.3448 44.4458 18.6292C44.503 19.1051 44.5358 19.3393 44.6067 20.0656C44.2058 20.7142 44.113 20.9595 43.7257 21.5287L43.7284 21.5344L43.4557 21.9557C43.4257 22.0001 43.3984 22.0306 43.3575 22.0436C43.3139 22.0646 43.2593 22.0684 43.1802 22.0684H43.0302L42.8066 22.7982L43.573 22.8112C44.023 22.8093 44.3067 22.6026 44.4594 22.3249L44.9422 21.5139H44.9367L44.9858 21.4567C45.3103 20.7713 47.7814 16.6169 47.7814 16.6169ZM39.6756 26.2017H39.351L40.5565 22.2927H40.9574L41.0829 21.89L41.0965 22.3378C41.0802 22.6146 41.3038 22.86 41.8875 22.8193H42.5611L42.7929 22.0666H42.5393C42.3947 22.0666 42.3266 22.0305 42.3348 21.953L42.3238 21.4974H41.072C40.6683 21.5057 39.4628 21.5378 39.2174 21.6016C38.9228 21.6762 38.6091 21.8959 38.6091 21.8959L38.7319 21.4927H37.5646L37.3191 22.2927L36.0972 26.2615H35.86L35.6281 27.0088H37.9573L37.8782 27.2578H39.0264L39.1028 27.0088H39.4246L39.6756 26.2017ZM38.721 23.0869C38.5328 23.1377 38.1864 23.2917 38.1864 23.2917L38.4946 22.2927H39.4246L39.201 23.0206C39.201 23.0206 38.9146 23.0371 38.721 23.0869ZM38.7401 24.5142C38.7401 24.5142 38.4482 24.5501 38.2546 24.5926C38.0664 24.6488 37.7119 24.8259 37.7119 24.8259L38.0309 23.7863H38.9664L38.7401 24.5142ZM38.2191 26.2109H37.2864L37.5564 25.3335H38.4864L38.2191 26.2109ZM40.4638 23.7863H41.8056L41.612 24.3989H40.251L40.0465 25.0687H41.2384L40.3356 26.3132C40.2728 26.4046 40.2156 26.437 40.1528 26.4626C40.0901 26.4942 40.0083 26.5308 39.9128 26.5308H39.5828L39.3537 27.2644H40.2183C40.6683 27.2644 40.9329 27.0642 41.1292 26.8014L41.7484 25.9719L41.8793 26.8141C41.9093 26.9719 42.0239 27.0642 42.1029 27.1C42.1902 27.1427 42.2775 27.2157 42.4057 27.2265C42.5393 27.232 42.6375 27.2365 42.703 27.2365H43.1284L43.3821 26.4157H43.2157C43.1175 26.4157 42.9539 26.3998 42.9239 26.3703C42.8966 26.3345 42.8966 26.2792 42.883 26.1951L42.7466 25.351H42.1957L42.4384 25.0687H43.7967L44.0039 24.3989H42.7466L42.943 23.7863H44.1975L44.4294 23.0307H40.6901L40.4638 23.7863ZM29.1179 26.3814L29.4315 25.3593H30.7216L30.9561 24.599H29.6661L29.8624 23.9699H31.1225L31.357 23.2337H28.2042L27.9751 23.9699H28.6924L28.5015 24.599H27.7814L27.5442 25.3723H28.2614L27.8414 26.7248C27.7869 26.9037 27.8687 26.9719 27.9205 27.0552C27.9751 27.1361 28.0296 27.1896 28.1524 27.2202C28.2778 27.2478 28.3651 27.2644 28.4824 27.2644H29.9361L30.1924 26.422L29.5488 26.5087C29.426 26.5087 29.0824 26.4942 29.1179 26.3814ZM29.2678 21.4881L28.9406 22.0665C28.8697 22.1929 28.8069 22.2713 28.7496 22.3074C28.7005 22.3379 28.6024 22.3506 28.4578 22.3506H28.2887L28.0596 23.0906H28.6269C28.8996 23.0906 29.1069 22.9928 29.2078 22.9439C29.3142 22.8877 29.3415 22.9198 29.426 22.8414L29.617 22.6792H31.3843L31.6189 21.9088H30.3234L30.5497 21.4881H29.2678ZM31.8753 26.3964C31.8453 26.3537 31.867 26.2789 31.9134 26.1232L32.3962 24.5565H34.1117C34.3626 24.553 34.5453 24.5501 34.6626 24.5419C34.7881 24.5289 34.9244 24.4847 35.0744 24.4053C35.2299 24.3222 35.309 24.2346 35.3745 24.134C35.4508 24.0336 35.5681 23.8139 35.6718 23.4753L36.28 21.4928L34.4963 21.5029C34.4963 21.5029 33.948 21.5823 33.7053 21.6699C33.4626 21.7677 33.1135 22.0407 33.1135 22.0407L33.2744 21.4973H32.1725L30.6315 26.5087C30.577 26.7034 30.5388 26.8447 30.5306 26.9295C30.5279 27.0207 30.6479 27.1113 30.727 27.1796C30.8197 27.2478 30.9561 27.2368 31.087 27.2478C31.2234 27.2578 31.4198 27.2644 31.6898 27.2644H32.5352L32.7971 26.4046L32.0389 26.4747C31.9571 26.4747 31.8998 26.4323 31.8753 26.3964ZM32.7071 23.4984H34.5099L34.3953 23.8508C34.379 23.8591 34.3408 23.8333 34.158 23.8546H32.5953L32.7071 23.4984ZM33.0671 22.3166H34.889L34.7581 22.741C34.7581 22.741 33.899 22.7327 33.7626 22.7575C33.1571 22.86 32.8053 23.1765 32.8053 23.1765L33.0671 22.3166ZM34.4363 25.0308C34.4226 25.0835 34.3981 25.1156 34.3653 25.1397C34.3299 25.1628 34.2699 25.1711 34.1799 25.1711H33.9235L33.9399 24.742H32.8707L32.8271 26.8399C32.8244 26.9914 32.8407 27.0789 32.9525 27.149C33.0644 27.2368 33.4135 27.2478 33.8826 27.2478H34.5535L34.7935 26.4626L34.2099 26.4939L34.0162 26.505C33.9917 26.4939 33.9644 26.4839 33.9371 26.4562C33.9126 26.4323 33.8717 26.447 33.8771 26.2955L33.8826 25.7577L34.4935 25.7329C34.8235 25.7329 34.9654 25.6278 35.0854 25.5273C35.1999 25.4311 35.2381 25.3206 35.2817 25.1711L35.3854 24.695H34.5453L34.4363 25.0308Z" fill="#FEFEFE"/>
</svg>
