<svg width="61" height="40" viewBox="0 0 61 40" fill="none" xmlns="http://www.w3.org/2000/svg">
<path fill-rule="evenodd" clip-rule="evenodd" d="M17.7989 27.244H13.9986L11.149 16.5879C11.0138 16.0977 10.7266 15.6644 10.3041 15.4602C9.24969 14.9469 8.08809 14.5384 6.82068 14.3324V13.9221H12.9426C13.7875 13.9221 14.4211 14.5384 14.5266 15.2541L16.0051 22.9407L19.8036 13.9221H23.4981L17.7989 27.244ZM25.6105 27.244H22.0215L24.9769 13.9221H28.5658L25.6105 27.244ZM33.2089 17.6127C33.3148 16.8952 33.9483 16.4849 34.6877 16.4849C35.8493 16.3819 37.1148 16.5879 38.1712 17.0994L38.8047 14.2311C37.7487 13.8209 36.5868 13.6149 35.5327 13.6149C32.0493 13.6149 29.5144 15.4602 29.5144 18.0212C29.5144 19.9695 31.3099 20.9925 32.5773 21.6088C33.9483 22.2233 34.4764 22.6335 34.3708 23.248C34.3708 24.1698 33.3148 24.58 32.2604 24.58C30.9929 24.58 29.7258 24.2728 28.5658 23.7595L27.932 26.6295C29.1994 27.1409 30.5705 27.347 31.8379 27.347C35.7438 27.4482 38.1712 25.6047 38.1712 22.8378C38.1712 19.3532 33.2089 19.149 33.2089 17.6127ZM50.7316 27.244L47.882 13.9221H44.8211C44.1872 13.9221 43.5536 14.3324 43.3423 14.9469L38.0653 27.244H41.7601L42.4973 25.2974H47.0371L47.4595 27.244H50.7316ZM45.3491 17.5097L46.4032 22.5305H43.4478L45.3491 17.5097Z" fill="#848D9F"/>
</svg>
