<svg width="43" height="43" viewBox="0 0 43 43" fill="none" xmlns="http://www.w3.org/2000/svg">
<path fill-rule="evenodd" clip-rule="evenodd" d="M21.5 3C11.2827 3 3 11.2827 3 21.5C3 31.7173 11.2827 40 21.5 40C31.7173 40 40 31.7173 40 21.5C40 11.2827 31.7173 3 21.5 3ZM0 21.5C0 9.62588 9.62588 0 21.5 0C33.3741 0 43 9.62588 43 21.5C43 33.3741 33.3741 43 21.5 43C9.62588 43 0 33.3741 0 21.5ZM31.4496 11.5505C31.8917 11.9926 32.0132 12.6626 31.7544 13.2318L26.1989 25.454C26.0488 25.7842 25.7842 26.0488 25.454 26.1989L13.2318 31.7544C12.6626 32.0132 11.9926 31.8917 11.5505 31.4496C11.1083 31.0074 10.9868 30.3374 11.2456 29.7682L16.8011 17.546C16.9512 17.2158 17.2158 16.9512 17.546 16.8011L29.7682 11.2456C30.3374 10.9868 31.0074 11.1083 31.4496 11.5505ZM19.2995 19.2995L15.6319 27.3681L23.7005 23.7005L27.3681 15.6319L19.2995 19.2995Z" fill="#FF9900"/>
</svg>
