<svg width="34" height="34" viewBox="0 0 34 34" fill="none" xmlns="http://www.w3.org/2000/svg">
<path d="M2 18.5H32V15.5H2V18.5ZM17 30.5C9.54416 30.5 3.5 24.4558 3.5 17H0.5C0.5 26.1127 7.8873 33.5 17 33.5V30.5ZM3.5 17C3.5 9.54416 9.54416 3.5 17 3.5V0.5C7.8873 0.5 0.5 7.8873 0.5 17H3.5ZM17 3.5C24.4558 3.5 30.5 9.54416 30.5 17H33.5C33.5 7.8873 26.1127 0.5 17 0.5V3.5ZM30.5 17C30.5 24.4558 24.4558 30.5 17 30.5V33.5C26.1127 33.5 33.5 26.1127 33.5 17H30.5ZM17 30.5C16.5676 30.5 16.0427 30.3091 15.4391 29.7346C14.8278 29.1528 14.209 28.2401 13.6567 26.9974C12.5538 24.5158 11.8333 20.9825 11.8333 17H8.83333C8.83333 21.3018 9.60529 25.2684 10.9152 28.2158C11.5694 29.6876 12.3871 30.9715 13.371 31.9078C14.3625 32.8515 15.5915 33.5 17 33.5V30.5ZM11.8333 17C11.8333 13.0175 12.5538 9.48415 13.6567 7.00261C14.209 5.75994 14.8278 4.84717 15.4391 4.26537C16.0427 3.69092 16.5676 3.5 17 3.5V0.5C15.5915 0.5 14.3625 1.14854 13.371 2.09218C12.3871 3.02846 11.5694 4.31239 10.9152 5.78419C9.60529 8.73158 8.83333 12.6982 8.83333 17H11.8333ZM17 3.5C17.4324 3.5 17.9573 3.69092 18.5609 4.26537C19.1722 4.84717 19.791 5.75994 20.3433 7.00261C21.4462 9.48415 22.1667 13.0175 22.1667 17H25.1667C25.1667 12.6982 24.3947 8.73158 23.0848 5.78419C22.4306 4.31239 21.6129 3.02846 20.629 2.09218C19.6375 1.14854 18.4085 0.5 17 0.5V3.5ZM22.1667 17C22.1667 20.9825 21.4462 24.5158 20.3433 26.9974C19.791 28.2401 19.1722 29.1528 18.5609 29.7346C17.9573 30.3091 17.4324 30.5 17 30.5V33.5C18.4085 33.5 19.6375 32.8515 20.629 31.9078C21.6129 30.9715 22.4306 29.6876 23.0848 28.2158C24.3947 25.2684 25.1667 21.3018 25.1667 17H22.1667Z" fill="#FF9900"/>
</svg>
