<svg width="44" height="34" viewBox="0 0 44 34" fill="none" xmlns="http://www.w3.org/2000/svg">
<path d="M4.22222 4.14286L22.5079 17L39.7777 4.14286M42 8.85704V25.1428C42 27.543 42.0005 28.7433 41.5161 29.6601C41.09 30.4665 40.4091 31.1219 39.5729 31.5328C38.6221 31.9999 37.3784 32 34.8893 32H9.11155C6.62242 32 5.37693 31.9999 4.42622 31.5328C3.58994 31.1219 2.91052 30.4665 2.48442 29.6601C2 28.7433 2 27.543 2 25.1428V8.85704C2 6.45681 2 5.25685 2.48442 4.34009C2.91052 3.53368 3.58994 2.878 4.42622 2.46711C5.37693 2 6.62242 2 9.11155 2H34.8893C37.3784 2 38.6221 2 39.5729 2.46711C40.4091 2.878 41.09 3.53368 41.5161 4.34009C42.0005 5.25685 42 6.45681 42 8.85704Z" stroke="#FF9900" stroke-width="3" stroke-linecap="round" stroke-linejoin="round"/>
</svg>
