<svg width="34" height="34" viewBox="0 0 34 34" fill="none" xmlns="http://www.w3.org/2000/svg">
<path d="M30.125 32H32M24.5 32H20.75V26.375M26.375 26.375H32V20.75H30.125M20.75 20.75H24.5M2 26.3749C2 24.6277 2 23.754 2.28545 23.0649C2.66605 22.146 3.39651 21.416 4.31537 21.0354C5.00451 20.75 5.87815 20.75 7.62543 20.75C9.37271 20.75 10.2459 20.75 10.9351 21.0354C11.8539 21.416 12.5838 22.146 12.9644 23.0649C13.2498 23.754 13.2498 24.6277 13.2498 26.375C13.2498 28.1222 13.2498 28.9959 12.9644 29.685C12.5838 30.6039 11.8539 31.3339 10.9351 31.7145C10.2459 32 9.37271 32 7.62543 32C5.87815 32 5.00451 32 4.31537 31.7145C3.39651 31.3339 2.66605 30.6039 2.28545 29.685C2 28.9959 2 28.1222 2 26.3749ZM20.75 7.62497C20.75 5.87769 20.75 5.00405 21.0355 4.31491C21.4161 3.39605 22.1465 2.66605 23.0654 2.28545C23.7545 2 24.6282 2 26.3754 2C28.1227 2 28.9959 2 29.6851 2.28545C30.6039 2.66605 31.3338 3.39605 31.7144 4.31491C31.9998 5.00405 31.9998 5.87772 31.9998 7.62499C31.9998 9.37227 31.9998 10.2459 31.7144 10.9351C31.3338 11.8539 30.6039 12.584 29.6851 12.9646C28.9959 13.25 28.1227 13.25 26.3754 13.25C24.6282 13.25 23.7545 13.25 23.0654 12.9646C22.1465 12.584 21.4161 11.8539 21.0355 10.9351C20.75 10.2459 20.75 9.37225 20.75 7.62497ZM2 7.62497C2 5.87769 2 5.00405 2.28545 4.31491C2.66605 3.39605 3.39651 2.66605 4.31537 2.28545C5.00451 2 5.87815 2 7.62543 2C9.37271 2 10.2459 2 10.9351 2.28545C11.8539 2.66605 12.5838 3.39605 12.9644 4.31491C13.2498 5.00405 13.2498 5.87772 13.2498 7.62499C13.2498 9.37227 13.2498 10.2459 12.9644 10.9351C12.5838 11.8539 11.8539 12.584 10.9351 12.9646C10.2459 13.25 9.37271 13.25 7.62543 13.25C5.87815 13.25 5.00451 13.25 4.31537 12.9646C3.39651 12.584 2.66605 11.8539 2.28545 10.9351C2 10.2459 2 9.37225 2 7.62497Z" stroke="#FF9900" stroke-width="3" stroke-linecap="round" stroke-linejoin="round"/>
</svg>
