<svg width="1206" height="253" viewBox="0 0 1206 253" fill="none" xmlns="http://www.w3.org/2000/svg">
<g clip-path="url(#clip0_43_807)">
<path d="M790.729 308.145H1206C1206 308.145 1206 174.265 1085.34 171.681C989.822 169.637 999.545 253.112 930.999 254.208C896.58 254.755 790.729 209.744 790.729 308.145Z" fill="#FF9900"/>
<path d="M246.923 258.317C284.443 258.317 314.859 203.401 314.859 135.658C314.859 67.916 284.443 13 246.923 13C209.403 13 178.988 67.916 178.988 135.658C178.988 203.401 209.403 258.317 246.923 258.317Z" fill="#C7E1E9"/>
<path d="M246.923 53.4595V307.558" stroke="#222222" stroke-miterlimit="10" stroke-linecap="round"/>
<path d="M260.003 69.3972C260.003 71.4643 259.845 72.6277 258.975 74.5027L249.939 94.0209C247.959 98.2903 246.934 102.94 246.934 107.646" stroke="#222222" stroke-miterlimit="10" stroke-linecap="round"/>
<path d="M225.993 98.4543V108.233C225.993 115.076 228.661 121.648 233.431 126.554L239.615 132.919C244.302 137.737 246.924 144.194 246.923 150.915" stroke="#222222" stroke-miterlimit="10" stroke-linecap="round"/>
<path d="M267.241 147.377V161.087C267.24 167.121 265.019 172.944 261 177.445L252.212 187.289C248.806 191.103 246.924 196.037 246.923 201.151" stroke="#222222" stroke-miterlimit="10" stroke-linecap="round"/>
<path d="M218.281 182.398C218.281 186.602 219.494 190.717 221.776 194.247C224.057 197.778 227.309 200.576 231.141 202.304L237.977 205.387C240.641 206.589 242.902 208.534 244.489 210.988C246.075 213.442 246.921 216.302 246.923 219.224" stroke="#222222" stroke-miterlimit="10" stroke-linecap="round"/>
<path d="M278.366 129.129H285.254V136.017C285.254 138.995 284.071 141.852 281.964 143.958C279.858 146.064 277.002 147.247 274.023 147.247H267.133V140.36C267.133 138.885 267.424 137.424 267.988 136.061C268.553 134.699 269.38 133.461 270.424 132.418C271.467 131.375 272.705 130.548 274.068 129.983C275.431 129.419 276.891 129.129 278.366 129.129Z" stroke="#222222" stroke-miterlimit="10" stroke-linecap="round"/>
<path d="M271.234 58.5876H271.629V58.983C271.629 61.9615 270.446 64.8179 268.34 66.924C266.233 69.0301 263.377 70.2133 260.399 70.2133H260.003V69.818C260.003 66.8395 261.186 63.983 263.292 61.8769C265.399 59.7708 268.255 58.5876 271.234 58.5876Z" stroke="#222222" stroke-miterlimit="10" stroke-linecap="round"/>
<path d="M256.179 143.53L256.349 143.173L256.706 143.343C259.394 144.627 261.461 146.926 262.454 149.734C263.447 152.542 263.284 155.63 262 158.317L261.83 158.674L261.473 158.504C258.785 157.22 256.717 154.921 255.725 152.113C254.732 149.305 254.895 146.217 256.179 143.53Z" fill="#222222"/>
<path d="M232.321 75.6643L232.668 75.4638L232.866 75.8062C234.355 78.3856 234.759 81.451 233.988 84.328C233.217 87.2049 231.335 89.6578 228.755 91.1471L228.413 91.3447L228.215 91.0024C226.726 88.4238 226.323 85.3596 227.093 82.4833C227.862 79.6071 229.743 77.1543 232.321 75.6643Z" fill="#222222"/>
<path d="M267.185 224.697L267.553 224.842L267.409 225.21C266.322 227.983 264.179 230.211 261.45 231.404C258.721 232.597 255.629 232.657 252.856 231.571L252.488 231.426L252.632 231.058C253.718 228.285 255.862 226.057 258.591 224.864C261.32 223.671 264.412 223.611 267.185 224.697Z" fill="#222222"/>
<path d="M233.545 182.533L233.722 182.163L234.078 182.334C236.766 183.617 238.834 185.916 239.826 188.724C240.819 191.532 240.656 194.62 239.372 197.308L239.202 197.664L238.845 197.494C236.159 196.211 234.093 193.915 233.099 191.11C232.105 188.305 232.266 185.22 233.545 182.533Z" fill="#222222"/>
<path d="M225.795 99.1292H224.491C221.512 99.1292 218.656 97.9459 216.55 95.8398C214.444 93.7337 213.26 90.8773 213.26 87.8988V86.5942H214.559C217.538 86.5942 220.394 87.7774 222.5 89.8835C224.607 91.9896 225.79 94.8461 225.79 97.8245V99.1292H225.795Z" stroke="#222222" stroke-miterlimit="10" stroke-linecap="round"/>
<path d="M243.298 35.001L246.709 31.5906L250.119 35.001C252.225 37.1071 253.408 39.9636 253.408 42.9421C253.408 45.9205 252.225 48.777 250.119 50.8831L246.717 54.2856L243.306 50.8751C241.201 48.7704 240.018 45.9162 240.017 42.9397C240.015 39.9632 241.196 37.1079 243.298 35.001Z" stroke="#222222" stroke-miterlimit="10" stroke-linecap="round"/>
<path d="M214.895 163.823L218.306 160.412L221.716 163.823C223.822 165.929 225.005 168.785 225.005 171.764C225.005 174.742 223.822 177.599 221.716 179.705L218.306 183.115L214.895 179.705C212.789 177.599 211.606 174.742 211.606 171.764C211.606 168.785 212.789 165.929 214.895 163.823Z" stroke="#222222" stroke-miterlimit="10" stroke-linecap="round"/>
<path d="M278.496 74.6185L278.762 74.9102L278.471 75.1771C276.273 77.1874 273.367 78.2423 270.391 78.1098C267.416 77.9773 264.615 76.6681 262.604 74.4704L262.337 74.1787L262.629 73.9119C264.827 71.9016 267.733 70.8467 270.709 70.9792C273.684 71.1117 276.485 72.4208 278.496 74.6185Z" fill="#222222"/>
<path d="M877.262 267.522C905.289 267.522 928.009 232.864 928.009 190.11C928.009 147.356 905.289 112.698 877.262 112.698C849.235 112.698 826.515 147.356 826.515 190.11C826.515 232.864 849.235 267.522 877.262 267.522Z" fill="#F6F7F9" stroke="#222222" stroke-miterlimit="10" stroke-linecap="round"/>
<path d="M874.145 126.467V307.863" stroke="#222222" stroke-miterlimit="10" stroke-linecap="round"/>
<path d="M887.993 147.032C887.993 152.055 886.614 156.981 884.006 161.273L877.209 172.45C875.204 175.746 874.144 179.531 874.145 183.389" stroke="#222222" stroke-miterlimit="10" stroke-linecap="round"/>
<path d="M860.477 153.397V179.549C860.477 185.216 862.115 190.762 865.193 195.52L869.663 202.436C872.589 206.96 874.146 212.234 874.145 217.622" stroke="#222222" stroke-miterlimit="10" stroke-linecap="round"/>
<path d="M887.993 196.625V207.92C887.991 212.939 886.766 217.882 884.423 222.321L876.059 238.171C874.802 240.554 874.145 243.207 874.145 245.9" stroke="#222222" stroke-miterlimit="10" stroke-linecap="round"/>
<path d="M887.916 191.2L887.595 191.035C886.396 190.416 885.33 189.566 884.459 188.535C883.587 187.504 882.928 186.312 882.517 185.026C882.107 183.74 881.954 182.386 882.067 181.041C882.18 179.696 882.556 178.386 883.175 177.186L883.341 176.865L883.665 177.032C886.087 178.283 887.914 180.444 888.743 183.041C889.572 185.638 889.335 188.458 888.084 190.88L887.919 191.202L887.916 191.2Z" fill="#FF9900"/>
<path d="M888.297 147.418L888.208 147.059C887.552 144.412 887.975 141.614 889.383 139.28C890.79 136.945 893.068 135.266 895.714 134.61L896.065 134.524L896.152 134.874C896.807 137.52 896.384 140.319 894.977 142.653C893.569 144.988 891.292 146.667 888.645 147.323L888.295 147.409L888.297 147.418Z" fill="#FF9900"/>
<path d="M887.918 147.361L887.604 147.18C885.244 145.817 883.521 143.572 882.815 140.939C882.11 138.306 882.479 135.5 883.842 133.139L884.023 132.826L884.346 133.013C886.707 134.376 888.429 136.621 889.135 139.254C889.84 141.887 889.471 144.693 888.108 147.054L887.927 147.367L887.918 147.361Z" stroke="#222222" stroke-miterlimit="10" stroke-linecap="round"/>
<path d="M863.697 226.928L863.336 226.909C861.989 226.836 860.668 226.499 859.451 225.916C858.233 225.333 857.142 224.516 856.24 223.512C855.339 222.508 854.644 221.336 854.195 220.063C853.746 218.789 853.552 217.441 853.625 216.093L853.644 215.732L854.005 215.751C856.727 215.898 859.28 217.119 861.101 219.148C862.922 221.176 863.863 223.845 863.717 226.567L863.697 226.928Z" fill="#FF9900"/>
<path d="M892.147 192.008L892.106 191.572C891.797 188.302 892.799 185.043 894.893 182.512C896.987 179.981 900 178.385 903.271 178.076L903.706 178.035L903.747 178.471C904.057 181.741 903.054 185 900.96 187.531C898.866 190.062 895.853 191.657 892.583 191.967L892.147 192.008Z" stroke="#222222" stroke-miterlimit="10" stroke-linecap="round"/>
<path d="M864.021 226.117L863.712 225.807C861.389 223.485 860.084 220.334 860.084 217.049C860.084 213.765 861.389 210.614 863.712 208.292L864.022 207.982L864.331 208.292C866.654 210.614 867.959 213.765 867.959 217.05C867.959 220.334 866.654 223.485 864.331 225.807L864.021 226.117Z" stroke="#222222" stroke-miterlimit="10" stroke-linecap="round"/>
<path d="M850.151 168.013V169.947C850.151 171.445 850.746 172.882 851.805 173.941C852.864 175 854.3 175.595 855.798 175.595C857.043 175.595 858.237 176.09 859.117 176.97C859.997 177.85 860.491 179.044 860.491 180.288" stroke="#222222" stroke-miterlimit="10" stroke-linecap="round"/>
<path d="M303.959 283.019C301.419 271.972 295.207 262.113 286.339 255.053C277.471 247.993 266.47 244.149 255.135 244.15C245.543 244.15 236.139 241.49 227.967 236.467C219.796 231.444 213.177 224.253 208.847 215.694L194.759 187.84C188.04 174.559 177.042 163.93 163.539 157.669C150.036 151.408 134.818 149.881 120.34 153.334C105.862 156.787 92.9712 165.018 83.7477 176.699C74.5241 188.381 69.5067 202.829 69.5055 217.713V228.243C77.3187 228.776 84.8602 231.326 91.3933 235.644C97.9265 239.962 103.228 245.901 106.78 252.881C102.543 247.561 97.1605 243.266 91.0326 240.316C84.9047 237.366 78.1899 235.838 71.389 235.845C70.7593 235.845 70.1296 235.859 69.5055 235.884C57.8295 236.364 46.791 241.339 38.6992 249.77C30.6073 258.201 26.0887 269.435 26.0887 281.12C26.0887 292.806 30.6073 304.04 38.6992 312.471C46.791 320.902 57.8295 325.877 69.5055 326.357L370.875 326.396C329.193 326.388 309.801 308.403 303.959 283.019ZM63.7054 264.713C62.5583 264.713 61.4369 264.373 60.483 263.735C59.5292 263.098 58.7858 262.192 58.3468 261.132C57.9078 260.072 57.7929 258.906 58.0167 257.781C58.2405 256.656 58.7929 255.622 59.6041 254.811C60.4153 254 61.4487 253.448 62.5739 253.224C63.699 253 64.8652 253.115 65.925 253.554C66.9848 253.993 67.8907 254.736 68.528 255.69C69.1654 256.644 69.5055 257.765 69.5055 258.913C69.5055 260.451 68.8945 261.926 67.8067 263.014C66.719 264.102 65.2437 264.713 63.7054 264.713Z" fill="#FF9900"/>
</g>
<defs>
<clipPath id="clip0_43_807">
<rect width="1206" height="253" fill="white"/>
</clipPath>
</defs>
</svg>
