<svg width="306" height="213" viewBox="0 0 306 213" fill="none" xmlns="http://www.w3.org/2000/svg">
<path d="M186.24 217.707C219.508 217.707 246.478 169.086 246.478 109.108C246.478 49.131 219.508 0.509766 186.24 0.509766C152.972 0.509766 126.003 49.131 126.003 109.108C126.003 169.086 152.972 217.707 186.24 217.707Z" fill="#C7E1E9"/>
<path d="M186.24 36.3315V261.304" stroke="#222222" stroke-miterlimit="10" stroke-linecap="round"/>
<path d="M197.838 50.4424C197.838 52.2725 197.698 53.3025 196.927 54.9626L188.914 72.2436C187.159 76.0236 186.25 80.1402 186.25 84.3068" stroke="#222222" stroke-miterlimit="10" stroke-linecap="round"/>
<path d="M167.682 76.1689V84.8269C167.682 90.885 170.048 96.7043 174.277 101.048L179.76 106.683C183.916 110.949 186.241 116.665 186.24 122.617" stroke="#222222" stroke-miterlimit="10" stroke-linecap="round"/>
<path d="M204.255 119.484V131.622C204.255 136.965 202.285 142.12 198.722 146.105L190.93 154.821C187.91 158.198 186.241 162.567 186.24 167.094" stroke="#222222" stroke-miterlimit="10" stroke-linecap="round"/>
<path d="M160.844 150.491C160.844 154.213 161.92 157.856 163.942 160.982C165.965 164.108 168.848 166.585 172.246 168.114L178.308 170.845C180.67 171.909 182.675 173.63 184.082 175.803C185.488 177.976 186.238 180.508 186.24 183.095" stroke="#222222" stroke-miterlimit="10" stroke-linecap="round"/>
<path d="M214.121 103.328H220.227V109.426C220.227 112.063 219.178 114.592 217.311 116.457C215.443 118.321 212.911 119.369 210.27 119.369H204.16V113.271C204.16 111.965 204.418 110.672 204.919 109.465C205.419 108.259 206.153 107.163 207.078 106.239C208.003 105.316 209.101 104.584 210.309 104.084C211.518 103.585 212.813 103.328 214.121 103.328Z" stroke="#222222" stroke-miterlimit="10" stroke-linecap="round"/>
<path d="M207.796 40.8718H208.146V41.2219C208.146 43.8589 207.097 46.388 205.23 48.2526C203.362 50.1173 200.83 51.1649 198.189 51.1649H197.838V50.8149C197.838 48.1778 198.887 45.6488 200.755 43.7841C202.622 41.9194 205.155 40.8718 207.796 40.8718Z" stroke="#222222" stroke-miterlimit="10" stroke-linecap="round"/>
<path d="M194.447 116.078L194.598 115.762L194.915 115.913C197.298 117.049 199.131 119.084 200.011 121.571C200.892 124.057 200.747 126.791 199.609 129.17L199.458 129.486L199.141 129.335C196.758 128.199 194.925 126.163 194.044 123.677C193.164 121.191 193.309 118.457 194.447 116.078Z" fill="#222222"/>
<path d="M173.293 55.9912L173.6 55.8137L173.776 56.1168C175.096 58.4006 175.454 61.1146 174.771 63.6618C174.087 66.209 172.418 68.3807 170.131 69.6993L169.827 69.8743L169.652 69.5712C168.332 67.2881 167.974 64.5751 168.657 62.0286C169.339 59.4821 171.007 57.3104 173.293 55.9912Z" fill="#222222"/>
<path d="M204.206 187.942L204.532 188.069L204.404 188.395C203.441 190.851 201.541 192.823 199.121 193.88C196.701 194.936 193.96 194.989 191.501 194.027L191.174 193.899L191.302 193.573C192.265 191.118 194.166 189.145 196.586 188.089C199.006 187.033 201.747 186.98 204.206 187.942Z" fill="#222222"/>
<path d="M174.378 150.61L174.535 150.283L174.851 150.434C177.234 151.57 179.067 153.605 179.948 156.092C180.828 158.578 180.683 161.312 179.545 163.691L179.394 164.007L179.077 163.856C176.696 162.721 174.864 160.688 173.983 158.204C173.102 155.72 173.244 152.989 174.378 150.61Z" fill="#222222"/>
<path d="M167.507 76.7664H166.35C163.709 76.7664 161.176 75.7188 159.309 73.8541C157.441 71.9894 156.392 69.4604 156.392 66.8233V65.6682H157.544C160.185 65.6682 162.718 66.7158 164.585 68.5805C166.452 70.4452 167.502 72.9742 167.502 75.6113V76.7664H167.507Z" stroke="#222222" stroke-miterlimit="10" stroke-linecap="round"/>
<path d="M183.026 19.989L186.05 16.9694L189.074 19.989C190.941 21.8536 191.991 24.3827 191.991 27.0198C191.991 29.6568 190.941 32.1859 189.074 34.0506L186.057 37.063L183.033 34.0435C181.167 32.18 180.118 29.653 180.117 27.0177C180.115 24.3824 181.162 21.8543 183.026 19.989Z" stroke="#222222" stroke-miterlimit="10" stroke-linecap="round"/>
<path d="M157.842 134.045L160.865 131.025L163.889 134.045C165.757 135.909 166.806 138.438 166.806 141.075C166.806 143.713 165.757 146.242 163.889 148.106L160.865 151.126L157.842 148.106C155.974 146.242 154.925 143.712 154.925 141.075C154.925 138.438 155.974 135.909 157.842 134.045Z" stroke="#222222" stroke-miterlimit="10" stroke-linecap="round"/>
<path d="M214.235 55.0652L214.472 55.3234L214.213 55.5597C212.264 57.3396 209.687 58.2736 207.049 58.1562C204.411 58.0389 201.927 56.8798 200.144 54.934L199.908 54.6758L200.167 54.4396C202.115 52.6597 204.692 51.7257 207.331 51.843C209.969 51.9603 212.452 53.1194 214.235 55.0652Z" fill="#222222"/>
<path d="M270.496 239.578C268.244 229.798 262.736 221.068 254.873 214.817C247.01 208.567 237.256 205.163 227.205 205.164C218.7 205.164 210.361 202.81 203.115 198.362C195.87 193.914 190.001 187.548 186.162 179.97L173.67 155.309C167.713 143.55 157.961 134.139 145.988 128.596C134.015 123.053 120.521 121.701 107.684 124.758C94.8469 127.815 83.4164 135.103 75.238 145.445C67.0596 155.787 62.6108 168.58 62.6097 181.758V191.081C69.5376 191.552 76.2245 193.81 82.0173 197.633C87.8102 201.457 92.5109 206.715 95.6604 212.894C91.9039 208.184 87.131 204.381 81.6975 201.77C76.2639 199.158 70.31 197.805 64.2798 197.811C63.7214 197.811 63.1631 197.824 62.6097 197.846C52.2567 198.271 42.4691 202.676 35.2941 210.14C28.1192 217.605 24.1127 227.551 24.1127 237.897C24.1127 248.244 28.1192 258.189 35.2941 265.654C42.4691 273.118 52.2567 277.524 62.6097 277.948L329.83 277.983C292.87 277.976 275.677 262.052 270.496 239.578ZM57.4668 223.37C56.4497 223.37 55.4553 223.069 54.6096 222.505C53.7638 221.94 53.1047 221.138 52.7154 220.2C52.3262 219.262 52.2243 218.229 52.4228 217.233C52.6212 216.237 53.111 215.322 53.8302 214.604C54.5495 213.885 55.4659 213.396 56.4635 213.198C57.4611 213 58.4952 213.102 59.4349 213.49C60.3747 213.879 61.1779 214.537 61.743 215.382C62.3081 216.226 62.6097 217.219 62.6097 218.235C62.6097 219.597 62.0679 220.903 61.1034 221.866C60.1389 222.829 58.8308 223.37 57.4668 223.37Z" fill="#FF9900"/>
</svg>
