<svg width="121" height="213" viewBox="0 0 121 213" fill="none" xmlns="http://www.w3.org/2000/svg">
<path d="M60.2402 217.707C93.5084 217.707 120.478 169.086 120.478 109.108C120.478 49.131 93.5084 0.509766 60.2402 0.509766C26.972 0.509766 0.00283813 49.131 0.00283813 109.108C0.00283813 169.086 26.972 217.707 60.2402 217.707Z" fill="#C7E1E9"/>
<path d="M60.2403 36.3315V261.304" stroke="#222222" stroke-miterlimit="10" stroke-linecap="round"/>
<path d="M71.8381 50.4424C71.8381 52.2725 71.6978 53.3025 70.9267 54.9626L62.9144 72.2436C61.1591 76.0236 60.25 80.1402 60.2503 84.3068" stroke="#222222" stroke-miterlimit="10" stroke-linecap="round"/>
<path d="M41.6819 76.1689V84.8269C41.6817 90.885 44.0477 96.7043 48.277 101.048L53.7604 106.683C57.916 110.949 60.2408 116.665 60.2403 122.617" stroke="#222222" stroke-miterlimit="10" stroke-linecap="round"/>
<path d="M78.2555 119.484V131.622C78.2549 136.965 76.2852 142.12 72.722 146.105L64.93 154.821C61.91 158.198 60.2407 162.567 60.2403 167.094" stroke="#222222" stroke-miterlimit="10" stroke-linecap="round"/>
<path d="M34.8439 150.491C34.8437 154.213 35.9196 157.856 37.9423 160.982C39.9649 164.108 42.8484 166.585 46.2464 168.114L52.3082 170.845C54.6701 171.909 56.6747 173.63 58.0816 175.803C59.4884 177.976 60.238 180.508 60.2403 183.095" stroke="#222222" stroke-miterlimit="10" stroke-linecap="round"/>
<path d="M88.1206 103.328H94.2274V109.426C94.2274 112.063 93.1783 114.592 91.3109 116.457C89.4434 118.321 86.9106 119.369 84.2697 119.369H78.1603V113.271C78.1603 111.965 78.4179 110.672 78.9185 109.465C79.4191 108.259 80.1528 107.163 81.0777 106.239C82.0027 105.316 83.1007 104.584 84.3091 104.084C85.5175 103.585 86.8127 103.328 88.1206 103.328Z" stroke="#222222" stroke-miterlimit="10" stroke-linecap="round"/>
<path d="M81.7959 40.8718H82.1465V41.2219C82.1465 43.8589 81.0973 46.388 79.2299 48.2526C77.3625 50.1173 74.8297 51.1649 72.1887 51.1649H71.8382V50.8149C71.8382 48.1778 72.8873 45.6488 74.7547 43.7841C76.6222 41.9194 79.155 40.8718 81.7959 40.8718Z" stroke="#222222" stroke-miterlimit="10" stroke-linecap="round"/>
<path d="M68.4473 116.078L68.5984 115.762L68.9147 115.913C71.2978 117.049 73.1312 119.084 74.0114 121.571C74.8917 124.057 74.7468 126.791 73.6086 129.17L73.4575 129.486L73.1412 129.335C70.7581 128.199 68.9247 126.163 68.0445 123.677C67.1642 121.191 67.3091 118.457 68.4473 116.078Z" fill="#222222"/>
<path d="M47.2926 55.9912L47.6005 55.8137L47.7757 56.1168C49.0962 58.4006 49.4541 61.1146 48.7705 63.6618C48.087 66.209 46.4181 68.3807 44.1309 69.6993L43.8274 69.8743L43.6521 69.5712C42.3321 67.2881 41.974 64.5751 42.6567 62.0286C43.3393 59.4821 45.0068 57.3104 47.2926 55.9912Z" fill="#222222"/>
<path d="M78.2059 187.942L78.5323 188.069L78.4045 188.395C77.4413 190.851 75.5407 192.823 73.1208 193.88C70.7009 194.936 67.9599 194.989 65.5008 194.027L65.1744 193.899L65.3023 193.573C66.2655 191.118 68.1661 189.145 70.586 188.089C73.0059 187.033 75.7468 186.98 78.2059 187.942Z" fill="#222222"/>
<path d="M48.3781 150.61L48.5346 150.283L48.8509 150.434C51.234 151.57 53.0673 153.605 53.9476 156.092C54.8279 158.578 54.683 161.312 53.5448 163.691L53.3937 164.007L53.0774 163.856C50.6962 162.721 48.8639 160.688 47.9828 158.204C47.1016 155.72 47.2438 152.989 48.3781 150.61Z" fill="#222222"/>
<path d="M41.5065 76.7664H40.3498C37.7088 76.7664 35.176 75.7188 33.3085 73.8541C31.4411 71.9894 30.392 69.4604 30.392 66.8233V65.6682H31.5438C34.1847 65.6682 36.7175 66.7158 38.585 68.5805C40.4524 70.4452 41.5015 72.9742 41.5015 75.6113V76.7664H41.5065Z" stroke="#222222" stroke-miterlimit="10" stroke-linecap="round"/>
<path d="M57.026 19.989L60.05 16.9694L63.074 19.989C64.9414 21.8536 65.9905 24.3827 65.9905 27.0198C65.9905 29.6568 64.9414 32.1859 63.074 34.0506L60.0571 37.063L57.0331 34.0435C55.1669 32.18 54.1178 29.653 54.1165 27.0177C54.1152 24.3824 55.1617 21.8543 57.026 19.989Z" stroke="#222222" stroke-miterlimit="10" stroke-linecap="round"/>
<path d="M31.8415 134.045L34.8655 131.025L37.8895 134.045C39.7569 135.909 40.806 138.438 40.806 141.075C40.806 143.713 39.7569 146.242 37.8895 148.106L34.8655 151.126L31.8415 148.106C29.9741 146.242 28.9249 143.712 28.9249 141.075C28.9249 138.438 29.9741 135.909 31.8415 134.045Z" stroke="#222222" stroke-miterlimit="10" stroke-linecap="round"/>
<path d="M88.235 55.0652L88.4716 55.3234L88.2129 55.5597C86.2643 57.3396 83.6873 58.2736 81.0489 58.1562C78.4106 58.0389 75.927 56.8798 74.1445 54.934L73.9079 54.6758L74.1665 54.4396C76.1152 52.6597 78.6922 51.7257 81.3305 51.843C83.9689 51.9603 86.4525 53.1194 88.235 55.0652Z" fill="#222222"/>
</svg>
