<svg width="1028" height="240" viewBox="0 0 1028 240" fill="none" xmlns="http://www.w3.org/2000/svg">
<path d="M612.729 295.145H1028C1028 295.145 1028 161.265 907.338 158.681C811.822 156.637 821.545 240.112 752.999 241.208C718.58 241.755 612.729 196.744 612.729 295.145Z" fill="#FF9900"/>
<path d="M68.9231 245.317C106.443 245.317 136.859 190.401 136.859 122.658C136.859 54.916 106.443 0 68.9231 0C31.4034 0 0.987671 54.916 0.987671 122.658C0.987671 190.401 31.4034 245.317 68.9231 245.317Z" fill="#C7E1E9"/>
<path d="M68.9232 40.4595V294.558" stroke="#222222" stroke-miterlimit="10" stroke-linecap="round"/>
<path d="M82.0031 56.3972C82.0031 58.4643 81.845 59.6277 80.9752 61.5027L71.939 81.0209C69.9595 85.2903 68.9342 89.9399 68.9344 94.6459" stroke="#222222" stroke-miterlimit="10" stroke-linecap="round"/>
<path d="M47.993 85.4543V95.2332C47.9929 102.076 50.6613 108.648 55.431 113.554L61.6152 119.919C66.3018 124.737 68.9237 131.194 68.9232 137.915" stroke="#222222" stroke-miterlimit="10" stroke-linecap="round"/>
<path d="M89.2406 134.377V148.087C89.2399 154.121 87.0186 159.944 83 164.445L74.2122 174.289C70.8063 178.103 68.9236 183.037 68.9232 188.151" stroke="#222222" stroke-miterlimit="10" stroke-linecap="round"/>
<path d="M40.2813 169.398C40.2811 173.602 41.4944 177.717 43.7756 181.247C46.0567 184.778 49.3087 187.576 53.1409 189.304L59.9774 192.387C62.6412 193.589 64.9019 195.534 66.4886 197.988C68.0753 200.442 68.9206 203.302 68.9233 206.224" stroke="#222222" stroke-miterlimit="10" stroke-linecap="round"/>
<path d="M100.366 116.129H107.254V123.017C107.254 125.995 106.071 128.852 103.964 130.958C101.858 133.064 99.0019 134.247 96.0234 134.247H89.1333V127.36C89.1333 125.885 89.4239 124.424 89.9884 123.061C90.553 121.699 91.3805 120.461 92.4236 119.418C93.4667 118.375 94.7051 117.548 96.0679 116.983C97.4308 116.419 98.8914 116.129 100.366 116.129Z" stroke="#222222" stroke-miterlimit="10" stroke-linecap="round"/>
<path d="M93.2335 45.5876H93.6288V45.983C93.6288 48.9615 92.4456 51.8179 90.3395 53.924C88.2334 56.0301 85.377 57.2133 82.3985 57.2133H82.0032V56.818C82.0032 53.8395 83.1864 50.983 85.2925 48.8769C87.3986 46.7708 90.255 45.5876 93.2335 45.5876Z" stroke="#222222" stroke-miterlimit="10" stroke-linecap="round"/>
<path d="M78.1791 130.53L78.3495 130.173L78.7062 130.343C81.3939 131.627 83.4615 133.926 84.4542 136.734C85.447 139.542 85.2836 142.63 83.9999 145.317L83.8295 145.674L83.4728 145.504C80.7851 144.22 78.7175 141.921 77.7247 139.113C76.732 136.305 76.8954 133.217 78.1791 130.53Z" fill="#222222"/>
<path d="M54.3208 62.6643L54.6681 62.4638L54.8658 62.8062C56.355 65.3856 56.7586 68.451 55.9877 71.328C55.2168 74.2049 53.3346 76.6578 50.7552 78.1471L50.4128 78.3447L50.2151 78.0024C48.7264 75.4238 48.3226 72.3596 49.0925 69.4833C49.8624 66.6071 51.743 64.1543 54.3208 62.6643Z" fill="#222222"/>
<path d="M89.1848 211.697L89.5529 211.842L89.4087 212.21C88.3224 214.983 86.179 217.211 83.4498 218.404C80.7207 219.597 77.6294 219.657 74.8561 218.571L74.488 218.426L74.6322 218.058C75.7185 215.285 77.8619 213.057 80.5911 211.864C83.3202 210.671 86.4115 210.611 89.1848 211.697Z" fill="#222222"/>
<path d="M55.5451 169.533L55.7215 169.163L56.0783 169.334C58.7659 170.617 60.8335 172.916 61.8263 175.724C62.8191 178.532 62.6557 181.62 61.372 184.308L61.2016 184.664L60.8449 184.494C58.1594 183.211 56.0929 180.915 55.0992 178.11C54.1054 175.305 54.2658 172.22 55.5451 169.533Z" fill="#222222"/>
<path d="M47.7954 86.1292H46.4908C43.5123 86.1292 40.6559 84.9459 38.5498 82.8398C36.4437 80.7337 35.2605 77.8773 35.2605 74.8988V73.5942H36.5594C39.5379 73.5942 42.3944 74.7774 44.5005 76.8835C46.6066 78.9896 47.7898 81.8461 47.7898 84.8245V86.1292H47.7954Z" stroke="#222222" stroke-miterlimit="10" stroke-linecap="round"/>
<path d="M65.2982 22.001L68.7086 18.5906L72.119 22.001C74.2251 24.1071 75.4083 26.9636 75.4083 29.9421C75.4083 32.9205 74.2251 35.777 72.119 37.8831L68.7166 41.2856L65.3062 37.8751C63.2014 35.7704 62.0184 32.9162 62.0169 29.9397C62.0154 26.9632 63.1956 24.1079 65.2982 22.001Z" stroke="#222222" stroke-miterlimit="10" stroke-linecap="round"/>
<path d="M36.8952 150.823L40.3056 147.412L43.716 150.823C45.8221 152.929 47.0053 155.785 47.0053 158.764C47.0053 161.742 45.8221 164.599 43.716 166.705L40.3056 170.115L36.8952 166.705C34.7891 164.599 33.6059 161.742 33.6059 158.764C33.6059 155.785 34.7891 152.929 36.8952 150.823Z" stroke="#222222" stroke-miterlimit="10" stroke-linecap="round"/>
<path d="M100.496 61.6185L100.762 61.9102L100.471 62.1771C98.2729 64.1874 95.3666 65.2423 92.3911 65.1098C89.4156 64.9773 86.6146 63.6681 84.6043 61.4704L84.3375 61.1787L84.6292 60.9119C86.8269 58.9016 89.7332 57.8467 92.7087 57.9792C95.6842 58.1117 98.4852 59.4208 100.496 61.6185Z" fill="#222222"/>
<path d="M699.262 254.522C727.289 254.522 750.009 219.864 750.009 177.11C750.009 134.356 727.289 99.6978 699.262 99.6978C671.235 99.6978 648.515 134.356 648.515 177.11C648.515 219.864 671.235 254.522 699.262 254.522Z" fill="#F6F7F9" stroke="#222222" stroke-miterlimit="10" stroke-linecap="round"/>
<path d="M696.145 113.467V294.863" stroke="#222222" stroke-miterlimit="10" stroke-linecap="round"/>
<path d="M709.993 134.032C709.993 139.055 708.614 143.981 706.006 148.273L699.209 159.45C697.204 162.746 696.144 166.531 696.145 170.389" stroke="#222222" stroke-miterlimit="10" stroke-linecap="round"/>
<path d="M682.477 140.397V166.549C682.477 172.216 684.115 177.762 687.193 182.52L691.663 189.436C694.589 193.96 696.146 199.234 696.145 204.622" stroke="#222222" stroke-miterlimit="10" stroke-linecap="round"/>
<path d="M709.993 183.625V194.92C709.991 199.939 708.766 204.882 706.423 209.321L698.059 225.171C696.802 227.554 696.145 230.207 696.145 232.9" stroke="#222222" stroke-miterlimit="10" stroke-linecap="round"/>
<path d="M709.916 178.2L709.595 178.035C708.396 177.416 707.33 176.566 706.459 175.535C705.587 174.504 704.928 173.312 704.517 172.026C704.107 170.74 703.954 169.386 704.067 168.041C704.18 166.696 704.556 165.386 705.175 164.186L705.341 163.865L705.665 164.032C708.087 165.283 709.914 167.444 710.743 170.041C711.572 172.638 711.335 175.458 710.084 177.88L709.919 178.202L709.916 178.2Z" fill="#FF9900"/>
<path d="M710.297 134.418L710.208 134.059C709.552 131.412 709.975 128.614 711.383 126.28C712.79 123.945 715.068 122.266 717.714 121.61L718.065 121.524L718.152 121.874C718.807 124.52 718.384 127.319 716.977 129.653C715.569 131.988 713.292 133.667 710.645 134.323L710.295 134.409L710.297 134.418Z" fill="#FF9900"/>
<path d="M709.918 134.361L709.604 134.18C707.244 132.817 705.521 130.572 704.815 127.939C704.11 125.306 704.479 122.5 705.842 120.139L706.023 119.826L706.346 120.013C708.707 121.376 710.429 123.621 711.135 126.254C711.84 128.887 711.471 131.693 710.108 134.054L709.927 134.367L709.918 134.361Z" stroke="#222222" stroke-miterlimit="10" stroke-linecap="round"/>
<path d="M685.697 213.928L685.336 213.909C683.989 213.836 682.668 213.499 681.451 212.916C680.233 212.333 679.142 211.516 678.24 210.512C677.339 209.508 676.644 208.336 676.195 207.063C675.746 205.789 675.552 204.441 675.625 203.093L675.644 202.732L676.005 202.751C678.727 202.898 681.28 204.119 683.101 206.148C684.922 208.176 685.863 210.845 685.717 213.567L685.697 213.928Z" fill="#FF9900"/>
<path d="M714.147 179.008L714.106 178.572C713.797 175.302 714.799 172.043 716.893 169.512C718.987 166.981 722 165.385 725.271 165.076L725.706 165.035L725.747 165.471C726.057 168.741 725.054 172 722.96 174.531C720.866 177.062 717.853 178.657 714.583 178.967L714.147 179.008Z" stroke="#222222" stroke-miterlimit="10" stroke-linecap="round"/>
<path d="M686.021 213.117L685.712 212.807C683.389 210.485 682.084 207.334 682.084 204.049C682.084 200.765 683.389 197.614 685.712 195.292L686.022 194.982L686.331 195.292C688.654 197.614 689.959 200.765 689.959 204.05C689.959 207.334 688.654 210.485 686.331 212.807L686.021 213.117Z" stroke="#222222" stroke-miterlimit="10" stroke-linecap="round"/>
<path d="M672.151 155.013V156.947C672.151 158.445 672.746 159.882 673.805 160.941C674.864 162 676.3 162.595 677.798 162.595C679.043 162.595 680.237 163.09 681.117 163.97C681.997 164.85 682.491 166.044 682.491 167.288" stroke="#222222" stroke-miterlimit="10" stroke-linecap="round"/>
</svg>
