<svg width="371" height="102" viewBox="0 0 371 102" fill="none" xmlns="http://www.w3.org/2000/svg">
<path d="M303.959 132.019C301.419 120.972 295.207 111.113 286.339 104.053C277.471 96.9927 266.47 93.1489 255.135 93.1496C245.543 93.1498 236.139 90.4905 227.967 85.4671C219.796 80.4437 213.177 73.253 208.847 64.694L194.759 36.8398C188.04 23.5588 177.042 12.9298 163.539 6.66897C150.036 0.408109 134.818 -1.11917 120.34 2.33376C105.862 5.78668 92.9712 14.0183 83.7477 25.6994C74.5241 37.3805 69.5067 51.8294 69.5055 66.713V77.243C77.3187 77.7757 84.8602 80.3258 91.3933 84.6441C97.9265 88.9624 103.228 94.9014 106.78 101.881C102.543 96.5607 97.1605 92.2656 91.0326 89.3158C84.9047 86.366 78.1899 84.8377 71.389 84.8447C70.7593 84.8447 70.1296 84.8589 69.5055 84.8843C57.8295 85.3637 46.791 90.3393 38.6992 98.7703C30.6073 107.201 26.0887 118.435 26.0887 130.12C26.0887 141.806 30.6073 153.04 38.6992 161.471C46.791 169.902 57.8295 174.877 69.5055 175.357L370.875 175.396C329.193 175.388 309.801 157.403 303.959 132.019ZM63.7054 113.713C62.5583 113.713 61.4369 113.373 60.483 112.735C59.5292 112.098 58.7858 111.192 58.3468 110.132C57.9078 109.072 57.7929 107.906 58.0167 106.781C58.2405 105.656 58.7929 104.622 59.6041 103.811C60.4153 103 61.4487 102.448 62.5739 102.224C63.699 102 64.8652 102.115 65.925 102.554C66.9848 102.993 67.8907 103.736 68.528 104.69C69.1654 105.644 69.5055 106.765 69.5055 107.913C69.5055 109.451 68.8945 110.926 67.8067 112.014C66.719 113.102 65.2437 113.713 63.7054 113.713Z" fill="#FF9900"/>
</svg>
