<svg width="1366" height="353" viewBox="0 0 1366 353" fill="none" xmlns="http://www.w3.org/2000/svg">
<g style="mix-blend-mode:screen" opacity="0.7">
<mask id="mask0_43_2659" style="mask-type:alpha" maskUnits="userSpaceOnUse" x="0" y="0" width="1366" height="353">
<rect width="1366" height="353" fill="url(#paint0_linear_43_2659)"/>
</mask>
<g mask="url(#mask0_43_2659)">
<path d="M1365.89 26.3375C1352.01 68.1458 1331.59 109.062 1304.39 148.742C1257.98 216.569 1194.26 278.354 1114.33 332.794H1120.33C1199.26 278.56 1262.42 217.186 1308.49 149.84C1333.03 113.936 1352.12 77.0704 1365.89 39.4498V26.3375Z" fill="#FAFAFA"/>
<path d="M1365.89 -153.802C1362.67 -185.038 1356.23 -215.862 1346.57 -245.931H1340.91C1354.12 -204.81 1361.45 -162.452 1362.45 -119.271C1363.34 -84.053 1360.89 -52.611 1355.23 -23.2285C1347.57 15.2846 1333.81 53.4544 1314.05 90.3198C1294.51 126.842 1269.08 162.197 1238.56 195.355C1200.81 236.34 1155.41 275.814 1099.79 316.181C1091.91 321.879 1084.03 327.371 1076.03 332.794H1083.58C1090.46 328.057 1097.24 323.252 1104.01 318.377C1159.85 277.874 1205.36 238.193 1243.33 197.072C1274.08 163.707 1299.61 128.146 1319.26 91.4182C1339.13 54.3468 1353.01 15.9025 1360.67 -22.8165C1362.89 -34.0066 1364.56 -45.4026 1365.78 -57.2792V-153.802H1365.89Z" fill="#FAFAFA"/>
<path d="M1047.84 332.794C1063.38 322.222 1078.7 311.1 1093.68 299.361C1133.54 268.262 1184.94 226.454 1229.45 178.811C1290.95 112.906 1329.48 37.5961 1341.02 -38.9495C1346.02 -72.5883 1345.24 -105.609 1343.8 -133.481C1341.8 -172.063 1335.47 -209.684 1325.04 -245.931H1319.37C1329.92 -209.684 1336.25 -171.995 1338.25 -133.344C1339.69 -105.609 1340.47 -72.7256 1335.47 -39.2241C1324.04 36.8409 1285.74 111.602 1224.68 177.094C1180.27 224.532 1128.99 266.203 1089.35 297.233C1073.26 309.796 1056.94 321.604 1040.29 332.794H1047.84Z" fill="#FAFAFA"/>
<path d="M1014.75 332.794C1038.29 317.073 1061.05 299.842 1083.91 280.551L1091.91 273.755C1133.98 238.193 1177.61 201.397 1216.13 160.824C1277.74 95.7433 1314.27 21.1199 1321.93 -54.9451C1324.92 -86.1125 1322.48 -117.349 1320.15 -147.555C1317.49 -181.606 1311.94 -214.421 1303.72 -245.863H1296.95C1305.28 -214.352 1310.83 -181.468 1313.49 -147.349C1315.82 -117.211 1318.26 -86.1125 1315.27 -55.151C1307.72 20.2274 1271.42 94.2329 1210.36 158.765C1171.95 199.131 1128.54 235.859 1086.47 271.352L1078.47 278.148C1054.5 298.469 1030.41 316.524 1005.65 332.863H1014.75V332.794Z" fill="#FAFAFA"/>
<path d="M982.337 332.794C1013.64 312.679 1043.17 289.544 1073.59 261.466C1086.91 249.178 1101.01 236.683 1114.55 224.601C1143.86 198.582 1174.17 171.602 1202.25 142.494C1232.89 110.572 1257.1 75.7659 1274.08 39.175C1290.95 2.99611 1300.39 -34.1439 1302.17 -71.078C1303.28 -95.7923 1300.5 -120.026 1297.62 -145.633C1297.06 -150.987 1296.39 -156.342 1295.84 -161.766C1292.62 -191.491 1287.96 -219.432 1281.52 -245.931H1274.75C1281.19 -219.364 1285.96 -191.285 1289.18 -161.491C1289.73 -156.068 1290.4 -150.713 1290.95 -145.358C1293.84 -119.82 1296.62 -95.6549 1295.51 -71.2153C1293.73 -34.6245 1284.29 2.17232 1267.64 38.008C1250.77 74.3242 1226.79 108.718 1196.48 140.366C1168.51 169.337 1138.31 196.248 1109 222.198C1095.35 234.28 1081.36 246.775 1067.93 259.132C1036.18 288.308 1005.65 312.13 972.9 332.725H982.337V332.794Z" fill="#FAFAFA"/>
<path d="M951.142 332.794C1001.21 302.725 1035.96 270.734 1063.82 242.587C1082.14 224.051 1101.68 206.34 1122.21 187.598C1144.31 167.483 1167.17 146.751 1188.93 124.508C1250.1 61.6924 1283.52 -13.48 1283.18 -87.1423C1282.96 -107.943 1279.74 -128.127 1276.3 -149.546C1274.97 -158.127 1273.53 -166.983 1272.3 -175.908C1268.86 -201.034 1264.76 -224.169 1259.87 -245.931H1251.99C1256.87 -224.1 1261.09 -200.759 1264.53 -175.496C1265.75 -166.502 1267.2 -157.647 1268.53 -149.065C1271.97 -127.783 1275.19 -107.669 1275.41 -87.1423C1275.75 -14.3725 1242.66 59.9076 1182.27 122.036C1160.62 144.142 1137.87 164.874 1115.77 184.92C1095.13 203.731 1075.59 221.511 1057.16 240.116C1028.52 269.018 992.439 302.176 939.818 332.794H951.142Z" fill="#FAFAFA"/>
<path d="M918.282 332.794C920.724 331.421 923.278 330.117 925.72 328.744C981.338 297.782 1016.97 264.281 1053.5 223.571C1073.92 200.779 1097.24 179.36 1121.88 156.705C1139.42 140.641 1157.52 123.959 1175.06 106.315C1205.81 75.148 1229.12 40.8913 1244.33 4.50644C1259.32 -31.3292 1265.75 -67.5768 1263.42 -103.207C1262.2 -121.399 1258.43 -138.974 1254.43 -157.509C1252.21 -168.013 1249.77 -178.86 1247.99 -189.981C1244.77 -209.203 1241.33 -227.808 1237.34 -245.863H1229.45C1233.45 -227.67 1236.89 -208.86 1240.22 -189.5C1242.11 -178.379 1244.44 -167.464 1246.77 -156.891C1250.77 -138.424 1254.54 -120.987 1255.65 -103.001C1257.87 -67.8514 1251.54 -32.0844 1236.78 3.33939C1221.79 39.2437 1198.7 73.0885 1168.4 103.844C1150.86 121.419 1132.87 138.032 1115.44 154.096C1090.69 176.82 1067.37 198.307 1046.72 221.305C1010.53 261.603 975.232 294.762 920.502 325.243C915.84 327.851 911.066 330.391 906.292 332.863H918.282V332.794Z" fill="#FAFAFA"/>
<path d="M882.869 332.794C897.633 325.86 911.843 318.446 925.387 310.483C982.337 277.118 1014.86 239.841 1043.28 204.486C1064.15 178.536 1090.02 154.714 1117.33 129.519C1131.76 116.27 1146.64 102.54 1161.18 88.0544C1222.35 26.9553 1252.54 -48.6292 1243.77 -119.339C1241.78 -135.678 1237.45 -151.331 1232.78 -167.944C1229.56 -179.615 1226.23 -191.697 1223.68 -204.123C1220.79 -218.402 1218.02 -232.27 1215.02 -245.863H1207.14C1210.14 -232.064 1213.02 -217.99 1215.91 -203.505C1218.46 -190.942 1221.79 -178.791 1225.01 -167.052C1229.56 -150.575 1233.89 -134.992 1235.89 -118.859C1244.44 -49.1097 1214.8 25.4449 1154.41 85.6516C1139.87 100.068 1124.99 113.73 1110.67 126.979C1083.14 152.311 1057.16 176.271 1036.07 202.495C1007.98 237.438 975.787 274.372 919.836 307.188C903.85 316.524 887.087 325.105 869.547 333H882.869V332.794Z" fill="#FAFAFA"/>
<path d="M841.461 332.794C871.323 321.33 899.188 307.737 924.721 292.016C977.119 259.75 1004.54 224.532 1032.52 185.264C1052.72 156.911 1080.36 131.51 1109.67 104.599C1121.88 93.4092 1134.43 81.8072 1146.97 69.656C1177.83 39.3124 1200.26 5.60492 1213.47 -30.5054C1226.35 -65.4486 1229.9 -101.696 1223.68 -135.472C1220.91 -150.438 1216.02 -164.649 1210.91 -179.683C1206.7 -192.109 1202.26 -204.947 1199.15 -218.265C1197.04 -227.052 1195.04 -235.908 1193.04 -244.558C1192.93 -245.039 1192.82 -245.451 1192.71 -245.931H1185.94C1186.05 -245.313 1186.27 -244.627 1186.38 -244.009C1188.38 -235.428 1190.38 -226.503 1192.49 -217.716C1195.71 -204.192 1200.03 -191.285 1204.36 -178.86C1209.47 -163.894 1214.36 -149.752 1217.02 -134.992C1223.13 -101.765 1219.68 -65.9291 1206.92 -31.4665C1193.82 4.16325 1171.73 37.4589 1141.2 67.3906C1128.76 79.5417 1116.22 91.0751 1104.01 102.265C1074.59 129.314 1046.72 154.852 1026.3 183.616C998.545 222.541 971.458 257.347 919.947 289.132C892.083 306.295 861.443 320.918 828.472 332.863H841.461V332.794Z" fill="#FAFAFA"/>
<path d="M187.701 332.794C180.152 332.176 172.603 331.49 165.165 330.803C110.88 325.723 53.7077 319.545 -0.688965 308.766V313.091C46.2698 322.291 95.1158 328.126 142.297 332.794H187.701Z" fill="#FAFAFA"/>
<path d="M789.395 332.794C799.941 329.911 810.377 326.684 820.701 323.183C859.001 310.208 893.859 293.526 924.388 273.686C976.342 239.978 998.545 204.074 1022.19 166.11C1040.84 136.11 1069.48 109.954 1099.79 82.2191C1110.67 72.3333 1121.88 62.1044 1132.98 51.3262C1194.26 -7.78203 1220.79 -83.6411 1203.92 -151.605C1200.48 -165.473 1195.15 -178.516 1189.38 -192.384C1184.05 -205.221 1178.61 -218.471 1174.83 -232.476C1173.61 -236.938 1172.39 -241.469 1171.28 -246H1164.51C1165.73 -241.263 1166.95 -236.526 1168.28 -231.789C1172.17 -217.647 1177.61 -204.26 1182.94 -191.354C1188.6 -177.624 1193.93 -164.58 1197.37 -150.987C1214.02 -83.9843 1187.82 -9.15506 1127.43 49.1294C1116.33 59.8389 1105.12 70.0679 1094.35 79.9536C1063.82 107.826 1034.96 134.188 1015.97 164.669C992.661 202.289 970.569 237.782 919.503 270.871C889.418 290.368 855.004 306.776 817.371 319.545C802.717 324.556 787.619 328.95 772.188 332.725H789.395V332.794Z" fill="#FAFAFA"/>
<path d="M214.233 313.503C229.886 314.602 245.983 315.769 262.08 317.21C301.934 320.712 345.563 325.86 394.964 332.794H423.827C418.832 332.039 413.725 331.215 408.618 330.529C354 322.634 306.375 316.936 262.968 313.16C246.871 311.718 230.663 310.551 215.011 309.453C203.243 308.629 191.032 307.737 179.153 306.776C116.319 301.627 55.0399 295.654 -0.688965 284.327V288.652C57.4822 300.322 119.539 306.02 178.265 310.826C190.143 311.787 202.355 312.68 214.233 313.503Z" fill="#FAFAFA"/>
<path d="M192.475 286.455C202.133 287.141 212.124 287.759 221.671 288.308C238.878 289.338 256.641 290.437 274.292 291.947C317.365 295.654 363.547 301.558 415.39 310.139C429.711 312.474 443.81 315.151 457.353 317.691C479.223 321.81 499.872 325.654 521.741 328.538C535.174 330.323 548.495 331.696 561.928 332.794H686.93C690.26 332.52 693.59 332.245 696.921 331.902C740.993 327.645 783.289 318.652 822.588 305.128C860.333 292.153 894.303 275.402 923.722 255.287C971.235 222.678 989.553 188.147 1008.98 151.625L1011.42 147.025C1028.3 115.377 1057.83 88.6036 1089.24 60.2508C1098.9 51.5322 1108.89 42.4703 1118.88 32.9965C1180.61 -25.6999 1204.92 -100.666 1183.83 -167.601C1179.72 -180.507 1173.84 -192.658 1167.62 -205.565C1161.29 -218.471 1154.85 -231.789 1150.41 -246H1144.75V-245.931C1149.3 -231.377 1155.85 -217.785 1162.29 -204.604C1168.51 -191.835 1174.39 -179.752 1178.39 -166.983C1188.38 -135.129 1188.05 -100.255 1177.28 -66.1351C1166.29 -31.2606 1144.42 2.37828 1114.22 31.0743C1104.23 40.5481 1094.35 49.5413 1084.69 58.2599C1053.16 86.8187 1023.3 113.798 1006.2 145.927L1003.76 150.526C984.557 186.705 966.351 220.962 919.614 252.953C890.64 272.793 857.113 289.338 819.924 302.107C781.18 315.425 739.55 324.281 696.144 328.469C639.527 333.893 581.356 332.794 522.962 325.105C501.315 322.291 480.777 318.446 459.018 314.327C445.364 311.787 431.265 309.11 416.833 306.776C364.768 298.194 318.475 292.222 275.069 288.514C257.307 287.004 239.434 285.906 222.226 284.807C212.679 284.189 202.688 283.64 193.03 282.954C137.19 279.041 67.6954 274.235 6.30483 261.809C3.97354 261.329 1.53124 260.848 -0.800049 260.299V263.937C0.97617 264.281 2.75239 264.693 4.52861 265.036C66.4742 277.668 136.302 282.542 192.475 286.455Z" fill="#FAFAFA"/>
<path d="M1164.18 -183.734C1159.51 -195.885 1153.08 -207.281 1146.3 -219.295C1141.42 -227.945 1136.42 -236.801 1132.09 -246H1126.32C1130.76 -236.389 1135.98 -227.19 1140.98 -218.196C1147.75 -206.251 1154.07 -194.924 1158.74 -182.979C1170.73 -151.88 1171.84 -117.486 1161.96 -83.5038C1151.85 -48.8351 1130.65 -15.5396 1100.34 12.8132C1091.35 21.2572 1082.25 29.358 1073.59 37.1842C1039.84 67.3905 1010.76 93.4778 995.769 126.979C994.437 129.931 993.105 132.952 991.884 135.904C976.675 170.71 962.243 203.594 919.17 234.761C861.998 276.02 783.955 302.725 699.363 309.933C643.301 314.67 585.907 312.542 528.735 303.48C508.53 300.254 489.325 296.135 469.121 291.81C455.022 288.789 440.368 285.631 425.381 282.816C375.425 273.48 330.243 267.233 287.391 263.663C268.297 262.084 249.203 261.123 230.663 260.162C222.892 259.75 214.899 259.338 207.128 258.926L200.357 258.514C140.187 255.15 78.0195 251.58 20.8475 240.665C13.5206 239.223 6.30472 237.713 -0.578125 236.134V239.772C62.5886 254.189 133.637 258.239 199.913 261.947L206.684 262.359C214.455 262.77 222.559 263.182 230.33 263.594C248.759 264.555 267.853 265.516 286.725 267.095C329.243 270.597 374.093 276.844 423.827 286.112C438.703 288.926 453.357 292.016 467.344 295.036C487.771 299.43 506.976 303.549 527.403 306.776C565.369 312.748 603.336 315.769 641.081 315.769C660.952 315.769 680.602 314.945 700.14 313.297C786.065 306.02 865.328 278.903 923.389 236.958C967.35 205.172 981.782 171.945 997.213 136.796C998.545 133.844 999.766 130.824 1001.1 127.872C1015.75 94.9194 1044.62 69.0381 1078.03 39.1064C1086.8 31.2802 1095.79 23.1794 1104.9 14.7354C1135.54 -13.9606 1157.18 -47.7367 1167.4 -82.8859C1177.39 -117.28 1176.28 -152.154 1164.18 -183.734Z" fill="#FAFAFA"/>
<path d="M1143.86 -199.729C1138.64 -211.263 1131.32 -222.453 1124.32 -233.231C1121.66 -237.419 1118.88 -241.675 1116.22 -245.931H1111.45C1114.33 -241.263 1117.33 -236.732 1120.22 -232.201C1127.54 -220.942 1134.43 -210.302 1139.64 -198.974C1153.52 -168.562 1156.18 -134.649 1147.3 -100.804C1138.2 -66.2724 1117.33 -33.1828 1087.02 -5.24194C1078.7 2.44695 1070.37 9.86121 1062.27 16.9322C1027.96 47.2758 998.323 73.4318 986 108.169C984.557 112.288 983.114 116.544 981.671 120.595C970.125 154.371 959.135 186.225 919.17 216.843C864.107 258.926 787.175 285.562 702.693 291.741C647.853 295.791 589.682 292.496 534.286 282.199C515.191 278.629 497.207 274.235 478.224 269.567C463.792 266.066 448.916 262.359 433.485 259.132C385.417 249.04 341.566 242.45 299.381 239.086C279.287 237.438 259.194 236.683 239.767 235.928C233.439 235.653 227.111 235.447 220.894 235.173C215.455 234.967 209.904 234.692 204.353 234.486C135.969 231.603 62.0337 228.514 -0.800049 211.969V214.99C62.2557 231.26 135.858 234.349 204.02 237.232C209.571 237.438 215.122 237.713 220.561 237.919C226.778 238.193 233.106 238.468 239.434 238.674C258.861 239.429 278.843 240.184 298.715 241.832C340.567 245.196 384.084 251.718 431.931 261.741C447.251 264.967 462.127 268.606 476.448 272.107C495.542 276.775 513.637 281.237 532.843 284.807C573.252 292.29 615.215 296.135 656.29 296.135C672.054 296.135 687.707 295.585 703.027 294.418C788.618 288.103 866.55 261.191 922.39 218.559C963.021 187.461 974.122 155.263 985.778 121.144C987.221 117.094 988.665 112.906 990.108 108.718C1002.32 74.5302 1031.63 48.5802 1065.71 18.5112C1073.81 11.3716 1082.14 4.02589 1090.46 -3.73164C1121.22 -32.0157 1142.31 -65.4486 1151.41 -100.392C1160.74 -134.58 1157.96 -168.905 1143.86 -199.729Z" fill="#FAFAFA"/>
<path d="M1124.21 -215.794C1118.66 -226.16 1111.33 -236.252 1104.23 -245.931H1099.35C1107.12 -235.496 1114.33 -225.542 1119.99 -214.901C1135.87 -185.244 1139.98 -151.811 1132.09 -118.172C1123.99 -83.847 1103.67 -51.1006 1073.15 -23.4344C1065.26 -16.2947 1057.49 -9.49829 1049.94 -2.90782C1015.2 27.3672 985.223 53.5231 975.565 89.3587C974.233 94.4389 972.901 99.6563 971.68 104.668C963.576 137.552 955.916 168.65 918.726 198.788C865.773 241.489 790.283 267.988 705.913 273.137C651.516 276.501 594.122 272.107 540.059 260.505C521.963 256.592 504.978 251.924 487.105 246.981C472.562 242.93 457.575 238.811 441.923 235.104C396.185 224.395 352.334 217.324 311.703 214.166C290.833 212.518 269.962 211.969 249.758 211.488C244.762 211.351 239.878 211.214 234.993 211.076C227 210.871 219.007 210.665 210.903 210.459C139.521 208.605 61.9227 206.614 -0.688965 187.049V190.138C62.2558 209.292 139.632 211.282 210.681 213.136C218.785 213.342 226.889 213.548 234.771 213.754C239.656 213.891 244.651 214.028 249.536 214.166C269.629 214.715 290.389 215.195 311.037 216.843C351.446 220.001 394.853 226.935 440.257 237.576C455.799 241.214 470.675 245.333 485.218 249.384C502.425 254.189 520.298 259.063 538.615 263.045C581.356 272.176 626.094 276.912 669.834 276.912C682.156 276.912 694.257 276.569 706.357 275.814C791.838 270.528 868.548 243.686 922.279 200.23C960.134 169.543 968.238 136.659 976.12 104.874C977.341 99.8623 978.674 94.7135 980.006 89.6333C989.553 54.4155 1019.19 28.5342 1053.61 -1.46616C1061.16 -8.05663 1068.93 -14.853 1076.81 -21.9927C1107.67 -49.9335 1128.21 -83.0918 1136.42 -117.829C1144.53 -151.88 1140.31 -185.725 1124.21 -215.794Z" fill="#FAFAFA"/>
<path d="M1104.56 -231.858C1101.68 -236.663 1098.24 -241.332 1094.79 -245.931H1089.91C1093.68 -240.988 1097.35 -236.046 1100.46 -230.897C1118.22 -202.064 1123.88 -169.043 1116.89 -135.541C1109.78 -101.422 1089.91 -68.9498 1059.38 -41.6955C1051.94 -35.0363 1044.5 -28.6518 1037.29 -22.4733C1002.21 7.66438 972.013 33.6143 965.241 70.4111C964.131 76.3151 963.243 82.2877 962.354 88.0544C957.692 118.879 952.918 150.801 918.282 180.527C893.748 201.534 863.552 218.697 828.583 231.397C791.948 244.715 751.762 252.541 709.132 254.67C655.18 257.347 598.674 251.924 545.72 239.017C528.513 234.761 512.416 229.818 495.431 224.532C480.888 220.001 465.901 215.401 450.249 211.282C406.176 199.749 363.658 192.403 323.804 189.451C302.378 187.804 280.842 187.598 260.082 187.323C256.308 187.255 252.644 187.255 248.981 187.186C239.101 187.049 229.331 186.98 219.007 186.911C143.74 186.294 61.1456 185.607 -0.688965 161.373V164.669C61.7007 188.353 143.962 189.04 218.896 189.657C229.22 189.726 239.101 189.795 248.87 189.932C252.533 190.001 256.308 190.001 260.082 190.069C280.731 190.344 302.156 190.55 323.36 192.198C362.77 195.149 404.955 202.426 448.583 213.822C464.125 217.873 479.112 222.541 493.544 227.003C509.863 232.084 526.737 237.301 544.166 241.557C588.794 252.473 635.974 258.102 682.045 258.102C691.259 258.102 700.473 257.896 709.576 257.416C752.872 255.288 793.614 247.324 830.914 233.8C866.439 220.893 897.078 203.525 921.945 182.174C957.248 151.831 962.132 119.565 966.795 88.329C967.683 82.5623 968.571 76.5897 969.681 70.7544C976.342 34.7128 1006.32 8.96875 1040.95 -20.8257C1048.17 -27.0042 1055.49 -33.3887 1063.04 -40.0479C1093.91 -67.6454 1114.11 -100.529 1121.33 -135.129C1128.32 -169.18 1122.55 -202.613 1104.56 -231.858Z" fill="#FAFAFA"/>
<path d="M1085.58 -245.931H1081.92C1101.12 -218.059 1108.12 -185.931 1102.23 -152.91C1096.13 -118.928 1076.7 -86.7303 1046.06 -59.7506C1038.84 -53.4347 1031.74 -47.3935 1024.85 -41.5582C989.664 -11.7637 959.246 13.9803 955.471 51.5322C954.805 58.054 954.472 64.7131 954.139 71.1663C952.474 101.579 950.809 132.952 918.393 162.54C894.969 183.891 865.661 201.191 831.025 213.891C794.835 227.209 754.981 234.761 712.574 236.409C658.954 238.468 603.225 231.946 551.382 217.598C534.841 212.999 518.855 207.507 503.424 202.152C489.103 197.209 474.227 192.06 458.574 187.529C416.167 175.241 374.981 167.621 336.126 164.875C318.364 163.57 300.602 163.364 283.284 163.364C279.176 163.364 275.069 163.364 271.072 163.364C268.408 163.364 265.744 163.364 263.079 163.364C251.867 163.364 240.544 163.501 228.554 163.639C148.069 164.463 59.0362 165.424 -0.578125 133.776V136.522C59.8133 167.415 148.513 166.522 228.665 165.698C240.655 165.561 251.978 165.424 263.19 165.424C265.855 165.424 268.519 165.424 271.183 165.424C292.276 165.355 314.146 165.286 335.904 166.865C374.426 169.611 415.279 177.163 457.353 189.383C472.895 193.845 487.66 198.994 501.981 203.937C517.523 209.292 533.509 214.852 550.272 219.452C596.342 232.152 645.41 238.811 693.479 238.811C700.029 238.811 706.579 238.674 713.018 238.468C755.98 236.82 796.389 229.2 833.023 215.676C867.993 202.77 897.744 185.264 921.39 163.707C954.25 133.638 956.026 101.922 957.692 71.235C958.025 64.7818 958.358 58.1227 959.024 51.6695C962.687 14.7354 991.44 -9.56694 1027.74 -40.3225C1034.62 -46.1578 1041.73 -52.199 1048.94 -58.5149C1079.92 -85.7692 1099.57 -118.241 1105.67 -152.566C1111.45 -185.725 1104.56 -217.922 1085.58 -245.931Z" fill="#FAFAFA"/>
<path d="M1076.59 -245.931H1073.04C1086.13 -222.659 1090.91 -196.846 1086.8 -170.278C1081.69 -136.571 1062.71 -104.648 1032.07 -78.0117C1025.19 -72.1077 1018.42 -66.4784 1011.87 -61.055C974.788 -30.2308 945.48 -5.92845 944.925 32.516C944.814 39.587 945.147 46.7953 945.369 53.7977C946.59 83.798 947.923 114.828 917.727 144.279C871.878 188.834 798.165 215.676 715.571 217.804C662.284 219.177 607.444 211.626 556.933 195.905C541.058 190.962 525.849 185.126 511.084 179.428C496.985 174.005 482.331 168.376 466.789 163.433C425.936 150.389 385.972 142.426 348.116 139.886C336.126 139.062 324.026 138.787 312.147 138.787C301.934 138.787 291.832 138.993 281.841 139.199L276.845 139.268C264.523 139.474 252.089 139.886 238.878 140.298C151.4 142.975 53.4856 145.927 -0.800049 101.716V105.08C54.8178 147.918 152.177 144.966 239.1 142.288C252.311 141.877 264.745 141.533 277.067 141.259L282.063 141.19C303.599 140.778 325.802 140.366 347.894 141.877C385.416 144.417 424.937 152.311 465.457 165.218C480.888 170.161 495.431 175.721 509.53 181.145C524.295 186.843 539.725 192.747 555.711 197.69C602.781 212.312 653.625 219.932 703.582 219.932C707.689 219.932 711.908 219.864 716.015 219.795C799.83 217.667 874.432 190.481 920.946 145.378C951.697 115.446 950.365 84.0726 949.033 53.729C948.7 46.7267 948.478 39.5183 948.589 32.516C949.144 -5.31059 978.118 -29.407 1014.86 -59.8879C1021.41 -65.3113 1028.19 -70.9407 1035.07 -76.9133C1066.04 -103.824 1085.14 -136.09 1090.35 -170.21C1094.24 -196.709 1089.58 -222.59 1076.59 -245.931Z" fill="#FAFAFA"/>
<path d="M1066.6 -245.931H1063.15C1084.47 -196.64 1068.59 -139.179 1018.31 -96.2728C1011.53 -90.5748 1004.98 -85.1514 998.545 -79.8653C961.355 -49.5217 932.048 -25.5626 934.712 13.637C935.267 21.1199 936.266 28.8774 937.376 36.3604C941.484 66.0861 945.813 96.8416 917.616 126.155C873.987 171.465 801.607 198.17 719.012 199.268C666.059 200.024 612.106 191.374 562.816 174.28C547.496 168.993 532.954 162.815 518.744 156.774C504.867 150.87 490.546 144.828 475.337 139.474C436.039 125.606 397.406 117.368 360.438 115.034C351.224 114.416 342.121 114.21 332.907 114.21C319.474 114.21 306.153 114.691 293.164 115.171L290.833 115.24C277.844 115.721 264.412 116.407 250.313 117.162C156.617 121.968 50.2662 127.529 5.41672 67.4591C3.30746 64.6444 1.30921 61.8298 -0.800049 58.9464V64.0266C0.199074 65.4683 1.30921 66.9099 2.30833 68.283C22.7348 95.6746 57.5931 112.082 108.77 118.535C153.287 124.165 202.799 121.556 250.646 119.084C264.745 118.329 278.066 117.643 291.166 117.162L293.497 117.094C315.256 116.338 337.792 115.515 360.216 116.956C396.629 119.29 434.818 127.46 473.783 141.19C488.881 146.545 503.202 152.586 516.968 158.421C531.177 164.463 545.831 170.641 561.262 175.996C609.109 192.541 661.507 201.259 713.018 201.259C715.016 201.259 717.125 201.259 719.123 201.191C802.828 200.092 876.208 173.044 920.502 127.048C949.255 97.1162 944.925 66.0861 940.707 36.0171C939.708 28.5342 938.597 20.8453 938.042 13.3624C935.489 -25.082 964.464 -48.7665 1001.21 -78.8355C1007.65 -84.053 1014.31 -89.545 1021.08 -95.243C1071.7 -138.356 1087.8 -196.228 1066.6 -245.931Z" fill="#FAFAFA"/>
<path d="M1053.16 -245.931H1050.94C1056.38 -231.034 1058.49 -215.382 1057.05 -199.523C1053.94 -166.64 1035.51 -134.374 1005.09 -108.767C998.434 -103.207 991.884 -97.9204 985.556 -92.8403C948.478 -63.0459 919.17 -39.43 925.054 0.181442C926.275 8.07628 928.162 16.2457 930.049 24.1405C937.043 53.729 944.148 84.2785 917.838 113.661C898.077 135.629 870.435 153.89 837.908 166.385C803.272 179.703 764.528 186.499 722.565 186.568H722.121C669.611 186.568 616.547 176.888 568.589 158.49C553.824 152.792 539.725 146.27 526.182 139.954C512.638 133.638 498.761 127.117 483.774 121.35C446.03 106.727 408.84 98.2147 372.983 96.0178C365.767 95.5373 358.551 95.4 351.335 95.4C335.793 95.4 320.362 96.2238 305.375 97.0476C291.832 97.8027 277.844 98.8325 263.079 99.9309C216.787 103.363 169.051 106.933 126.421 102.196C77.9085 96.8416 45.4925 81.2579 27.2863 54.5528C24.5109 50.4338 21.7356 46.1774 19.0713 42.0584C13.1875 32.9278 7.1928 23.5913 -0.245117 14.6667V17.6874C6.30469 25.7881 11.7444 34.2322 17.073 42.5389C19.7373 46.658 22.4017 50.9143 25.288 55.0334C43.8273 82.1504 76.7983 98.0087 126.088 103.501C169.051 108.238 217.009 104.668 263.412 101.235C278.177 100.137 292.165 99.1071 305.709 98.352C327.689 97.1849 350.336 95.8805 372.983 97.3222C408.507 99.519 445.364 107.963 482.775 122.448C497.651 128.215 511.528 134.668 525.071 140.984C538.726 147.369 552.825 153.89 567.701 159.588C615.992 178.124 669.5 187.872 722.454 187.872H722.898C765.305 187.804 804.493 181.007 839.462 167.483C872.433 154.783 900.298 136.384 920.169 114.21C946.923 84.4158 939.707 53.5917 932.714 23.7973C930.826 15.9024 928.939 7.80167 927.718 -0.0931549C921.834 -39.2241 950.92 -62.5653 987.776 -92.1538C994.104 -97.2339 1000.65 -102.52 1007.31 -108.081C1038.07 -133.893 1056.6 -166.434 1059.71 -199.523C1060.71 -215.313 1058.6 -231.034 1053.16 -245.931Z" fill="#FAFAFA"/>
<path d="M1038.62 -245.931H1036.4C1051.28 -202.338 1035.85 -153.665 991.218 -116.731C984.557 -111.307 978.118 -106.158 971.791 -101.216C934.601 -71.9018 905.293 -48.6978 914.619 -8.46854C916.506 -0.230453 919.392 8.28224 922.057 16.5203C931.715 45.9028 941.817 76.3151 917.283 105.766C898.633 128.009 871.878 146.407 839.795 158.971C805.714 172.289 767.303 178.811 725.562 178.33C659.62 177.644 606.778 160.961 574.029 147.163C559.708 141.121 546.164 134.188 533.065 127.46C519.965 120.732 506.421 113.798 491.879 107.62C455.688 92.2421 419.72 83.4548 384.972 81.3952C379.2 81.052 373.427 80.9147 367.654 80.9147C350.336 80.9147 333.351 82.1504 319.03 83.2488C305.265 84.2786 290.833 85.7202 275.513 87.1619C232.662 91.3496 184.038 96.1552 142.852 92.2421C95.8929 87.7798 65.0311 72.7453 48.7121 46.1774C46.2698 42.127 43.8275 38.008 41.4962 33.9576C33.1702 19.541 24.6221 4.57512 9.52429 -8.26257C6.41591 -10.8713 2.97449 -13.4114 -0.688965 -15.8828V-13.8233C2.3084 -11.7638 5.08375 -9.63559 7.74807 -7.43877C22.7349 5.26161 31.172 20.0901 39.498 34.4382C41.8293 38.4886 44.1605 42.6076 46.7139 46.658C63.3659 73.7064 94.7828 89.0841 142.63 93.6151C184.26 97.5282 232.995 92.7913 276.068 88.5349C291.388 87.0246 305.709 85.6516 319.474 84.6218C338.458 83.1802 362.104 81.4639 384.861 82.7682C419.276 84.7591 454.911 93.4778 490.768 108.718C505.2 114.897 518.744 121.762 531.844 128.49C544.943 135.217 558.487 142.151 572.919 148.261C620.21 168.238 673.053 179.154 725.673 179.703C727.228 179.703 728.782 179.703 730.336 179.703C770.745 179.703 807.934 173.113 841.128 160.138C873.544 147.437 900.631 128.833 919.392 106.384C944.37 76.5211 934.157 45.9028 924.388 16.2457C921.723 8.00764 918.837 -0.505035 916.95 -8.67447C907.736 -48.2859 936.821 -71.2839 973.678 -100.323C980.006 -105.266 986.444 -110.415 993.105 -115.907C1037.84 -153.116 1053.5 -202.064 1038.62 -245.931Z" fill="#FAFAFA"/>
<path d="M1023.74 -245.931H1022.63C1025.97 -235.496 1027.41 -224.65 1027.08 -213.666C1026.08 -181.125 1008.54 -149.477 977.896 -124.488C971.346 -119.133 964.797 -114.122 958.58 -109.248C921.501 -80.4831 892.194 -57.7597 904.96 -17.1872C907.625 -8.67447 911.177 -0.230453 915.062 8.69415C927.496 38.008 940.485 68.3516 917.505 98.0087C880.87 145.309 810.266 172.357 728.893 170.367C663.395 168.856 611.44 150.87 579.468 136.041C565.591 129.588 552.603 122.311 540.058 115.24C527.292 108.1 514.192 100.755 499.982 94.1643C465.457 78.0314 430.821 68.9695 397.184 67.1159C392.521 66.8413 387.97 66.7726 383.307 66.7726C366.766 66.7726 350.114 68.2143 333.24 69.7933C319.363 71.0977 304.709 72.9512 289.168 74.8734C247.426 80.0222 200.024 85.8575 159.948 82.7682C114.21 79.2671 84.7914 64.6445 70.1376 38.008C67.9173 34.0263 65.9191 29.9072 63.8098 25.9941C56.5939 11.6461 49.045 -3.11377 34.5022 -15.6768C25.5101 -23.4344 13.8536 -30.2308 -0.578125 -36.1348V-35.311C13.4096 -29.4756 24.844 -22.8165 33.6141 -15.265C48.0459 -2.83917 55.5948 11.9207 62.8107 26.2001C64.8089 30.1818 66.9182 34.3009 69.1385 38.2826C84.0143 65.1937 113.655 79.9536 159.948 83.5234C200.135 86.6127 247.648 80.7774 289.501 75.6286C305.042 73.7064 319.696 71.9214 333.573 70.6171C355.11 68.5576 376.202 66.7727 397.295 67.9397C430.71 69.7246 465.124 78.7865 499.538 94.8508C513.637 101.441 526.737 108.787 539.503 115.858C552.159 122.929 565.147 130.206 579.024 136.659C611.107 151.556 663.172 169.611 729.004 171.122C731.89 171.19 734.665 171.259 737.552 171.259C815.816 171.259 883.091 144.348 918.615 98.4206C941.706 68.5576 928.717 38.1453 916.284 8.62549C912.509 -0.299103 908.846 -8.74313 906.181 -17.2558C900.409 -35.7915 902.851 -51.6498 914.063 -67.1649C924.277 -81.3756 940.707 -94.076 959.579 -108.767C965.796 -113.641 972.346 -118.653 978.895 -124.008C1009.76 -149.134 1027.3 -180.919 1028.41 -213.597C1028.52 -224.65 1026.96 -235.496 1023.74 -245.931Z" fill="#FAFAFA"/>
<path d="M1009.2 -245.931H1007.98C1010.53 -237.281 1011.87 -228.425 1011.87 -219.432C1011.87 -187.098 994.881 -155.724 964.02 -131.079C957.47 -125.793 950.92 -120.918 944.703 -116.113C906.181 -86.7303 878.428 -65.5173 894.525 -24.4642C897.966 -15.7455 902.518 -6.95824 907.292 2.24097C922.5 31.4862 938.264 61.7611 916.95 91.4869C900.631 114.348 875.431 133.089 844.347 145.652C811.709 158.833 772.854 165.012 732.001 163.433C681.046 161.579 628.869 148.261 585.019 126.018C571.475 119.084 558.82 111.396 546.608 103.913C534.397 96.4297 521.741 88.7408 508.197 81.8071C475.226 64.919 441.922 55.5139 409.284 53.8663C405.51 53.6603 401.846 53.5917 398.072 53.5917C380.643 53.5917 363.436 55.4453 347.117 57.3675C333.351 59.0151 318.586 61.2119 302.933 63.546C262.191 69.6559 216.009 76.521 177.155 74.3242C132.638 71.7841 104.774 57.6421 91.8962 31.0056C90.009 27.0925 88.2328 22.9735 86.4566 19.0604C80.2398 4.84969 73.801 -9.84155 59.8133 -21.9927C46.4917 -33.5947 26.1762 -42.8625 -0.578125 -49.659V-48.9038C25.8431 -42.176 45.8256 -32.9769 58.9252 -21.5808C72.8019 -9.49832 79.2407 5.12428 85.4575 19.2663C87.2337 23.1794 89.0099 27.2985 90.8971 31.2116C103.997 58.054 132.194 72.402 177.155 75.0107C216.232 77.2762 262.524 70.3424 303.377 64.2325C319.03 61.8984 333.795 59.7016 347.561 58.054C367.321 55.7198 388.414 53.523 409.395 54.5528C441.811 56.1318 474.893 65.4683 507.753 82.2877C521.297 89.2214 533.953 96.9103 546.053 104.393C558.265 111.876 570.92 119.565 584.464 126.499C628.425 148.879 680.824 162.197 732.001 164.119C736.108 164.257 740.216 164.325 744.212 164.325C780.847 164.325 815.483 158.147 845.013 146.202C876.319 133.57 901.63 114.691 918.06 91.6928C939.485 61.6925 923.722 31.3489 908.402 1.96637C903.628 -7.30148 899.077 -16.0201 895.635 -24.7388C879.649 -65.4486 907.292 -86.5244 945.591 -115.77C951.808 -120.506 958.358 -125.449 964.908 -130.735C1006.09 -163.619 1020.86 -206.526 1009.2 -245.931Z" fill="#FAFAFA"/>
<path d="M997.657 -225.885C997.435 -232.682 996.436 -239.41 994.659 -246H993.549C995.325 -239.41 996.325 -232.682 996.547 -225.885C997.546 -193.825 981.005 -162.727 950.143 -138.356C943.593 -133.207 937.043 -128.333 930.826 -123.664C892.305 -94.8311 864.551 -73.9613 884.09 -32.4963C888.308 -23.5031 893.859 -14.5098 899.743 -5.03603C917.727 24.1405 936.266 54.3468 916.617 84.2099C901.408 107.345 877.096 126.224 846.456 138.856C814.373 152.037 775.962 157.872 735.22 155.881C684.376 153.341 633.088 138.924 590.681 115.309C577.47 107.894 565.148 99.7249 553.269 91.8301C541.613 84.0726 529.512 76.0405 516.635 68.7635C485.107 51.1202 453.135 41.3719 421.496 39.9988C418.499 39.8615 415.612 39.7929 412.615 39.7929C394.52 39.7929 376.757 42.127 361.104 44.3238C347.561 46.246 332.796 48.8548 317.254 51.6008C259.971 61.7611 195.028 73.2258 152.51 58.1913C133.304 51.3949 120.649 40.0675 113.655 23.3854C111.99 19.4723 110.547 15.3532 108.992 11.4402C103.775 -2.63326 98.4462 -17.1185 85.0135 -28.9951C68.1394 -43.8923 39.2759 -54.1899 -0.800049 -59.682V-58.9955C38.8318 -53.5721 67.3623 -43.3431 84.1254 -28.6519C97.447 -16.8439 102.776 -2.42729 107.993 11.5775C109.437 15.4905 110.991 19.6096 112.656 23.5227C119.65 40.1361 132.86 52.0127 152.066 58.7405C194.917 73.9123 260.193 62.379 317.698 52.2187C333.24 49.4726 348.005 46.8639 361.548 44.9417C379.644 42.333 400.736 39.6556 421.607 40.6167C453.024 42.0583 484.774 51.6695 516.08 69.244C528.957 76.521 541.058 84.4845 552.714 92.242C564.592 100.206 576.915 108.375 590.237 115.789C632.755 139.474 684.265 153.959 735.331 156.499C740.66 156.774 745.878 156.911 751.095 156.911C786.176 156.911 819.147 150.938 847.344 139.405C878.206 126.773 902.518 107.757 917.838 84.4845C937.598 54.3468 919.059 24.0719 901.075 -5.31062C895.191 -14.7844 889.751 -23.7777 885.533 -32.7023C866.106 -73.824 893.748 -94.5565 932.048 -123.253C938.264 -127.921 944.703 -132.795 951.364 -137.944C982.115 -162.383 998.656 -193.62 997.657 -225.885Z" fill="#FAFAFA"/>
<path d="M1365.89 92.1734C1355.23 113.455 1342.91 134.462 1328.81 155.126C1284.41 220.138 1224.35 279.727 1149.75 332.794H1155.63C1229.34 279.933 1288.73 220.688 1332.92 156.156C1345.24 138.101 1356.23 119.771 1366 101.304V92.1734H1365.89Z" fill="#FAFAFA"/>
<path d="M1365.89 144.005C1362.11 149.977 1358.23 155.881 1354.23 161.785C1311.71 223.914 1255.32 281.237 1185.94 332.794H1190.27C1258.98 281.375 1315.04 224.326 1357.23 162.54C1360.23 158.215 1363 153.89 1365.78 149.565V144.005H1365.89Z" fill="#FAFAFA"/>
<path d="M1365.89 187.941C1327.37 239.841 1279.19 288.309 1221.79 332.794H1226.01C1281.3 289.682 1328.14 242.93 1365.89 192.884V187.941Z" fill="#FAFAFA"/>
<path d="M1365.89 228.72C1335.03 265.31 1299.17 300.048 1258.65 332.794H1261.43C1300.72 300.94 1335.69 267.164 1365.89 231.672V228.72Z" fill="#FAFAFA"/>
<path d="M1365.89 228.72C1335.03 265.31 1299.17 300.048 1258.65 332.794H1261.43C1300.72 300.94 1335.69 267.164 1365.89 231.672V228.72Z" fill="#FAFAFA"/>
<path d="M1365.89 265.997C1352.46 280.276 1338.25 294.35 1323.26 308.08C1314.16 316.455 1304.72 324.693 1294.95 332.863H1297.73C1307.16 324.968 1316.27 316.936 1325.15 308.835C1339.47 295.723 1353.01 282.405 1365.89 268.743V265.997Z" fill="#FAFAFA"/>
<path d="M1365.89 301.489C1360.01 307.119 1354.12 312.748 1348.02 318.309C1342.69 323.183 1337.36 327.988 1331.81 332.725H1334.47C1339.69 328.194 1344.8 323.663 1349.79 319.064C1355.23 314.121 1360.56 309.041 1365.78 304.029V301.489H1365.89Z" fill="#FAFAFA"/>
</g>
</g>
<defs>
<linearGradient id="paint0_linear_43_2659" x1="0" y1="0" x2="1318.66" y2="482.399" gradientUnits="userSpaceOnUse">
<stop stop-color="#F0F2F7"/>
<stop offset="1" stop-color="#F5EFEC"/>
</linearGradient>
</defs>
</svg>
