<svg width="393" height="616" viewBox="0 0 393 616" fill="none" xmlns="http://www.w3.org/2000/svg">
<g style="mix-blend-mode:screen" opacity="0.7">
<mask id="mask0_322_11003" style="mask-type:alpha" maskUnits="userSpaceOnUse" x="0" y="0" width="393" height="616">
<rect width="393" height="616" fill="url(#paint0_linear_322_11003)"/>
</mask>
<g mask="url(#mask0_322_11003)">
<path d="M0.0466613 0.0500549L0.0466614 1.45099C2.09693 0.950664 4.1938 0.500347 6.24407 0.0500546L0.0466613 0.0500549Z" fill="#FAFAFA"/>
<path d="M184.851 0.0499878C213.228 6.30405 241 15.51 267.933 27.768C313.971 48.6816 355.909 77.4002 392.86 113.424L392.86 110.722C356.049 75.1487 314.391 46.6802 268.679 25.9168C244.309 14.8596 219.286 6.25401 193.751 0.0499874L184.851 0.0499878Z" fill="#FAFAFA"/>
<path d="M62.58 0.0501376C41.3783 1.50108 20.4562 4.40298 0.046656 8.75581L0.0466562 11.3075C27.9583 5.35359 56.7087 2.05143 86.0183 1.60113C109.923 1.20088 131.264 2.30158 151.208 4.85325C177.349 8.30549 203.257 14.5095 228.279 23.4153C253.069 32.221 277.066 43.6784 299.573 57.4374C327.391 74.4484 354.185 94.9117 381.584 119.978C385.451 123.53 389.179 127.083 392.86 130.685L392.86 127.283C389.645 124.181 386.383 121.129 383.075 118.077C355.583 92.9104 328.649 72.3971 300.738 55.286C278.092 41.427 253.954 29.9195 229.025 21.0638C203.862 12.108 177.768 5.85388 151.487 2.40164C143.892 1.40099 136.157 0.650522 128.095 0.100168L62.58 0.100171L62.58 0.0501376Z" fill="#FAFAFA"/>
<path d="M392.86 143.393C385.684 136.388 378.136 129.484 370.167 122.73C349.059 104.768 320.681 81.6029 288.343 61.5398C243.61 33.8218 192.493 16.4606 140.537 11.2572C117.704 9.00573 95.2911 9.35597 76.3727 10.0064C50.1851 10.907 24.6499 13.7588 0.0466558 18.4619L0.0466559 21.0135C24.6499 16.2605 50.2317 13.4086 76.4659 12.508C95.2911 11.8576 117.611 11.5073 140.351 13.7588C191.98 18.9122 242.724 36.1733 287.178 63.6912C319.377 83.7042 347.661 106.819 368.723 124.681C377.25 131.935 385.265 139.29 392.86 146.795L392.86 143.393Z" fill="#FAFAFA"/>
<path d="M392.86 158.303C382.189 147.696 370.494 137.439 357.4 127.133L352.787 123.53C328.649 104.568 303.673 84.9053 276.134 67.5441C231.96 39.776 181.309 23.3153 129.68 19.8631C108.525 18.5122 87.323 19.6129 66.8203 20.6636C43.7081 21.8644 21.4347 24.366 0.0932558 28.0684L0.093256 31.1204C21.4813 27.368 43.8013 24.8663 66.9601 23.6656C87.4162 22.6149 108.525 21.5142 129.54 22.865C180.704 26.2672 230.935 42.6279 274.737 70.1457C302.136 87.457 327.065 107.02 351.156 125.982L355.769 129.584C369.562 140.391 381.817 151.248 392.907 162.406L392.907 158.303L392.86 158.303Z" fill="#FAFAFA"/>
<path d="M392.86 172.912C379.207 158.803 363.504 145.494 344.446 131.786C336.105 125.782 327.624 119.428 319.423 113.324C301.763 100.115 283.45 86.4562 263.693 73.7979C242.025 59.989 218.401 49.0819 193.564 41.4269C169.008 33.822 143.799 29.5692 118.729 28.7687C101.955 28.2684 85.5057 29.5192 68.125 30.82C64.4904 31.0702 60.8559 31.3704 57.1747 31.6205C36.9982 33.0715 18.0331 35.1729 0.0466553 38.0748L0.0466554 41.1267C18.0797 38.2248 37.1379 36.0734 57.3611 34.6225C61.0423 34.3723 64.6768 34.0721 68.3114 33.822C85.6455 32.5211 102.048 31.2703 118.636 31.7707C143.473 32.5712 168.449 36.8239 192.772 44.3288C217.422 51.9337 240.767 62.7407 262.249 76.3996C281.913 89.0078 300.179 102.617 317.792 115.825C325.993 121.979 334.474 128.283 342.862 134.337C362.665 148.647 378.835 162.405 392.814 177.165L392.814 172.912L392.86 172.912Z" fill="#FAFAFA"/>
<path d="M392.86 186.972C372.451 164.407 350.736 148.747 331.632 136.189C319.05 127.933 307.028 119.128 294.307 109.872C280.654 99.9151 266.582 89.6084 251.485 79.8021C208.848 52.2342 157.824 37.1744 107.826 37.3245C93.7068 37.4246 80.0073 38.8755 65.469 40.4265C59.6443 41.0269 53.6333 41.6774 47.5757 42.2277C30.5212 43.7787 14.8179 45.6299 0.0466551 47.8313L0.0466552 51.3836C14.8645 49.1822 30.7075 47.281 47.8553 45.73C53.9595 45.1796 59.9705 44.5292 65.7952 43.9288C80.2403 42.3778 93.8932 40.9268 107.826 40.8268C157.219 40.6767 207.637 55.5864 249.807 82.804C264.811 92.5604 278.884 102.817 292.49 112.773C305.258 122.08 317.326 130.885 329.954 139.191C349.572 152.099 372.078 168.36 392.86 192.075L392.86 186.972Z" fill="#FAFAFA"/>
<path d="M392.86 201.781C391.928 200.68 391.043 199.53 390.111 198.429C369.096 173.363 346.356 157.302 318.724 140.842C303.254 131.636 288.716 121.129 273.339 110.021C262.435 102.116 251.112 93.9611 239.136 86.0559C217.981 72.197 194.729 61.6901 170.033 54.8357C145.709 48.0813 121.106 45.1794 96.9221 46.2301C84.5738 46.7805 72.645 48.4816 60.0638 50.2827C52.9344 51.2834 45.5721 52.3841 38.0233 53.1846C24.9761 54.6355 12.3483 56.1866 0.0932857 57.9877L0.0932859 61.54C12.4415 59.7389 25.2091 58.1878 38.3495 56.6868C45.8982 55.8363 53.3072 54.7857 60.4831 53.735C73.0177 51.9338 84.8534 50.2327 97.0618 49.7324C120.92 48.7317 145.197 51.5836 169.241 58.2379C193.611 64.9923 216.583 75.399 237.459 89.0579C249.388 96.963 260.664 105.068 271.568 112.923C286.992 124.081 301.577 134.587 317.187 143.893C344.539 160.204 367.045 176.114 387.735 200.78C389.505 202.882 391.229 205.033 392.907 207.185L392.907 201.781L392.86 201.781Z" fill="#FAFAFA"/>
<path d="M392.86 217.741C388.154 211.087 383.121 204.683 377.716 198.579C355.07 172.912 329.768 158.253 305.77 145.445C288.157 136.038 271.987 124.381 254.886 112.073C245.893 105.569 236.574 98.8643 226.742 92.31C185.27 64.7421 133.967 51.1333 85.9717 55.0859C74.8816 55.9864 64.2575 57.9377 52.981 60.0391C45.0595 61.49 36.8584 62.991 28.4243 64.1417C18.7321 65.4426 9.31951 66.6934 0.0932854 68.0443L0.0932856 71.5966C9.4593 70.2457 19.0117 68.9449 28.8437 67.644C37.371 66.4933 45.6187 64.9923 53.5868 63.5414C64.7701 61.49 75.3476 59.5387 86.2979 58.6382C133.641 54.7857 184.245 68.1443 225.111 95.362C234.896 101.916 244.169 108.621 253.162 115.075C270.356 127.483 286.619 139.19 304.419 148.697C328.137 161.355 353.206 175.864 375.48 201.081C381.817 208.285 387.641 215.84 393 223.745L393 217.741L392.86 217.741Z" fill="#FAFAFA"/>
<path d="M392.86 236.404C385.079 222.945 375.852 210.387 365.182 198.879C343.281 175.264 319.377 162.906 292.723 150.298C273.478 141.192 256.238 128.734 237.971 115.525C230.376 110.021 222.501 104.368 214.254 98.7141C193.658 84.8051 170.778 74.6986 146.268 68.7447C122.55 62.941 97.9472 61.3399 75.0214 64.1417C64.8632 65.3925 55.2177 67.5939 45.0129 69.8954C36.5788 71.7967 27.8652 73.798 18.8253 75.1989C12.8609 76.1495 6.84986 77.0501 0.978627 77.9507C0.652447 78.0007 0.372864 78.0507 0.0466847 78.1008L0.0466849 81.1527C0.466059 81.1027 0.932029 81.0026 1.3514 80.9526C7.17604 80.052 13.2337 79.1514 19.1981 78.2008C28.3777 76.7499 37.138 74.7986 45.572 72.8474C55.7302 70.5459 65.3292 68.3444 75.3476 67.1436C97.9006 64.3919 122.224 65.9429 145.616 71.6966C169.8 77.6004 192.4 87.5569 212.716 101.316C220.964 106.919 228.792 112.573 236.387 118.077C254.746 131.335 272.081 143.893 291.605 153.099C318.025 165.608 341.65 177.815 363.224 201.031C374.874 213.589 384.799 227.398 392.907 242.257L392.907 236.404L392.86 236.404Z" fill="#FAFAFA"/>
<path d="M392.86 531.045C392.441 534.447 391.975 537.849 391.509 541.201C388.061 565.667 383.867 591.434 376.551 615.95L379.487 615.95C385.731 594.786 389.692 572.772 392.86 551.508L392.86 531.045Z" fill="#FAFAFA"/>
<path d="M392.86 259.869C390.903 255.116 388.713 250.413 386.337 245.76C377.53 228.499 366.207 212.788 352.74 199.029C329.861 175.614 305.491 165.608 279.722 154.951C259.359 146.545 241.606 133.637 222.781 119.978C216.071 115.075 209.128 110.022 201.812 105.018C161.692 77.4005 110.202 65.4428 64.0711 73.0477C54.6585 74.5987 45.805 77.0003 36.3924 79.602C27.6787 82.0035 18.6855 84.4551 9.17968 86.1562C6.15087 86.7066 3.07546 87.257 5.31729e-05 87.7573L5.33063e-05 90.8093C3.21525 90.2589 6.43045 89.7085 9.64565 89.1081C19.2447 87.357 28.3311 84.9054 37.0913 82.5039C46.4108 79.9522 55.2642 77.5507 64.4904 75.9997C109.969 68.4948 160.76 80.3024 200.321 107.52C207.59 112.523 214.533 117.577 221.243 122.43C240.162 136.189 258.055 149.197 278.744 157.753C304.279 168.26 328.37 178.216 350.83 201.231C364.063 214.79 375.2 230.3 383.867 247.261C387.269 253.865 390.251 260.669 392.814 267.624L392.814 259.869L392.86 259.869Z" fill="#FAFAFA"/>
<path d="M379.766 519.087C380.512 512.032 381.304 504.778 382.283 497.523C384.659 479.561 388.154 459.899 392.86 437.634L392.86 424.626C392.348 426.877 391.789 429.179 391.323 431.48C385.964 456.096 382.096 477.56 379.533 497.123C378.555 504.378 377.763 511.682 377.017 518.737C376.458 524.04 375.852 529.544 375.2 534.897C371.705 563.216 367.651 590.834 359.963 615.95L362.898 615.95C370.82 589.733 374.687 561.765 377.949 535.298C378.602 529.944 379.207 524.441 379.766 519.087Z" fill="#FAFAFA"/>
<path d="M361.407 528.893C361.873 524.541 362.292 520.038 362.665 515.735C363.364 507.98 364.11 499.975 365.135 492.02C367.651 472.607 371.658 451.793 377.483 428.428C379.067 421.974 380.885 415.62 382.609 409.516C385.405 399.66 388.014 390.353 389.971 380.497C391.183 374.443 392.115 368.439 392.86 362.385L392.86 306.049C392.674 304.548 392.487 303.047 392.254 301.546C389.365 281.683 383.261 262.621 374.081 244.909C365.275 227.898 353.905 212.588 340.252 199.33C318.118 177.916 294.68 169.66 269.89 160.905L266.768 159.804C245.287 152.199 227.114 138.89 207.87 124.731C201.952 120.378 195.801 115.875 189.371 111.372C149.53 83.5544 98.646 72.5973 53.2139 82.1035C44.4536 83.9546 36.2059 86.6063 27.4457 89.4081C18.6854 92.26 9.64558 95.1619 -2.26791e-05 97.1632L-2.25675e-05 99.7148L0.0465747 99.7148C9.92516 97.6635 19.1514 94.7116 28.098 91.8098C36.7651 89.0079 44.9662 86.3562 53.6332 84.5551C75.2543 80.0521 98.9256 80.2022 122.084 85.0554C145.756 90.0086 168.588 99.865 188.066 113.474C194.496 117.977 200.601 122.43 206.518 126.782C225.903 140.992 244.215 154.45 266.023 162.155L269.145 163.256C293.701 171.912 316.953 180.117 338.668 201.181C352.134 214.239 363.364 229.349 372.031 246.11C381.071 263.571 387.082 282.333 389.925 301.896C393.606 327.413 392.86 353.63 387.641 379.947C385.731 389.703 383.121 398.959 380.325 408.765C378.601 414.919 376.784 421.274 375.2 427.778C369.375 451.243 365.321 472.107 362.805 491.669C361.78 499.674 361.034 507.73 360.289 515.485C359.869 519.788 359.497 524.29 359.031 528.643C356.375 553.81 353.113 585.13 344.679 612.798C344.353 613.849 344.026 614.949 343.654 616L346.123 616C346.356 615.199 346.636 614.399 346.869 613.598C355.443 585.68 358.751 554.21 361.407 528.893Z" fill="#FAFAFA"/>
<path d="M42.2636 90.9591C34.0159 93.0605 26.2808 95.9624 18.1263 99.0144C12.2551 101.216 6.24408 103.467 6.92389e-05 105.418L6.93526e-05 108.02C6.52366 106.019 12.7677 103.667 18.8719 101.416C26.9798 98.3639 34.6683 95.5121 42.7762 93.4107C63.8847 88.0072 87.2298 87.5068 110.295 91.9598C133.827 96.5127 156.427 106.069 175.671 119.728C181.403 123.78 186.901 127.883 192.213 131.786C212.716 146.995 230.423 160.104 253.162 166.858C255.166 167.459 257.216 168.059 259.22 168.61C282.844 175.464 305.164 181.968 326.32 201.381C354.324 227.148 372.451 262.32 377.343 300.445C380.559 325.712 379.114 351.578 372.963 377.345C370.773 386.451 367.977 395.107 365.042 404.212C362.991 410.567 360.848 417.171 358.938 423.925C352.6 446.44 348.36 466.803 345.937 486.116C344.865 494.721 344.213 503.327 343.56 511.682C343.281 515.185 343.001 518.787 342.722 522.289L342.442 525.341C340.159 552.459 337.736 580.477 330.327 606.244C329.348 609.546 328.323 612.798 327.252 615.9L329.721 615.9C339.507 587.431 342.256 555.411 344.772 525.541L345.052 522.489C345.331 518.987 345.611 515.335 345.89 511.832C346.543 503.527 347.195 494.921 348.267 486.416C350.643 467.253 354.884 447.04 361.174 424.626C363.085 417.921 365.182 411.317 367.232 405.013C370.214 395.807 373.01 387.151 375.2 377.945C379.254 360.834 381.304 343.723 381.304 326.712C381.304 317.756 380.745 308.901 379.627 300.095C374.687 261.37 356.282 225.647 327.811 199.48C306.236 179.667 283.683 173.162 259.825 166.208C257.822 165.608 255.772 165.057 253.768 164.457C231.401 157.853 213.834 144.844 193.518 129.784C188.206 125.832 182.707 121.779 176.976 117.676C157.498 103.867 134.573 94.1112 110.715 89.5082C87.3696 85.0053 63.6983 85.5056 42.2636 90.9591Z" fill="#FAFAFA"/>
<path d="M31.4064 100.115C23.5781 102.467 15.9828 105.769 8.66704 108.921C5.82462 110.122 2.9356 111.372 0.0465783 112.573L0.0465784 114.725C3.21518 113.424 6.29059 112.073 9.366 110.772C17.0079 107.47 24.2305 104.368 31.919 102.016C52.5615 95.7622 75.5805 94.5615 98.5528 98.5641C121.991 102.667 144.451 112.073 163.416 125.732C168.635 129.484 173.667 133.237 178.467 136.889C199.063 152.349 216.816 165.708 240.394 171.261C243.19 171.912 246.079 172.562 248.828 173.213C271.754 178.416 293.375 183.369 314.158 201.381C342.722 226.197 360.801 260.869 364.995 298.944C367.744 323.66 365.508 349.877 358.518 374.843C356.095 383.449 353.113 391.554 349.944 400.11C347.568 406.614 345.052 413.318 342.861 420.273C336.012 441.937 331.538 461.7 329.255 480.712C328.137 489.768 327.624 498.824 327.112 507.58C326.925 510.431 326.785 513.283 326.599 516.085C326.459 518.537 326.273 521.038 326.133 523.54C324.176 554.36 322.079 587.682 310.849 616L312.9 616C323.943 587.582 326.04 554.41 327.997 523.69C328.137 521.188 328.323 518.687 328.463 516.235C328.649 513.433 328.836 510.582 328.976 507.73C329.488 498.974 330.001 489.968 331.119 481.012C333.402 462.15 337.829 442.537 344.632 420.973C346.822 414.069 349.292 407.365 351.668 400.91C354.837 392.305 357.866 384.149 360.289 375.494C365.368 357.282 367.977 338.37 367.977 319.858C367.977 312.753 367.604 305.699 366.812 298.794C362.525 260.219 344.259 225.096 315.323 199.93C294.214 181.618 272.36 176.615 249.201 171.361C246.452 170.711 243.61 170.06 240.767 169.41C217.562 163.906 199.948 150.698 179.539 135.338C174.692 131.686 169.707 127.933 164.441 124.181C145.243 110.322 122.55 100.815 98.8324 96.7128C75.6271 92.5101 52.3285 93.7609 31.4064 100.115Z" fill="#FAFAFA"/>
<path d="M20.5028 108.971C13.4666 111.472 6.61686 114.775 0.0466701 117.977L0.0466702 120.178C7.12943 116.676 13.886 113.424 21.1086 110.872C41.2385 103.717 63.9313 101.866 86.7639 105.418C110.062 109.071 132.289 118.227 151.068 131.986C155.914 135.538 160.527 139.04 165 142.442C185.55 158.103 203.303 171.611 227.627 175.964C231.075 176.565 234.616 177.165 238.018 177.715C260.338 181.368 281.447 184.82 301.903 201.581C330.886 225.446 348.873 259.468 352.367 297.493C354.651 322.009 351.668 347.876 343.794 372.242C341.137 380.397 337.969 388.052 334.614 396.107C331.865 402.661 329.069 409.416 326.553 416.47C319.283 437.084 314.484 456.847 312.34 475.159C311.222 484.565 310.849 493.971 310.523 503.077C310.43 505.328 310.337 507.53 310.244 509.731C310.104 513.333 309.964 516.936 309.824 520.588C308.566 552.759 307.215 587.732 293.935 615.95L296.031 615.95C309.032 587.582 310.383 552.709 311.642 520.688C311.781 517.036 311.921 513.383 312.061 509.831C312.154 507.63 312.247 505.378 312.34 503.177C312.713 494.121 313.039 484.765 314.158 475.459C316.301 457.247 321.008 437.684 328.23 417.221C330.7 410.216 333.496 403.512 336.245 396.958C339.507 389.203 342.815 381.147 345.518 372.892C351.715 353.63 354.93 333.467 354.93 313.754C354.93 308.2 354.697 302.747 354.185 297.293C350.597 258.768 332.377 224.196 302.881 199.98C282.052 182.919 259.732 179.266 238.158 175.714C234.756 175.164 231.261 174.563 227.813 173.963C203.909 169.66 186.342 156.302 165.979 140.791C161.506 137.389 156.893 133.887 152.046 130.335C133.081 116.426 110.575 107.17 86.9969 103.467C63.8847 99.8148 40.9123 101.716 20.5028 108.971Z" fill="#FAFAFA"/>
<path d="M9.59908 117.827C6.33728 119.127 3.16868 120.678 0.0466703 122.229L0.0466704 124.431C3.40166 122.73 6.75665 121.079 10.2514 119.678C29.8222 111.673 52.2354 109.121 74.9748 112.273C98.1336 115.475 120.174 124.431 138.673 138.19C143.193 141.542 147.526 144.894 151.72 148.146C172.176 163.957 189.79 177.565 214.766 180.617C218.773 181.118 222.827 181.518 226.742 181.918C247.664 184.02 269.331 186.171 289.508 201.781C303.767 212.838 315.416 226.447 324.036 242.207C333.076 258.718 338.388 276.83 339.833 296.042C341.65 320.358 337.969 345.825 329.209 369.69C326.32 377.445 322.965 384.7 319.377 392.355C316.301 398.909 313.179 405.663 310.383 412.718C302.555 432.581 297.569 451.743 295.565 469.705C294.447 479.361 294.307 489.068 294.121 498.424C294.074 500.125 294.074 501.776 294.028 503.427C293.935 507.88 293.888 512.283 293.841 516.936C293.422 550.858 292.956 588.082 276.507 615.95L278.744 615.95C294.82 587.832 295.286 550.758 295.705 516.986C295.752 512.333 295.798 507.88 295.892 503.477C295.938 501.826 295.938 500.125 295.985 498.424C296.171 489.118 296.311 479.461 297.429 469.905C299.433 452.144 304.372 433.131 312.107 413.468C314.857 406.464 318.025 399.71 321.054 393.205C324.502 385.851 328.044 378.246 330.933 370.391C338.342 350.277 342.163 329.014 342.163 308.25C342.163 304.097 342.023 299.945 341.697 295.842C340.252 276.329 334.847 257.968 325.667 241.157C316.907 225.146 305.118 211.337 290.626 200.13C270.03 184.22 248.13 182.018 226.928 179.917C223.014 179.517 218.96 179.116 214.999 178.616C190.536 175.614 173.062 162.105 152.839 146.495C148.645 143.243 144.311 139.941 139.791 136.539C121.059 122.63 98.7393 113.524 75.2544 110.272C52.1422 107.12 29.4494 109.721 9.59908 117.827Z" fill="#FAFAFA"/>
<path d="M0.0466705 126.382L0.0466706 128.033C18.9651 119.378 40.7725 116.225 63.1857 118.877C86.2513 121.629 108.105 130.385 126.418 144.194C130.705 147.446 134.805 150.648 138.766 153.75C158.989 169.61 176.463 183.319 201.952 185.02C206.379 185.32 210.899 185.47 215.279 185.621C235.921 186.371 257.216 187.121 277.299 201.731C291.791 212.288 303.534 225.496 312.154 241.107C321.194 257.417 326.32 275.379 327.438 294.491C328.836 318.657 324.409 343.773 314.67 367.138C311.548 374.593 307.821 381.798 304.186 388.752C300.831 395.207 297.336 401.911 294.261 408.966C285.92 428.078 280.748 446.64 278.884 464.151C277.998 472.157 277.859 480.162 277.859 487.967C277.859 489.818 277.859 491.669 277.859 493.47C277.859 494.671 277.859 495.872 277.859 497.073C277.859 502.126 277.952 507.229 278.045 512.633C278.604 548.906 279.256 589.032 257.775 615.9L259.639 615.9C280.608 588.682 280.002 548.706 279.443 512.583C279.35 507.179 279.256 502.076 279.256 497.023C279.256 495.822 279.256 494.621 279.256 493.42C279.21 483.914 279.163 474.058 280.235 464.251C282.099 446.89 287.225 428.478 295.519 409.516C298.548 402.511 302.042 395.857 305.397 389.403C309.032 382.398 312.806 375.194 315.928 367.639C324.549 346.875 329.069 324.761 329.069 303.097C329.069 300.145 328.976 297.193 328.836 294.291C327.717 274.928 322.545 256.717 313.366 240.206C304.605 224.446 292.723 211.037 278.092 200.38C257.682 185.57 236.154 184.77 215.325 184.019C210.945 183.869 206.425 183.719 202.045 183.419C176.976 181.768 160.48 168.81 139.605 152.449C135.644 149.347 131.544 146.145 127.257 142.893C108.758 128.934 86.7173 120.078 63.4187 117.326C40.9123 114.725 19.0583 117.827 0.0466705 126.382Z" fill="#FAFAFA"/>
<path d="M0.0465791 130.435L0.0465792 132.036C15.843 126.132 33.3635 123.981 51.3966 125.832C74.2758 128.133 95.9434 136.689 114.023 150.498C118.03 153.6 121.851 156.652 125.533 159.604C146.455 176.315 162.95 189.523 189.044 189.773C193.844 189.823 198.737 189.673 203.49 189.573C223.852 189.023 244.914 188.423 264.905 202.031C295.146 222.695 313.365 255.916 314.81 293.14C315.742 317.156 310.616 341.872 299.946 364.637C296.591 371.791 292.63 378.646 288.762 385.3C285.081 391.654 281.26 398.259 277.905 405.263C269.052 423.675 263.646 441.687 261.922 458.748C261.363 464.151 261.177 469.605 261.177 474.958C261.177 479.561 261.317 484.114 261.456 488.617L261.503 490.869C261.643 496.422 261.922 502.026 262.202 507.98C264.019 547.405 266.023 591.534 236.014 616L238.298 616C267.374 590.934 265.371 547.055 263.553 507.88C263.274 501.926 263.041 496.322 262.854 490.769L262.808 488.517C262.528 478.811 262.248 468.804 263.274 458.848C264.998 441.937 270.356 424.125 279.117 405.864C282.472 398.909 286.246 392.355 289.927 386.001C293.795 379.346 297.802 372.392 301.157 365.187C311.082 343.973 316.255 321.059 316.255 298.544C316.255 296.693 316.208 294.792 316.161 292.94C314.717 255.166 296.264 221.544 265.65 200.58C245.334 186.721 224.039 187.322 203.443 187.922C198.69 188.072 193.797 188.172 189.044 188.122C163.369 187.872 147.014 174.814 126.325 158.253C122.644 155.301 118.823 152.249 114.769 149.147C96.5026 135.188 74.6019 126.582 51.4432 124.231C33.4567 122.48 15.8896 124.581 0.0465791 130.435Z" fill="#FAFAFA"/>
<path d="M0.0465793 134.938L0.0465794 136.489C33.5033 126.883 72.5051 134.037 101.628 156.702C105.496 159.754 109.177 162.706 112.765 165.608C133.361 182.369 149.623 195.577 176.23 194.376C181.309 194.126 186.575 193.676 191.654 193.176C211.83 191.324 232.706 189.373 252.603 202.081C283.357 221.744 301.483 254.365 302.229 291.589C302.741 315.455 296.87 339.771 285.267 361.985C281.679 368.89 277.486 375.444 273.385 381.848C269.378 388.102 265.277 394.556 261.643 401.411C252.23 419.122 246.638 436.533 245.054 453.194C244.635 457.347 244.495 461.45 244.495 465.602C244.495 471.656 244.821 477.66 245.147 483.514L245.194 484.565C245.52 490.418 245.986 496.472 246.499 502.827C249.76 545.054 253.535 592.985 212.762 613.198C210.852 614.149 208.941 615.049 206.984 616L210.432 616C211.411 615.55 212.39 615.049 213.322 614.599C231.914 605.393 243.05 589.683 247.431 566.618C251.252 546.555 249.481 524.24 247.803 502.676C247.291 496.322 246.825 490.318 246.499 484.415L246.452 483.364C245.939 473.558 245.38 463.401 246.359 453.294C247.943 436.884 253.488 419.673 262.808 402.111C266.442 395.307 270.543 388.853 274.503 382.649C278.604 376.244 282.798 369.64 286.432 362.686C297.662 341.122 303.58 317.506 303.58 294.291C303.58 293.391 303.58 292.44 303.533 291.539C302.788 253.815 284.429 220.743 253.209 200.78C232.892 187.822 211.83 189.773 191.421 191.675C186.342 192.125 181.123 192.625 176.044 192.875C149.949 194.026 133.873 180.968 113.464 164.407C109.923 161.505 106.195 158.503 102.327 155.451C73.0642 132.636 33.7829 125.381 0.0465793 134.938Z" fill="#FAFAFA"/>
<path d="M0.0466711 140.992L0.0466712 141.992C10.1582 139.541 20.7824 138.59 31.5463 139.241C53.8663 140.641 75.7669 148.947 93.1477 162.656C96.922 165.658 100.51 168.61 103.958 171.461C124.181 188.172 140.211 201.381 167.097 198.729C172.456 198.179 178.001 197.328 183.36 196.478C203.443 193.326 224.179 190.124 244.122 201.981C259.033 210.887 271.428 223.345 279.909 238.005C288.949 253.615 293.562 271.076 293.608 289.988L293.608 290.189C293.608 313.854 287.038 337.769 274.55 359.383C270.683 366.038 266.256 372.392 261.969 378.496C257.682 384.6 253.255 390.854 249.341 397.608C239.416 414.619 233.638 431.38 232.147 447.541C231.821 450.793 231.727 454.045 231.727 457.297C231.727 464.302 232.287 471.256 232.846 478.01C233.358 484.114 234.057 490.418 234.803 497.073C237.133 517.936 239.556 539.45 236.341 558.663C232.706 580.527 222.128 595.136 204.002 603.342C201.206 604.593 198.317 605.843 195.521 607.044C189.324 609.696 182.987 612.398 176.929 615.75L178.98 615.75C184.478 612.798 190.209 610.346 195.848 607.945C198.644 606.744 201.533 605.543 204.328 604.242C222.734 595.887 233.498 581.027 237.226 558.813C240.441 539.45 238.018 517.836 235.688 496.923C234.943 490.268 234.244 483.964 233.731 477.86C232.939 467.954 232.054 457.747 233.032 447.541C234.523 431.53 240.255 414.919 250.087 398.059C254.001 391.354 258.381 385.1 262.668 378.996C267.001 372.842 271.428 366.488 275.296 359.784C287.877 338.02 294.494 313.904 294.494 290.038L294.494 289.838C294.447 270.726 289.834 253.064 280.654 237.304C272.034 222.445 259.546 209.886 244.495 200.931C224.272 188.873 203.35 192.125 183.127 195.277C177.768 196.127 172.27 196.978 166.911 197.528C140.351 200.18 124.508 187.072 104.424 170.461C100.976 167.609 97.388 164.657 93.6136 161.655C76.0931 147.796 54.0061 139.441 31.5463 138.04C20.829 137.589 10.1582 138.54 0.0466711 140.992Z" fill="#FAFAFA"/>
<path d="M0.0466714 147.546L0.0466715 148.547C29.6358 141.842 62.6732 148.797 87.7424 168.91C91.4236 171.912 94.9184 174.814 98.2734 177.665C118.17 194.426 133.92 207.635 161.226 203.432C166.818 202.582 172.596 201.281 178.187 200.08C198.131 195.727 218.773 191.174 238.764 202.231C253.861 210.637 266.349 222.695 274.876 237.154C283.916 252.514 288.343 269.825 288.017 288.637C287.551 318.357 276.228 342.172 266.862 356.932C262.761 363.386 258.055 369.49 253.488 375.394C248.922 381.298 244.215 387.402 240.022 393.956C229.584 410.266 223.62 426.477 222.222 442.137C221.989 444.739 221.895 447.34 221.895 449.942C221.895 457.747 222.734 465.402 223.48 471.856C224.179 478.06 225.157 484.565 226.136 491.469C228.978 510.782 232.24 532.696 229.584 551.258C226.555 572.422 216.35 586.331 198.317 593.685C195.568 594.786 192.772 595.887 190.023 596.938C180.238 600.69 170.08 604.543 161.366 611.347C159.595 612.748 157.871 614.299 156.194 615.95L157.591 615.95C158.989 614.599 160.434 613.348 161.925 612.147C170.545 605.393 180.61 601.591 190.349 597.838C193.098 596.788 195.894 595.737 198.644 594.586C217.003 587.081 227.441 572.922 230.516 551.358C233.172 532.596 229.957 510.632 227.068 491.219C226.043 484.314 225.111 477.86 224.412 471.656C223.433 463.101 222.268 452.444 223.154 442.187C224.505 426.677 230.423 410.617 240.767 394.456C244.961 387.952 249.621 381.848 254.187 375.944C258.754 370.04 263.46 363.936 267.607 357.432C281.167 336.118 288.576 312.303 288.949 288.587C288.949 287.887 288.949 287.187 288.949 286.486C288.949 268.274 284.475 251.513 275.669 236.554C267.048 221.944 254.42 209.736 239.183 201.281C218.913 190.023 198.131 194.626 178.001 199.029C172.409 200.23 166.631 201.531 161.086 202.381C134.2 206.534 118.59 193.426 98.8791 176.815C95.5241 173.963 92.0293 171.061 88.3016 168.059C63.0459 147.896 29.8222 140.842 0.0466714 147.546Z" fill="#FAFAFA"/>
<path d="M0.0466717 154.25L0.0466717 154.751C7.12943 153.25 14.4918 152.599 21.9473 152.749C44.0343 153.2 65.5156 161.105 82.4769 174.914C86.1115 177.866 89.5131 180.817 92.8215 183.619C112.346 200.33 127.769 213.539 155.308 207.785C161.086 206.584 166.818 204.983 172.875 203.232C192.772 197.628 213.368 191.775 233.498 202.131C265.604 218.642 283.963 250.463 282.611 287.136C281.586 316.656 269.378 340.071 259.313 354.48C254.933 360.734 249.993 366.588 245.194 372.242C240.348 377.995 235.362 383.899 230.889 390.303C219.938 405.864 213.788 421.474 212.529 436.634C212.343 438.735 212.296 440.786 212.296 442.888C212.296 450.342 213.275 457.847 214.347 465.452C215.232 471.706 216.49 478.311 217.795 485.315C221.29 504.127 225.25 525.491 223.154 543.553C220.777 564.166 210.852 577.425 192.772 584.029C190.07 585.03 187.274 585.93 184.618 586.881C174.879 590.133 164.861 593.535 156.333 600.09C151.068 604.142 146.455 609.396 142.447 615.9L143.007 615.9C146.967 609.596 151.487 604.442 156.613 600.49C165.047 593.986 175.065 590.583 184.758 587.331C187.46 586.431 190.256 585.48 192.959 584.479C211.225 577.775 221.243 564.416 223.666 543.553C225.763 525.441 221.802 504.027 218.307 485.165C217.003 478.16 215.791 471.556 214.906 465.302C213.508 455.596 212.296 446.09 213.089 436.583C214.3 421.524 220.451 406.014 231.355 390.504C235.828 384.149 240.814 378.246 245.613 372.492C250.413 366.788 255.352 360.934 259.732 354.68C269.844 340.221 282.099 316.756 283.124 287.086C283.171 285.786 283.217 284.535 283.217 283.234C283.217 247.961 264.951 217.641 233.778 201.631C213.508 191.224 192.865 197.078 172.829 202.682C166.771 204.383 161.04 206.034 155.262 207.235C142.68 209.836 131.916 208.736 121.386 203.682C111.74 199.079 103.119 191.674 93.1477 183.169C89.8393 180.367 86.4377 177.415 82.8031 174.463C65.7486 160.554 44.1741 152.649 21.9939 152.149C14.4918 152.099 7.12943 152.799 0.0466717 154.25Z" fill="#FAFAFA"/>
<path d="M0.046672 160.804L0.046672 161.355C5.91791 160.204 11.9289 159.604 18.0332 159.604C39.9804 159.604 61.2753 167.259 78.0036 181.168C81.5916 184.12 84.9 187.071 88.1618 189.873C108.105 207.235 122.504 219.743 150.369 212.488C156.287 210.937 162.251 208.886 168.495 206.734C188.346 199.88 208.895 192.775 229.071 202.381C244.588 209.736 257.309 221.094 265.837 235.103C274.783 249.812 278.977 267.324 277.905 285.736C276.647 308.7 267.607 332.216 252.51 351.979C247.803 358.083 242.585 363.786 237.505 369.29C232.426 374.793 227.208 380.497 222.501 386.601C211.038 401.461 204.655 416.47 203.536 431.18C203.396 432.881 203.35 434.532 203.35 436.233C203.35 444.088 204.608 451.843 205.913 459.198C207.031 465.402 208.522 472.057 210.106 479.111C214.254 497.473 218.913 518.287 217.422 535.798C215.698 555.861 206.099 568.419 188.019 574.223C185.363 575.073 182.568 575.874 179.911 576.674C170.266 579.476 160.294 582.378 152.046 588.682C144.172 594.686 137.881 603.842 133.268 615.9L133.78 615.9C138.347 603.992 144.591 594.986 152.326 589.082C160.527 582.828 170.452 579.927 180.051 577.125C182.707 576.324 185.503 575.524 188.159 574.673C206.379 568.769 216.117 556.061 217.888 535.798C219.426 518.186 214.72 497.323 210.572 478.911C208.988 471.856 207.497 465.202 206.379 458.998C204.794 450.092 203.303 440.586 204.002 431.13C205.074 416.52 211.411 401.611 222.827 386.801C227.534 380.697 232.753 374.993 237.832 369.54C242.911 364.036 248.13 358.333 252.836 352.229C268.027 332.416 277.066 308.8 278.371 285.736C278.464 283.884 278.511 282.033 278.511 280.232C278.511 263.721 274.317 248.111 266.209 234.802C257.635 220.693 244.821 209.286 229.211 201.881C208.848 192.225 188.252 199.329 168.309 206.234C162.018 208.385 156.1 210.437 150.183 211.988C122.55 219.192 108.245 206.734 88.3948 189.473C85.1796 186.671 81.8246 183.719 78.2366 180.767C55.9166 162.205 26.7934 155.551 0.046672 160.804Z" fill="#FAFAFA"/>
<path d="M13.6529 166.008C9.03982 166.108 4.4733 166.558 -1.96107e-05 167.359L-1.95889e-05 167.859C4.4733 167.059 9.03982 166.608 13.6529 166.508C35.4138 166.058 56.5223 173.513 73.0642 187.422C76.559 190.374 79.8674 193.326 83.036 196.127C102.607 213.489 116.772 225.997 144.917 217.191C151.021 215.29 157.125 212.788 163.556 210.137C183.36 202.031 203.862 193.676 224.132 202.532C239.835 209.386 252.649 220.343 261.223 234.152C270.17 248.612 274.131 265.923 272.779 284.285C271.055 307.2 261.27 330.315 245.24 349.427C240.208 355.381 234.663 360.934 229.304 366.288C224.039 371.541 218.587 376.995 213.648 382.799C201.672 397.008 195.055 411.417 194.123 425.676C194.03 427.027 193.984 428.328 193.984 429.679C193.984 437.834 195.568 445.84 197.059 452.894C198.364 458.998 200.135 465.652 201.998 472.657C208.895 498.474 216.676 527.743 206.472 546.905C201.859 555.561 194.17 561.264 182.847 564.417C180.191 565.167 177.395 565.817 174.739 566.518C165.187 568.869 155.355 571.271 147.293 577.325C137.182 584.93 130.192 597.938 126.465 616L126.93 616C130.612 598.138 137.555 585.28 147.526 577.725C155.541 571.721 165.327 569.32 174.832 566.968C177.488 566.318 180.284 565.617 182.94 564.867C194.217 561.715 202.278 555.761 206.845 547.105C217.142 527.793 209.314 498.374 202.418 472.457C200.554 465.452 198.783 458.798 197.478 452.694C195.708 444.539 193.891 435.033 194.543 425.626C195.521 411.467 202.045 397.158 213.974 383.049C218.913 377.245 224.318 371.791 229.584 366.538C234.989 361.185 240.534 355.631 245.567 349.627C261.643 330.465 271.475 307.25 273.199 284.235C273.385 281.833 273.478 279.482 273.478 277.13C273.478 261.32 269.424 246.46 261.596 233.752C253.022 219.843 240.115 208.886 224.318 201.981C203.862 193.075 183.313 201.431 163.369 209.536C156.939 212.188 150.835 214.639 144.777 216.541C116.866 225.296 102.793 212.838 83.3156 195.577C80.147 192.775 76.8386 189.873 73.3438 186.871C56.7552 173.012 35.5536 165.558 13.6529 166.008Z" fill="#FAFAFA"/>
<path d="M229.537 0.0498962C243.983 4.85301 258.241 10.4066 272.267 16.7607C316.394 36.7737 356.841 63.8413 392.86 97.4631L392.86 94.8114C356.98 61.5898 316.767 34.8224 272.966 14.9095C260.711 9.35591 248.269 4.40273 235.735 -0.000129971L229.537 -0.0001297L229.537 0.0498962Z" fill="#FAFAFA"/>
<path d="M264.718 0.0500717C268.772 1.75117 272.78 3.50231 276.787 5.30348C318.957 24.4659 357.866 49.8824 392.86 81.1527L392.86 79.2014C357.959 48.2313 319.237 22.965 277.299 3.95263C274.364 2.60175 271.428 1.35091 268.493 0.100097L264.718 0.100098L264.718 0.0500717Z" fill="#FAFAFA"/>
<path d="M294.54 0.0500031C329.768 17.4113 362.665 39.1254 392.86 64.9922L392.86 63.0909C363.597 38.1748 331.865 17.061 297.895 0.0500029L294.54 0.0500031Z" fill="#FAFAFA"/>
<path d="M322.219 0.0502281C347.055 13.9593 370.633 30.1197 392.86 48.3816L392.86 47.1308C371.239 29.4193 348.313 13.6591 324.223 0.050228L322.219 0.0502281Z" fill="#FAFAFA"/>
<path d="M322.219 0.0502281C347.055 13.9593 370.633 30.1197 392.86 48.3816L392.86 47.1308C371.239 29.4193 348.313 13.6591 324.223 0.050228L322.219 0.0502281Z" fill="#FAFAFA"/>
<path d="M347.521 0.0499821C357.213 6.10391 366.766 12.5081 376.085 19.2625C381.77 23.3651 387.362 27.6179 392.907 32.0207L392.907 30.7699C387.548 26.5172 382.096 22.4145 376.598 18.4119C367.698 11.9577 358.658 5.85375 349.385 0.049982L347.521 0.0499821Z" fill="#FAFAFA"/>
<path d="M371.612 0.0502081C375.433 2.70193 379.254 5.35364 383.028 8.10543C386.336 10.507 389.598 12.9085 392.813 15.4102L392.813 14.2094C389.738 11.8579 386.663 9.55638 383.541 7.30492C380.186 4.85333 376.737 2.45175 373.336 0.100228L371.612 0.100228L371.612 0.0502081Z" fill="#FAFAFA"/>
</g>
</g>
<defs>
<linearGradient id="paint0_linear_322_11003" x1="0" y1="0" x2="428.594" y2="25.8497" gradientUnits="userSpaceOnUse">
<stop stop-color="#F0F2F7"/>
<stop offset="1" stop-color="#F5EFEC"/>
</linearGradient>
</defs>
</svg>
