<svg width="20" height="18" viewBox="0 0 20 18" fill="none" xmlns="http://www.w3.org/2000/svg">
<path d="M7 5C7 6.65685 8.34315 8 10 8C11.6569 8 13 6.65685 13 5M19 4.19995V13.8C19 14.9201 19.0002 15.4802 18.7822 15.908C18.5905 16.2844 18.2841 16.5902 17.9078 16.782C17.48 17 16.9203 17 15.8002 17H4.2002C3.08009 17 2.51962 17 2.0918 16.782C1.71547 16.5902 1.40973 16.2844 1.21799 15.908C1 15.4802 1 14.9201 1 13.8V4.19995C1 3.07985 1 2.51986 1.21799 2.09204C1.40973 1.71572 1.71547 1.40973 2.0918 1.21799C2.51962 1 3.08009 1 4.2002 1H15.8002C16.9203 1 17.48 1 17.9078 1.21799C18.2841 1.40973 18.5905 1.71572 18.7822 2.09204C19.0002 2.51986 19 3.07985 19 4.19995Z" stroke="black" stroke-width="1.5" stroke-linecap="round" stroke-linejoin="round"/>
</svg>
