<svg width="43" height="34" viewBox="0 0 43 34" fill="none" xmlns="http://www.w3.org/2000/svg">
<path d="M20.4167 23.4286C18.6217 23.4286 17.1667 21.9895 17.1667 20.2143C17.1667 18.4391 18.6217 17 20.4167 17M41 8.85704V25.1428C41 27.543 41.0005 28.7433 40.5282 29.6601C40.1127 30.4665 39.4489 31.1219 38.6335 31.5328C37.7066 31.9999 36.494 32 34.0671 32H8.93376C6.50686 32 5.29251 31.9999 4.36556 31.5328C3.55019 31.1219 2.88776 30.4665 2.47231 29.6601C2 28.7433 2 27.543 2 25.1428V8.85704C2 6.45681 2 5.25685 2.47231 4.34009C2.88776 3.53368 3.55019 2.878 4.36556 2.46711C5.29251 2 6.50686 2 8.93376 2H34.0671C36.494 2 37.7066 2 38.6335 2.46711C39.4489 2.878 40.1127 3.53368 40.5282 4.34009C41.0005 5.25685 41 6.45681 41 8.85704ZM32.3333 20.2143C32.3333 21.9895 30.8783 23.4286 29.0833 23.4286C27.2884 23.4286 25.8333 21.9895 25.8333 20.2143C25.8333 18.4391 27.2884 17 29.0833 17C30.8783 17 32.3333 18.4391 32.3333 20.2143Z" stroke="black" stroke-width="3" stroke-linecap="round" stroke-linejoin="round"/>
</svg>
