<svg width="51" height="46" viewBox="0 0 51 46" fill="none" xmlns="http://www.w3.org/2000/svg">
<path d="M23 18.5C23 22.0208 25.9101 24.875 29.5 24.875C33.0899 24.875 36 22.0208 36 18.5M49 16.7999V37.1999C49 39.5801 49.0005 40.7704 48.5282 41.6796C48.1127 42.4793 47.4489 43.1293 46.6335 43.5367C45.7066 43.9999 44.494 44 42.0671 44H16.9338C14.5069 44 13.2925 43.9999 12.3656 43.5367C11.5502 43.1293 10.8878 42.4793 10.4723 41.6796C10 40.7704 10 39.5801 10 37.1999V16.7999C10 14.4197 10 13.2297 10.4723 12.3206C10.8878 11.5209 11.5502 10.8707 12.3656 10.4632C13.2925 10 14.5069 10 16.9338 10H42.0671C44.494 10 45.7066 10 46.6335 10.4632C47.4489 10.8707 48.1127 11.5209 48.5282 12.3206C49.0005 13.2297 49 14.4197 49 16.7999Z" stroke="black" stroke-width="3" stroke-linecap="round" stroke-linejoin="round"/>
<circle cx="10" cy="10" r="10" fill="#E85252"/>
<path d="M14 14L6 6M14 6L6 14" stroke="white" stroke-width="2" stroke-linecap="round" stroke-linejoin="round"/>
</svg>
