<svg width="37" height="36" viewBox="0 0 37 36" fill="none" xmlns="http://www.w3.org/2000/svg">
<path d="M34.9009 35.9425C35.9963 35.9425 36.8845 35.0542 36.8845 33.9588V1.98388C36.8845 0.888073 35.9963 6.86646e-05 34.9009 6.86646e-05H2.92605C1.83025 6.86646e-05 0.942383 0.888073 0.942383 1.98388V33.9588C0.942383 35.0542 1.83025 35.9425 2.92605 35.9425H34.9009Z" fill="#3B5998"/>
<path d="M25.7425 35.9425V22.0238H30.4146L31.114 16.5993H25.7425V13.1361C25.7425 11.5656 26.1786 10.4953 28.4308 10.4953L31.3032 10.494V5.64242C30.8063 5.57643 29.1013 5.4287 27.1176 5.4287C22.9761 5.4287 20.1409 7.95657 20.1409 12.599V16.5993H15.457V22.0238H20.1409V35.9425H25.7425Z" fill="white"/>
</svg>
