<svg width="27" height="33" viewBox="0 0 27 33" fill="none" xmlns="http://www.w3.org/2000/svg">
<path d="M2 13.3132C2 21.2417 8.97309 27.7982 12.0596 30.312L12.0608 30.313C12.5033 30.6734 12.7247 30.8537 13.0546 30.9461C13.3112 31.018 13.6886 31.018 13.9452 30.9461C14.2754 30.8536 14.4974 30.6731 14.9407 30.312C18.0272 27.7982 25 21.2417 25 13.3132C25 10.3127 23.7885 7.43519 21.6318 5.31356C19.4751 3.19192 16.5501 2 13.5001 2C10.4501 2 7.52496 3.1919 5.36828 5.31354C3.21161 7.43517 2 10.3128 2 13.3132Z" stroke="black" stroke-width="3" stroke-linecap="round" stroke-linejoin="round"/>
</svg>
