<svg width="36" height="36" viewBox="0 0 36 36" fill="none" xmlns="http://www.w3.org/2000/svg">
<path d="M35.2241 18.3797C35.2241 17.1053 35.1097 15.88 34.8973 14.7037H17.9717V21.6635H27.6435C27.2187 23.9017 25.9444 25.7969 24.0329 27.0712V31.5967H29.8654C33.2636 28.4599 35.2241 23.8527 35.2241 18.3797Z" fill="#4285F4"/>
<path d="M17.9711 35.9424C22.8234 35.9424 26.8914 34.3413 29.8648 31.5966L24.0323 27.0712C22.4313 28.1494 20.3891 28.8029 17.9711 28.8029C13.2986 28.8029 9.32861 25.6498 7.90725 21.4021H1.92773V26.0419C4.88482 31.9071 10.946 35.9424 17.9711 35.9424Z" fill="#34A853"/>
<path d="M7.90734 21.3859C7.54791 20.3076 7.33553 19.164 7.33553 17.9713C7.33553 16.7787 7.54791 15.6351 7.90734 14.5568V9.91695H1.92782C0.702511 12.3349 0 15.0633 0 17.9713C0 20.8794 0.702511 23.6078 1.92782 26.0257L6.584 22.3988L7.90734 21.3859Z" fill="#FBBC05"/>
<path d="M17.9711 7.15581C20.6178 7.15581 22.9704 8.07071 24.8492 9.83516L29.9955 4.68886C26.8751 1.78078 22.8234 0 17.9711 0C10.946 0 4.88482 4.03536 1.92773 9.91685L7.90725 14.5567C9.32861 10.3089 13.2986 7.15581 17.9711 7.15581Z" fill="#EA4335"/>
</svg>
