<svg width="49" height="34" viewBox="0 0 49 34" fill="none" xmlns="http://www.w3.org/2000/svg">
<path d="M2.54497 4.7301L3.88148 5.41109L2.54497 4.7301ZM4.72949 2.54497L5.41048 3.88148L4.72949 2.54497ZM4.72949 31.455L5.41048 30.1184L4.72949 31.455ZM2.54497 29.2701L1.20846 29.9511L2.54497 29.2701ZM46.4556 29.2701L45.1191 28.5891L46.4556 29.2701ZM44.2695 31.455L43.5885 30.1184L44.2695 31.455ZM46.4556 4.7301L45.1191 5.41109L46.4556 4.7301ZM44.2695 2.54497L44.9505 1.20846L44.2695 2.54497ZM23 32C23 32.8284 23.6716 33.5 24.5 33.5C25.3284 33.5 26 32.8284 26 32H23ZM8 32C8 32.8284 8.67157 33.5 9.5 33.5C10.3284 33.5 11 32.8284 11 32H8ZM39.5 23.5C40.3284 23.5 41 22.8284 41 22C41 21.1716 40.3284 20.5 39.5 20.5V23.5ZM29.5 20.5C28.6716 20.5 28 21.1716 28 22C28 22.8284 28.6716 23.5 29.5 23.5V20.5ZM39.5 16C40.3284 16 41 15.3284 41 14.5C41 13.6716 40.3284 13 39.5 13V16ZM32 13C31.1716 13 30.5 13.6716 30.5 14.5C30.5 15.3284 31.1716 16 32 16V13ZM17 18C15.067 18 13.5 16.433 13.5 14.5H10.5C10.5 18.0899 13.4101 21 17 21V18ZM13.5 14.5C13.5 12.567 15.067 11 17 11V8C13.4101 8 10.5 10.9101 10.5 14.5H13.5ZM17 11C18.933 11 20.5 12.567 20.5 14.5H23.5C23.5 10.9101 20.5899 8 17 8V11ZM20.5 14.5C20.5 16.433 18.933 18 17 18V21C20.5899 21 23.5 18.0899 23.5 14.5H20.5ZM45.5 9.99988V23.9999H48.5V9.99988H45.5ZM39.0005 30.5H10.0005V33.5H39.0005V30.5ZM3.5 23.9999V9.99988H0.5V23.9999H3.5ZM10.0005 3.5H39.0005V0.5H10.0005V3.5ZM3.5 9.99988C3.5 8.57499 3.50117 7.59659 3.56314 6.83813C3.62368 6.0972 3.73469 5.69918 3.88148 5.41109L1.20846 4.04912C0.810281 4.83058 0.648805 5.66732 0.573103 6.59382C0.498833 7.50279 0.5 8.6245 0.5 9.99988H3.5ZM10.0005 0.5C8.62509 0.5 7.50311 0.498834 6.59387 0.573099C5.66721 0.648787 4.83008 0.810228 4.04851 1.20846L5.41048 3.88148C5.69847 3.73474 6.0967 3.6237 6.83809 3.56314C7.59688 3.50117 8.57562 3.5 10.0005 3.5V0.5ZM3.88148 5.41109C4.21723 4.75213 4.7523 4.21684 5.41048 3.88148L4.04851 1.20846C2.82507 1.83183 1.83144 2.82645 1.20846 4.04912L3.88148 5.41109ZM10.0005 30.5C8.57564 30.5 7.5969 30.4988 6.83812 30.4368C6.09675 30.3763 5.69849 30.2652 5.41048 30.1184L4.04851 32.7915C4.83005 33.1897 5.66716 33.3512 6.59383 33.4269C7.50309 33.5011 8.62507 33.5 10.0005 33.5V30.5ZM0.5 23.9999C0.5 25.3753 0.498834 26.4971 0.573102 27.4061C0.648799 28.3327 0.810263 29.1696 1.20846 29.9511L3.88148 28.5891C3.7347 28.301 3.62368 27.9029 3.56314 27.1619C3.50117 26.4033 3.5 25.4248 3.5 23.9999H0.5ZM5.41048 30.1184C4.75214 29.783 4.21715 29.2479 3.88148 28.5891L1.20846 29.9511C1.83152 31.1739 2.82523 32.1682 4.04851 32.7915L5.41048 30.1184ZM45.5 23.9999C45.5 25.4249 45.499 26.4034 45.4371 27.1621C45.3767 27.9033 45.2657 28.3012 45.1191 28.5891L47.7921 29.9511C48.1904 29.1694 48.3516 28.3324 48.4272 27.4059C48.5013 26.4969 48.5 25.3751 48.5 23.9999H45.5ZM39.0005 33.5C40.3759 33.5 41.4974 33.5011 42.4062 33.4269C43.3326 33.3511 44.1691 33.1896 44.9505 32.7915L43.5885 30.1184C43.3003 30.2653 42.9024 30.3763 42.1618 30.4368C41.4035 30.4988 40.4254 30.5 39.0005 30.5V33.5ZM45.1191 28.5891C44.7839 29.2469 44.2478 29.7825 43.5885 30.1184L44.9505 32.7915C46.1727 32.1687 47.1685 31.1749 47.7921 29.9511L45.1191 28.5891ZM48.5 9.99988C48.5 8.62465 48.5013 7.50293 48.4272 6.59406C48.3516 5.66764 48.1903 4.83075 47.7921 4.04912L45.1191 5.41109C45.2658 5.69901 45.3767 6.09688 45.4371 6.83789C45.499 7.59645 45.5 8.57484 45.5 9.99988H48.5ZM39.0005 3.5C40.4254 3.5 41.4036 3.50117 42.1618 3.56314C42.9025 3.62367 43.3003 3.73465 43.5885 3.88148L44.9505 1.20846C44.1691 0.810315 43.3326 0.648817 42.4062 0.573105C41.4974 0.498833 40.3759 0.5 39.0005 0.5V3.5ZM47.7921 4.04912C47.1686 2.82545 46.1729 1.83132 44.9505 1.20846L43.5885 3.88148C44.2477 4.21735 44.7838 4.75313 45.1191 5.41109L47.7921 4.04912ZM26 32C26 29.9617 24.7608 28.3 23.1354 27.2164C21.4995 26.1258 19.3259 25.5 17 25.5V28.5C18.8162 28.5 20.3927 28.9935 21.4713 29.7125C22.5603 30.4386 23 31.2769 23 32H26ZM17 25.5C14.6741 25.5 12.5005 26.1258 10.8646 27.2164C9.23924 28.3 8 29.9617 8 32H11C11 31.2769 11.4397 30.4386 12.5287 29.7125C13.6073 28.9935 15.1838 28.5 17 28.5V25.5ZM39.5 20.5L29.5 20.5V23.5L39.5 23.5V20.5ZM39.5 13L32 13V16L39.5 16V13Z" fill="black"/>
</svg>
