<svg width="22" height="18" viewBox="0 0 22 18" fill="none" xmlns="http://www.w3.org/2000/svg">
<path d="M2.11111 2.14286L11.254 9L19.8888 2.14286M21 4.65709V13.3428C21 14.6229 21.0002 15.2631 20.758 15.752C20.545 16.1821 20.2046 16.5317 19.7864 16.7508C19.3111 17 18.6892 17 17.4447 17H4.55577C3.31121 17 2.68847 17 2.21311 16.7508C1.79497 16.5317 1.45526 16.1821 1.24221 15.752C1 15.2631 1 14.6229 1 13.3428V4.65709C1 3.37697 1 2.73699 1.24221 2.24805C1.45526 1.81796 1.79497 1.46827 2.21311 1.24913C2.68847 1 3.31121 1 4.55577 1H17.4447C18.6892 1 19.3111 1 19.7864 1.24913C20.2046 1.46827 20.545 1.81796 20.758 2.24805C21.0002 2.73699 21 3.37697 21 4.65709Z" stroke="black" stroke-width="2" stroke-linecap="round" stroke-linejoin="round"/>
</svg>
