<svg width="37" height="34" viewBox="0 0 37 34" fill="none" xmlns="http://www.w3.org/2000/svg">
<path d="M35 21.1495V7.67387V7.66803C35 5.68585 35 4.69415 34.6007 3.93631C34.2492 3.26905 33.6875 2.7265 32.9976 2.38652C32.2133 2 31.1872 2 29.1337 2H7.86702C5.8135 2 4.78597 2 4.00163 2.38652C3.3117 2.7265 2.75118 3.26905 2.39964 3.93631C2 4.69489 2 5.6878 2 7.67387V28.0133C2 29.9029 2 30.8478 2.4005 31.333C2.74882 31.7551 3.2768 32.0006 3.83512 32C4.47711 31.9993 5.2403 31.409 6.76595 30.2286L9.55988 28.0668C10.1555 27.606 10.4532 27.3757 10.7848 27.2119C11.079 27.0665 11.3918 26.9602 11.7154 26.896C12.0802 26.8236 12.462 26.8236 13.2247 26.8236H29.1334C31.187 26.8236 32.2133 26.8235 32.9976 26.437C33.6875 26.097 34.2492 25.5547 34.6007 24.8874C35 24.1296 35 23.1376 35 21.1554V21.1495Z" stroke="black" stroke-width="3" stroke-linecap="round" stroke-linejoin="round"/>
</svg>
