<svg width="55" height="46" viewBox="0 0 55 46" fill="none" xmlns="http://www.w3.org/2000/svg">
<path d="M53 36.2285V19.7143L49.4167 16.0714L47.0278 13.6429L43.4444 10H17.6449C14.9691 10 13.6302 10 12.6082 10.5294C11.7092 10.9951 10.9788 11.7382 10.5207 12.6521C10 13.6911 10 15.0511 10 17.7713V36.2285C10 38.9487 10 40.3091 10.5207 41.3481C10.9788 42.262 11.7092 43.0049 12.6082 43.4705C13.6302 43.9999 14.9691 44 17.6449 44H45.356C48.0318 44 49.3688 43.9999 50.3908 43.4705C51.2898 43.0049 52.0217 42.262 52.4798 41.3481C53 40.3101 53 38.9514 53 36.2364V36.2285Z" stroke="black" stroke-width="3" stroke-linecap="round" stroke-linejoin="round"/>
<circle cx="10" cy="10" r="10" fill="#E85252"/>
<path d="M14 14L6 6M14 6L6 14" stroke="white" stroke-width="2" stroke-linecap="round" stroke-linejoin="round"/>
</svg>
