<svg width="42" height="42" viewBox="0 0 42 42" fill="none" xmlns="http://www.w3.org/2000/svg">
<path d="M12.1111 20C11.5588 20 11.1111 20.4477 11.1111 21C11.1111 21.5523 11.5588 22 12.1111 22V20ZM29.8889 22C30.4412 22 30.8889 21.5523 30.8889 21C30.8889 20.4477 30.4412 20 29.8889 20V22ZM20 29.8889C20 30.4412 20.4477 30.8889 21 30.8889C21.5523 30.8889 22 30.4412 22 29.8889H20ZM22 12.1111C22 11.5588 21.5523 11.1111 21 11.1111C20.4477 11.1111 20 11.5588 20 12.1111H22ZM21 40C10.5066 40 2 31.4934 2 21H0C0 32.598 9.40202 42 21 42V40ZM2 21C2 10.5066 10.5066 2 21 2V0C9.40202 0 0 9.40202 0 21H2ZM21 2C31.4934 2 40 10.5066 40 21H42C42 9.40202 32.598 0 21 0V2ZM40 21C40 31.4934 31.4934 40 21 40V42C32.598 42 42 32.598 42 21H40ZM12.1111 22H29.8889V20H12.1111V22ZM22 29.8889V12.1111H20V29.8889H22Z" fill="#FF9900"/>
</svg>
