<svg width="34" height="33" viewBox="0 0 34 33" fill="none" xmlns="http://www.w3.org/2000/svg">
<path d="M30.125 31.5H32M24.5 31.5H20.75V25.875M26.375 25.875H32V20.25H30.125M20.75 20.25H24.5M2 25.8749C2 24.1277 2 23.254 2.28545 22.5649C2.66605 21.646 3.39651 20.916 4.31537 20.5354C5.00451 20.25 5.87815 20.25 7.62543 20.25C9.37271 20.25 10.2459 20.25 10.9351 20.5354C11.8539 20.916 12.5838 21.646 12.9644 22.5649C13.2498 23.254 13.2498 24.1277 13.2498 25.875C13.2498 27.6222 13.2498 28.4959 12.9644 29.185C12.5838 30.1039 11.8539 30.8339 10.9351 31.2145C10.2459 31.5 9.37271 31.5 7.62543 31.5C5.87815 31.5 5.00451 31.5 4.31537 31.2145C3.39651 30.8339 2.66605 30.1039 2.28545 29.185C2 28.4959 2 27.6222 2 25.8749ZM20.75 7.12497C20.75 5.37769 20.75 4.50405 21.0355 3.81491C21.4161 2.89605 22.1465 2.16605 23.0654 1.78545C23.7545 1.5 24.6282 1.5 26.3754 1.5C28.1227 1.5 28.9959 1.5 29.6851 1.78545C30.6039 2.16605 31.3338 2.89605 31.7144 3.81491C31.9998 4.50405 31.9998 5.37772 31.9998 7.12499C31.9998 8.87227 31.9998 9.74591 31.7144 10.4351C31.3338 11.3539 30.6039 12.084 29.6851 12.4646C28.9959 12.75 28.1227 12.75 26.3754 12.75C24.6282 12.75 23.7545 12.75 23.0654 12.4646C22.1465 12.084 21.4161 11.3539 21.0355 10.4351C20.75 9.74591 20.75 8.87225 20.75 7.12497ZM2 7.12497C2 5.37769 2 4.50405 2.28545 3.81491C2.66605 2.89605 3.39651 2.16605 4.31537 1.78545C5.00451 1.5 5.87815 1.5 7.62543 1.5C9.37271 1.5 10.2459 1.5 10.9351 1.78545C11.8539 2.16605 12.5838 2.89605 12.9644 3.81491C13.2498 4.50405 13.2498 5.37772 13.2498 7.12499C13.2498 8.87227 13.2498 9.74591 12.9644 10.4351C12.5838 11.3539 11.8539 12.084 10.9351 12.4646C10.2459 12.75 9.37271 12.75 7.62543 12.75C5.87815 12.75 5.00451 12.75 4.31537 12.4646C3.39651 12.084 2.66605 11.3539 2.28545 10.4351C2 9.74591 2 8.87225 2 7.12497Z" stroke="black" stroke-width="3" stroke-linecap="round" stroke-linejoin="round"/>
</svg>
