<svg width="20" height="16" viewBox="0 0 20 16" fill="none" xmlns="http://www.w3.org/2000/svg">
<path d="M19 11.8V5L17.5 3.5L16.5 2.5L15 1H4.2002C3.08009 1 2.51962 1 2.0918 1.21799C1.71547 1.40973 1.40973 1.71572 1.21799 2.09204C1 2.51986 1 3.07985 1 4.19995V11.8C1 12.9201 1 13.4802 1.21799 13.908C1.40973 14.2844 1.71547 14.5902 2.0918 14.782C2.51962 15 3.08009 15 4.2002 15H15.8002C16.9203 15 17.48 15 17.9078 14.782C18.2841 14.5902 18.5905 14.2844 18.7822 13.908C19 13.4806 19 12.9212 19 11.8032V11.8Z" stroke="black" stroke-width="1.5" stroke-linecap="round" stroke-linejoin="round"/>
</svg>
