<svg width="22" height="22" viewBox="0 0 22 22" fill="none" xmlns="http://www.w3.org/2000/svg">
<path d="M14.3333 8.7778L9.88881 13.2222L7.66658 11M12.3845 1.50977L13.7411 2.66587C14.0829 2.95713 14.5076 3.13319 14.9552 3.16891L16.7318 3.31075C17.7764 3.39411 18.6065 4.22355 18.6898 5.26813L18.8305 7.04492C18.8663 7.49255 19.0426 7.91753 19.3339 8.25931L20.4905 9.61589C21.1702 10.4135 21.1697 11.5865 20.49 12.3841L19.3344 13.7408C19.0431 14.0825 18.8666 14.5075 18.8309 14.9551L18.6888 16.7318C18.6054 17.7764 17.777 18.6059 16.7324 18.6893L14.955 18.8311C14.5074 18.8668 14.0826 19.0428 13.7408 19.3341L12.3845 20.4902C11.5869 21.1699 10.413 21.1699 9.61537 20.4902L8.25903 19.3341C7.91725 19.0429 7.49247 18.8668 7.04483 18.8311L5.26749 18.6893C4.22289 18.606 3.39446 17.7764 3.3111 16.7319L3.16895 14.9551C3.13323 14.5074 2.95675 14.0825 2.66548 13.7407L1.50988 12.3841C0.830182 11.5866 0.82997 10.4134 1.50967 9.61587L2.66599 8.25927C2.95726 7.91749 3.13277 7.49258 3.16849 7.04495L3.31074 5.26816C3.3941 4.22357 4.22395 3.39406 5.26855 3.3107L7.04426 3.16897C7.4919 3.13324 7.91742 2.95717 8.25921 2.6659L9.61566 1.50977C10.4132 0.830077 11.5869 0.830077 12.3845 1.50977Z" stroke="black" stroke-width="2" stroke-linecap="round" stroke-linejoin="round"/>
</svg>
