<svg width="41" height="34" viewBox="0 0 41 34" fill="none" xmlns="http://www.w3.org/2000/svg">
<path d="M12.8274 22.5501C13.8126 21.4796 15.0039 20.625 16.3276 20.039C17.6514 19.4531 19.0791 19.148 20.5237 19.1429C21.9683 19.1378 23.3987 19.4327 24.7265 20.0093C26.0543 20.5859 27.2516 21.432 28.2442 22.4954M8.1877 16.023C9.76403 14.3102 11.67 12.9429 13.788 12.0053C15.906 11.0677 18.191 10.5798 20.5023 10.5716C22.8136 10.5634 25.102 11.0351 27.2264 11.9577C29.3508 12.8803 31.2666 14.2341 32.8547 15.9356M2 10.1772C4.36449 7.6081 7.22343 5.55709 10.4005 4.15073C13.5775 2.74437 17.0054 2.01242 20.4724 2.00016C23.9394 1.98789 27.3719 2.69554 30.5585 4.0794C33.7452 5.46325 36.6179 7.49404 39 10.0464M20.561 32C19.393 32 18.4462 31.0406 18.4462 29.8571C18.4462 28.6737 19.393 27.7143 20.561 27.7143C21.7291 27.7143 22.6759 28.6737 22.6759 29.8571C22.6759 31.0406 21.7291 32 20.561 32Z" stroke="black" stroke-width="3" stroke-linecap="round" stroke-linejoin="round"/>
</svg>
