<svg width="103" height="68" viewBox="0 0 103 68" fill="none" xmlns="http://www.w3.org/2000/svg">
<path fill-rule="evenodd" clip-rule="evenodd" d="M17.3337 22.9985L7.36511 45.2571H19.2988L20.7785 41.7082H24.1601L25.6394 45.2571H38.7752V42.5485L39.9458 45.2571H46.7406L47.9112 42.4912V45.2571H75.2298L78.5519 41.8004L81.662 45.2571L95.6937 45.2858L85.6935 34.19L95.6937 22.9985H81.8796L78.6463 26.3914L75.6338 22.9985H45.9145L43.3623 28.7437L40.7505 22.9985H28.8415V25.615L27.517 22.9985H17.3337ZM58.1289 26.1593H73.8166L78.6147 31.3888L83.5676 26.1593H88.3657L81.0753 34.1868L88.3657 42.1219H83.35L78.5519 36.8316L73.5739 42.1219H58.1289V26.1593ZM62.0028 32.382V29.4663L71.7915 29.4635L76.0629 34.1264L71.6023 38.8149H62.0028V35.6318H70.5614V32.382H62.0028ZM19.6428 26.1593H25.4599L32.072 41.253V26.1593H38.4442L43.5515 36.9814L48.2585 26.1593H54.5991V42.1313H50.7409L50.7093 29.6157L45.0847 42.1313H41.6333L35.9771 29.6157V42.1313H28.0401L26.5357 38.5506H18.4062L16.9046 42.1282H12.6518L19.6428 26.1593ZM19.7943 35.2404L22.4726 28.8617L25.1475 35.2404H19.7943Z" fill="#7D828C"/>
</svg>
