<svg width="103" height="68" viewBox="0 0 103 68" fill="none" xmlns="http://www.w3.org/2000/svg">
<path fill-rule="evenodd" clip-rule="evenodd" d="M23.8994 24.5031C25.3359 24.6218 26.7678 23.7907 27.665 22.737C28.5483 21.6536 29.134 20.1992 28.9853 18.7151C27.7115 18.7744 26.1402 19.5462 25.243 20.6296C24.4201 21.5645 23.7181 23.0783 23.8994 24.5031ZM40.9794 43.6183V20.4811H49.7286C54.2473 20.4811 57.4039 23.5681 57.4039 28.0798C57.4039 32.5915 54.1869 35.7081 49.6124 35.7081H44.6009V43.6183H40.9794ZM28.9667 24.7851C27.7022 24.7129 26.5493 25.1626 25.6149 25.5259C25.0152 25.7596 24.5085 25.9576 24.1226 25.9576C23.6903 25.9576 23.1603 25.749 22.5652 25.5149C21.7888 25.2081 20.8963 24.8573 19.9618 24.8742C17.8234 24.9039 15.8336 26.106 14.7412 28.0205C12.5004 31.8495 14.16 37.5188 16.331 40.6354C17.391 42.1789 18.6601 43.8708 20.3384 43.8115C21.0729 43.7836 21.6029 43.5604 22.1514 43.3295C22.7837 43.0636 23.4392 42.7874 24.4666 42.7874C25.4568 42.7874 26.0844 43.0564 26.6841 43.3147C27.2559 43.5604 27.8092 43.7962 28.6227 43.7818C30.3614 43.7522 31.4492 42.2383 32.5138 40.6948C33.6574 39.0382 34.1641 37.4214 34.2385 37.1761L34.2478 37.1477C34.2478 37.1459 34.2339 37.1395 34.206 37.1283C33.8248 36.9543 30.896 35.624 30.8681 32.0573C30.8402 29.0635 33.1925 27.5467 33.5598 27.3079C33.583 27.2934 33.597 27.2835 33.6063 27.2784C32.1093 25.0819 29.7756 24.8445 28.9667 24.7851ZM64.0145 43.7962C66.2878 43.7962 68.3984 42.6536 69.3561 40.843H69.4305V43.6183H72.7823V32.1017C72.7823 28.7624 70.086 26.6104 65.9439 26.6104C62.0992 26.6104 59.2587 28.7921 59.1518 31.79H62.4154C62.685 30.3653 64.0146 29.4302 65.8416 29.4302C68.0544 29.4302 69.2957 30.4543 69.2957 32.3391V33.6154L64.777 33.8826C60.5744 34.1349 58.3011 35.8416 58.3011 38.8098C58.3011 41.8077 60.6488 43.7962 64.0145 43.7962ZM64.9862 41.0509C63.0569 41.0509 61.8296 40.1307 61.8296 38.7208C61.8296 37.2664 63.0151 36.4204 65.2698 36.2869L69.2957 36.0346V37.3406C69.2957 39.5074 67.4408 41.0509 64.9862 41.0509ZM83.8931 44.5238C82.4427 48.5752 80.7831 49.911 77.2546 49.911C76.9849 49.911 76.0877 49.8814 75.8785 49.8221V47.0468C76.1016 47.0764 76.6548 47.1061 76.9384 47.1061C78.5376 47.1061 79.4349 46.4382 79.9881 44.7017L80.3182 43.6776L74.1863 26.8331H77.9705L82.2335 40.5018H82.3078L86.5709 26.8331H90.2528L83.8931 44.5238ZM44.6009 23.5088H48.7709C51.9136 23.5088 53.708 25.171 53.708 28.0947C53.708 31.0184 51.9135 32.6954 48.757 32.6954H44.6009V23.5088Z" fill="black"/>
</svg>
