<svg width="104" height="68" viewBox="0 0 104 68" fill="none" xmlns="http://www.w3.org/2000/svg">
<path d="M41.9983 65.2776L100.886 48.0601V58.3157C100.886 62.1609 97.6593 65.2776 93.6798 65.2776H41.9983Z" fill="#FD6020"/>
<path fill-rule="evenodd" clip-rule="evenodd" d="M89.6307 25.0358C92.8709 25.0358 94.6515 26.4837 94.6515 29.2186C94.8142 31.31 93.3544 33.0797 91.4112 33.4015L95.7858 39.354H92.3828L88.659 33.5624H88.3336V39.354H85.5815V25.0358H89.6307ZM88.3336 31.6319H89.1425C90.9277 31.6319 91.7366 30.8275 91.7366 29.3796C91.7366 28.0925 90.9277 27.2881 89.1425 27.2881H88.3336V31.6319ZM76.0234 39.354H83.7963V36.9408H78.7756V33.0797H83.6383V30.6665H78.7756V27.4489H83.7963V25.0358H76.0234V39.354ZM67.9251 34.6885L64.1967 25.0358H61.2818L67.2742 39.6758H68.734L74.7264 25.0358H71.8115L67.9251 34.6885ZM35.0436 32.2754C35.0436 36.2974 38.2839 39.6758 42.333 39.6758C43.6254 39.6758 44.7598 39.3541 45.8941 38.8714V35.6538C45.0852 36.6191 43.9508 37.2626 42.6538 37.2626C40.0644 37.2626 37.9585 35.3321 37.9585 32.758V32.4363C37.7957 29.8622 39.9017 27.6099 42.4911 27.449C43.7881 27.449 45.0852 28.0925 45.8941 29.0578V25.8402C44.9225 25.1967 43.6254 25.0358 42.4911 25.0358C38.2839 24.714 35.0436 28.0925 35.0436 32.2754ZM30.0182 30.5057C28.4004 29.8622 27.9169 29.5404 27.9169 28.736C28.0749 27.7707 28.8885 26.9663 29.8601 27.1272C30.669 27.1272 31.4779 27.6099 32.1241 28.2534L33.5839 26.3228C32.4495 25.3575 30.9944 24.714 29.5347 24.714C27.266 24.5531 25.3228 26.3228 25.1601 28.5751V28.736C25.1601 30.6666 25.969 31.7927 28.5631 32.5971C29.2093 32.758 29.8601 33.0798 30.5063 33.4015C30.9944 33.7233 31.3152 34.2059 31.3152 34.8494C31.3152 35.9756 30.3436 36.9409 29.372 36.9409H29.2093C27.9169 36.9409 26.7826 36.1365 26.2944 35.0103L24.5139 36.78C25.4855 38.5497 27.4288 39.5149 29.372 39.5149C31.9661 39.6758 34.072 37.7453 34.2301 35.1712V34.6886C34.072 32.758 33.2584 31.7927 30.0182 30.5057ZM20.6274 39.354H23.3796V25.0358H20.6274V39.354ZM7.8291 25.0358H11.8783H12.6872C16.5783 25.1967 19.6558 28.4143 19.4931 32.2754C19.4931 34.3668 18.5215 36.2974 16.899 37.7453C15.4439 38.8714 13.6588 39.515 11.8783 39.3541H7.8291V25.0358ZM11.3948 36.9409C12.6872 37.1018 14.1469 36.6191 15.1185 35.8147C16.0902 34.8494 16.5783 33.5624 16.5783 32.1145C16.5783 30.8274 16.0902 29.5404 15.1185 28.5751C14.1469 27.7707 12.6872 27.2881 11.3948 27.449H10.5812V36.9409H11.3948Z" fill="black"/>
<path fill-rule="evenodd" clip-rule="evenodd" d="M54.1551 24.7039C50.106 24.7039 46.703 27.9214 46.703 32.1043C46.703 36.1263 49.9433 39.5047 54.1551 39.6656C58.367 39.8265 61.6073 36.448 61.77 32.2652C61.6073 28.0823 58.367 24.7039 54.1551 24.7039Z" fill="#FD6020"/>
</svg>
