<svg width="103" height="68" viewBox="0 0 103 68" fill="none" xmlns="http://www.w3.org/2000/svg">
<path fill-rule="evenodd" clip-rule="evenodd" d="M48.4373 44.9403V35.8944H53.1976C55.1502 35.8944 56.7959 35.2533 58.1394 33.989L58.4649 33.6685C60.9148 31.0509 60.7567 26.9731 58.1394 24.5514C56.8331 23.2693 55.0432 22.5748 53.1976 22.6104H45.5503V44.9403H48.4373ZM48.4373 33.1521V25.3527H53.272C54.3087 25.3527 55.2943 25.7445 56.0288 26.4568C57.5862 27.9525 57.6234 30.4455 56.1172 31.9947C55.3826 32.7604 54.3459 33.1877 53.272 33.1521H48.4373ZM71.9094 30.8551C70.6774 29.7333 68.9946 29.1634 66.8607 29.1634C64.1225 29.1634 62.0631 30.1606 60.701 32.1372L63.2439 33.722C64.1737 32.3687 65.4475 31.692 67.0606 31.692C68.0787 31.692 69.0643 32.066 69.836 32.7426C70.5845 33.3837 71.0168 34.3096 71.0168 35.289V35.9479C69.9057 35.3424 68.5111 35.0219 66.791 35.0219C64.7827 35.0219 63.1741 35.4849 61.9747 36.4286C60.7753 37.3724 60.1663 38.6189 60.1663 40.2037C60.1291 41.6461 60.7567 43.017 61.8678 43.9432C62.9928 44.9403 64.4247 45.4389 66.1076 45.4389C68.0973 45.4389 69.6733 44.5666 70.8727 42.8212H70.9982V44.9403H73.755V35.5205C73.755 33.5439 73.146 31.9769 71.9094 30.8551ZM64.0853 42.1267C63.4949 41.6993 63.1369 41.0049 63.1369 40.257C63.1369 39.42 63.5321 38.7256 64.3038 38.1736C65.0895 37.6216 66.075 37.3367 67.2373 37.3367C68.8504 37.3188 70.1056 37.675 70.9982 38.3872C70.9982 39.5981 70.5147 40.6488 69.5664 41.5391C68.7063 42.3938 67.5441 42.8746 66.3261 42.8746C65.5218 42.8926 64.7315 42.6253 64.0853 42.1267ZM79.9519 51.6534L89.5844 29.6621H86.451L81.9928 40.6311H81.9417L77.3718 29.6621H74.2384L80.5609 43.9612L76.9813 51.6534H79.9519Z" fill="#3C4043"/>
<path d="M38.4841 33.9355C38.4841 33.063 38.4097 32.1904 38.2656 31.3357H26.1088V36.2682H33.0728C32.7892 37.853 31.8548 39.2776 30.4973 40.1679V43.3731H34.6488C37.0848 41.1473 38.4841 37.853 38.4841 33.9355Z" fill="#4285F4"/>
<path d="M26.1087 46.4715C29.5814 46.4715 32.5195 45.332 34.6487 43.3732L30.4972 40.1679C29.3303 40.9514 27.8473 41.3966 26.1087 41.3966C22.7429 41.3966 19.8978 39.1351 18.875 36.1079H14.5934V39.42C16.7784 43.7469 21.2366 46.4715 26.1087 46.4715Z" fill="#34A853"/>
<path d="M18.8752 36.1079C18.3406 34.5231 18.3406 32.7958 18.8752 31.1932V27.8989H14.5936C12.7527 31.5137 12.7527 35.7874 14.5936 39.4022L18.8752 36.1079Z" fill="#FBBC04"/>
<path d="M26.1087 25.9046C27.9543 25.869 29.7255 26.5634 31.0504 27.8277L34.7417 24.1596C32.394 21.9871 29.3164 20.794 26.1087 20.8296C21.2366 20.8296 16.7784 23.5719 14.5934 27.899L18.875 31.2111C19.8978 28.1661 22.7429 25.9046 26.1087 25.9046Z" fill="#EA4335"/>
</svg>
