<svg width="105" height="68" viewBox="0 0 105 68" fill="none" xmlns="http://www.w3.org/2000/svg">
<path d="M23.4701 19.1482C23.5631 15.5727 26.8638 12.4864 30.5411 12.4342C34.209 12.4233 37.8816 12.4326 41.5542 12.4294C41.5403 24.3923 41.5729 36.3564 41.5357 48.3187C41.3962 51.8508 38.1327 54.8782 34.4972 54.9406C30.82 54.9536 27.1381 54.9424 23.4608 54.946V40.013C27.0358 40.8284 30.7828 41.1755 34.4275 40.6347C36.6032 40.296 38.988 39.2623 39.7272 37.0786C40.2665 35.2108 39.9643 33.2449 40.0434 31.3278V26.8755H33.7348C33.7069 29.8201 33.7953 32.7699 33.6883 35.7109C33.521 37.5187 31.6661 38.6673 29.9042 38.6059C27.7146 38.6283 23.3771 37.0735 23.3771 37.0735C23.3678 31.5565 23.4422 24.6468 23.4701 19.1482Z" fill="url(#paint0_linear_43_790)"/>
<path d="M67.6297 34.5476C69.2196 34.581 70.8235 34.4797 72.4088 34.6003C74.0126 34.8897 74.3985 37.2384 72.976 38.0077C71.9997 38.5145 70.8421 38.1964 69.7868 38.2858H67.6297V34.5476ZM73.3292 30.3165C73.6825 31.5227 72.4785 32.6057 71.2744 32.4396H67.6297C67.653 31.3021 67.5786 30.0675 67.6669 28.9898C69.1266 29.0296 70.6003 28.9088 72.0554 29.053C72.6784 29.2045 73.1991 29.7002 73.3292 30.3165ZM82.1063 12.4285C82.1714 14.7321 82.1156 17.1575 82.1342 19.5078C82.1295 29.0633 82.1435 38.6186 82.1249 48.1748C82.0645 51.7559 78.7777 54.8677 75.0958 54.9391C71.4139 54.9535 67.7273 54.9414 64.0408 54.945V40.4992C68.0574 40.4792 72.074 40.5399 76.086 40.469C77.9502 40.356 79.9864 39.1691 80.0748 37.1896C80.2933 35.2016 78.3546 33.8265 76.5137 33.6092C75.8024 33.5915 75.8257 33.4099 76.5137 33.3306C78.271 32.9638 79.6471 31.2071 79.131 29.4478C78.6894 27.5974 76.5741 26.8812 74.8122 26.8848C71.2233 26.8612 67.6344 26.8815 64.0408 26.8746C64.064 24.1777 63.9943 21.4779 64.0826 18.783C64.3662 15.2665 67.732 12.3665 71.3628 12.4295C74.9424 12.4289 78.5267 12.4287 82.1063 12.4285Z" fill="url(#paint1_linear_43_790)"/>
<path d="M43.9018 28.6703C43.5717 28.7384 43.8367 27.5777 43.753 27.1374C43.7763 24.3535 43.7066 21.5666 43.7903 18.7847C44.0738 15.2533 47.4675 12.346 51.1122 12.4287H61.8418C61.8325 24.3916 61.8604 36.3557 61.8278 48.3179C61.6884 51.8501 58.4249 54.8774 54.7848 54.9398C51.1075 54.9533 47.4303 54.9421 43.753 54.9452V38.5842C46.2634 40.5756 49.6803 40.8856 52.809 40.891C55.166 40.8902 57.5137 40.5387 59.8056 40.013V37.0156C57.2208 38.259 54.1851 39.0487 51.326 38.3344C49.327 37.8543 47.8766 35.9899 47.9091 33.999C47.6813 31.9287 48.9366 29.7429 51.0425 29.1274C53.6552 28.3366 56.5049 28.9414 58.9549 29.9696C59.4802 30.2352 60.0148 30.5646 59.8056 29.7167V27.3608C55.7053 26.4186 51.3447 26.0719 47.2258 27.0968C46.0357 27.4217 44.8734 27.9142 43.9018 28.6703Z" fill="url(#paint2_linear_43_790)"/>
<defs>
<linearGradient id="paint0_linear_43_790" x1="23.0796" y1="34.0948" x2="41.2567" y2="34.0948" gradientUnits="userSpaceOnUse">
<stop stop-color="#0F6EB6"/>
<stop offset="1" stop-color="#006DBA"/>
</linearGradient>
<linearGradient id="paint1_linear_43_790" x1="63.9199" y1="32.7778" x2="82.018" y2="32.7778" gradientUnits="userSpaceOnUse">
<stop stop-color="#58B03A"/>
<stop offset="1" stop-color="#55B330"/>
</linearGradient>
<linearGradient id="paint2_linear_43_790" x1="43.7251" y1="33.1898" x2="61.8418" y2="33.1898" gradientUnits="userSpaceOnUse">
<stop stop-color="#DE0D3D"/>
<stop offset="1" stop-color="#E30138"/>
</linearGradient>
</defs>
</svg>
