<svg width="104" height="68" viewBox="0 0 104 68" fill="none" xmlns="http://www.w3.org/2000/svg">
<path fill-rule="evenodd" clip-rule="evenodd" d="M53.0616 50.2944C48.9818 53.6015 43.6895 55.5981 37.9068 55.5981C25.0029 55.5981 14.5425 45.6582 14.5425 33.3968C14.5425 21.1354 25.0029 11.1956 37.9068 11.1956C43.6895 11.1956 48.9818 13.192 53.0616 16.4992C57.1415 13.1921 62.4337 11.1956 68.2169 11.1956C81.1204 11.1956 91.5808 21.1355 91.5808 33.3969C91.5808 45.6582 81.1204 55.5981 68.2169 55.5981C62.4337 55.5981 57.1415 53.6015 53.0616 50.2944Z" fill="#ED0006"/>
<path fill-rule="evenodd" clip-rule="evenodd" d="M53.0618 50.2943C58.0853 46.2223 61.2708 40.1631 61.2708 33.3968C61.2708 26.6306 58.0853 20.5712 53.0618 16.4991C57.1416 13.192 62.4339 11.1956 68.2166 11.1956C81.1205 11.1956 91.5809 21.1354 91.5809 33.3968C91.5809 45.6581 81.1205 55.598 68.2166 55.598C62.4339 55.598 57.1416 53.6015 53.0618 50.2943Z" fill="#F9A000"/>
<path fill-rule="evenodd" clip-rule="evenodd" d="M53.0615 50.2945C58.0851 46.2225 61.2705 40.163 61.2705 33.3968C61.2705 26.6306 58.0851 20.5714 53.0615 16.4993C48.038 20.5714 44.853 26.6306 44.853 33.3968C44.853 40.163 48.038 46.2225 53.0615 50.2945Z" fill="#FF5E00"/>
</svg>
