<svg width="103" height="68" viewBox="0 0 103 68" fill="none" xmlns="http://www.w3.org/2000/svg">
<path d="M56.7383 56.1443C69.1508 56.2032 80.48 46.1322 80.48 33.8812C80.48 20.4849 69.1508 11.224 56.7383 11.229H46.0598C33.4986 11.224 23.1594 20.4874 23.1594 33.8812C23.1594 46.1349 33.4986 56.2032 46.0598 56.1443H56.7383Z" fill="#0079BE"/>
<path d="M46.111 13.0854C34.633 13.0892 25.3352 22.29 25.3306 33.6461C25.3352 45.0012 34.633 54.2017 46.111 54.2058C57.5891 54.2017 66.8915 45.0012 66.8915 33.6461C66.8915 22.29 57.5891 13.0892 46.111 13.0854ZM32.9407 33.6461C32.9361 31.0205 33.7404 28.4553 35.2513 26.2856C36.7575 24.116 38.9006 22.4428 41.3924 21.485V45.8061C38.9006 44.8489 36.7575 43.1762 35.2513 41.0065C33.7404 38.837 32.9361 36.2717 32.9407 33.6461ZM50.825 45.811V21.4837C53.3214 22.4402 55.4646 24.1132 56.9708 26.2836C58.4817 28.4539 59.2859 31.0205 59.2859 33.6474C59.2859 36.2741 58.4817 38.8405 56.9708 41.0108C55.4599 43.1812 53.3214 44.8543 50.825 45.811Z" fill="white"/>
<path d="M56.7383 56.1443C69.1508 56.2032 80.48 46.1322 80.48 33.8812C80.48 20.4849 69.1508 11.224 56.7383 11.229H46.0598C33.4986 11.224 23.1594 20.4874 23.1594 33.8812C23.1594 46.1349 33.4986 56.2032 46.0598 56.1443H56.7383Z" fill="#0079BE"/>
<path d="M46.111 13.0854C34.633 13.0892 25.3352 22.29 25.3306 33.6461C25.3352 45.0012 34.633 54.2017 46.111 54.2058C57.5891 54.2017 66.8915 45.0012 66.8915 33.6461C66.8915 22.29 57.5891 13.0892 46.111 13.0854ZM32.9407 33.6461C32.9361 31.0205 33.7404 28.4553 35.2513 26.2856C36.7575 24.116 38.9006 22.4428 41.3924 21.485V45.8061C38.9006 44.8489 36.7575 43.1762 35.2513 41.0065C33.7404 38.837 32.9361 36.2717 32.9407 33.6461ZM50.825 45.811V21.4837C53.3214 22.4402 55.4646 24.1132 56.9708 26.2836C58.4817 28.4539 59.2859 31.0205 59.2859 33.6474C59.2859 36.2741 58.4817 38.8405 56.9708 41.0108C55.4599 43.1812 53.3214 44.8543 50.825 45.811Z" fill="white"/>
</svg>
