<svg width="103" height="68" viewBox="0 0 103 68" fill="none" xmlns="http://www.w3.org/2000/svg">
<path fill-rule="evenodd" clip-rule="evenodd" d="M55.1259 22.1343L49.6942 23.2768V18.9605L55.1259 17.8391V22.1343ZM33.0532 20.2935L27.7731 21.3937L27.7515 38.3416C27.7515 41.4731 30.1534 43.7793 33.3561 43.7793C35.1306 43.7793 36.4289 43.4622 37.143 43.0813V38.786C36.4506 39.0611 33.0315 40.0343 33.0315 36.9029V29.3916H37.143V24.8849H33.0315L33.0532 20.2935ZM20.2645 29.1166C19.1176 29.1166 18.4252 29.434 18.4252 30.2592C18.4252 31.1601 19.6169 31.5565 21.0954 32.0481C23.5057 32.8497 26.678 33.9047 26.6915 37.8128C26.6915 41.6001 23.597 43.7793 19.096 43.7793C17.235 43.7793 15.2009 43.4195 13.1884 42.5734V37.5377C15.0061 38.511 17.2999 39.2304 19.096 39.2304C20.3078 39.2304 21.1734 38.913 21.1734 37.9397C21.1734 36.9417 19.8815 36.4855 18.3219 35.9348C15.9467 35.0961 12.9504 34.0381 12.9504 30.5131C12.9504 26.768 15.8717 24.5252 20.2645 24.5252C22.0606 24.5252 23.8351 24.8003 25.6311 25.4985V30.4707C23.9865 29.6033 21.9091 29.1166 20.2645 29.1166ZM83.0405 24.5252C88.1687 24.5252 90.852 28.7992 90.852 34.2158C90.852 34.5073 90.8381 34.994 90.8255 35.4077C90.8167 35.7129 90.8088 35.9823 90.8088 36.0989H80.227C80.4651 38.5956 82.326 39.315 84.4254 39.315C86.5676 39.315 88.2556 38.8707 89.727 38.1513V42.3829C88.2556 43.1868 86.3078 43.7582 83.7328 43.7582C78.4526 43.7582 74.7739 40.5422 74.7739 34.1735C74.7739 28.7992 77.8901 24.5252 83.0405 24.5252ZM83.0187 28.8204C81.6552 28.8204 80.162 29.8149 80.162 32.2057H85.7453C85.7453 29.8149 84.3385 28.8204 83.0187 28.8204ZM43.8733 26.4506L43.5271 24.8849H38.853V43.3984H44.2629V30.8516C45.5395 29.2224 47.7035 29.5186 48.3744 29.7513V24.8849C47.6817 24.631 45.1499 24.1655 43.8733 26.4506ZM49.6937 24.8849H55.1255V43.3984H49.6937V24.8849ZM66.4208 24.5252C64.3005 24.5252 62.937 25.4985 62.1797 26.1756L61.8984 24.8638H57.1375V49.5343L62.5474 48.4132L62.5692 42.4253C63.3484 42.9753 64.4953 43.7582 66.3994 43.7582C70.2729 43.7582 73.8 40.7114 73.8 34.0042C73.7786 27.8683 70.2078 24.5252 66.4208 24.5252ZM65.1224 39.1033C63.8458 39.1033 63.0885 38.659 62.5692 38.1089L62.5474 30.2591C63.1104 29.6455 63.889 29.2223 65.1224 29.2223C67.0917 29.2223 68.4552 31.3805 68.4552 34.1523C68.4552 36.9875 67.1135 39.1033 65.1224 39.1033Z" fill="#6461FC"/>
</svg>
