<svg width="104" height="68" viewBox="0 0 104 68" fill="none" xmlns="http://www.w3.org/2000/svg">
<path d="M31.5497 12.7334H48.4018C50.7542 12.7334 52.2185 14.6126 51.6699 16.9258L43.8227 49.94C43.2695 52.2451 40.9125 54.1261 38.5601 54.1261H21.7126C19.3649 54.1261 17.8959 52.2451 18.4445 49.94L26.2917 16.9258C26.8403 14.6126 29.1973 12.7334 31.5497 12.7334Z" fill="#E21836"/>
<path d="M46.9977 12.7261H66.3742C68.7265 12.7261 67.6666 14.6053 67.1134 16.9185L59.2707 49.9328C58.7222 52.2379 58.8942 54.1185 56.5372 54.1185H37.156C34.799 54.1185 33.3439 52.2379 33.8971 49.9328L41.7398 16.9185C42.2977 14.6053 44.6454 12.7261 46.9977 12.7261Z" fill="#00447C"/>
<path d="M65.607 12.7261H82.4592C84.8161 12.7261 86.2759 14.6053 85.7227 16.9185L77.88 49.9328C77.3268 52.2379 74.9698 54.1185 72.6129 54.1185H55.77C53.413 54.1185 51.9533 52.2379 52.5065 49.9328L60.3491 16.9185C60.8977 14.6053 63.25 12.7261 65.607 12.7261Z" fill="#007B84"/>
<path d="M35.9518 23.3061C34.2178 23.3234 33.7065 23.3061 33.5437 23.2683C33.4787 23.561 32.3118 28.8479 32.3071 28.8524C32.0561 29.922 31.8747 30.6845 31.2518 31.1768C30.8985 31.463 30.4848 31.6011 30.0059 31.6011C29.2389 31.6011 28.7926 31.2271 28.7136 30.5178L28.6996 30.2743C28.6996 30.2743 28.9367 28.8415 28.9367 28.8334C28.9367 28.8334 30.164 24.0155 30.3825 23.3786C30.3918 23.3424 30.3964 23.3234 30.4011 23.3061C28.0115 23.3266 27.5885 23.3061 27.5606 23.2683C27.542 23.3202 27.4816 23.6189 27.4816 23.6189L26.231 29.0492L26.1241 29.5097L25.9149 31.0162C25.9149 31.463 26.0033 31.8278 26.1799 32.1361C26.7517 33.114 28.3835 33.2605 29.304 33.2605C30.4894 33.2605 31.6051 33.0133 32.3536 32.5621C33.6599 31.8056 34.0039 30.6233 34.3061 29.5726L34.4502 29.0335C34.4502 29.0335 35.7148 24.0295 35.9286 23.3786C35.9379 23.3424 35.9379 23.3234 35.9518 23.3061ZM40.252 27.3429C39.9499 27.3429 39.392 27.4153 38.8899 27.6557C38.7086 27.7471 38.5366 27.8525 38.3553 27.9576L38.518 27.3791L38.4297 27.2817C37.3697 27.4922 37.1326 27.5204 36.1517 27.6557L36.0681 27.7092C35.9565 28.6339 35.8542 29.3292 35.4311 31.1468C35.2731 31.8167 35.1057 32.493 34.9384 33.1613L34.9849 33.2462C35.989 33.1943 36.2912 33.1943 37.1652 33.2084L37.2349 33.1331C37.3465 32.5763 37.3604 32.4459 37.6068 31.3183C37.7231 30.7836 37.9648 29.609 38.081 29.1907C38.2995 29.0917 38.5134 28.9942 38.7226 28.9942C39.2107 28.9942 39.1503 29.4125 39.1317 29.5792C39.1084 29.859 38.9318 30.7728 38.7505 31.5574L38.6249 32.0638C38.5412 32.4378 38.4482 32.8013 38.3646 33.1721L38.4018 33.2462C39.392 33.1943 39.6942 33.1943 40.5356 33.2084L40.6379 33.1331C40.7913 32.2635 40.8332 32.0308 41.1075 30.7647L41.2422 30.183C41.5072 29.0445 41.6421 28.4672 41.4375 27.9971C41.2283 27.4701 40.7216 27.3429 40.252 27.3429ZM45.059 28.5348C44.529 28.6339 44.1943 28.6999 43.8642 28.7426C43.5295 28.7945 43.2088 28.8416 42.702 28.9108L42.6602 28.9467L42.6229 28.9752C42.5718 29.3464 42.5346 29.6673 42.4649 30.0445C42.4045 30.4346 42.3115 30.8778 42.1627 31.5147C42.0465 32.0022 41.986 32.1721 41.921 32.3436C41.8605 32.5151 41.7862 32.6817 41.656 33.1612L41.6886 33.2055L41.7118 33.2461C42.1906 33.224 42.5021 33.2083 42.8182 33.2055C43.139 33.1942 43.4691 33.2055 43.9804 33.2083L44.0269 33.1725L44.0734 33.1331C44.1478 32.7007 44.1571 32.5843 44.2036 32.3734C44.2501 32.1472 44.3245 31.834 44.5151 30.9974C44.6034 30.6045 44.7056 30.2128 44.7986 29.8118C44.8962 29.4125 44.9939 29.0191 45.0915 28.6262L45.0775 28.5787L45.059 28.5348ZM45.0682 26.9277C44.5894 26.6511 43.7526 26.7389 43.1855 27.1209C42.6229 27.4953 42.5579 28.0267 43.0367 28.3069C43.5062 28.5758 44.3477 28.4957 44.9102 28.1104C45.4681 27.728 45.5424 27.2014 45.0682 26.9277ZM47.9599 33.3328C48.9269 33.3328 49.9171 33.0716 50.6655 32.2962C51.2373 31.6674 51.5023 30.7318 51.5953 30.3466C51.8928 29.0696 51.6604 28.4734 51.3675 28.1103C50.9259 27.5567 50.1495 27.3792 49.3406 27.3792C48.8525 27.3792 47.6949 27.4263 46.7884 28.2439C46.1422 28.8337 45.84 29.634 45.6586 30.4013C45.4773 31.1831 45.2682 32.5905 46.5885 33.1142C46.9929 33.2857 47.5833 33.3328 47.9599 33.3328ZM47.8855 30.4597C48.1086 29.4927 48.369 28.6811 49.0431 28.6811C49.5684 28.6811 49.6056 29.285 49.3732 30.2552C49.3313 30.4705 49.1407 31.2712 48.8804 31.6122C48.6991 31.8638 48.4805 32.0164 48.2434 32.0164C48.1737 32.0164 47.7553 32.0164 47.746 31.4049C47.746 31.103 47.8064 30.7946 47.8855 30.4597ZM54.0127 33.2085L54.0871 33.1332C54.194 32.5765 54.2126 32.4456 54.4497 31.3184C54.5659 30.7838 54.8123 29.6091 54.9285 29.1908C55.147 29.0913 55.3609 28.9939 55.5701 28.9939C56.0582 28.9939 55.9977 29.4122 55.9792 29.5789C55.9606 29.859 55.7839 30.7725 55.5979 31.5571L55.4817 32.0636C55.3934 32.4379 55.2958 32.8011 55.2121 33.1723L55.2493 33.2463C56.2395 33.1944 56.5324 33.1944 57.3831 33.2085L57.4854 33.1332C57.6342 32.2633 57.676 32.0305 57.9549 30.7649L58.0851 30.1828C58.3547 29.0443 58.4896 28.4674 58.2897 27.9972C58.0712 27.4702 57.5598 27.343 57.0995 27.343C56.7927 27.343 56.2348 27.415 55.7374 27.6558C55.5607 27.7472 55.3794 27.8523 55.2074 27.9577L55.3609 27.3792L55.2772 27.2814C54.2172 27.4923 53.9755 27.5205 52.9946 27.6558L52.9202 27.7093C52.804 28.6341 52.7064 29.3289 52.2833 31.1469C52.1252 31.8168 51.9579 32.4931 51.7905 33.1614L51.8324 33.2463C52.8412 33.1944 53.1387 33.1944 54.0127 33.2085ZM61.3068 33.2461C61.3719 32.9474 61.7391 31.1769 61.7438 31.1769C61.7438 31.1769 62.0599 29.8778 62.0785 29.8307C62.0785 29.8307 62.1808 29.6954 62.2784 29.6419H62.4225C63.8032 29.6419 65.3606 29.6419 66.5833 28.7614C67.4154 28.1576 67.9825 27.2659 68.2336 26.1822C68.3033 25.9165 68.3499 25.6004 68.3499 25.2844C68.3499 24.8694 68.2662 24.4587 68.0198 24.1379C67.3968 23.2841 66.1556 23.2683 64.7237 23.2619C64.7191 23.2619 64.0218 23.2683 64.0218 23.2683C62.1854 23.2905 61.4509 23.284 61.1487 23.2478C61.1255 23.3786 61.079 23.6114 61.079 23.6114C61.079 23.6114 60.4188 26.5928 60.4188 26.5976C60.4188 26.5976 58.8522 32.9365 58.7778 33.2352C60.377 33.2163 61.0325 33.2163 61.3068 33.2461ZM62.5248 27.9499C62.5248 27.9499 63.2221 24.9745 63.2175 24.9857L63.2407 24.8332L63.25 24.7168L63.529 24.745C63.529 24.745 64.9701 24.8662 65.0027 24.8694C65.5698 25.0848 65.8069 25.6399 65.6395 26.3646C65.4908 27.0267 65.0538 27.5835 64.4913 27.8524C64.0264 28.0803 63.4592 28.0992 62.8734 28.0992H62.4969L62.5248 27.9499ZM66.8669 30.5148C66.6856 31.2853 66.4717 32.6927 67.7873 33.1943C68.2057 33.369 68.5822 33.421 68.9635 33.4021C69.3633 33.3807 69.7399 33.1826 70.0839 32.8976C70.0513 33.0147 70.0234 33.1319 69.9909 33.2495L70.0513 33.3248C70.995 33.2857 71.2879 33.2857 72.3106 33.2934L72.4036 33.2241C72.5571 32.3626 72.6965 31.5261 73.0824 29.8779C73.273 29.0885 73.4636 28.3067 73.6589 27.5205L73.6263 27.4339C72.571 27.6259 72.2874 27.667 71.2693 27.8083L71.1903 27.8699C71.181 27.95 71.1717 28.0269 71.1624 28.1038C71.0043 27.8534 70.7765 27.6396 70.4186 27.5064C69.9676 27.332 68.9077 27.5567 67.9918 28.3715C67.3503 28.9532 67.0435 29.7503 66.8669 30.5148ZM69.089 30.5619C69.3168 29.6122 69.5771 28.8087 70.2512 28.8087C70.6743 28.8087 70.8974 29.1939 70.8556 29.8509C70.8184 30.0148 70.7765 30.1875 70.73 30.3827C70.665 30.6649 70.5906 30.9447 70.5209 31.2249C70.4465 31.4165 70.3628 31.5973 70.2698 31.7177C70.0978 31.9584 69.684 32.1078 69.4469 32.1078C69.3819 32.1078 68.9635 32.1078 68.9495 31.5071C68.9495 31.208 69.01 30.9001 69.089 30.5619ZM80.6833 27.4262L80.6043 27.3348C79.5583 27.5426 79.3677 27.5756 78.4053 27.7028L78.3356 27.772C78.331 27.7833 78.331 27.8006 78.3263 27.8163L78.3216 27.8006C77.6057 29.4185 77.6243 29.0695 77.0432 30.3432C77.0386 30.2853 77.0385 30.2491 77.0385 30.1874L76.8898 27.4262L76.8015 27.3348C75.7043 27.5426 75.6764 27.5756 74.6676 27.7028L74.5886 27.772C74.5747 27.805 74.5747 27.8413 74.57 27.8807L74.5746 27.8948C74.7048 28.5285 74.6723 28.3872 74.7978 29.3871C74.8582 29.8779 74.9373 30.3714 74.9977 30.8561C75.0953 31.6673 75.1511 32.0667 75.272 33.3046C74.5886 34.4101 74.4306 34.8283 73.7704 35.7985L73.7751 35.8082L73.3102 36.5264C73.2591 36.602 73.2125 36.654 73.1428 36.6761C73.0684 36.7119 72.9754 36.7184 72.8406 36.7184H72.585L72.2037 37.9624L73.5101 37.9845C74.2772 37.9813 74.7606 37.629 75.021 37.1556L75.8438 35.7732H75.8345L75.9182 35.6757C76.4714 34.5075 80.6833 27.4262 80.6833 27.4262ZM66.8669 43.7636H66.3136L68.3684 37.1006H69.0518L69.2656 36.4142L69.2889 37.1775C69.261 37.6493 69.6422 38.0676 70.637 37.9984H71.7854L72.1805 36.7154H71.7481C71.5017 36.7154 71.3855 36.6538 71.3995 36.5217L71.3809 35.7452H69.2471C68.559 35.7592 66.5043 35.814 66.0859 35.9227C65.5838 36.0499 65.0491 36.4243 65.0491 36.4243L65.2583 35.7371H63.2686L62.8502 37.1006L60.7675 43.8656H60.3631L59.9679 45.1394H63.938L63.8032 45.5639H65.7604L65.8906 45.1394H66.4391L66.8669 43.7636ZM65.2397 38.4545C64.919 38.541 64.3286 38.8035 64.3286 38.8035L64.8539 37.1006H66.4391L66.0579 38.3414C66.0579 38.3414 65.5698 38.3696 65.2397 38.4545ZM65.2723 40.8872C65.2723 40.8872 64.7748 40.9484 64.4447 41.0209C64.124 41.1167 63.5197 41.4186 63.5197 41.4186L64.0635 39.6465H65.6581L65.2723 40.8872ZM64.3843 43.7794H62.7944L63.2547 42.2837H64.8399L64.3843 43.7794ZM68.2104 39.6465H70.4976L70.1675 40.6908H67.8478L67.4991 41.8325H69.5307L67.9918 43.9536C67.8849 44.1095 67.7873 44.1647 67.6804 44.2083C67.5734 44.2622 67.434 44.3246 67.2713 44.3246H66.7087L66.3182 45.5751H67.7919C68.559 45.5751 69.0099 45.2337 69.3447 44.7859L70.4 43.372L70.6231 44.8075C70.6743 45.0765 70.8695 45.2337 71.0044 45.2948C71.1531 45.3676 71.3018 45.492 71.5203 45.5104C71.7481 45.5198 71.9155 45.5275 72.0271 45.5275H72.7523L73.1846 44.1283H72.901C72.7337 44.1283 72.4548 44.1014 72.4036 44.0511C72.3572 43.99 72.3572 43.8957 72.3339 43.7524L72.1015 42.3136H71.1624L71.5762 41.8325H73.8913L74.2446 40.6908H72.1015L72.4362 39.6465H74.5746L74.9698 38.3587H68.5962L68.2104 39.6465ZM48.8711 44.07L49.4056 42.3278H51.6046L52.0044 41.0319H49.8055L50.1402 39.9594H52.288L52.6878 38.7046H47.3137L46.9232 39.9594H48.1458L47.8204 41.0319H46.5931L46.1887 42.3499H47.4113L46.6954 44.6552C46.6024 44.9602 46.7418 45.0765 46.8302 45.2185C46.9231 45.3563 47.0161 45.4475 47.2253 45.4996C47.4392 45.5468 47.588 45.5751 47.7879 45.5751H50.2657L50.7027 44.1391L49.6055 44.2869C49.3963 44.2869 48.8106 44.2622 48.8711 44.07ZM49.1267 35.7293L48.5689 36.7152C48.448 36.9305 48.341 37.0642 48.2434 37.1258C48.1597 37.1777 47.9924 37.1995 47.746 37.1995H47.4578L47.0673 38.4607H48.0342C48.4991 38.4607 48.8524 38.2941 49.0244 38.2107C49.2057 38.1149 49.2522 38.1697 49.3963 38.036L49.7218 37.7594H52.7342L53.134 36.4463H50.9259L51.3117 35.7293H49.1267ZM53.5711 44.0956C53.5199 44.0228 53.5571 43.8952 53.6361 43.6298L54.459 40.9594H57.3831C57.8108 40.9533 58.1223 40.9485 58.3222 40.9344C58.536 40.9123 58.7685 40.837 59.0242 40.7017C59.2891 40.56 59.424 40.4107 59.5355 40.2392C59.6657 40.0681 59.8656 39.6937 60.0423 39.1164L61.079 35.7372L58.0386 35.7545C58.0386 35.7545 57.1042 35.8898 56.6904 36.0391C56.2767 36.2058 55.6816 36.6712 55.6816 36.6712L55.956 35.7449H54.0778L51.4512 44.2869C51.3582 44.6188 51.2931 44.8596 51.2791 45.0042C51.2745 45.1596 51.4791 45.3141 51.6139 45.4305C51.7719 45.5468 52.0044 45.5279 52.2276 45.5468C52.46 45.5639 52.7947 45.5751 53.2549 45.5751H54.6961L55.1424 44.1095L53.85 44.229C53.7105 44.229 53.6129 44.1566 53.5711 44.0956ZM54.989 39.1559H58.0618L57.8666 39.7565C57.8387 39.7706 57.7736 39.7267 57.4621 39.7629H54.7983L54.989 39.1559ZM55.6026 37.1414H58.7081L58.4849 37.8648C58.4849 37.8648 57.0206 37.8507 56.7881 37.893C55.7561 38.0677 55.1563 38.6072 55.1563 38.6072L55.6026 37.1414ZM57.9364 41.7678C57.9131 41.8576 57.8713 41.9124 57.8155 41.9534C57.755 41.9929 57.6528 42.007 57.4994 42.007H57.0623L57.0902 41.2755H55.2679L55.1935 44.8515C55.1889 45.1098 55.2167 45.2589 55.4073 45.3784C55.5979 45.5279 56.193 45.5468 56.9926 45.5468H58.1362L58.5453 44.2083L57.5505 44.2617L57.2204 44.2806C57.1786 44.2617 57.1321 44.2447 57.0856 44.1975C57.0438 44.1566 56.974 44.1818 56.9833 43.9235L56.9926 43.0068L58.034 42.9646C58.5965 42.9646 58.8383 42.7854 59.0428 42.6141C59.2381 42.4502 59.3031 42.2618 59.3775 42.007L59.5542 41.1954H58.1223L57.9364 41.7678Z" fill="#FEFEFE"/>
</svg>
