<svg width="103" height="68" viewBox="0 0 103 68" fill="none" xmlns="http://www.w3.org/2000/svg">
<path fill-rule="evenodd" clip-rule="evenodd" d="M30.7986 46.4378H24.3209L19.4638 28.2744C19.2332 27.4389 18.7437 26.7002 18.0235 26.3521C16.2263 25.4772 14.2463 24.781 12.086 24.4298V23.7305H22.5209C23.9611 23.7305 25.041 24.781 25.2209 26.0009L27.7411 39.1029L34.2156 23.7305H40.5129L30.7986 46.4378ZM44.1135 46.4378H37.996L43.0335 23.7305H49.151L44.1135 46.4378ZM57.0652 30.0211C57.2456 28.7981 58.3255 28.0988 59.5858 28.0988C61.5658 27.9233 63.7229 28.2744 65.5234 29.1463L66.6033 24.2572C64.8033 23.5579 62.8229 23.2068 61.0261 23.2068C55.0885 23.2068 50.7679 26.3521 50.7679 30.7174C50.7679 34.0383 53.8282 35.782 55.9885 36.8325C58.3255 37.8799 59.2256 38.5792 59.0457 39.6267C59.0457 41.1978 57.2456 41.8971 55.4484 41.8971C53.288 41.8971 51.1282 41.3734 49.151 40.4985L48.0706 45.3904C50.2309 46.2622 52.5679 46.6134 54.7282 46.6134C61.3859 46.7859 65.5234 43.6436 65.5234 38.9274C65.5234 32.9879 57.0652 32.6397 57.0652 30.0211ZM86.9328 46.4378L82.0757 23.7305H76.8583C75.7779 23.7305 74.6979 24.4298 74.3377 25.4772L65.343 46.4378H71.6408L72.8974 43.1199H80.6355L81.3556 46.4378H86.9328ZM77.7583 29.8456L79.5551 38.4036H74.5176L77.7583 29.8456Z" fill="#172B85"/>
</svg>
